<?xml version="1.0" encoding="UTF-8" standalone="no"?>
<!DOCTYPE svg PUBLIC "-//W3C//DTD SVG 1.1//EN" "http://www.w3.org/Graphics/SVG/1.1/DTD/svg11.dtd">
<svg xmlns="http://www.w3.org/2000/svg" version="1.1" viewBox="0.00 0.00 1024.00 1024.00">
<path fill="#020707" d="
  M 256.58 712.48
  L 256.58 782.42
  A 0.61 0.61 0.0 0 0 257.19 783.03
  L 274.83 783.03
  A 2.17 2.05 55.6 0 1 275.70 783.22
  Q 281.03 785.74 281.25 791.00
  Q 281.57 798.41 274.18 800.62
  A 2.36 2.29 36.4 0 1 273.44 800.72
  Q 267.24 800.69 150.75 800.69
  Q 147.15 800.69 144.76 798.41
  C 140.59 794.44 141.04 788.49 145.12 784.62
  Q 145.76 784.01 148.56 783.06
  A 1.26 1.22 -53.9 0 1 148.97 782.99
  L 165.86 782.99
  A 0.58 0.58 0.0 0 0 166.44 782.41
  L 166.44 712.53
  A 0.58 0.58 0.0 0 0 165.86 711.95
  Q 147.06 711.98 133.75 711.96
  Q 130.94 711.96 126.70 710.93
  C 111.36 707.17 100.18 696.58 94.75 681.71
  Q 93.84 679.24 92.78 672.82
  C 92.36 670.32 92.03 667.61 92.03 665.34
  Q 92.05 277.53 91.98 274.27
  Q 91.67 259.30 93.52 252.89
  Q 98.10 237.07 113.23 228.99
  Q 121.66 224.49 131.75 224.48
  Q 210.27 224.37 268.50 224.41
  C 271.09 224.42 275.01 223.85 278.11 223.22
  Q 325.52 213.53 375.09 208.41
  Q 379.61 207.94 381.44 207.94
  C 384.80 207.93 387.09 207.11 389.87 207.12
  Q 394.28 207.13 399.71 206.51
  C 405.32 205.88 410.01 206.26 414.96 205.50
  Q 418.21 205.01 421.02 205.02
  C 429.86 205.05 438.49 204.32 447.33 204.03
  Q 487.27 202.74 533.69 203.07
  Q 547.42 203.17 554.31 203.41
  C 569.93 203.95 576.58 203.77 588.83 204.54
  Q 596.45 205.02 602.74 205.06
  C 607.55 205.09 612.87 206.08 617.81 206.03
  Q 621.23 206.00 624.16 206.60
  C 628.32 207.44 633.55 206.81 637.94 207.65
  C 640.98 208.23 643.92 207.98 647.82 208.47
  Q 655.93 209.49 662.50 210.10
  C 664.19 210.26 665.89 210.74 667.52 210.90
  Q 673.25 211.48 680.49 212.52
  Q 711.84 217.00 743.59 223.29
  Q 747.09 223.98 748.46 224.01
  C 750.75 224.07 752.91 224.44 755.04 224.44
  Q 854.46 224.34 891.22 224.53
  Q 907.13 224.61 919.10 235.22
  Q 927.30 242.49 930.42 253.11
  Q 931.96 258.38 931.96 271.65
  Q 931.91 526.87 931.96 657.95
  Q 931.97 671.65 930.40 677.82
  C 926.26 694.15 914.07 705.89 897.88 710.61
  Q 892.76 712.10 883.54 712.03
  Q 869.44 711.92 857.05 711.99
  A 0.52 0.51 90.0 0 0 856.54 712.51
  L 856.54 782.34
  A 0.65 0.64 90.0 0 0 857.18 782.99
  L 875.31 782.99
  A 0.58 0.55 -32.6 0 1 875.52 783.03
  Q 882.62 785.81 882.03 792.00
  Q 881.20 800.67 872.51 800.67
  Q 772.52 800.71 749.92 800.69
  A 3.33 3.06 -34.4 0 1 749.01 800.56
  Q 743.89 799.07 742.57 794.30
  C 741.15 789.12 744.02 784.95 748.79 783.16
  A 1.97 1.84 32.9 0 1 749.46 783.04
  L 766.68 783.04
  A 0.39 0.38 -90.0 0 0 767.06 782.65
  L 767.06 712.35
  A 0.39 0.38 0.0 0 0 766.67 711.97
  L 257.10 711.97
  A 0.52 0.51 0.0 0 0 256.58 712.48
  Z"
/>
<path fill="#1a464f" d="
  M 767.26 711.12
  L 257.43 711.12
  A 2.19 2.19 0.0 0 0 255.24 713.31
  L 255.24 783.46
  A 0.63 0.62 -0.0 0 0 255.87 784.08
  L 274.05 784.08
  A 3.86 3.83 -23.6 0 1 276.65 785.09
  Q 283.20 791.08 277.65 797.60
  Q 275.80 799.78 272.50 799.56
  C 262.48 798.92 251.57 799.30 242.79 799.30
  Q 185.45 799.29 154.25 799.30
  C 152.98 799.30 151.22 799.67 149.96 799.48
  Q 142.72 798.40 143.56 790.26
  Q 144.05 785.46 147.99 784.38
  A 1.86 1.60 -49.4 0 1 148.25 784.34
  L 164.57 783.90
  A 1.99 1.98 -57.2 0 0 165.30 783.74
  Q 166.11 783.39 167.26 783.31
  A 0.72 0.72 0.0 0 0 167.93 782.59
  L 167.93 712.99
  A 1.19 1.19 0.0 0 0 167.14 711.87
  L 165.33 711.23
  A 2.00 1.92 -34.8 0 0 164.71 711.13
  Q 142.60 711.43 134.42 710.87
  C 113.83 709.44 98.11 694.97 94.28 674.79
  Q 93.55 670.94 93.35 662.96
  C 93.14 654.72 92.55 648.70 92.76 640.92
  Q 92.98 632.90 92.77 630.74
  C 92.43 627.29 93.04 623.35 93.06 618.75
  Q 93.29 569.39 93.09 547.10
  Q 93.06 544.31 92.98 543.92
  C 92.65 542.35 93.13 540.92 93.14 539.02
  Q 93.19 519.94 93.11 490.42
  C 93.09 484.30 93.46 478.83 93.20 472.75
  Q 93.19 472.46 93.17 433.45
  Q 93.12 303.08 93.22 286.75
  Q 93.30 272.26 93.44 263.51
  C 93.72 246.05 104.05 232.24 120.80 227.27
  Q 125.41 225.90 137.32 225.91
  Q 227.88 226.00 261.25 225.87
  C 268.86 225.84 276.51 224.78 284.87 223.24
  C 305.19 219.48 320.55 216.43 338.30 214.38
  C 353.12 212.66 367.01 210.29 381.51 209.08
  Q 381.66 209.07 401.01 207.78
  C 417.34 206.70 430.86 206.34 443.18 205.61
  Q 458.32 204.71 470.84 204.90
  C 483.07 205.08 494.68 204.11 507.72 204.24
  Q 562.94 204.77 581.75 205.58
  Q 605.86 206.61 623.50 207.77
  Q 642.77 209.04 662.77 211.51
  Q 701.74 216.31 739.53 223.92
  Q 743.19 224.65 746.77 225.00
  C 749.77 225.30 753.00 225.93 756.43 225.93
  Q 814.18 226.00 892.95 225.93
  Q 904.92 225.92 915.75 234.07
  Q 927.95 243.25 930.09 258.66
  Q 930.82 263.89 930.82 275.27
  Q 930.96 568.97 930.77 585.72
  Q 930.72 590.60 930.73 591.31
  Q 930.99 610.16 930.53 628.02
  C 930.24 639.48 930.62 647.41 930.68 661.91
  Q 930.72 671.39 929.21 676.92
  Q 927.20 684.34 923.25 690.79
  Q 919.25 697.32 913.17 701.70
  Q 907.13 706.05 900.00 708.73
  C 896.29 710.13 889.84 710.99 885.25 710.88
  Q 880.34 710.77 856.38 711.26
  A 1.15 1.15 0.0 0 0 855.25 712.41
  L 855.25 782.53
  A 1.21 1.20 2.6 0 0 856.35 783.73
  Q 865.02 784.52 869.97 784.24
  Q 875.35 783.93 877.06 784.96
  C 880.78 787.21 881.95 792.11 879.64 795.90
  C 876.75 800.63 872.86 799.51 868.12 799.45
  Q 851.73 799.21 767.82 799.35
  Q 758.19 799.36 756.47 799.44
  Q 749.02 799.80 747.26 798.66
  Q 743.27 796.08 743.90 790.47
  Q 744.25 787.33 746.91 785.42
  Q 748.55 784.23 752.70 784.25
  Q 763.30 784.29 765.55 784.05
  Q 767.73 783.82 768.27 781.96
  A 1.58 1.38 -41.3 0 0 768.32 781.58
  Q 768.62 744.98 768.60 716.75
  Q 768.60 712.95 768.01 711.60
  A 0.83 0.82 -12.3 0 0 767.26 711.12
  Z"
/>
<g stroke-width="0.70" fill="none" stroke-linecap="butt">
<path stroke="#271e0f" vector-effect="non-scaling-stroke" d="
  M 914.83 589.91
  Q 897.63 593.93 890.12 594.08
  C 883.05 594.22 877.03 592.64 869.12 590.57
  Q 861.57 588.59 854.64 590.20
  Q 852.72 590.65 851.26 590.89
  Q 837.57 593.16 824.11 590.45
  Q 814.06 588.42 804.06 584.70"
/>
<path stroke="#728181" vector-effect="non-scaling-stroke" d="
  M 804.06 584.70
  Q 811.33 585.60 822.37 588.63
  Q 830.57 590.88 843.29 590.56
  C 846.97 590.46 849.98 589.72 855.08 588.86
  Q 859.40 588.13 861.32 588.23
  C 867.77 588.56 872.64 590.00 880.77 592.03
  Q 887.13 593.62 898.33 591.89
  Q 905.73 590.75 913.77 588.79
  A 0.82 0.82 0.0 0 0 914.38 588.17
  Q 914.74 586.65 914.73 585.00
  Q 914.63 523.23 914.76 270.50
  Q 914.76 263.45 914.01 260.11
  C 911.40 248.50 901.92 242.19 890.02 242.18
  Q 765.16 242.17 750.25 242.20
  Q 745.33 242.21 743.49 241.81
  Q 683.88 228.93 623.25 224.42
  C 610.86 223.50 586.99 222.15 568.21 221.86
  Q 554.96 221.65 538.25 221.14
  Q 535.31 221.05 503.24 221.04
  C 483.46 221.04 467.08 221.76 444.76 222.19
  Q 432.95 222.42 404.76 224.13
  Q 368.13 226.34 330.98 232.23
  C 315.50 234.68 299.61 237.23 283.76 240.60
  Q 276.23 242.21 267.50 242.20
  Q 173.11 242.15 132.50 242.21
  Q 120.63 242.23 113.69 251.62
  C 110.74 255.61 110.06 259.95 110.06 265.00
  Q 110.05 309.30 110.06 588.50
  Q 110.06 592.02 110.12 593.41
  A 0.32 0.31 76.8 0 0 110.56 593.69
  Q 115.96 591.34 119.98 589.78
  C 128.25 586.56 138.33 587.63 147.74 588.30
  C 154.55 588.79 161.30 591.45 167.86 593.43
  C 171.91 594.65 175.96 595.25 179.80 594.61
  Q 193.58 592.30 203.42 592.76
  Q 206.82 592.92 208.55 593.31
  C 213.31 594.40 217.32 595.07 222.50 594.91
  Q 230.67 594.66 239.99 593.10
  Q 242.54 592.67 249.02 590.59
  C 258.82 587.44 266.72 588.13 276.26 588.90
  Q 277.91 589.03 288.62 588.17
  Q 294.63 587.69 304.31 588.66
  C 309.82 589.20 314.60 591.39 319.79 592.49
  C 328.50 594.31 335.71 593.10 343.95 593.20"
/>
<path stroke="#7a6835" vector-effect="non-scaling-stroke" d="
  M 343.95 593.20
  C 355.99 594.00 366.91 594.35 377.27 588.21
  C 379.85 586.68 382.42 585.95 384.76 585.91
  C 391.70 585.79 399.30 585.66 406.38 587.56
  Q 421.17 591.53 431.89 596.74
  C 435.20 598.34 437.86 598.90 441.01 598.55
  C 448.69 597.72 456.37 594.97 464.18 591.92
  A 4.81 4.78 -53.0 0 1 466.35 591.61
  C 482.11 593.04 495.68 591.34 513.17 588.83
  C 517.46 588.21 522.80 586.27 526.52 586.70
  Q 536.51 587.84 546.24 586.89
  A 1.04 1.03 -1.6 0 0 547.17 585.91
  L 547.82 572.02
  A 0.41 0.41 0.0 0 1 548.23 571.63
  L 577.82 571.63
  A 1.12 1.11 -0.0 0 0 578.94 570.52
  L 578.94 550.91
  A 0.81 0.81 0.0 0 1 579.75 550.10
  L 603.19 550.10
  A 0.67 0.67 0.0 0 1 603.86 550.77
  L 603.86 571.13
  A 0.50 0.49 0.0 0 0 604.36 571.62
  L 640.54 571.62
  A 1.36 1.36 0.0 0 1 641.90 573.05
  L 641.00 592.32
  A 0.98 0.98 0.0 0 0 641.98 593.35
  Q 650.15 593.34 659.28 592.36
  Q 665.02 591.74 679.31 587.35"
/>
<path stroke="#728181" vector-effect="non-scaling-stroke" d="
  M 679.31 587.35
  Q 695.98 584.25 712.42 588.32
  A 14.83 14.83 0.0 0 1 716.76 590.18
  C 720.58 592.61 722.93 594.95 727.75 595.09
  Q 732.41 595.22 742.00 594.37
  Q 750.43 593.63 760.05 592.27
  Q 775.37 590.08 789.57 585.69
  Q 791.67 585.04 793.65 584.69"
/>
<path stroke="#271e0f" vector-effect="non-scaling-stroke" d="
  M 793.65 584.69
  Q 794.49 584.50 794.66 585.04
  A 0.41 0.40 74.1 0 1 794.39 585.54
  Q 782.40 589.25 770.87 591.82
  Q 768.46 592.36 765.37 592.63
  C 760.83 593.04 755.84 594.21 751.59 594.65
  Q 743.89 595.45 736.50 596.19
  Q 730.24 596.83 725.14 596.36
  A 5.79 5.78 -26.1 0 1 722.59 595.49
  L 715.19 590.74
  A 1.36 1.16 68.0 0 0 714.94 590.61
  C 710.83 589.01 706.64 588.48 702.32 587.84
  Q 696.06 586.91 695.49 586.93
  Q 684.61 587.20 677.89 589.20
  Q 658.59 594.95 643.00 594.76
  Q 640.46 594.73 640.07 592.62
  A 1.02 0.56 55.3 0 1 640.05 592.43
  L 640.26 573.75
  A 0.74 0.73 90.0 0 0 639.53 573.01
  L 604.33 573.01
  A 2.10 2.10 0.0 0 1 602.23 570.91
  L 602.23 552.55
  A 1.19 1.18 -0.0 0 0 601.04 551.37
  L 581.04 551.37
  A 1.12 1.12 0.0 0 0 579.92 552.49
  Q 579.94 563.84 580.13 569.50
  C 580.21 571.74 579.53 572.92 577.21 572.93
  Q 557.55 572.97 549.63 573.03
  A 0.59 0.59 0.0 0 0 549.05 573.59
  Q 549.00 574.62 548.77 583.24
  C 548.63 588.54 545.78 588.38 541.01 588.62
  Q 533.68 588.99 526.72 587.85
  A 8.17 8.02 -46.4 0 0 523.51 587.96
  Q 495.16 594.62 466.62 592.75
  A 3.98 3.60 39.8 0 0 465.89 592.78
  Q 464.28 593.04 462.72 593.71
  Q 454.65 597.15 446.06 599.07
  C 439.91 600.45 436.39 600.58 430.81 597.78
  Q 418.81 591.78 403.16 588.16
  Q 397.36 586.82 390.50 586.71
  Q 383.73 586.61 381.22 587.79
  Q 376.90 589.83 373.48 591.41
  Q 365.84 594.95 355.19 594.91
  C 347.83 594.89 340.47 594.51 332.32 594.93
  Q 328.58 595.12 323.43 594.58
  C 319.67 594.19 316.84 593.04 312.22 591.61
  C 304.09 589.09 294.52 589.03 286.00 589.70
  Q 277.89 590.34 274.52 590.14
  C 265.44 589.58 257.54 589.09 249.82 591.62
  Q 243.06 593.84 240.11 594.32
  Q 232.90 595.48 226.49 596.08
  Q 219.48 596.75 215.73 596.01
  Q 215.04 595.88 204.66 593.72
  A 7.46 7.44 49.8 0 0 202.78 593.56
  Q 190.16 594.00 178.69 596.05
  Q 174.37 596.82 170.72 595.61
  Q 157.60 591.25 148.52 589.78
  Q 142.53 588.81 130.49 588.92
  C 126.78 588.95 122.41 590.08 118.71 591.57
  Q 114.57 593.24 109.99 595.09"
/>
<path stroke="#979889" vector-effect="non-scaling-stroke" d="
  M 804.06 584.70
  Q 799.92 583.20 793.65 584.69"
/>
<path stroke="#e9e2af" vector-effect="non-scaling-stroke" d="
  M 679.31 587.35
  Q 678.68 586.82 679.27 585.97"
/>
<path stroke="#c5e6ec" vector-effect="non-scaling-stroke" d="
  M 679.27 585.97
  C 685.82 584.76 694.13 583.66 700.68 585.01
  C 704.66 585.83 708.30 585.75 712.21 587.04
  Q 716.36 588.41 717.07 588.90
  Q 723.31 593.24 725.23 593.59
  Q 729.51 594.39 737.97 593.52
  C 751.29 592.16 764.39 590.85 771.52 589.03
  Q 781.64 586.45 791.92 583.70
  C 801.66 581.11 809.90 584.11 820.85 586.93
  Q 824.11 587.77 825.24 587.87
  Q 828.61 588.19 829.70 588.52
  C 833.72 589.75 840.39 589.18 843.52 589.27
  C 848.50 589.40 855.80 586.86 859.74 586.76
  Q 865.56 586.62 875.04 589.49
  A 12.72 12.41 57.0 0 0 876.95 589.92
  Q 879.50 590.28 881.74 590.97
  A 4.19 4.03 52.4 0 0 882.94 591.15
  C 888.30 591.18 893.19 591.53 898.72 590.57
  Q 906.54 589.21 912.18 587.83
  A 1.50 1.49 83.1 0 0 913.31 586.38
  Q 913.15 461.70 913.13 444.00
  Q 913.08 364.53 913.15 275.72
  Q 913.16 264.90 913.15 264.54
  C 913.05 260.26 911.97 256.25 909.60 253.14
  C 906.31 248.82 902.29 245.15 896.70 244.17
  C 890.38 243.07 881.81 243.91 875.21 243.91
  C 808.31 243.93 770.07 244.28 749.83 243.72
  Q 746.13 243.62 739.28 242.19
  Q 690.60 231.99 640.56 227.22
  Q 639.70 227.14 633.27 226.55
  Q 619.32 225.26 604.26 224.56
  Q 601.19 224.42 598.24 224.30
  Q 571.87 223.24 561.06 222.97
  Q 559.23 222.92 557.39 222.94
  Q 493.41 223.58 468.59 222.97
  Q 466.25 222.91 465.33 222.94
  C 453.61 223.26 446.49 223.80 435.11 223.92
  Q 428.25 224.00 422.23 224.89
  C 419.01 225.37 414.25 224.79 410.26 225.11
  Q 400.93 225.86 395.48 226.10
  C 393.92 226.16 391.79 226.84 390.51 226.82
  Q 384.16 226.72 370.49 228.22
  Q 346.35 230.87 326.00 234.20
  Q 309.48 236.89 293.73 239.67
  C 290.71 240.20 287.07 241.27 283.36 241.86
  Q 283.26 241.87 277.47 243.15
  Q 274.18 243.88 271.50 243.88
  C 219.61 243.92 174.75 244.26 133.38 243.63
  C 125.15 243.51 119.73 245.69 114.86 252.04
  C 110.96 257.12 111.09 264.83 111.06 272.01
  Q 110.92 303.07 111.30 328.00
  C 111.42 335.73 110.96 345.33 111.01 353.03
  Q 111.23 380.73 111.14 421.75
  Q 110.97 503.78 111.06 507.93
  C 111.40 525.53 111.11 541.38 111.28 560.36
  Q 111.35 569.12 111.25 589.96
  A 1.21 1.21 0.0 0 0 112.78 591.14
  C 116.37 590.19 119.97 588.07 123.55 587.27
  Q 133.09 585.16 138.67 585.98
  Q 144.01 586.76 145.31 586.73
  C 148.04 586.67 150.88 587.54 152.85 587.79
  Q 154.63 588.01 158.35 589.21
  Q 164.98 591.36 169.39 592.54
  Q 172.24 593.31 174.91 593.34
  Q 179.92 593.40 180.50 593.26
  Q 192.71 590.46 205.00 591.24
  Q 206.48 591.33 210.82 592.42
  C 219.93 594.70 229.11 593.47 238.65 592.02
  Q 243.63 591.26 247.61 589.78
  Q 253.65 587.53 256.53 587.32
  C 266.90 586.56 276.66 587.27 288.18 586.89
  Q 297.93 586.58 304.95 587.36
  Q 308.83 587.80 314.00 589.69
  Q 320.97 592.25 329.24 592.06
  Q 336.06 591.90 342.75 591.80"
/>
<path stroke="#e9e2af" vector-effect="non-scaling-stroke" d="
  M 342.75 591.80
  Q 343.44 591.67 343.85 592.14
  Q 344.28 592.63 343.95 593.20"
/>
<path stroke="#cdcea0" vector-effect="non-scaling-stroke" d="
  M 679.27 585.97
  Q 674.89 578.35 670.34 570.83
  Q 659.47 552.88 644.95 537.61
  Q 623.64 515.21 590.23 499.82
  Q 571.40 491.15 550.98 487.11
  C 545.57 486.04 538.06 484.47 531.18 484.02
  C 522.77 483.47 513.43 482.37 505.19 483.24
  Q 504.62 483.30 495.02 484.12
  Q 471.38 486.14 449.85 494.05
  C 439.89 497.71 428.73 503.36 419.29 508.80
  Q 407.84 515.38 395.68 525.67
  Q 372.52 545.25 357.02 568.99
  Q 351.78 577.01 346.51 585.11
  C 345.24 587.06 344.17 589.59 342.75 591.80"
/>
</g>
<path fill="#a8d2dc" d="
  M 679.27 585.97
  Q 674.89 578.35 670.34 570.83
  Q 659.47 552.88 644.95 537.61
  Q 623.64 515.21 590.23 499.82
  Q 571.40 491.15 550.98 487.11
  C 545.57 486.04 538.06 484.47 531.18 484.02
  C 522.77 483.47 513.43 482.37 505.19 483.24
  Q 504.62 483.30 495.02 484.12
  Q 471.38 486.14 449.85 494.05
  C 439.89 497.71 428.73 503.36 419.29 508.80
  Q 407.84 515.38 395.68 525.67
  Q 372.52 545.25 357.02 568.99
  Q 351.78 577.01 346.51 585.11
  C 345.24 587.06 344.17 589.59 342.75 591.80
  Q 336.06 591.90 329.24 592.06
  Q 320.97 592.25 314.00 589.69
  Q 308.83 587.80 304.95 587.36
  Q 297.93 586.58 288.18 586.89
  C 276.66 587.27 266.90 586.56 256.53 587.32
  Q 253.65 587.53 247.61 589.78
  Q 243.63 591.26 238.65 592.02
  C 229.11 593.47 219.93 594.70 210.82 592.42
  Q 206.48 591.33 205.00 591.24
  Q 192.71 590.46 180.50 593.26
  Q 179.92 593.40 174.91 593.34
  Q 172.24 593.31 169.39 592.54
  Q 164.98 591.36 158.35 589.21
  Q 154.63 588.01 152.85 587.79
  C 150.88 587.54 148.04 586.67 145.31 586.73
  Q 144.01 586.76 138.67 585.98
  Q 133.09 585.16 123.55 587.27
  C 119.97 588.07 116.37 590.19 112.78 591.14
  A 1.21 1.21 0.0 0 1 111.25 589.96
  Q 111.35 569.12 111.28 560.36
  C 111.11 541.38 111.40 525.53 111.06 507.93
  Q 110.97 503.78 111.14 421.75
  Q 111.23 380.73 111.01 353.03
  C 110.96 345.33 111.42 335.73 111.30 328.00
  Q 110.92 303.07 111.06 272.01
  C 111.09 264.83 110.96 257.12 114.86 252.04
  C 119.73 245.69 125.15 243.51 133.38 243.63
  C 174.75 244.26 219.61 243.92 271.50 243.88
  Q 274.18 243.88 277.47 243.15
  Q 283.26 241.87 283.36 241.86
  C 287.07 241.27 290.71 240.20 293.73 239.67
  Q 309.48 236.89 326.00 234.20
  Q 346.35 230.87 370.49 228.22
  Q 384.16 226.72 390.51 226.82
  C 391.79 226.84 393.92 226.16 395.48 226.10
  Q 400.93 225.86 410.26 225.11
  C 414.25 224.79 419.01 225.37 422.23 224.89
  Q 428.25 224.00 435.11 223.92
  C 446.49 223.80 453.61 223.26 465.33 222.94
  Q 466.25 222.91 468.59 222.97
  Q 493.41 223.58 557.39 222.94
  Q 559.23 222.92 561.06 222.97
  Q 571.87 223.24 598.24 224.30
  Q 601.19 224.42 604.26 224.56
  Q 619.32 225.26 633.27 226.55
  Q 639.70 227.14 640.56 227.22
  Q 690.60 231.99 739.28 242.19
  Q 746.13 243.62 749.83 243.72
  C 770.07 244.28 808.31 243.93 875.21 243.91
  C 881.81 243.91 890.38 243.07 896.70 244.17
  C 902.29 245.15 906.31 248.82 909.60 253.14
  C 911.97 256.25 913.05 260.26 913.15 264.54
  Q 913.16 264.90 913.15 275.72
  Q 913.08 364.53 913.13 444.00
  Q 913.15 461.70 913.31 586.38
  A 1.50 1.49 83.1 0 1 912.18 587.83
  Q 906.54 589.21 898.72 590.57
  C 893.19 591.53 888.30 591.18 882.94 591.15
  A 4.19 4.03 52.4 0 1 881.74 590.97
  Q 879.50 590.28 876.95 589.92
  A 12.72 12.41 57.0 0 1 875.04 589.49
  Q 865.56 586.62 859.74 586.76
  C 855.80 586.86 848.50 589.40 843.52 589.27
  C 840.39 589.18 833.72 589.75 829.70 588.52
  Q 828.61 588.19 825.24 587.87
  Q 824.11 587.77 820.85 586.93
  C 809.90 584.11 801.66 581.11 791.92 583.70
  Q 781.64 586.45 771.52 589.03
  C 764.39 590.85 751.29 592.16 737.97 593.52
  Q 729.51 594.39 725.23 593.59
  Q 723.31 593.24 717.07 588.90
  Q 716.36 588.41 712.21 587.04
  C 708.30 585.75 704.66 585.83 700.68 585.01
  C 694.13 583.66 685.82 584.76 679.27 585.97
  Z"
/>
<path fill="#4c3517" d="
  M 793.65 584.69
  Q 799.92 583.20 804.06 584.70
  Q 814.06 588.42 824.11 590.45
  Q 837.57 593.16 851.26 590.89
  Q 852.72 590.65 854.64 590.20
  Q 861.57 588.59 869.12 590.57
  C 877.03 592.64 883.05 594.22 890.12 594.08
  Q 897.63 593.93 914.83 589.91
  Q 914.88 624.88 914.99 659.75
  Q 915.01 666.71 914.25 670.51
  C 912.35 680.06 905.77 689.01 896.30 692.07
  Q 893.37 693.01 886.09 693.12
  Q 885.67 693.12 859.50 693.15
  Q 812.46 693.21 140.34 693.12
  Q 131.58 693.12 128.81 692.33
  C 119.49 689.68 113.00 682.01 111.10 672.55
  Q 109.85 666.32 109.90 659.25
  Q 110.16 627.01 109.99 595.09
  Q 114.57 593.24 118.71 591.57
  C 122.41 590.08 126.78 588.95 130.49 588.92
  Q 142.53 588.81 148.52 589.78
  Q 157.60 591.25 170.72 595.61
  Q 174.37 596.82 178.69 596.05
  Q 190.16 594.00 202.78 593.56
  A 7.46 7.44 49.8 0 1 204.66 593.72
  Q 215.04 595.88 215.73 596.01
  Q 219.48 596.75 226.49 596.08
  Q 232.90 595.48 240.11 594.32
  Q 243.06 593.84 249.82 591.62
  C 257.54 589.09 265.44 589.58 274.52 590.14
  Q 277.89 590.34 286.00 589.70
  C 294.52 589.03 304.09 589.09 312.22 591.61
  C 316.84 593.04 319.67 594.19 323.43 594.58
  Q 328.58 595.12 332.32 594.93
  C 340.47 594.51 347.83 594.89 355.19 594.91
  Q 365.84 594.95 373.48 591.41
  Q 376.90 589.83 381.22 587.79
  Q 383.73 586.61 390.50 586.71
  Q 397.36 586.82 403.16 588.16
  Q 418.81 591.78 430.81 597.78
  C 436.39 600.58 439.91 600.45 446.06 599.07
  Q 454.65 597.15 462.72 593.71
  Q 464.28 593.04 465.89 592.78
  A 3.98 3.60 39.8 0 1 466.62 592.75
  Q 495.16 594.62 523.51 587.96
  A 8.17 8.02 -46.4 0 1 526.72 587.85
  Q 533.68 588.99 541.01 588.62
  C 545.78 588.38 548.63 588.54 548.77 583.24
  Q 549.00 574.62 549.05 573.59
  A 0.59 0.59 0.0 0 1 549.63 573.03
  Q 557.55 572.97 577.21 572.93
  C 579.53 572.92 580.21 571.74 580.13 569.50
  Q 579.94 563.84 579.92 552.49
  A 1.12 1.12 0.0 0 1 581.04 551.37
  L 601.04 551.37
  A 1.19 1.18 -0.0 0 1 602.23 552.55
  L 602.23 570.91
  A 2.10 2.10 0.0 0 0 604.33 573.01
  L 639.53 573.01
  A 0.74 0.73 -90.0 0 1 640.26 573.75
  L 640.05 592.43
  A 1.02 0.56 55.3 0 0 640.07 592.62
  Q 640.46 594.73 643.00 594.76
  Q 658.59 594.95 677.89 589.20
  Q 684.61 587.20 695.49 586.93
  Q 696.06 586.91 702.32 587.84
  C 706.64 588.48 710.83 589.01 714.94 590.61
  A 1.36 1.16 68.0 0 1 715.19 590.74
  L 722.59 595.49
  A 5.79 5.78 -26.1 0 0 725.14 596.36
  Q 730.24 596.83 736.50 596.19
  Q 743.89 595.45 751.59 594.65
  C 755.84 594.21 760.83 593.04 765.37 592.63
  Q 768.46 592.36 770.87 591.82
  Q 782.40 589.25 794.39 585.54
  A 0.41 0.40 74.1 0 0 794.66 585.04
  Q 794.49 584.50 793.65 584.69
  Z"
/>
<path fill="#f1c963" d="
  M 679.27 585.97
  Q 678.68 586.82 679.31 587.35
  Q 665.02 591.74 659.28 592.36
  Q 650.15 593.34 641.98 593.35
  A 0.98 0.98 0.0 0 1 641.00 592.32
  L 641.90 573.05
  A 1.36 1.36 0.0 0 0 640.54 571.62
  L 604.36 571.62
  A 0.50 0.49 0.0 0 1 603.86 571.13
  L 603.86 550.77
  A 0.67 0.67 0.0 0 0 603.19 550.10
  L 579.75 550.10
  A 0.81 0.81 0.0 0 0 578.94 550.91
  L 578.94 570.52
  A 1.12 1.11 -0.0 0 1 577.82 571.63
  L 548.23 571.63
  A 0.41 0.41 0.0 0 0 547.82 572.02
  L 547.17 585.91
  A 1.04 1.03 -1.6 0 1 546.24 586.89
  Q 536.51 587.84 526.52 586.70
  C 522.80 586.27 517.46 588.21 513.17 588.83
  C 495.68 591.34 482.11 593.04 466.35 591.61
  A 4.81 4.78 -53.0 0 0 464.18 591.92
  C 456.37 594.97 448.69 597.72 441.01 598.55
  C 437.86 598.90 435.20 598.34 431.89 596.74
  Q 421.17 591.53 406.38 587.56
  C 399.30 585.66 391.70 585.79 384.76 585.91
  C 382.42 585.95 379.85 586.68 377.27 588.21
  C 366.91 594.35 355.99 594.00 343.95 593.20
  Q 344.28 592.63 343.85 592.14
  Q 343.44 591.67 342.75 591.80
  C 344.17 589.59 345.24 587.06 346.51 585.11
  Q 351.78 577.01 357.02 568.99
  Q 372.52 545.25 395.68 525.67
  Q 407.84 515.38 419.29 508.80
  C 428.73 503.36 439.89 497.71 449.85 494.05
  Q 471.38 486.14 495.02 484.12
  Q 504.62 483.30 505.19 483.24
  C 513.43 482.37 522.77 483.47 531.18 484.02
  C 538.06 484.47 545.57 486.04 550.98 487.11
  Q 571.40 491.15 590.23 499.82
  Q 623.64 515.21 644.95 537.61
  Q 659.47 552.88 670.34 570.83
  Q 674.89 578.35 679.27 585.97
  Z"
/>
<path fill="#020707" d="
  M 914.83 589.91
  Q 897.63 593.93 890.12 594.08
  C 883.05 594.22 877.03 592.64 869.12 590.57
  Q 861.57 588.59 854.64 590.20
  Q 852.72 590.65 851.26 590.89
  Q 837.57 593.16 824.11 590.45
  Q 814.06 588.42 804.06 584.70
  Q 811.33 585.60 822.37 588.63
  Q 830.57 590.88 843.29 590.56
  C 846.97 590.46 849.98 589.72 855.08 588.86
  Q 859.40 588.13 861.32 588.23
  C 867.77 588.56 872.64 590.00 880.77 592.03
  Q 887.13 593.62 898.33 591.89
  Q 905.73 590.75 913.77 588.79
  A 0.82 0.82 0.0 0 0 914.38 588.17
  Q 914.74 586.65 914.73 585.00
  Q 914.63 523.23 914.76 270.50
  Q 914.76 263.45 914.01 260.11
  C 911.40 248.50 901.92 242.19 890.02 242.18
  Q 765.16 242.17 750.25 242.20
  Q 745.33 242.21 743.49 241.81
  Q 683.88 228.93 623.25 224.42
  C 610.86 223.50 586.99 222.15 568.21 221.86
  Q 554.96 221.65 538.25 221.14
  Q 535.31 221.05 503.24 221.04
  C 483.46 221.04 467.08 221.76 444.76 222.19
  Q 432.95 222.42 404.76 224.13
  Q 368.13 226.34 330.98 232.23
  C 315.50 234.68 299.61 237.23 283.76 240.60
  Q 276.23 242.21 267.50 242.20
  Q 173.11 242.15 132.50 242.21
  Q 120.63 242.23 113.69 251.62
  C 110.74 255.61 110.06 259.95 110.06 265.00
  Q 110.05 309.30 110.06 588.50
  Q 110.06 592.02 110.12 593.41
  A 0.32 0.31 76.8 0 0 110.56 593.69
  Q 115.96 591.34 119.98 589.78
  C 128.25 586.56 138.33 587.63 147.74 588.30
  C 154.55 588.79 161.30 591.45 167.86 593.43
  C 171.91 594.65 175.96 595.25 179.80 594.61
  Q 193.58 592.30 203.42 592.76
  Q 206.82 592.92 208.55 593.31
  C 213.31 594.40 217.32 595.07 222.50 594.91
  Q 230.67 594.66 239.99 593.10
  Q 242.54 592.67 249.02 590.59
  C 258.82 587.44 266.72 588.13 276.26 588.90
  Q 277.91 589.03 288.62 588.17
  Q 294.63 587.69 304.31 588.66
  C 309.82 589.20 314.60 591.39 319.79 592.49
  C 328.50 594.31 335.71 593.10 343.95 593.20
  C 355.99 594.00 366.91 594.35 377.27 588.21
  C 379.85 586.68 382.42 585.95 384.76 585.91
  C 391.70 585.79 399.30 585.66 406.38 587.56
  Q 421.17 591.53 431.89 596.74
  C 435.20 598.34 437.86 598.90 441.01 598.55
  C 448.69 597.72 456.37 594.97 464.18 591.92
  A 4.81 4.78 -53.0 0 1 466.35 591.61
  C 482.11 593.04 495.68 591.34 513.17 588.83
  C 517.46 588.21 522.80 586.27 526.52 586.70
  Q 536.51 587.84 546.24 586.89
  A 1.04 1.03 -1.6 0 0 547.17 585.91
  L 547.82 572.02
  A 0.41 0.41 0.0 0 1 548.23 571.63
  L 577.82 571.63
  A 1.12 1.11 -0.0 0 0 578.94 570.52
  L 578.94 550.91
  A 0.81 0.81 0.0 0 1 579.75 550.10
  L 603.19 550.10
  A 0.67 0.67 0.0 0 1 603.86 550.77
  L 603.86 571.13
  A 0.50 0.49 0.0 0 0 604.36 571.62
  L 640.54 571.62
  A 1.36 1.36 0.0 0 1 641.90 573.05
  L 641.00 592.32
  A 0.98 0.98 0.0 0 0 641.98 593.35
  Q 650.15 593.34 659.28 592.36
  Q 665.02 591.74 679.31 587.35
  Q 695.98 584.25 712.42 588.32
  A 14.83 14.83 0.0 0 1 716.76 590.18
  C 720.58 592.61 722.93 594.95 727.75 595.09
  Q 732.41 595.22 742.00 594.37
  Q 750.43 593.63 760.05 592.27
  Q 775.37 590.08 789.57 585.69
  Q 791.67 585.04 793.65 584.69
  Q 794.49 584.50 794.66 585.04
  A 0.41 0.40 74.1 0 1 794.39 585.54
  Q 782.40 589.25 770.87 591.82
  Q 768.46 592.36 765.37 592.63
  C 760.83 593.04 755.84 594.21 751.59 594.65
  Q 743.89 595.45 736.50 596.19
  Q 730.24 596.83 725.14 596.36
  A 5.79 5.78 -26.1 0 1 722.59 595.49
  L 715.19 590.74
  A 1.36 1.16 68.0 0 0 714.94 590.61
  C 710.83 589.01 706.64 588.48 702.32 587.84
  Q 696.06 586.91 695.49 586.93
  Q 684.61 587.20 677.89 589.20
  Q 658.59 594.95 643.00 594.76
  Q 640.46 594.73 640.07 592.62
  A 1.02 0.56 55.3 0 1 640.05 592.43
  L 640.26 573.75
  A 0.74 0.73 90.0 0 0 639.53 573.01
  L 604.33 573.01
  A 2.10 2.10 0.0 0 1 602.23 570.91
  L 602.23 552.55
  A 1.19 1.18 -0.0 0 0 601.04 551.37
  L 581.04 551.37
  A 1.12 1.12 0.0 0 0 579.92 552.49
  Q 579.94 563.84 580.13 569.50
  C 580.21 571.74 579.53 572.92 577.21 572.93
  Q 557.55 572.97 549.63 573.03
  A 0.59 0.59 0.0 0 0 549.05 573.59
  Q 549.00 574.62 548.77 583.24
  C 548.63 588.54 545.78 588.38 541.01 588.62
  Q 533.68 588.99 526.72 587.85
  A 8.17 8.02 -46.4 0 0 523.51 587.96
  Q 495.16 594.62 466.62 592.75
  A 3.98 3.60 39.8 0 0 465.89 592.78
  Q 464.28 593.04 462.72 593.71
  Q 454.65 597.15 446.06 599.07
  C 439.91 600.45 436.39 600.58 430.81 597.78
  Q 418.81 591.78 403.16 588.16
  Q 397.36 586.82 390.50 586.71
  Q 383.73 586.61 381.22 587.79
  Q 376.90 589.83 373.48 591.41
  Q 365.84 594.95 355.19 594.91
  C 347.83 594.89 340.47 594.51 332.32 594.93
  Q 328.58 595.12 323.43 594.58
  C 319.67 594.19 316.84 593.04 312.22 591.61
  C 304.09 589.09 294.52 589.03 286.00 589.70
  Q 277.89 590.34 274.52 590.14
  C 265.44 589.58 257.54 589.09 249.82 591.62
  Q 243.06 593.84 240.11 594.32
  Q 232.90 595.48 226.49 596.08
  Q 219.48 596.75 215.73 596.01
  Q 215.04 595.88 204.66 593.72
  A 7.46 7.44 49.8 0 0 202.78 593.56
  Q 190.16 594.00 178.69 596.05
  Q 174.37 596.82 170.72 595.61
  Q 157.60 591.25 148.52 589.78
  Q 142.53 588.81 130.49 588.92
  C 126.78 588.95 122.41 590.08 118.71 591.57
  Q 114.57 593.24 109.99 595.09
  Q 108.34 590.65 108.50 585.45
  Q 108.63 581.66 108.63 581.54
  Q 108.35 342.94 108.63 268.27
  Q 108.65 263.58 108.78 261.97
  C 109.75 250.15 119.94 241.10 131.82 241.09
  Q 171.11 241.08 268.92 241.22
  C 275.41 241.23 281.34 239.72 292.34 237.61
  Q 335.02 229.41 370.77 225.59
  Q 373.27 225.32 381.48 224.51
  C 386.44 224.03 391.14 224.12 395.94 223.20
  A 4.98 4.89 39.8 0 1 396.93 223.12
  C 403.14 223.19 409.97 222.47 415.61 222.14
  Q 415.70 222.14 430.26 221.64
  Q 459.51 220.65 465.41 220.47
  C 490.91 219.69 511.69 220.12 538.32 219.90
  C 550.61 219.80 567.36 220.74 579.23 220.99
  Q 599.20 221.40 613.42 222.67
  C 620.62 223.31 625.49 223.08 632.48 223.92
  Q 633.20 224.00 641.75 224.72
  Q 649.61 225.38 654.71 226.12
  C 660.69 227.00 665.65 227.32 671.99 228.22
  Q 681.73 229.59 697.19 231.87
  Q 708.10 233.48 745.95 241.00
  A 5.71 5.27 -37.0 0 0 747.05 241.11
  Q 767.77 241.11 888.62 241.16
  Q 896.82 241.16 900.21 242.51
  C 907.19 245.29 913.29 251.66 915.28 259.15
  Q 916.05 262.03 916.06 269.43
  Q 916.20 417.45 916.08 583.44
  Q 916.08 588.53 914.83 589.91
  Z"
/>
<path fill="#e1fafb" d="
  M 804.06 584.70
  Q 799.92 583.20 793.65 584.69
  Q 791.67 585.04 789.57 585.69
  Q 775.37 590.08 760.05 592.27
  Q 750.43 593.63 742.00 594.37
  Q 732.41 595.22 727.75 595.09
  C 722.93 594.95 720.58 592.61 716.76 590.18
  A 14.83 14.83 0.0 0 0 712.42 588.32
  Q 695.98 584.25 679.31 587.35
  Q 678.68 586.82 679.27 585.97
  C 685.82 584.76 694.13 583.66 700.68 585.01
  C 704.66 585.83 708.30 585.75 712.21 587.04
  Q 716.36 588.41 717.07 588.90
  Q 723.31 593.24 725.23 593.59
  Q 729.51 594.39 737.97 593.52
  C 751.29 592.16 764.39 590.85 771.52 589.03
  Q 781.64 586.45 791.92 583.70
  C 801.66 581.11 809.90 584.11 820.85 586.93
  Q 824.11 587.77 825.24 587.87
  Q 828.61 588.19 829.70 588.52
  C 833.72 589.75 840.39 589.18 843.52 589.27
  C 848.50 589.40 855.80 586.86 859.74 586.76
  Q 865.56 586.62 875.04 589.49
  A 12.72 12.41 57.0 0 0 876.95 589.92
  Q 879.50 590.28 881.74 590.97
  A 4.19 4.03 52.4 0 0 882.94 591.15
  C 888.30 591.18 893.19 591.53 898.72 590.57
  Q 906.54 589.21 912.18 587.83
  A 1.50 1.49 83.1 0 0 913.31 586.38
  Q 913.15 461.70 913.13 444.00
  Q 913.08 364.53 913.15 275.72
  Q 913.16 264.90 913.15 264.54
  C 913.05 260.26 911.97 256.25 909.60 253.14
  C 906.31 248.82 902.29 245.15 896.70 244.17
  C 890.38 243.07 881.81 243.91 875.21 243.91
  C 808.31 243.93 770.07 244.28 749.83 243.72
  Q 746.13 243.62 739.28 242.19
  Q 690.60 231.99 640.56 227.22
  Q 639.70 227.14 633.27 226.55
  Q 619.32 225.26 604.26 224.56
  Q 601.19 224.42 598.24 224.30
  Q 571.87 223.24 561.06 222.97
  Q 559.23 222.92 557.39 222.94
  Q 493.41 223.58 468.59 222.97
  Q 466.25 222.91 465.33 222.94
  C 453.61 223.26 446.49 223.80 435.11 223.92
  Q 428.25 224.00 422.23 224.89
  C 419.01 225.37 414.25 224.79 410.26 225.11
  Q 400.93 225.86 395.48 226.10
  C 393.92 226.16 391.79 226.84 390.51 226.82
  Q 384.16 226.72 370.49 228.22
  Q 346.35 230.87 326.00 234.20
  Q 309.48 236.89 293.73 239.67
  C 290.71 240.20 287.07 241.27 283.36 241.86
  Q 283.26 241.87 277.47 243.15
  Q 274.18 243.88 271.50 243.88
  C 219.61 243.92 174.75 244.26 133.38 243.63
  C 125.15 243.51 119.73 245.69 114.86 252.04
  C 110.96 257.12 111.09 264.83 111.06 272.01
  Q 110.92 303.07 111.30 328.00
  C 111.42 335.73 110.96 345.33 111.01 353.03
  Q 111.23 380.73 111.14 421.75
  Q 110.97 503.78 111.06 507.93
  C 111.40 525.53 111.11 541.38 111.28 560.36
  Q 111.35 569.12 111.25 589.96
  A 1.21 1.21 0.0 0 0 112.78 591.14
  C 116.37 590.19 119.97 588.07 123.55 587.27
  Q 133.09 585.16 138.67 585.98
  Q 144.01 586.76 145.31 586.73
  C 148.04 586.67 150.88 587.54 152.85 587.79
  Q 154.63 588.01 158.35 589.21
  Q 164.98 591.36 169.39 592.54
  Q 172.24 593.31 174.91 593.34
  Q 179.92 593.40 180.50 593.26
  Q 192.71 590.46 205.00 591.24
  Q 206.48 591.33 210.82 592.42
  C 219.93 594.70 229.11 593.47 238.65 592.02
  Q 243.63 591.26 247.61 589.78
  Q 253.65 587.53 256.53 587.32
  C 266.90 586.56 276.66 587.27 288.18 586.89
  Q 297.93 586.58 304.95 587.36
  Q 308.83 587.80 314.00 589.69
  Q 320.97 592.25 329.24 592.06
  Q 336.06 591.90 342.75 591.80
  Q 343.44 591.67 343.85 592.14
  Q 344.28 592.63 343.95 593.20
  C 335.71 593.10 328.50 594.31 319.79 592.49
  C 314.60 591.39 309.82 589.20 304.31 588.66
  Q 294.63 587.69 288.62 588.17
  Q 277.91 589.03 276.26 588.90
  C 266.72 588.13 258.82 587.44 249.02 590.59
  Q 242.54 592.67 239.99 593.10
  Q 230.67 594.66 222.50 594.91
  C 217.32 595.07 213.31 594.40 208.55 593.31
  Q 206.82 592.92 203.42 592.76
  Q 193.58 592.30 179.80 594.61
  C 175.96 595.25 171.91 594.65 167.86 593.43
  C 161.30 591.45 154.55 588.79 147.74 588.30
  C 138.33 587.63 128.25 586.56 119.98 589.78
  Q 115.96 591.34 110.56 593.69
  A 0.32 0.31 76.8 0 1 110.12 593.41
  Q 110.06 592.02 110.06 588.50
  Q 110.05 309.30 110.06 265.00
  C 110.06 259.95 110.74 255.61 113.69 251.62
  Q 120.63 242.23 132.50 242.21
  Q 173.11 242.15 267.50 242.20
  Q 276.23 242.21 283.76 240.60
  C 299.61 237.23 315.50 234.68 330.98 232.23
  Q 368.13 226.34 404.76 224.13
  Q 432.95 222.42 444.76 222.19
  C 467.08 221.76 483.46 221.04 503.24 221.04
  Q 535.31 221.05 538.25 221.14
  Q 554.96 221.65 568.21 221.86
  C 586.99 222.15 610.86 223.50 623.25 224.42
  Q 683.88 228.93 743.49 241.81
  Q 745.33 242.21 750.25 242.20
  Q 765.16 242.17 890.02 242.18
  C 901.92 242.19 911.40 248.50 914.01 260.11
  Q 914.76 263.45 914.76 270.50
  Q 914.63 523.23 914.73 585.00
  Q 914.74 586.65 914.38 588.17
  A 0.82 0.82 0.0 0 1 913.77 588.79
  Q 905.73 590.75 898.33 591.89
  Q 887.13 593.62 880.77 592.03
  C 872.64 590.00 867.77 588.56 861.32 588.23
  Q 859.40 588.13 855.08 588.86
  C 849.98 589.72 846.97 590.46 843.29 590.56
  Q 830.57 590.88 822.37 588.63
  Q 811.33 585.60 804.06 584.70
  Z"
/>
<g stroke-width="0.70" fill="none" stroke-linecap="butt">
<path stroke="#728181" vector-effect="non-scaling-stroke" d="
  M 239.21 337.87
  L 213.02 337.84
  A 3.42 3.40 -73.0 0 0 210.16 339.37
  Q 198.19 357.38 181.25 384.00
  Q 180.81 384.68 179.57 385.03
  A 0.64 0.63 -7.9 0 1 178.76 384.42
  L 178.76 338.54
  A 0.69 0.69 0.0 0 0 178.07 337.85
  L 152.53 337.85
  A 0.91 0.91 0.0 0 0 151.62 338.76
  L 151.62 458.66
  A 0.67 0.66 90.0 0 0 152.28 459.33
  L 177.96 459.33
  A 0.85 0.85 0.0 0 0 178.81 458.48
  L 178.81 420.02
  A 4.59 4.58 62.0 0 1 179.59 417.46
  L 184.07 410.80
  A 1.06 1.06 0.0 0 1 185.86 410.86
  L 213.49 458.73
  A 1.17 1.17 0.0 0 0 214.50 459.31
  L 242.55 459.31
  A 0.47 0.46 74.8 0 0 242.95 458.61
  L 204.81 392.55
  A 1.43 1.42 47.2 0 1 204.86 391.05
  Q 220.22 367.92 237.45 342.68
  Q 238.88 340.58 239.09 338.32"
/>
<path stroke="#728181" vector-effect="non-scaling-stroke" d="
  M 698.92 457.96
  L 699.11 458.74
  A 0.74 0.74 0.0 0 0 699.83 459.30
  L 771.88 459.30
  A 0.46 0.46 0.0 0 0 772.34 458.84
  L 772.34 435.98
  A 0.95 0.95 0.0 0 0 771.39 435.03
  L 726.84 435.03
  A 0.65 0.65 0.0 0 1 726.19 434.38
  L 726.19 338.84
  A 0.97 0.97 0.0 0 0 725.22 337.87
  L 699.97 337.87
  A 0.80 0.79 -78.1 0 0 699.24 338.35
  Q 698.52 340.00 698.89 342.04"
/>
</g>
<g fill="#020707">
<path d="
  M 239.21 337.87
  Q 239.15 338.09 239.09 338.32
  Q 238.88 340.58 237.45 342.68
  Q 220.22 367.92 204.86 391.05
  A 1.43 1.42 47.2 0 0 204.81 392.55
  L 242.95 458.61
  A 0.47 0.46 74.8 0 1 242.55 459.31
  L 214.50 459.31
  A 1.17 1.17 0.0 0 1 213.49 458.73
  L 185.86 410.86
  A 1.06 1.06 0.0 0 0 184.07 410.80
  L 179.59 417.46
  A 4.59 4.58 62.0 0 0 178.81 420.02
  L 178.81 458.48
  A 0.85 0.85 0.0 0 1 177.96 459.33
  L 152.28 459.33
  A 0.67 0.66 -90.0 0 1 151.62 458.66
  L 151.62 338.76
  A 0.91 0.91 0.0 0 1 152.53 337.85
  L 178.07 337.85
  A 0.69 0.69 0.0 0 1 178.76 338.54
  L 178.76 384.42
  A 0.64 0.63 -7.9 0 0 179.57 385.03
  Q 180.81 384.68 181.25 384.00
  Q 198.19 357.38 210.16 339.37
  A 3.42 3.40 -73.0 0 1 213.02 337.84
  L 239.21 337.87
  Z"
/>
<path d="
  M 406.94 458.24
  A 1.03 1.03 0.0 0 1 405.91 459.27
  L 380.03 459.27
  A 1.03 1.03 0.0 0 1 379.00 458.24
  L 379.00 338.92
  A 1.03 1.03 0.0 0 1 380.03 337.89
  L 405.91 337.89
  A 1.03 1.03 0.0 0 1 406.94 338.92
  L 406.94 458.24
  Z"
/>
<path d="
  M 698.92 457.96
  L 698.89 342.04
  Q 698.52 340.00 699.24 338.35
  A 0.80 0.79 -78.1 0 1 699.97 337.87
  L 725.22 337.87
  A 0.97 0.97 0.0 0 1 726.19 338.84
  L 726.19 434.38
  A 0.65 0.65 0.0 0 0 726.84 435.03
  L 771.39 435.03
  A 0.95 0.95 0.0 0 1 772.34 435.98
  L 772.34 458.84
  A 0.46 0.46 0.0 0 1 771.88 459.30
  L 699.83 459.30
  A 0.74 0.74 0.0 0 1 699.11 458.74
  L 698.92 457.96
  Z"
/>
</g>
<g fill="#e1fafb">
<path d="
  M 239.21 337.87
  L 213.02 337.84
  A 3.42 3.40 -73.0 0 0 210.16 339.37
  Q 198.19 357.38 181.25 384.00
  Q 180.81 384.68 179.57 385.03
  A 0.64 0.63 -7.9 0 1 178.76 384.42
  L 178.76 338.54
  A 0.69 0.69 0.0 0 0 178.07 337.85
  L 152.53 337.85
  A 0.91 0.91 0.0 0 0 151.62 338.76
  L 151.62 458.66
  A 0.67 0.66 90.0 0 0 152.28 459.33
  L 177.96 459.33
  A 0.85 0.85 0.0 0 0 178.81 458.48
  L 178.81 420.02
  A 4.59 4.58 62.0 0 1 179.59 417.46
  L 184.07 410.80
  A 1.06 1.06 0.0 0 1 185.86 410.86
  L 213.49 458.73
  A 1.17 1.17 0.0 0 0 214.50 459.31
  L 242.55 459.31
  A 0.47 0.46 74.8 0 0 242.95 458.61
  L 204.81 392.55
  A 1.43 1.42 47.2 0 1 204.86 391.05
  Q 220.22 367.92 237.45 342.68
  Q 238.88 340.58 239.09 338.32
  Q 239.58 338.10 239.88 338.26
  A 1.06 1.06 0.0 0 1 240.31 339.69
  Q 238.27 343.59 233.94 349.92
  Q 221.22 368.57 206.47 390.83
  A 1.98 1.97 47.7 0 0 206.38 392.87
  Q 210.93 401.25 215.60 408.87
  C 217.84 412.53 221.05 418.15 226.42 427.55
  Q 239.51 450.47 243.04 456.17
  Q 244.18 458.01 243.28 459.76
  A 1.17 1.16 5.3 0 1 242.56 460.35
  Q 240.13 461.05 234.25 461.06
  Q 224.21 461.07 216.51 460.93
  Q 214.43 460.89 213.02 460.09
  A 1.70 1.66 1.1 0 1 212.41 459.47
  L 185.61 412.49
  A 0.68 0.68 0.0 0 0 184.50 412.38
  Q 181.87 415.44 180.67 417.67
  Q 179.76 419.34 179.80 424.01
  Q 179.94 441.11 179.87 457.54
  Q 179.85 460.73 176.75 460.81
  Q 161.23 461.23 152.89 460.87
  Q 150.90 460.78 150.21 458.61
  A 2.59 2.50 36.9 0 1 150.11 457.98
  Q 149.90 392.70 150.24 339.75
  C 150.26 337.05 152.90 336.37 155.25 336.26
  Q 171.32 335.52 177.48 336.15
  C 179.34 336.34 179.70 338.06 179.72 339.77
  Q 179.97 360.30 179.89 379.15
  Q 179.88 380.61 180.39 381.90
  A 0.37 0.37 0.0 0 0 181.03 381.98
  C 185.00 376.51 188.71 369.69 192.67 363.69
  Q 206.50 342.75 209.07 338.59
  Q 210.30 336.62 212.52 336.37
  C 216.92 335.89 224.43 336.18 233.47 335.76
  Q 237.64 335.57 239.21 337.87
  Z"
/>
<path d="
  M 291.55 438.82
  A 1.40 1.39 9.7 0 0 290.13 439.82
  Q 286.89 450.86 284.52 458.00
  C 283.86 459.98 283.33 460.82 281.07 460.90
  Q 269.11 461.33 259.78 460.85
  Q 257.61 460.74 256.24 460.09
  A 2.10 2.10 0.0 0 1 255.13 457.60
  Q 271.29 403.04 290.54 339.53
  C 291.37 336.81 292.15 336.33 295.03 336.20
  Q 305.51 335.75 318.52 335.86
  C 323.42 335.91 323.89 338.21 325.05 341.97
  Q 345.64 409.05 360.11 456.67
  C 361.11 459.99 359.29 460.59 356.39 460.74
  Q 343.96 461.36 332.94 460.69
  A 2.85 2.83 83.1 0 1 330.40 458.68
  L 324.67 440.03
  A 1.95 1.94 79.8 0 0 322.71 438.66
  Q 305.54 439.56 291.55 438.82
  Z"
/>
<path d="
  M 475.36 420.18
  A 0.66 0.66 0.0 0 0 476.64 420.16
  L 498.05 338.28
  A 2.43 2.43 0.0 0 1 500.20 336.48
  Q 513.34 335.43 526.61 336.15
  A 1.32 1.09 4.8 0 1 527.87 337.38
  Q 527.83 337.68 528.32 338.10
  A 1.03 1.01 23.8 0 1 528.68 339.01
  Q 528.34 341.77 527.97 342.99
  Q 510.46 400.21 508.69 406.45
  Q 505.75 416.85 504.50 420.67
  Q 502.55 426.61 493.15 458.46
  A 3.23 3.22 -82.7 0 1 490.17 460.77
  Q 477.27 461.23 464.03 460.86
  C 461.31 460.78 460.56 460.57 459.61 457.75
  Q 455.21 444.62 449.05 423.91
  Q 445.39 411.62 429.07 358.89
  Q 425.52 347.39 423.38 339.76
  A 2.46 2.46 0.0 0 1 425.47 336.65
  Q 436.28 335.43 450.26 336.03
  C 454.48 336.21 454.50 340.54 455.15 343.07
  Q 464.50 379.20 466.12 385.57
  Q 471.14 405.40 475.36 420.18
  Z"
/>
<path d="
  M 575.7885 456.7267
  A 4.36 4.36 0.0 0 1 571.4209 461.0791
  L 549.4409 461.0407
  A 4.36 4.36 0.0 0 1 545.0885 456.6731
  L 545.2915 340.3533
  A 4.36 4.36 0.0 0 1 549.6591 336.0009
  L 571.6391 336.0393
  A 4.36 4.36 0.0 0 1 575.9915 340.4069
  L 575.7885 456.7267
  Z"
/>
<path d="
  M 603.40 338.60
  A 2.24 2.24 0.0 0 1 605.51 336.43
  Q 620.17 335.61 629.45 336.08
  C 631.83 336.20 632.62 338.45 632.71 340.70
  Q 633.06 349.71 633.06 349.73
  Q 632.98 392.45 632.81 432.83
  A 1.00 0.99 89.7 0 0 633.81 433.83
  Q 652.95 433.64 672.39 433.82
  C 675.06 433.84 677.48 433.70 677.78 437.08
  Q 678.46 444.81 677.67 457.03
  Q 677.43 460.74 673.69 460.87
  Q 651.14 461.65 623.00 461.32
  Q 613.43 461.21 605.51 460.74
  A 2.51 2.51 0.0 0 1 603.15 458.30
  Q 602.89 449.10 603.13 443.00
  Q 603.14 442.87 602.87 422.84
  Q 602.69 409.19 602.77 402.66
  Q 602.92 390.84 602.79 373.03
  Q 602.70 360.19 603.40 338.60
  Z"
/>
<path d="
  M 698.92 457.96
  L 699.11 458.74
  A 0.74 0.74 0.0 0 0 699.83 459.30
  L 771.88 459.30
  A 0.46 0.46 0.0 0 0 772.34 458.84
  L 772.34 435.98
  A 0.95 0.95 0.0 0 0 771.39 435.03
  L 726.84 435.03
  A 0.65 0.65 0.0 0 1 726.19 434.38
  L 726.19 338.84
  A 0.97 0.97 0.0 0 0 725.22 337.87
  L 699.97 337.87
  A 0.80 0.79 -78.1 0 0 699.24 338.35
  Q 698.52 340.00 698.89 342.04
  Q 698.31 342.16 698.13 342.58
  A 0.31 0.31 0.0 0 1 697.53 342.44
  L 697.73 338.18
  A 1.68 1.67 -0.8 0 1 699.28 336.59
  Q 712.37 335.68 723.99 335.95
  Q 725.57 335.99 727.23 337.54
  A 1.46 1.44 18.9 0 1 727.66 338.41
  Q 727.95 340.92 727.97 346.75
  Q 728.08 398.20 727.87 424.03
  Q 727.84 428.29 727.57 433.04
  A 0.73 0.73 0.0 0 0 728.31 433.81
  Q 748.32 433.69 770.22 433.78
  Q 772.07 433.79 773.03 434.70
  A 1.64 1.62 15.5 0 1 773.50 435.52
  Q 774.12 438.22 774.13 439.24
  Q 774.20 449.41 773.61 458.18
  Q 773.44 460.73 770.55 460.86
  C 754.72 461.57 737.95 461.47 714.20 461.26
  Q 704.96 461.18 700.26 460.70
  Q 698.06 460.47 697.85 458.26
  Q 697.80 457.68 698.36 457.62
  Q 698.67 457.58 698.92 457.96
  Z"
/>
<path d="
  M 826.64 431.65
  A 0.90 0.90 0.0 0 0 827.54 432.55
  L 869.31 432.72
  A 2.48 2.48 0.0 0 1 871.71 434.58
  C 872.75 438.56 872.14 445.80 871.82 456.53
  Q 871.70 460.85 867.53 460.94
  Q 827.26 461.77 804.81 461.26
  Q 804.80 461.26 798.29 460.76
  C 795.72 460.57 795.85 458.11 795.84 455.61
  Q 795.79 389.12 795.96 338.44
  A 1.76 1.76 0.0 0 1 797.53 336.69
  C 802.04 336.23 804.70 335.88 808.09 335.87
  Q 835.16 335.82 867.90 335.90
  Q 871.88 335.91 872.03 340.53
  Q 872.34 350.27 871.78 360.28
  Q 871.59 363.82 867.84 363.84
  Q 849.32 363.96 827.74 363.71
  A 0.99 0.98 0.3 0 0 826.74 364.69
  L 826.74 384.00
  A 0.74 0.73 0.4 0 0 827.47 384.73
  Q 838.45 384.75 864.21 384.94
  Q 866.17 384.96 866.45 387.28
  Q 867.63 397.31 866.72 409.48
  A 2.53 2.53 0.0 0 1 864.20 411.83
  L 827.61 411.83
  A 0.97 0.97 0.0 0 0 826.64 412.80
  L 826.64 431.65
  Z"
/>
</g>
<g fill="#1a464f">
<path d="
  M 236.58 338.83
  A 1.10 1.10 0.0 0 1 237.49 340.55
  L 203.91 390.45
  A 2.66 2.65 47.1 0 0 203.81 393.28
  L 240.51 456.84
  A 0.79 0.79 0.0 0 1 239.83 458.02
  L 215.13 458.02
  A 1.18 1.17 75.0 0 1 214.11 457.42
  Q 208.76 447.95 189.95 415.29
  Q 188.17 412.19 186.17 409.84
  A 1.68 1.67 -47.5 0 0 183.52 409.96
  L 178.14 417.55
  A 1.02 0.99 -22.4 0 0 178.01 417.85
  Q 177.21 420.91 177.21 421.69
  Q 177.28 450.27 177.37 457.45
  A 0.49 0.49 0.0 0 1 176.88 457.95
  L 153.93 457.95
  A 0.91 0.91 0.0 0 1 153.02 457.04
  L 153.02 339.58
  A 0.73 0.73 0.0 0 1 153.75 338.85
  L 176.30 338.85
  A 1.12 1.12 0.0 0 1 177.41 339.81
  Q 177.54 340.75 177.55 341.75
  Q 177.63 347.72 177.29 357.25
  Q 176.80 371.24 177.46 384.58
  A 1.32 1.31 1.3 0 0 178.66 385.83
  Q 181.55 386.08 183.39 383.13
  Q 196.76 361.61 211.22 340.17
  A 3.04 3.03 16.9 0 1 213.74 338.83
  L 236.58 338.83
  Z"
/>
<rect x="380.45" y="338.83" width="25.12" height="119.24" rx="0.77"/>
<path d="
  M 700.96 338.82
  L 724.35 338.82
  A 0.93 0.93 0.0 0 1 725.28 339.75
  L 725.28 435.50
  A 0.93 0.93 0.0 0 0 726.21 436.43
  L 770.32 436.43
  A 0.93 0.93 0.0 0 1 771.25 437.36
  L 771.25 456.98
  A 0.93 0.93 0.0 0 1 770.32 457.91
  L 700.96 457.91
  A 0.93 0.93 0.0 0 1 700.03 456.98
  L 700.03 339.75
  A 0.93 0.93 0.0 0 1 700.96 338.82
  Z"
/>
</g>
<g fill="#020707">
<path d="
  M 359.07 458.93
  A 0.39 0.39 0.0 0 1 358.68 459.33
  L 332.37 459.33
  A 0.74 0.73 81.4 0 1 331.67 458.81
  L 325.49 438.69
  A 1.67 1.66 -8.5 0 0 323.90 437.52
  L 290.07 437.52
  A 0.75 0.75 0.0 0 0 289.35 438.05
  L 283.23 458.47
  A 1.20 1.19 8.1 0 1 282.08 459.33
  L 256.89 459.33
  A 0.80 0.79 -81.8 0 1 256.13 458.31
  L 291.96 338.70
  A 1.21 1.20 -81.5 0 1 293.11 337.84
  L 321.86 337.84
  A 0.81 0.81 0.0 0 1 322.64 338.42
  Q 341.83 400.65 358.72 456.50
  Q 359.04 457.57 359.07 458.93
  Z"
/>
<path d="
  M 526.68 337.84
  A 1.03 1.03 0.0 0 1 527.67 339.17
  L 491.98 458.33
  A 1.41 1.40 8.3 0 1 490.63 459.33
  L 461.63 459.33
  A 0.61 0.61 0.0 0 1 461.05 458.90
  L 424.09 338.64
  A 0.61 0.61 0.0 0 1 424.67 337.85
  L 451.97 337.85
  A 0.72 0.72 0.0 0 1 452.67 338.39
  L 474.60 423.29
  A 0.97 0.96 2.4 0 0 475.21 423.95
  C 476.20 424.31 476.86 423.75 477.24 422.83
  C 478.35 420.10 478.86 416.84 479.73 413.44
  Q 488.64 378.57 497.88 343.63
  Q 498.80 340.15 499.25 338.82
  A 1.44 1.43 -80.7 0 1 500.61 337.84
  L 526.68 337.84
  Z"
/>
<path d="
  M 574.03 458.23
  A 1.06 1.06 0.0 0 1 572.97 459.29
  L 547.73 459.29
  A 1.06 1.06 0.0 0 1 546.67 458.23
  L 546.67 338.91
  A 1.06 1.06 0.0 0 1 547.73 337.85
  L 572.97 337.85
  A 1.06 1.06 0.0 0 1 574.03 338.91
  L 574.03 458.23
  Z"
/>
<path d="
  M 604.96 459.30
  A 1.01 1.00 -0.0 0 1 603.95 458.30
  L 603.95 338.90
  A 1.04 1.04 0.0 0 1 604.99 337.86
  L 630.18 337.86
  A 0.98 0.98 0.0 0 1 631.16 338.84
  L 631.16 434.72
  A 0.35 0.35 0.0 0 0 631.51 435.07
  Q 651.18 435.06 672.00 434.93
  Q 674.05 434.92 675.62 435.32
  A 0.69 0.68 7.1 0 1 676.14 435.98
  L 676.14 458.44
  A 0.86 0.86 0.0 0 1 675.28 459.30
  L 604.96 459.30
  Z"
/>
<path d="
  M 869.38 459.31
  L 797.83 459.31
  A 0.79 0.79 0.0 0 1 797.04 458.52
  L 797.04 338.64
  A 0.79 0.79 0.0 0 1 797.83 337.85
  L 869.35 337.85
  A 0.79 0.79 0.0 0 1 870.14 338.64
  L 870.14 361.64
  A 0.79 0.79 0.0 0 1 869.35 362.43
  L 825.81 362.43
  A 0.79 0.79 0.0 0 0 825.02 363.22
  L 825.02 385.25
  A 0.79 0.79 0.0 0 0 825.81 386.04
  L 864.44 386.04
  A 0.79 0.79 0.0 0 1 865.23 386.83
  L 865.23 409.61
  A 0.79 0.79 0.0 0 1 864.44 410.40
  L 825.81 410.40
  A 0.79 0.79 0.0 0 0 825.02 411.19
  L 825.02 433.22
  A 0.79 0.79 0.0 0 0 825.81 434.01
  L 869.38 434.01
  A 0.79 0.79 0.0 0 1 870.17 434.80
  L 870.17 458.52
  A 0.79 0.79 0.0 0 1 869.38 459.31
  Z"
/>
</g>
<g fill="#1a464f">
<path d="
  M 332.58 457.55
  L 326.27 436.98
  A 0.91 0.91 0.0 0 0 325.40 436.34
  L 289.30 436.34
  A 0.91 0.91 0.0 0 0 288.43 436.99
  L 282.28 457.52
  A 0.91 0.91 0.0 0 1 281.41 458.17
  L 258.73 458.17
  A 0.91 0.91 0.0 0 1 257.86 457.00
  L 293.05 339.50
  A 0.91 0.91 0.0 0 1 293.92 338.85
  L 320.73 338.85
  A 0.91 0.91 0.0 0 1 321.60 339.49
  L 357.71 457.01
  A 0.91 0.91 0.0 0 1 356.84 458.19
  L 333.45 458.19
  A 0.91 0.91 0.0 0 1 332.58 457.55
  Z"
/>
<path d="
  M 525.37 338.78
  A 0.86 0.86 0.0 0 1 526.19 339.88
  L 491.02 457.26
  A 1.14 1.12 -81.7 0 1 489.94 458.08
  L 462.95 458.08
  A 1.03 1.02 81.6 0 1 461.97 457.35
  L 426.00 340.31
  A 1.15 1.15 0.0 0 1 427.10 338.83
  L 450.85 338.83
  A 0.96 0.94 -6.5 0 1 451.78 339.56
  Q 453.84 348.57 457.60 362.85
  Q 467.70 401.27 472.66 421.12
  C 473.18 423.21 473.31 424.74 475.95 424.95
  A 2.53 2.50 9.4 0 0 478.61 423.07
  Q 488.90 382.44 500.22 339.84
  A 1.44 1.43 -82.3 0 1 501.60 338.78
  L 525.37 338.78
  Z"
/>
<rect x="547.98" y="338.86" width="24.90" height="119.32" rx="0.92"/>
<path d="
  M 630.28 339.73
  L 630.28 435.51
  A 0.92 0.92 0.0 0 0 631.20 436.43
  L 674.33 436.43
  A 0.92 0.92 0.0 0 1 675.25 437.35
  L 675.25 457.02
  A 0.92 0.92 0.0 0 1 674.33 457.94
  L 606.32 457.94
  A 0.92 0.92 0.0 0 1 605.40 457.02
  L 605.40 339.73
  A 0.92 0.92 0.0 0 1 606.32 338.81
  L 629.36 338.81
  A 0.92 0.92 0.0 0 1 630.28 339.73
  Z"
/>
<path d="
  M 868.11 338.92
  A 1.08 1.08 0.0 0 1 869.19 340.00
  L 869.19 360.04
  A 1.17 1.17 0.0 0 1 868.02 361.21
  L 826.02 361.21
  A 2.13 2.13 0.0 0 0 823.89 363.34
  L 823.89 385.72
  A 1.41 1.41 0.0 0 0 825.30 387.13
  L 863.15 387.13
  A 1.09 1.09 0.0 0 1 864.24 388.22
  L 864.24 408.12
  A 1.06 1.06 0.0 0 1 863.21 409.18
  Q 860.71 409.23 826.72 409.24
  Q 824.17 409.24 824.09 411.50
  Q 823.71 422.38 823.93 433.55
  A 1.60 1.59 89.4 0 0 825.52 435.12
  L 868.36 435.12
  A 0.83 0.83 0.0 0 1 869.19 435.95
  L 869.19 456.84
  A 1.41 1.41 0.0 0 1 867.75 458.25
  Q 831.49 457.43 799.08 458.22
  A 0.70 0.69 -0.4 0 1 798.37 457.53
  L 798.37 339.78
  A 0.87 0.86 0.0 0 1 799.24 338.92
  L 868.11 338.92
  Z"
/>
</g>
<path fill="#020707" d="
  M 295.38 411.34
  L 305.00 376.33
  A 2.81 2.81 0.0 0 1 310.42 376.32
  L 320.16 411.29
  A 2.81 2.81 0.0 0 1 317.46 414.86
  L 298.10 414.89
  A 2.81 2.81 0.0 0 1 295.38 411.34
  Z"
/>
<path fill="#e1fafb" d="
  M 296.42 412.09
  L 306.40 375.87
  A 1.26 1.26 0.0 0 1 308.83 375.86
  L 318.94 412.05
  A 1.26 1.26 0.0 0 1 317.73 413.65
  L 297.64 413.69
  A 1.26 1.26 0.0 0 1 296.42 412.09
  Z"
/>
<path fill="#a8d2dc" d="
  M 297.98 410.83
  L 306.71 379.27
  A 0.93 0.93 0.0 0 1 308.50 379.26
  L 317.45 410.76
  A 0.93 0.93 0.0 0 1 316.56 411.95
  L 298.88 412.01
  A 0.93 0.93 0.0 0 1 297.98 410.83
  Z"
/>
</svg>
