<?xml version="1.0" encoding="UTF-8" standalone="no"?>
<!DOCTYPE svg PUBLIC "-//W3C//DTD SVG 1.1//EN" "http://www.w3.org/Graphics/SVG/1.1/DTD/svg11.dtd">
<svg xmlns="http://www.w3.org/2000/svg" version="1.1" viewBox="0.00 0.00 1024.00 1536.00">
<g stroke-width="0.70" fill="none" stroke-linecap="butt">
<path stroke="#a2a675" vector-effect="non-scaling-stroke" d="
  M 644.77 269.77
  L 334.26 269.75"
/>
<path stroke="#f9d686" vector-effect="non-scaling-stroke" d="
  M 644.60 270.88
  L 589.26 271.18
  A 1.03 1.03 0.0 0 0 588.23 272.18
  Q 587.45 295.48 584.36 321.06
  Q 583.02 332.16 580.33 346.63
  Q 576.79 365.74 575.26 372.02
  Q 569.92 393.97 567.09 402.12
  Q 561.63 417.81 556.54 428.07
  Q 551.50 438.21 544.32 445.05
  Q 535.49 453.45 522.52 455.01
  C 519.62 455.36 514.40 456.03 509.81 456.11
  Q 484.07 456.57 460.12 456.05
  C 455.47 455.94 450.83 455.13 446.80 454.35
  C 432.34 451.54 421.93 437.71 416.21 424.81
  Q 407.11 404.30 401.56 385.48
  C 399.93 379.95 398.82 374.52 396.86 366.44
  Q 386.06 321.75 382.57 272.07
  A 0.91 0.90 -2.0 0 0 381.66 271.23
  L 334.34 271.25"
/>
<path stroke="#9c9a65" vector-effect="non-scaling-stroke" d="
  M 586.74 494.45
  L 395.19 494.45"
/>
</g>
<g fill="#456954">
<path d="
  M 644.77 269.77
  L 334.26 269.75
  Q 316.25 269.66 298.25 269.62
  Q 297.12 269.62 292.75 268.80
  A 3.46 3.17 60.5 0 1 291.86 268.51
  Q 283.38 264.40 283.53 254.76
  Q 283.54 254.50 283.68 239.49
  Q 283.75 232.10 288.65 228.00
  A 0.96 0.80 5.2 0 1 288.78 227.91
  L 294.87 224.82
  A 4.22 4.18 -7.6 0 0 297.07 221.97
  C 303.79 191.07 315.31 161.49 332.49 134.73
  C 355.73 98.52 391.65 71.10 433.19 59.43
  Q 455.74 53.10 477.75 52.07
  Q 485.25 51.72 500.38 52.02
  Q 505.05 52.11 507.46 52.50
  C 510.62 53.00 513.63 52.91 516.84 53.32
  Q 540.06 56.25 561.44 64.76
  Q 610.89 84.44 640.70 127.54
  Q 665.72 163.72 677.01 206.25
  Q 678.67 212.52 681.03 222.76
  A 4.02 4.00 0.6 0 0 683.96 225.74
  C 692.87 227.98 695.42 234.53 695.45 243.56
  Q 695.46 247.27 695.30 255.77
  Q 695.12 265.40 686.68 268.69
  Q 684.27 269.63 678.52 269.62
  Q 661.64 269.57 644.77 269.77
  Z"
/>
<path d="
  M 395.19 494.45
  L 586.74 494.45
  Q 593.50 493.63 597.60 496.15
  Q 604.09 500.14 604.22 509.02
  Q 604.30 514.30 604.01 524.38
  Q 603.91 528.22 603.46 530.63
  C 602.86 533.86 603.11 536.01 601.96 538.87
  Q 596.98 551.25 588.46 557.73
  Q 570.39 571.47 548.24 579.99
  Q 534.63 585.23 532.87 585.88
  Q 529.60 587.09 529.52 590.76
  C 529.35 599.22 529.10 608.72 529.10 615.74
  Q 529.00 890.89 529.11 1150.25
  Q 529.12 1154.68 529.45 1164.01
  Q 529.56 1167.20 531.88 1169.10
  C 546.05 1180.74 560.16 1193.53 570.70 1206.37
  Q 577.40 1214.52 579.89 1225.77
  Q 580.10 1226.74 580.28 1233.00
  Q 580.29 1233.49 580.33 1385.25
  C 580.34 1393.20 583.31 1396.74 591.38 1397.04
  Q 595.22 1397.18 622.64 1397.00
  Q 637.20 1396.91 642.76 1398.50
  Q 652.90 1401.40 660.45 1408.02
  C 668.54 1415.09 672.45 1425.87 670.11 1436.66
  C 666.65 1452.64 651.84 1462.31 636.02 1463.93
  Q 632.59 1464.29 624.78 1464.30
  Q 607.15 1464.33 361.00 1464.26
  Q 355.42 1464.26 351.26 1463.93
  C 337.93 1462.87 325.51 1455.37 320.18 1443.09
  C 315.57 1432.43 317.42 1418.20 325.57 1409.56
  Q 332.91 1401.77 343.49 1398.67
  Q 349.66 1396.87 360.64 1397.00
  Q 376.18 1397.19 395.25 1397.00
  Q 397.29 1396.98 399.86 1396.78
  A 3.61 3.24 -53.3 0 0 400.71 1396.61
  C 405.54 1395.08 406.51 1391.11 406.59 1385.92
  Q 406.68 1379.55 406.67 1367.75
  Q 406.60 1250.52 406.72 1232.00
  C 406.81 1218.91 412.51 1209.69 421.30 1200.29
  Q 435.80 1184.79 451.44 1170.69
  C 454.17 1168.24 454.02 1165.33 454.02 1161.19
  Q 454.10 817.52 453.93 629.60
  C 453.92 619.40 453.65 602.35 453.27 591.24
  Q 453.09 585.94 448.52 584.51
  Q 431.49 579.18 411.75 568.37
  C 397.93 560.81 386.54 552.59 382.20 536.90
  C 380.17 529.56 381.15 521.61 380.56 513.67
  Q 380.15 508.05 381.19 504.39
  Q 383.87 494.94 395.19 494.45
  Z"
/>
</g>
<path fill="#ffe296" d="
  M 644.77 269.77
  L 644.60 270.88
  L 589.26 271.18
  A 1.03 1.03 0.0 0 0 588.23 272.18
  Q 587.45 295.48 584.36 321.06
  Q 583.02 332.16 580.33 346.63
  Q 576.79 365.74 575.26 372.02
  Q 569.92 393.97 567.09 402.12
  Q 561.63 417.81 556.54 428.07
  Q 551.50 438.21 544.32 445.05
  Q 535.49 453.45 522.52 455.01
  C 519.62 455.36 514.40 456.03 509.81 456.11
  Q 484.07 456.57 460.12 456.05
  C 455.47 455.94 450.83 455.13 446.80 454.35
  C 432.34 451.54 421.93 437.71 416.21 424.81
  Q 407.11 404.30 401.56 385.48
  C 399.93 379.95 398.82 374.52 396.86 366.44
  Q 386.06 321.75 382.57 272.07
  A 0.91 0.90 -2.0 0 0 381.66 271.23
  L 334.34 271.25
  L 334.26 269.75
  L 644.77 269.77
  Z"
/>
<path fill="#f2ca75" d="
  M 644.60 270.88
  Q 636.66 346.77 615.86 419.96
  Q 608.84 444.66 599.16 468.44
  Q 593.73 481.78 586.74 494.45
  L 395.19 494.45
  Q 379.31 464.06 368.60 431.49
  Q 359.43 403.60 354.16 382.19
  Q 348.97 361.10 344.55 338.24
  Q 342.35 326.87 340.19 311.97
  C 338.22 298.42 336.13 284.87 334.34 271.25
  L 381.66 271.23
  A 0.91 0.90 -2.0 0 1 382.57 272.07
  Q 386.06 321.75 396.86 366.44
  C 398.82 374.52 399.93 379.95 401.56 385.48
  Q 407.11 404.30 416.21 424.81
  C 421.93 437.71 432.34 451.54 446.80 454.35
  C 450.83 455.13 455.47 455.94 460.12 456.05
  Q 484.07 456.57 509.81 456.11
  C 514.40 456.03 519.62 455.36 522.52 455.01
  Q 535.49 453.45 544.32 445.05
  Q 551.50 438.21 556.54 428.07
  Q 561.63 417.81 567.09 402.12
  Q 569.92 393.97 575.26 372.02
  Q 576.79 365.74 580.33 346.63
  Q 583.02 332.16 584.36 321.06
  Q 587.45 295.48 588.23 272.18
  A 1.03 1.03 0.0 0 1 589.26 271.18
  L 644.60 270.88
  Z"
/>
<path fill="#658875" d="
  M 376.22 199.40
  C 369.86 197.42 367.74 191.17 369.57 184.77
  Q 371.83 176.84 375.86 168.84
  C 394.29 132.22 427.52 105.62 468.22 98.95
  C 484.09 96.34 503.39 96.82 517.93 103.24
  C 548.46 116.72 559.83 151.62 560.30 183.07
  Q 560.49 195.67 549.59 199.24
  C 547.15 200.04 543.93 200.15 541.81 200.16
  Q 465.17 200.30 384.55 200.22
  Q 378.82 200.22 376.22 199.40
  Z"
/>
</svg>
