<?xml version="1.0" encoding="UTF-8" standalone="no"?>
<!DOCTYPE svg PUBLIC "-//W3C//DTD SVG 1.1//EN" "http://www.w3.org/Graphics/SVG/1.1/DTD/svg11.dtd">
<svg xmlns="http://www.w3.org/2000/svg" version="1.1" viewBox="0.00 0.00 1024.00 1024.00">
<g fill="#f6e4b1">
<path d="
  M 906.71 630.74
  L 890.93 630.79
  A 0.66 0.65 -90.0 0 1 890.27 630.12
  Q 890.46 620.97 887.11 612.31
  C 876.78 585.64 846.36 576.65 822.03 590.57
  Q 818.94 592.33 815.63 594.69
  Q 814.83 593.36 814.61 592.31
  Q 808.48 570.15 788.74 559.54
  C 768.83 548.83 743.17 553.70 729.77 572.27
  Q 724.69 579.31 723.10 582.95
  Q 722.52 584.16 722.00 583.81
  L 722.14 481.73
  A 0.59 0.59 0.0 0 1 722.90 481.16
  C 730.38 483.37 737.38 483.87 745.79 483.78
  Q 773.93 483.45 796.27 466.04
  C 817.87 449.20 828.61 424.37 823.65 396.80
  Q 822.06 387.99 817.14 380.64
  A 0.57 0.56 51.6 0 1 817.22 379.90
  C 826.62 371.20 830.49 357.90 829.21 345.52
  Q 826.70 321.27 808.05 306.95
  Q 801.93 302.26 795.67 299.85
  A 1.06 1.05 -74.6 0 1 795.01 298.68
  Q 797.98 281.85 791.68 267.08
  C 783.54 247.98 767.29 235.86 746.73 232.28
  Q 736.52 230.50 727.77 231.63
  A 0.61 0.60 82.1 0 1 727.10 231.12
  Q 723.61 209.50 706.59 197.05
  C 689.63 184.65 666.74 184.92 650.39 198.25
  C 640.58 206.26 633.56 218.91 633.54 231.87
  Q 632.64 232.62 632.22 232.14
  Q 619.49 230.97 607.39 238.18
  C 600.12 242.51 591.83 250.16 588.73 258.25
  Q 588.64 258.40 588.35 258.57
  L 581.33 252.84
  A 3.91 3.90 -70.5 0 1 579.89 249.81
  L 579.89 146.82
  A 0.56 0.55 0.5 0 1 580.46 146.27
  Q 580.90 146.28 592.53 146.42
  C 601.85 146.53 605.01 135.74 598.92 129.59
  Q 581.19 111.68 563.27 94.01
  L 563.12 93.34
  A 0.47 0.46 -74.2 0 1 563.90 92.90
  L 578.76 107.77
  A 4.40 4.40 0.0 0 0 581.85 109.06
  Q 583.81 109.07 588.02 109.03
  Q 626.90 108.64 856.78 108.92
  Q 878.06 108.95 892.53 124.09
  Q 902.50 134.53 905.85 147.16
  Q 907.24 152.40 907.24 168.07
  Q 907.15 360.20 907.22 630.05
  A 0.62 0.52 61.8 0 1 907.17 630.29
  Q 906.98 630.66 906.71 630.74
  Z"
/>
<path d="
  M 430.95 101.54
  Q 419.46 113.15 408.01 124.90
  Q 402.59 130.47 401.88 131.83
  C 399.59 136.21 400.41 142.64 405.17 145.27
  Q 406.83 146.19 410.96 146.19
  Q 419.00 146.18 422.17 146.06
  A 0.27 0.27 0.0 0 1 422.45 146.33
  Q 422.57 213.17 422.43 253.75
  Q 422.42 255.75 420.68 257.18
  Q 405.91 269.33 389.69 282.96
  Q 328.53 334.36 293.93 363.20
  Q 293.72 363.38 292.82 363.74
  Q 292.48 363.38 292.55 362.96
  Q 293.85 360.92 295.00 356.75
  Q 302.69 328.83 289.95 306.21
  C 280.74 289.88 265.49 278.94 247.27 275.31
  A 0.67 0.66 8.7 0 1 246.74 274.60
  Q 249.33 245.92 227.61 227.60
  C 213.26 215.50 192.83 212.04 175.59 218.73
  C 157.88 225.60 145.92 241.27 142.83 260.00
  A 0.71 0.69 -5.7 0 1 142.36 260.56
  Q 116.98 269.02 108.86 294.54
  Q 103.34 311.89 109.65 328.19
  A 0.91 0.91 0.0 0 1 109.34 329.25
  Q 98.62 337.09 92.07 349.24
  C 80.11 371.39 84.21 396.05 100.77 414.59
  A 0.95 0.93 -58.4 0 1 100.97 415.47
  Q 91.33 449.55 107.40 478.99
  C 112.96 489.18 122.23 499.40 131.56 506.15
  Q 151.37 520.49 176.07 524.90
  Q 177.63 525.18 179.75 525.24
  A 0.63 0.62 -89.1 0 1 180.35 525.87
  L 180.35 565.27
  A 0.69 0.69 0.0 0 1 179.69 565.96
  Q 151.83 567.16 136.08 589.83
  Q 123.38 608.10 125.20 630.43
  A 0.26 0.26 0.0 0 1 124.94 630.72
  L 97.10 630.88
  Q 96.51 622.19 96.51 607.75
  Q 96.52 477.62 96.59 469.75
  C 96.64 464.21 97.28 458.19 96.52 452.40
  Q 95.99 448.36 95.97 443.58
  Q 95.91 433.63 96.84 426.09
  C 97.29 422.42 96.75 418.74 97.08 415.19
  A 6.85 6.85 0.0 0 0 95.81 410.51
  Q 86.43 397.51 84.12 381.82
  Q 83.94 380.59 84.15 372.31
  Q 84.28 367.13 85.40 362.91
  Q 88.48 351.34 95.71 341.60
  A 6.34 6.29 61.4 0 0 96.94 337.37
  Q 96.55 332.02 96.55 330.00
  Q 96.59 243.33 96.56 202.00
  Q 96.55 180.68 96.80 160.60
  Q 96.91 152.01 98.31 147.05
  C 103.79 127.64 119.43 112.53 139.37 109.32
  Q 142.27 108.85 162.15 108.84
  Q 290.71 108.81 420.57 108.81
  A 4.03 4.03 0.0 0 0 423.42 107.63
  L 430.48 100.56
  A 0.35 0.34 72.0 0 1 431.06 100.86
  L 430.95 101.54
  Z"
/>
<path d="
  M 282.53 468.78
  Q 282.83 469.42 282.56 469.22
  L 282.44 550.03
  L 281.72 550.10
  Q 281.27 549.53 280.36 549.34
  C 269.70 547.18 257.90 547.06 247.56 550.73
  Q 228.94 557.34 218.54 575.14
  A 0.55 0.54 32.2 0 1 217.77 575.31
  Q 210.85 570.59 203.43 567.97
  A 1.36 1.35 -80.3 0 1 202.53 566.69
  L 202.53 525.96
  A 0.56 0.55 86.5 0 1 203.01 525.41
  Q 220.82 523.25 236.86 515.34
  Q 261.08 503.40 275.80 480.83
  Q 279.19 475.64 281.34 470.02
  Q 281.87 468.91 282.53 468.78
  Z"
/>
<path d="
  M 906.31 713.93
  Q 907.36 715.30 907.36 717.76
  Q 907.37 728.25 907.36 729.18
  Q 907.21 749.90 907.21 812.50
  C 907.21 817.63 907.52 828.04 905.70 834.41
  C 900.52 852.62 888.52 866.33 869.92 871.37
  Q 863.26 873.18 853.92 873.00
  Q 848.78 872.91 837.75 872.93
  Q 835.15 872.94 151.50 872.96
  Q 144.86 872.96 141.50 872.77
  C 118.31 871.51 101.00 852.41 97.29 830.31
  C 96.72 826.91 96.93 823.01 96.70 819.22
  Q 96.60 817.67 96.58 814.79
  Q 96.38 783.34 96.50 743.75
  Q 96.56 723.58 96.98 713.92
  L 906.31 713.93
  Z
  M 544.78 798.05
  Q 544.60 799.69 544.47 804.66
  C 544.29 811.07 535.96 811.91 531.19 811.35
  C 518.72 809.89 517.64 794.73 518.39 785.33
  Q 519.10 776.34 522.98 772.18
  Q 528.64 766.11 538.26 768.42
  C 542.09 769.34 543.67 772.50 545.20 775.35
  A 2.23 2.21 -14.6 0 0 547.21 776.52
  C 550.47 776.45 554.29 775.54 556.60 773.73
  Q 558.99 771.87 557.23 768.20
  C 552.43 758.20 541.84 755.32 531.22 755.79
  C 517.28 756.41 507.20 766.41 504.94 779.89
  C 502.57 794.01 504.16 811.23 516.79 819.42
  C 523.66 823.88 533.23 825.00 541.48 823.20
  C 548.16 821.74 557.92 816.46 558.08 808.51
  Q 558.22 801.36 558.06 787.39
  A 1.85 1.85 0.0 0 0 556.21 785.56
  L 533.57 785.56
  A 1.64 1.63 -87.7 0 0 531.94 787.07
  Q 531.64 790.90 531.83 794.97
  Q 531.94 797.51 534.72 797.44
  Q 537.46 797.37 544.07 797.27
  A 0.70 0.70 0.0 0 1 544.78 798.05
  Z
  M 628.85 789.37
  C 628.59 807.94 636.81 823.67 657.36 823.96
  C 677.92 824.25 686.58 808.76 686.84 790.19
  C 687.10 771.62 678.89 755.89 658.33 755.60
  C 637.78 755.31 629.12 770.80 628.85 789.37
  Z
  M 795.09 798.09
  Q 795.32 805.33 794.88 806.51
  C 793.14 811.24 786.97 811.69 782.48 811.44
  Q 777.20 811.15 773.76 807.24
  C 768.52 801.28 768.48 792.80 769.17 784.47
  C 770.05 773.71 776.53 766.07 787.92 768.10
  C 792.40 768.89 794.17 771.26 796.47 775.08
  A 1.78 1.76 -1.8 0 0 797.18 775.74
  C 800.06 777.23 808.21 775.10 808.04 770.77
  C 807.83 765.16 801.66 760.14 796.87 758.10
  Q 789.22 754.83 779.77 755.95
  Q 766.71 757.51 759.66 769.06
  C 755.69 775.56 754.79 782.90 754.92 790.58
  C 755.06 798.98 755.91 806.34 760.38 812.59
  Q 765.62 819.92 773.17 822.28
  Q 791.32 827.94 805.05 816.11
  Q 808.55 813.10 808.61 809.00
  Q 808.83 796.16 808.63 787.07
  A 1.47 1.47 0.0 0 0 807.20 785.63
  Q 797.95 785.36 789.00 785.42
  Q 785.80 785.43 783.86 785.89
  A 1.80 1.79 87.8 0 0 782.51 787.35
  Q 781.78 791.94 782.62 795.79
  A 1.29 1.27 -81.0 0 0 783.20 796.60
  C 785.68 798.08 792.26 797.26 794.36 797.36
  A 0.76 0.75 0.4 0 1 795.09 798.09
  Z
  M 162.54 809.54
  L 162.54 758.39
  A 2.00 2.00 0.0 0 0 160.54 756.39
  L 150.93 756.39
  A 1.32 1.32 0.0 0 0 149.74 757.14
  Q 148.96 758.78 148.95 760.50
  Q 148.84 789.25 149.14 820.75
  A 2.00 1.99 -84.9 0 0 150.75 822.69
  Q 151.72 822.88 153.25 822.90
  Q 165.51 823.06 184.55 822.88
  Q 186.92 822.85 187.09 820.84
  Q 187.51 815.94 187.16 812.04
  A 2.12 2.11 87.5 0 0 185.06 810.11
  L 163.11 810.11
  A 0.57 0.57 0.0 0 1 162.54 809.54
  Z
  M 208.66 768.57
  Q 209.82 768.56 228.21 768.56
  C 231.18 768.56 233.26 768.96 233.25 765.51
  Q 233.25 761.81 233.12 758.55
  Q 233.04 756.40 230.72 756.36
  Q 226.55 756.29 199.52 756.38
  Q 196.95 756.39 195.51 756.88
  A 1.24 1.21 2.7 0 0 194.79 757.52
  Q 194.36 758.47 194.35 760.75
  Q 194.19 795.54 194.40 820.38
  Q 194.42 822.88 197.32 822.89
  Q 226.16 822.99 230.69 822.86
  Q 233.29 822.78 233.31 820.18
  Q 233.34 815.99 233.42 812.61
  Q 233.47 810.15 231.01 810.13
  Q 220.98 810.08 208.64 810.30
  A 0.58 0.58 0.0 0 1 208.05 809.72
  L 208.05 795.78
  A 0.40 0.39 90.0 0 1 208.44 795.38
  L 228.94 795.38
  A 1.87 1.86 -0.0 0 0 230.81 793.52
  L 230.81 785.38
  A 1.74 1.74 0.0 0 0 229.07 783.64
  L 208.50 783.64
  A 0.48 0.48 0.0 0 1 208.02 783.16
  L 208.02 769.21
  A 0.64 0.64 0.0 0 1 208.66 768.57
  Z
  M 266.26 809.45
  Q 272.92 809.47 274.10 809.48
  A 2.03 2.02 82.2 0 1 276.01 810.94
  L 279.13 821.58
  A 1.95 1.95 0.0 0 0 281.00 822.98
  L 291.93 822.98
  A 1.66 1.66 0.0 0 0 293.52 820.86
  L 275.26 758.48
  A 2.69 2.69 0.0 0 0 272.88 756.55
  Q 270.72 756.38 266.41 756.37
  Q 262.09 756.36 259.93 756.51
  A 2.69 2.69 0.0 0 0 257.54 758.43
  L 238.94 820.71
  A 1.66 1.66 0.0 0 0 240.52 822.84
  L 251.45 822.90
  A 1.95 1.95 0.0 0 0 253.33 821.51
  L 256.51 810.89
  A 2.03 2.02 -81.9 0 1 258.43 809.44
  Q 259.61 809.43 266.26 809.45
  Z
  M 334.73 797.08
  C 349.71 789.60 348.99 765.33 334.30 758.54
  C 330.80 756.92 326.75 756.50 322.75 756.42
  Q 317.20 756.30 303.46 756.43
  Q 300.59 756.45 300.59 759.47
  Q 300.68 811.32 300.72 820.50
  Q 300.73 823.00 303.43 823.01
  Q 309.76 823.04 312.81 822.89
  A 1.59 1.59 0.0 0 0 314.33 821.30
  L 314.33 800.89
  A 0.81 0.80 0.0 0 1 315.14 800.09
  L 318.77 800.09
  A 2.42 2.41 -14.5 0 1 320.88 801.33
  Q 324.88 808.61 330.84 820.61
  Q 331.90 822.75 333.46 822.85
  Q 336.51 823.04 345.31 822.88
  A 1.71 1.71 0.0 0 0 346.99 821.29
  Q 347.03 820.69 346.53 819.75
  Q 337.76 803.38 334.55 797.68
  A 0.44 0.43 62.3 0 1 334.73 797.08
  Z
  M 431.2540 758.7219
  A 2.30 2.30 0.0 0 0 428.9580 756.4179
  L 419.9981 756.4022
  A 2.30 2.30 0.0 0 0 417.6940 758.6982
  L 417.5860 820.6181
  A 2.30 2.30 0.0 0 0 419.8820 822.9221
  L 428.8419 822.9378
  A 2.30 2.30 0.0 0 0 431.1460 820.6418
  L 431.2540 758.7219
  Z
  M 480.47 797.02
  Q 480.24 797.01 479.90 797.18
  Q 468.62 777.95 457.73 758.53
  C 456.06 755.55 450.21 756.38 446.70 756.54
  C 444.03 756.66 442.93 757.51 442.95 760.26
  Q 443.08 784.81 443.01 818.25
  Q 443.00 820.40 443.51 821.75
  A 1.75 1.75 0.0 0 0 445.07 822.87
  Q 450.68 823.10 454.42 822.89
  Q 456.85 822.75 456.89 820.78
  Q 457.10 810.48 456.86 783.46
  Q 457.09 782.09 458.77 784.74
  Q 468.45 801.88 478.27 818.99
  C 480.14 822.26 481.46 823.20 485.08 823.03
  Q 487.79 822.91 491.35 822.88
  Q 494.24 822.86 494.22 819.72
  Q 494.10 800.21 494.29 766.25
  Q 494.32 762.35 494.11 758.34
  A 1.86 1.86 0.0 0 0 492.45 756.58
  C 489.45 756.25 485.02 756.00 482.17 756.64
  Q 480.78 756.95 480.77 759.74
  Q 480.68 778.51 480.60 796.43
  Q 480.60 796.74 480.47 797.02
  Z
  M 600.90 809.85
  L 600.90 758.40
  A 2.01 2.00 0.0 0 0 598.89 756.40
  L 588.56 756.40
  A 1.13 1.13 0.0 0 0 587.47 757.23
  Q 586.95 759.10 586.95 760.75
  Q 586.84 803.02 587.03 820.48
  Q 587.05 822.84 589.48 822.87
  Q 606.83 823.07 621.89 822.90
  A 2.46 2.45 -86.8 0 0 624.29 820.75
  Q 624.65 817.88 624.61 813.90
  Q 624.58 809.96 620.30 809.96
  Q 613.05 809.97 601.26 810.20
  A 0.35 0.35 0.0 0 1 600.90 809.85
  Z
  M 833.92 768.56
  Q 835.08 768.55 853.49 768.57
  C 856.46 768.57 858.54 768.97 858.54 765.52
  Q 858.54 761.82 858.41 758.55
  Q 858.33 756.40 856.01 756.36
  Q 851.84 756.29 824.78 756.35
  Q 822.21 756.36 820.77 756.85
  A 1.24 1.22 2.7 0 0 820.05 757.49
  Q 819.62 758.44 819.61 760.72
  Q 819.41 795.54 819.60 820.40
  Q 819.61 822.90 822.52 822.92
  Q 851.38 823.05 855.92 822.92
  Q 858.52 822.84 858.54 820.24
  Q 858.58 816.05 858.66 812.66
  Q 858.71 810.20 856.25 810.18
  Q 846.21 810.12 833.86 810.33
  A 0.58 0.58 0.0 0 1 833.27 809.75
  L 833.28 795.79
  A 0.40 0.39 -89.9 0 1 833.67 795.39
  L 854.19 795.41
  A 1.87 1.86 0.1 0 0 856.07 793.55
  L 856.07 785.41
  A 1.74 1.74 0.0 0 0 854.33 783.66
  L 833.75 783.64
  A 0.48 0.48 0.0 0 1 833.27 783.16
  L 833.28 769.20
  A 0.64 0.64 0.0 0 1 833.92 768.56
  Z
  M 368.91 783.21
  Q 368.87 782.73 370.22 783.32
  Q 380.97 802.25 391.60 820.65
  Q 392.82 822.75 394.61 822.88
  Q 399.77 823.22 404.16 822.63
  A 1.80 1.80 0.0 0 0 405.72 820.85
  L 405.72 758.63
  A 1.95 1.94 -86.3 0 0 404.03 756.70
  Q 398.73 756.03 393.68 756.79
  A 1.22 1.21 -77.2 0 0 392.85 757.32
  Q 392.04 758.51 392.06 760.33
  Q 392.21 783.05 392.16 796.32
  A 0.37 0.37 0.0 0 1 391.46 796.50
  Q 379.01 773.99 369.58 758.17
  Q 368.54 756.44 366.02 756.43
  Q 358.79 756.38 358.52 756.38
  Q 355.65 756.39 355.65 758.99
  Q 355.62 770.29 355.64 819.12
  C 355.65 821.51 356.16 822.96 358.74 823.00
  Q 363.15 823.07 367.12 822.69
  A 2.05 2.05 0.0 0 0 368.97 820.65
  L 368.91 783.21
  Z
  M 696.84 758.91
  L 697.16 820.65
  A 2.45 2.45 0.0 0 0 699.62 823.09
  L 718.67 822.99
  A 28.64 28.34 89.7 0 0 746.86 794.20
  L 746.82 784.84
  A 28.64 28.34 89.7 0 0 718.33 756.35
  L 699.28 756.45
  A 2.45 2.45 0.0 0 0 696.84 758.91
  Z"
/>
</g>
<g fill="#809147">
<path d="
  M 722.23 464.97
  L 722.28 421.01
  A 0.69 0.68 -89.6 0 1 722.96 420.33
  L 749.19 420.40
  A 0.82 0.75 33.4 0 0 749.44 420.36
  Q 759.33 417.77 759.56 407.48
  Q 759.69 401.40 754.80 397.45
  Q 739.77 385.32 726.34 373.92
  Q 726.00 373.63 725.80 373.88
  Q 723.87 371.48 721.19 369.95
  Q 721.21 369.90 721.24 369.85
  A 0.14 0.14 0.0 0 0 721.21 369.68
  L 703.89 355.32
  L 702.76 354.43
  Q 702.57 353.80 701.79 353.69
  Q 701.27 352.73 700.47 352.69
  Q 700.29 352.26 700.04 352.30
  Q 698.91 350.83 697.26 349.96
  Q 696.01 348.34 694.03 347.20
  Q 693.66 346.69 693.00 346.46
  L 692.79 346.22
  L 690.74 344.45
  Q 690.24 343.82 689.77 343.85
  Q 688.32 342.05 686.29 340.96
  Q 685.21 339.35 683.53 338.72
  Q 682.28 337.19 680.43 336.25
  Q 680.63 335.84 679.79 335.55
  Q 678.97 334.60 677.98 334.19
  L 677.80 333.98
  Q 677.13 332.74 676.28 332.75
  Q 675.51 331.37 674.25 330.98
  Q 673.73 330.07 672.76 329.77
  L 669.29 326.54
  Q 641.00 303.06 612.85 279.39
  Q 612.13 278.78 611.52 278.77
  Q 610.53 277.43 608.90 276.41
  L 590.68 261.21
  L 588.35 258.57
  Q 588.64 258.40 588.73 258.25
  Q 589.44 258.45 589.70 257.97
  C 597.83 242.82 614.12 231.89 631.76 233.13
  Q 632.24 233.17 632.33 232.85
  Q 632.42 232.56 632.22 232.14
  Q 632.64 232.62 633.54 231.87
  Q 634.25 232.13 634.43 231.00
  C 634.99 227.44 635.25 223.69 636.26 220.55
  C 645.73 191.06 680.91 179.78 705.60 197.59
  Q 722.78 209.98 726.02 230.75
  A 2.01 2.01 0.0 0 0 728.14 232.44
  C 751.47 230.84 774.07 238.88 786.66 259.40
  C 793.94 271.26 796.18 284.31 794.03 297.86
  A 2.75 2.74 -73.7 0 0 795.63 300.80
  Q 820.78 311.91 827.21 338.77
  Q 828.48 344.08 828.06 353.51
  Q 827.60 363.51 822.46 372.27
  C 820.88 374.95 819.28 376.60 816.93 378.84
  A 2.19 2.18 -39.6 0 0 816.66 381.69
  C 824.36 392.48 825.06 409.96 822.80 422.43
  C 819.14 442.61 805.94 460.13 788.21 470.69
  C 778.91 476.23 769.51 480.14 758.53 481.88
  Q 742.09 484.47 722.87 480.75
  A 0.96 0.95 -84.2 0 1 722.10 479.80
  L 722.23 464.97
  Z"
/>
<path d="
  M 292.55 362.96
  Q 292.48 363.38 292.82 363.74
  L 291.01 365.69
  Q 288.39 367.20 286.36 369.53
  Q 285.61 369.81 285.19 370.46
  Q 284.17 370.95 283.73 371.75
  L 280.01 374.79
  Q 279.66 374.83 279.44 375.22
  L 274.26 379.72
  Q 273.42 379.93 272.89 380.76
  L 271.71 381.67
  L 271.39 381.98
  L 269.97 383.18
  Q 269.77 383.31 269.69 383.48
  L 263.77 388.28
  Q 263.65 388.23 263.53 388.18
  A 0.05 0.05 0.0 0 0 263.48 388.19
  Q 258.14 392.43 254.41 395.66
  C 251.71 397.99 249.04 400.81 248.22 404.48
  C 246.53 411.97 250.93 420.19 259.27 420.52
  Q 268.71 420.90 281.37 421.18
  A 0.87 0.87 0.0 0 1 282.22 422.05
  L 282.53 468.78
  Q 281.87 468.91 281.34 470.02
  Q 281.28 469.62 281.09 469.56
  A 0.39 0.39 0.0 0 0 280.63 469.79
  C 273.01 487.88 258.25 502.75 241.35 512.15
  Q 223.68 521.98 203.20 524.31
  A 0.46 0.46 0.0 0 1 202.69 523.85
  L 202.69 498.07
  A 1.36 1.35 -10.8 0 1 203.55 496.81
  Q 213.21 492.97 221.55 486.26
  C 228.64 480.57 232.98 476.96 238.71 470.99
  C 242.82 466.71 245.53 459.58 239.51 456.01
  Q 235.34 453.53 231.15 456.14
  C 225.22 459.82 219.70 464.66 213.86 468.50
  Q 207.93 472.39 202.39 475.07
  A 0.34 0.34 0.0 0 1 201.90 474.76
  Q 202.01 461.47 201.45 446.44
  C 201.40 444.94 201.76 442.94 202.82 442.06
  Q 217.43 430.05 229.11 414.37
  C 232.82 409.39 236.63 402.55 237.70 396.26
  Q 238.45 391.92 235.16 389.52
  Q 231.15 386.58 226.55 389.54
  Q 223.76 391.34 223.11 392.12
  C 216.18 400.43 207.09 409.43 201.53 416.37
  A 0.55 0.54 -25.5 0 1 200.56 416.03
  Q 200.64 390.61 200.42 367.50
  Q 200.36 361.32 199.92 359.80
  C 198.31 354.22 192.64 353.07 187.69 354.17
  C 183.95 355.01 182.00 357.34 181.86 361.45
  C 181.53 371.64 181.70 387.34 181.72 413.18
  C 181.72 415.06 181.37 418.02 181.11 419.31
  A 0.49 0.49 0.0 0 1 180.42 419.66
  C 178.34 418.70 177.45 417.29 176.00 415.65
  Q 166.46 404.82 158.80 393.76
  Q 155.44 388.91 150.04 389.11
  C 142.19 389.40 142.94 398.26 145.38 403.17
  Q 148.73 409.92 151.73 414.02
  Q 163.71 430.39 179.09 443.40
  Q 181.10 445.11 181.14 447.16
  Q 181.38 457.92 180.96 472.54
  A 0.99 0.98 -72.7 0 1 179.44 473.34
  Q 174.05 469.82 168.88 465.12
  Q 156.55 453.91 153.79 451.21
  C 151.70 449.16 148.56 447.07 145.79 448.53
  C 139.82 451.67 140.54 458.11 143.65 463.12
  C 151.80 476.22 164.66 486.86 177.91 495.15
  C 180.96 497.05 180.12 499.62 180.11 502.56
  Q 180.08 513.34 181.23 524.55
  Q 156.93 521.43 137.75 509.22
  Q 123.39 500.08 113.66 486.85
  Q 102.26 471.37 99.45 452.91
  Q 98.81 448.71 98.86 445.59
  C 98.92 441.82 98.51 439.55 98.64 435.79
  Q 98.96 426.45 101.85 416.63
  A 3.34 3.32 -57.3 0 0 101.18 413.52
  C 93.33 404.39 87.32 393.11 86.70 380.99
  Q 86.19 371.20 87.43 365.29
  Q 91.96 343.60 109.98 330.14
  A 1.86 1.86 0.0 0 0 110.59 327.95
  C 109.31 324.79 108.29 321.38 107.95 317.88
  C 107.22 310.28 107.43 301.40 109.86 294.11
  Q 117.90 270.02 142.67 261.46
  A 1.90 1.87 -5.7 0 0 143.92 259.95
  C 146.28 243.73 156.45 229.29 171.00 221.94
  Q 183.82 215.46 199.33 216.86
  Q 219.02 218.63 233.19 234.33
  C 240.72 242.66 245.76 254.44 245.93 266.04
  Q 245.98 269.18 245.81 274.63
  A 1.71 1.71 0.0 0 0 247.22 276.37
  Q 258.63 278.40 268.47 284.84
  Q 291.99 300.24 296.44 328.64
  Q 297.24 333.77 296.83 339.31
  Q 295.91 351.54 292.22 362.77
  Q 292.10 363.11 292.55 362.96
  Z"
/>
<path d="
  M 281.72 550.10
  L 282.44 550.03
  L 282.86 566.09
  Q 281.40 565.23 277.12 565.38
  Q 268.21 565.70 263.22 570.54
  C 260.82 572.87 260.03 575.15 259.33 578.54
  Q 252.14 613.42 244.93 648.30
  Q 241.25 647.80 239.21 647.81
  Q 196.12 648.04 143.51 648.27
  Q 135.27 648.30 127.68 646.35
  A 1.61 1.61 0.0 0 1 126.49 644.97
  L 125.12 631.90
  Q 126.29 628.80 126.29 625.02
  Q 126.30 618.63 126.37 618.06
  C 129.31 594.17 144.93 574.17 168.69 568.49
  C 171.80 567.75 176.27 567.44 180.01 566.63
  Q 180.75 566.47 180.63 568.61
  Q 179.85 582.74 180.27 597.69
  C 180.41 602.69 179.67 607.99 180.67 612.90
  A 2.01 2.01 0.0 0 0 182.44 614.51
  Q 188.11 615.08 194.71 615.05
  C 197.83 615.03 202.12 615.34 202.32 611.02
  Q 203.27 590.46 202.49 569.21
  A 0.92 0.92 0.0 0 1 203.87 568.38
  L 217.09 576.02
  A 1.68 1.68 0.0 0 0 219.37 575.43
  Q 234.34 550.39 264.04 548.83
  C 268.66 548.59 273.64 549.30 278.21 549.81
  Q 279.18 549.92 280.76 550.60
  Q 281.53 550.93 281.72 550.10
  Z"
/>
<path d="
  M 814.61 592.31
  Q 814.83 593.36 815.63 594.69
  Q 815.23 595.77 817.22 594.43
  Q 827.76 587.31 840.07 585.68
  C 867.78 582.02 889.07 602.43 889.24 629.75
  Q 889.26 631.80 890.74 631.90
  L 888.88 646.76
  A 1.25 1.24 -86.3 0 1 887.65 647.85
  L 743.49 648.06
  A 0.12 0.10 -17.9 0 1 743.41 648.03
  Q 742.41 646.77 741.04 645.97
  Q 741.08 638.80 740.96 631.51
  Q 740.88 626.37 740.10 624.53
  C 737.18 617.65 729.29 618.92 723.30 618.85
  A 1.29 1.29 0.0 0 1 722.03 617.56
  L 722.07 601.40
  L 721.91 585.68
  Q 722.04 585.00 721.89 584.51
  L 722.00 583.81
  Q 722.52 584.16 723.10 582.95
  Q 723.10 583.13 723.13 583.24
  A 0.23 0.23 0.0 0 0 723.56 583.30
  Q 727.12 576.45 732.13 570.37
  C 737.04 564.40 742.56 560.91 749.81 558.09
  C 773.42 548.91 798.88 560.43 809.84 582.37
  Q 810.01 582.70 811.86 587.36
  Q 812.91 590.02 814.61 592.31
  Z"
/>
<path d="
  M 678.52 620.13
  Q 682.76 628.56 682.74 637.71
  A 0.41 0.41 0.0 0 0 683.15 638.12
  L 721.49 638.12
  A 1.18 1.17 -1.5 0 1 722.67 639.23
  Q 723.03 645.71 722.97 654.75
  Q 722.96 656.34 723.65 658.96
  Q 719.80 659.48 718.20 659.49
  Q 651.73 660.11 585.27 659.73
  Q 581.86 659.71 578.27 659.28
  L 578.42 639.20
  A 1.10 1.10 0.0 0 1 579.52 638.10
  L 599.44 638.10
  A 0.74 0.74 0.0 0 0 600.18 637.40
  Q 600.75 628.67 605.18 620.15
  Q 608.61 616.94 612.06 613.38
  Q 616.70 608.61 619.25 606.98
  Q 629.49 600.41 642.75 600.55
  Q 657.92 600.70 669.04 610.18
  Q 672.34 612.99 678.52 620.13
  Z"
/>
<path d="
  M 425.78 648.53
  Q 424.19 653.14 425.63 658.26
  A 0.39 0.39 0.0 0 1 425.25 658.76
  L 408.03 659.07
  Q 407.05 657.26 406.43 657.42
  L 402.42 637.74
  Q 402.58 637.73 402.62 637.59
  A 0.12 0.12 0.0 0 1 402.80 637.52
  Q 403.42 637.98 404.03 637.98
  Q 414.82 637.84 425.21 638.04
  A 0.66 0.66 0.0 0 1 425.86 638.71
  L 425.78 648.53
  Z"
/>
</g>
<g fill="#4e682e">
<path d="
  M 559.71 89.85
  Q 559.67 90.16 559.75 90.44
  Q 559.34 90.51 559.31 90.56
  A 0.69 0.68 39.8 0 0 559.40 91.44
  Q 576.70 108.25 594.06 126.16
  C 598.82 131.07 602.18 133.86 600.21 140.16
  C 599.18 143.48 596.53 145.00 593.20 145.14
  Q 591.71 145.20 579.28 145.43
  A 0.70 0.69 89.6 0 0 578.60 146.13
  L 578.76 250.35
  A 2.56 2.27 -56.9 0 0 578.87 251.08
  Q 579.33 252.62 580.58 253.68
  Q 585.36 257.70 590.68 261.21
  L 608.90 276.41
  Q 609.36 277.87 611.52 278.77
  Q 612.13 278.78 612.85 279.39
  Q 641.00 303.06 669.29 326.54
  Q 669.21 326.66 669.13 326.78
  A 0.27 0.25 41.0 0 0 669.16 327.09
  Q 670.69 328.79 672.76 329.77
  Q 673.15 330.86 674.25 330.98
  Q 674.95 332.35 676.28 332.75
  Q 676.67 333.85 677.80 333.98
  L 677.98 334.19
  Q 678.61 335.47 679.79 335.55
  Q 680.63 335.84 680.43 336.25
  Q 681.71 337.86 683.53 338.72
  Q 685.21 339.35 686.29 340.96
  Q 687.69 342.79 689.77 343.85
  Q 690.24 343.82 690.74 344.45
  Q 691.28 345.69 692.79 346.22
  L 693.00 346.46
  Q 693.21 347.34 694.03 347.20
  Q 696.01 348.34 697.26 349.96
  Q 698.28 351.47 700.04 352.30
  Q 700.29 352.26 700.47 352.69
  Q 700.88 353.47 701.79 353.69
  Q 702.57 353.80 702.76 354.43
  Q 703.06 355.48 703.89 355.32
  L 721.21 369.68
  A 0.14 0.14 0.0 0 1 721.24 369.85
  Q 721.21 369.90 721.19 369.95
  Q 723.12 372.35 725.80 373.88
  Q 726.00 373.63 726.34 373.92
  Q 739.77 385.32 754.80 397.45
  Q 759.69 401.40 759.56 407.48
  Q 759.33 417.77 749.44 420.36
  A 0.82 0.75 33.4 0 1 749.19 420.40
  L 722.96 420.33
  A 0.69 0.68 -89.6 0 0 722.28 421.01
  L 722.23 464.97
  L 722.15 464.47
  A 0.24 0.23 42.0 0 0 721.68 464.49
  Q 721.43 472.42 721.58 478.77
  Q 721.61 480.35 721.27 481.81
  A 1.58 1.47 54.3 0 0 721.22 482.20
  Q 721.14 523.05 721.27 582.25
  Q 721.27 583.41 721.89 584.51
  Q 722.04 585.00 721.91 585.68
  L 722.07 601.40
  L 722.03 617.56
  A 1.29 1.29 0.0 0 0 723.30 618.85
  C 729.29 618.92 737.18 617.65 740.10 624.53
  Q 740.88 626.37 740.96 631.51
  Q 741.08 638.80 741.04 645.97
  C 741.24 652.00 741.20 658.97 734.28 659.36
  Q 729.65 659.62 723.65 658.96
  Q 722.96 656.34 722.97 654.75
  Q 723.03 645.71 722.67 639.23
  A 1.18 1.17 -1.5 0 0 721.49 638.12
  L 683.15 638.12
  A 0.41 0.41 0.0 0 1 682.74 637.71
  Q 682.76 628.56 678.52 620.13
  Q 689.60 619.76 700.25 620.14
  Q 703.73 620.27 703.85 616.76
  C 704.19 606.92 703.68 597.24 703.67 588.33
  Q 703.61 524.66 703.57 474.42
  C 703.55 459.19 704.07 443.55 704.01 427.75
  Q 704.00 424.77 701.94 423.08
  Q 668.77 396.00 638.62 371.61
  Q 629.67 364.38 620.24 356.72
  Q 574.18 319.36 530.59 284.14
  Q 505.84 264.14 503.25 262.01
  A 1.53 1.52 45.6 0 0 501.34 261.98
  Q 491.51 269.67 485.14 274.89
  Q 427.91 321.76 404.99 340.49
  Q 375.71 364.43 371.22 367.95
  Q 365.02 372.80 356.36 380.10
  C 339.08 394.65 320.73 408.87 304.36 422.11
  Q 302.47 423.64 301.69 424.90
  A 2.14 2.09 61.0 0 0 301.39 425.99
  L 301.31 565.89
  L 284.40 566.47
  A 1.00 0.99 -0.3 0 1 283.37 565.46
  Q 283.67 548.35 283.90 535.49
  Q 284.10 523.78 283.82 509.50
  Q 283.56 496.53 283.99 483.53
  C 284.14 478.95 283.68 473.82 283.45 469.45
  A 0.41 0.41 0.0 0 0 282.93 469.07
  Q 282.74 469.12 282.56 469.22
  Q 282.83 469.42 282.53 468.78
  L 282.22 422.05
  A 0.87 0.87 0.0 0 0 281.37 421.18
  Q 268.71 420.90 259.27 420.52
  C 250.93 420.19 246.53 411.97 248.22 404.48
  C 249.04 400.81 251.71 397.99 254.41 395.66
  Q 258.14 392.43 263.48 388.19
  A 0.05 0.05 0.0 0 1 263.53 388.18
  Q 263.65 388.23 263.77 388.28
  L 269.69 383.48
  Q 269.77 383.31 269.97 383.18
  Q 270.97 382.91 271.39 381.98
  L 271.71 381.67
  Q 272.50 381.53 272.89 380.76
  Q 273.42 379.93 274.26 379.72
  Q 277.23 377.91 279.44 375.22
  Q 279.66 374.83 280.01 374.79
  L 283.73 371.75
  Q 284.65 371.41 285.19 370.46
  Q 285.98 370.19 286.36 369.53
  Q 288.39 367.20 291.01 365.69
  Q 295.85 362.85 301.70 357.95
  Q 381.86 290.75 422.50 256.78
  A 2.87 2.87 0.0 0 0 423.49 254.98
  Q 423.80 252.63 423.78 250.00
  Q 423.62 228.07 423.57 148.68
  Q 423.57 146.52 423.53 146.33
  Q 423.27 145.11 421.69 145.12
  Q 418.29 145.16 408.89 145.12
  C 402.00 145.08 400.47 137.44 402.59 132.49
  Q 403.04 131.43 408.14 126.13
  Q 429.87 103.56 442.47 90.98
  Q 443.26 90.19 442.95 89.55
  Q 464.08 68.40 485.31 47.31
  Q 488.05 44.58 492.77 40.28
  C 498.77 34.82 506.70 36.84 511.95 42.29
  Q 516.64 47.18 556.64 86.86
  Q 558.17 88.37 559.71 89.85
  Z
  M 464.01 96.13
  L 436.72 123.17
  L 434.64 125.73
  A 0.70 0.70 0.0 0 0 434.61 126.58
  L 435.02 127.17
  L 454.00 127.19
  Q 454.84 126.64 455.44 127.20
  L 465.01 127.16
  Q 465.10 126.99 465.45 127.12
  L 470.97 127.20
  Q 471.50 126.87 471.95 127.18
  L 487.28 127.22
  Q 487.40 127.20 487.52 127.18
  L 566.77 127.10
  Q 567.37 125.87 567.14 125.46
  Q 567.38 125.16 567.23 124.99
  Q 566.86 124.58 566.33 124.53
  L 563.04 120.93
  L 531.28 88.91
  L 502.00 59.48
  A 0.75 0.74 45.3 0 0 500.94 59.47
  L 464.01 96.13
  Z
  M 559.54 284.17
  Q 560.09 284.04 560.74 284.61
  Q 561.82 277.68 561.81 271.13
  C 561.71 209.19 562.03 169.66 561.43 147.01
  A 1.92 1.91 -0.8 0 0 559.51 145.15
  L 444.24 145.15
  A 2.31 2.31 0.0 0 0 441.93 147.46
  L 441.93 284.12
  A 1.56 1.56 0.0 0 0 444.51 285.30
  Q 463.17 269.09 484.13 251.47
  C 487.41 248.71 491.96 244.57 496.37 241.63
  C 498.93 239.92 502.12 240.56 504.28 240.37
  Q 507.21 240.11 510.99 243.29
  Q 518.86 249.92 555.40 281.38
  Q 557.27 283.00 558.50 284.29
  Q 558.83 284.63 559.06 284.58
  Q 559.32 284.53 559.54 284.17
  Z"
/>
<path d="
  M 292.55 362.96
  Q 292.10 363.11 292.22 362.77
  Q 295.91 351.54 296.83 339.31
  Q 297.24 333.77 296.44 328.64
  Q 291.99 300.24 268.47 284.84
  Q 258.63 278.40 247.22 276.37
  A 1.71 1.71 0.0 0 1 245.81 274.63
  Q 245.98 269.18 245.93 266.04
  C 245.76 254.44 240.72 242.66 233.19 234.33
  Q 219.02 218.63 199.33 216.86
  Q 183.82 215.46 171.00 221.94
  C 156.45 229.29 146.28 243.73 143.92 259.95
  A 1.90 1.87 -5.7 0 1 142.67 261.46
  Q 117.90 270.02 109.86 294.11
  C 107.43 301.40 107.22 310.28 107.95 317.88
  C 108.29 321.38 109.31 324.79 110.59 327.95
  A 1.86 1.86 0.0 0 1 109.98 330.14
  Q 91.96 343.60 87.43 365.29
  Q 86.19 371.20 86.70 380.99
  C 87.32 393.11 93.33 404.39 101.18 413.52
  A 3.34 3.32 -57.3 0 1 101.85 416.63
  Q 98.96 426.45 98.64 435.79
  C 98.51 439.55 98.92 441.82 98.86 445.59
  Q 98.81 448.71 99.45 452.91
  Q 102.26 471.37 113.66 486.85
  Q 123.39 500.08 137.75 509.22
  Q 156.93 521.43 181.23 524.55
  Q 182.15 538.27 181.82 560.82
  Q 181.74 565.80 180.63 568.61
  Q 180.75 566.47 180.01 566.63
  C 176.27 567.44 171.80 567.75 168.69 568.49
  C 144.93 574.17 129.31 594.17 126.37 618.06
  Q 126.30 618.63 126.29 625.02
  Q 126.29 628.80 125.12 631.90
  L 98.68 631.78
  A 0.91 0.91 0.0 0 0 97.76 632.71
  C 98.08 646.20 97.48 654.60 97.77 666.76
  Q 97.82 668.92 97.78 671.24
  Q 97.75 673.08 97.86 675.75
  Q 98.48 690.71 97.55 710.82
  L 97.10 630.88
  L 124.94 630.72
  A 0.26 0.26 0.0 0 0 125.20 630.43
  Q 123.38 608.10 136.08 589.83
  Q 151.83 567.16 179.69 565.96
  A 0.69 0.69 0.0 0 0 180.35 565.27
  L 180.35 525.87
  A 0.63 0.62 -89.1 0 0 179.75 525.24
  Q 177.63 525.18 176.07 524.90
  Q 151.37 520.49 131.56 506.15
  C 122.23 499.40 112.96 489.18 107.40 478.99
  Q 91.33 449.55 100.97 415.47
  A 0.95 0.93 -58.4 0 0 100.77 414.59
  C 84.21 396.05 80.11 371.39 92.07 349.24
  Q 98.62 337.09 109.34 329.25
  A 0.91 0.91 0.0 0 0 109.65 328.19
  Q 103.34 311.89 108.86 294.54
  Q 116.98 269.02 142.36 260.56
  A 0.71 0.69 -5.7 0 0 142.83 260.00
  C 145.92 241.27 157.88 225.60 175.59 218.73
  C 192.83 212.04 213.26 215.50 227.61 227.60
  Q 249.33 245.92 246.74 274.60
  A 0.67 0.66 8.7 0 0 247.27 275.31
  C 265.49 278.94 280.74 289.88 289.95 306.21
  Q 302.69 328.83 295.00 356.75
  Q 293.85 360.92 292.55 362.96
  Z"
/>
<path d="
  M 632.22 232.14
  Q 632.42 232.56 632.33 232.85
  Q 632.24 233.17 631.76 233.13
  C 614.12 231.89 597.83 242.82 589.70 257.97
  Q 589.44 258.45 588.73 258.25
  C 591.83 250.16 600.12 242.51 607.39 238.18
  Q 619.49 230.97 632.22 232.14
  Z"
/>
<path d="
  M 605.18 620.15
  Q 600.75 628.67 600.18 637.40
  A 0.74 0.74 0.0 0 1 599.44 638.10
  L 579.52 638.10
  A 1.10 1.10 0.0 0 0 578.42 639.20
  L 578.27 659.28
  C 578.04 664.15 578.48 669.08 572.96 671.24
  C 570.63 672.15 565.87 671.94 562.64 671.93
  Q 516.06 671.76 444.69 671.92
  Q 434.56 671.94 432.52 671.21
  Q 426.90 669.18 426.32 661.50
  Q 425.83 655.02 425.78 648.53
  L 425.86 638.71
  A 0.66 0.66 0.0 0 0 425.21 638.04
  Q 414.82 637.84 404.03 637.98
  Q 403.42 637.98 402.80 637.52
  A 0.12 0.12 0.0 0 0 402.62 637.59
  Q 402.58 637.73 402.42 637.74
  Q 402.64 637.79 402.42 637.59
  A 0.63 0.59 16.5 0 1 402.22 637.25
  L 398.79 620.06
  L 441.11 619.65
  A 1.83 1.83 0.0 0 0 442.92 617.82
  L 442.92 445.53
  A 0.61 0.51 -40.3 0 1 442.95 445.35
  Q 443.93 441.95 447.27 441.94
  Q 534.01 441.76 553.44 441.90
  C 559.69 441.94 560.93 443.05 561.05 449.29
  Q 561.41 466.55 561.31 499.50
  Q 561.24 522.88 561.25 618.19
  A 1.58 1.57 -89.8 0 0 562.81 619.77
  L 605.18 620.15
  Z"
/>
<path d="
  M 906.71 630.74
  L 906.63 632.00
  L 890.74 631.90
  Q 889.26 631.80 889.24 629.75
  C 889.07 602.43 867.78 582.02 840.07 585.68
  Q 827.76 587.31 817.22 594.43
  Q 815.23 595.77 815.63 594.69
  Q 818.94 592.33 822.03 590.57
  C 846.36 576.65 876.78 585.64 887.11 612.31
  Q 890.46 620.97 890.27 630.12
  A 0.66 0.65 -90.0 0 0 890.93 630.79
  L 906.71 630.74
  Z"
/>
<path d="
  M 906.49 680.80
  L 906.42 710.96
  L 905.92 679.73
  A 0.21 0.21 0.0 0 1 906.31 679.63
  Q 906.47 679.94 906.49 680.80
  Z"
/>
</g>
<g fill="#4e3d13">
<path d="
  M 722.00 583.81
  L 721.89 584.51
  Q 721.27 583.41 721.27 582.25
  Q 721.14 523.05 721.22 482.20
  A 1.58 1.47 54.3 0 1 721.27 481.81
  Q 721.61 480.35 721.58 478.77
  Q 721.43 472.42 721.68 464.49
  A 0.24 0.23 42.0 0 1 722.15 464.47
  L 722.23 464.97
  L 722.10 479.80
  A 0.96 0.95 -84.2 0 0 722.87 480.75
  Q 742.09 484.47 758.53 481.88
  C 769.51 480.14 778.91 476.23 788.21 470.69
  C 805.94 460.13 819.14 442.61 822.80 422.43
  C 825.06 409.96 824.36 392.48 816.66 381.69
  A 2.19 2.18 -39.6 0 1 816.93 378.84
  C 819.28 376.60 820.88 374.95 822.46 372.27
  Q 827.60 363.51 828.06 353.51
  Q 828.48 344.08 827.21 338.77
  Q 820.78 311.91 795.63 300.80
  A 2.75 2.74 -73.7 0 1 794.03 297.86
  C 796.18 284.31 793.94 271.26 786.66 259.40
  C 774.07 238.88 751.47 230.84 728.14 232.44
  A 2.01 2.01 0.0 0 1 726.02 230.75
  Q 722.78 209.98 705.60 197.59
  C 680.91 179.78 645.73 191.06 636.26 220.55
  C 635.25 223.69 634.99 227.44 634.43 231.00
  Q 634.25 232.13 633.54 231.87
  C 633.56 218.91 640.58 206.26 650.39 198.25
  C 666.74 184.92 689.63 184.65 706.59 197.05
  Q 723.61 209.50 727.10 231.12
  A 0.61 0.60 82.1 0 0 727.77 231.63
  Q 736.52 230.50 746.73 232.28
  C 767.29 235.86 783.54 247.98 791.68 267.08
  Q 797.98 281.85 795.01 298.68
  A 1.06 1.05 -74.6 0 0 795.67 299.85
  Q 801.93 302.26 808.05 306.95
  Q 826.70 321.27 829.21 345.52
  C 830.49 357.90 826.62 371.20 817.22 379.90
  A 0.57 0.56 51.6 0 0 817.14 380.64
  Q 822.06 387.99 823.65 396.80
  C 828.61 424.37 817.87 449.20 796.27 466.04
  Q 773.93 483.45 745.79 483.78
  C 737.38 483.87 730.38 483.37 722.90 481.16
  A 0.59 0.59 0.0 0 0 722.14 481.73
  L 722.00 583.81
  Z"
/>
<path d="
  M 608.90 276.41
  Q 610.53 277.43 611.52 278.77
  Q 609.36 277.87 608.90 276.41
  Z"
/>
<path d="
  M 669.29 326.54
  L 672.76 329.77
  Q 670.69 328.79 669.16 327.09
  A 0.27 0.25 41.0 0 1 669.13 326.78
  Q 669.21 326.66 669.29 326.54
  Z"
/>
<path d="
  M 674.25 330.98
  Q 673.15 330.86 672.76 329.77
  Q 673.73 330.07 674.25 330.98
  Z"
/>
<path d="
  M 676.28 332.75
  Q 674.95 332.35 674.25 330.98
  Q 675.51 331.37 676.28 332.75
  Z"
/>
<path d="
  M 677.80 333.98
  Q 676.67 333.85 676.28 332.75
  Q 677.13 332.74 677.80 333.98
  Z"
/>
<path d="
  M 679.79 335.55
  Q 678.61 335.47 677.98 334.19
  Q 678.97 334.60 679.79 335.55
  Z"
/>
<path d="
  M 689.77 343.85
  Q 687.69 342.79 686.29 340.96
  Q 688.32 342.05 689.77 343.85
  Z"
/>
<path d="
  M 694.03 347.20
  Q 693.21 347.34 693.00 346.46
  Q 693.66 346.69 694.03 347.20
  Z"
/>
<path d="
  M 700.04 352.30
  Q 698.28 351.47 697.26 349.96
  Q 698.91 350.83 700.04 352.30
  Z"
/>
<path d="
  M 701.79 353.69
  Q 700.88 353.47 700.47 352.69
  Q 701.27 352.73 701.79 353.69
  Z"
/>
<path d="
  M 286.36 369.53
  Q 285.98 370.19 285.19 370.46
  Q 285.61 369.81 286.36 369.53
  Z"
/>
<path d="
  M 725.80 373.88
  Q 723.12 372.35 721.19 369.95
  Q 723.87 371.48 725.80 373.88
  Z"
/>
<path d="
  M 285.19 370.46
  Q 284.65 371.41 283.73 371.75
  Q 284.17 370.95 285.19 370.46
  Z"
/>
<path d="
  M 283.73 371.75
  L 280.01 374.79
  L 283.73 371.75
  Z"
/>
<path d="
  M 279.44 375.22
  Q 277.23 377.91 274.26 379.72
  L 279.44 375.22
  Z"
/>
<path d="
  M 272.89 380.76
  Q 272.50 381.53 271.71 381.67
  L 272.89 380.76
  Z"
/>
<path d="
  M 271.39 381.98
  Q 270.97 382.91 269.97 383.18
  L 271.39 381.98
  Z"
/>
<path d="
  M 269.69 383.48
  L 263.77 388.28
  L 269.69 383.48
  Z"
/>
<path d="
  M 301.31 565.89
  Q 301.25 566.72 303.50 566.72
  Q 366.92 566.81 373.75 566.81
  C 378.43 566.81 384.21 568.05 386.99 572.27
  Q 388.83 575.08 389.81 580.48
  Q 393.83 602.57 397.15 618.06
  Q 397.57 620.02 398.79 620.06
  L 402.22 637.25
  A 0.63 0.59 16.5 0 0 402.42 637.59
  Q 402.64 637.79 402.42 637.74
  L 406.43 657.42
  Q 406.87 659.09 406.76 660.30
  Q 405.38 659.27 406.14 663.13
  Q 410.40 684.75 412.01 694.25
  Q 412.43 696.74 412.23 699.08
  A 1.86 1.82 -24.1 0 1 411.86 700.02
  C 409.68 702.79 404.57 702.35 401.00 702.16
  Q 397.09 701.96 396.47 697.99
  Q 395.13 689.44 394.10 684.95
  A 0.79 0.78 -8.0 0 0 393.30 684.35
  Q 388.30 684.55 383.25 685.23
  Q 382.65 685.32 382.65 685.91
  Q 382.65 686.14 383.24 686.05
  L 383.06 686.26
  A 0.89 0.89 0.0 0 0 382.86 686.90
  Q 383.65 695.67 383.67 696.03
  C 384.14 704.16 376.20 703.65 370.02 703.30
  C 367.58 703.17 366.20 701.85 365.69 699.77
  Q 365.03 697.08 363.76 687.59
  A 1.79 1.78 86.3 0 0 361.99 686.03
  L 297.61 686.03
  A 0.93 0.92 -88.7 0 0 296.69 686.92
  Q 296.53 691.03 295.43 695.46
  C 293.49 703.23 289.06 703.44 282.26 703.50
  Q 274.25 703.59 275.65 695.52
  Q 276.66 689.80 277.22 686.72
  A 0.54 0.53 5.9 0 0 276.70 686.09
  C 270.45 686.07 263.65 686.24 257.60 685.03
  A 0.68 0.67 9.0 0 0 256.79 685.61
  Q 256.25 690.09 254.95 695.46
  C 253.68 700.76 252.50 703.45 246.23 703.38
  C 241.06 703.32 234.89 703.08 236.39 695.64
  Q 242.22 666.84 257.27 593.76
  Q 259.18 584.47 259.94 579.69
  Q 261.46 570.22 269.83 567.42
  Q 271.98 566.69 276.29 566.45
  Q 279.36 566.28 282.86 566.09
  L 282.44 550.03
  L 282.56 469.22
  Q 282.74 469.12 282.93 469.07
  A 0.41 0.41 0.0 0 1 283.45 469.45
  C 283.68 473.82 284.14 478.95 283.99 483.53
  Q 283.56 496.53 283.82 509.50
  Q 284.10 523.78 283.90 535.49
  Q 283.67 548.35 283.37 565.46
  A 1.00 0.99 -0.3 0 0 284.40 566.47
  L 301.31 565.89
  Z
  M 279.98 581.15
  Q 275.46 583.79 274.54 588.55
  Q 264.65 639.42 259.13 664.62
  Q 258.45 667.72 260.09 669.91
  C 261.95 672.39 269.27 671.90 272.00 671.89
  Q 307.81 671.80 383.00 671.89
  C 387.57 671.90 392.14 670.40 391.15 665.12
  C 386.16 638.48 380.59 615.19 376.35 588.63
  Q 375.82 585.34 373.72 582.69
  Q 372.76 581.43 370.79 581.05
  Q 368.48 580.61 366.13 580.61
  Q 324.69 580.59 281.75 580.72
  Q 280.11 580.73 279.98 581.15
  Z"
/>
<path d="
  M 814.61 592.31
  Q 812.91 590.02 811.86 587.36
  Q 810.01 582.70 809.84 582.37
  C 798.88 560.43 773.42 548.91 749.81 558.09
  C 742.56 560.91 737.04 564.40 732.13 570.37
  Q 727.12 576.45 723.56 583.30
  A 0.23 0.23 0.0 0 1 723.13 583.24
  Q 723.10 583.13 723.10 582.95
  Q 724.69 579.31 729.77 572.27
  C 743.17 553.70 768.83 548.83 788.74 559.54
  Q 808.48 570.15 814.61 592.31
  Z"
/>
<path d="
  M 721.91 585.68
  L 722.07 601.40
  L 721.91 585.68
  Z"
/>
</g>
<path fill="#91703a" d="
  M 281.34 470.02
  Q 279.19 475.64 275.80 480.83
  Q 261.08 503.40 236.86 515.34
  Q 220.82 523.25 203.01 525.41
  A 0.56 0.55 86.5 0 0 202.53 525.96
  L 202.53 566.69
  A 1.36 1.35 -80.3 0 0 203.43 567.97
  Q 210.85 570.59 217.77 575.31
  A 0.55 0.54 32.2 0 0 218.54 575.14
  Q 228.94 557.34 247.56 550.73
  C 257.90 547.06 269.70 547.18 280.36 549.34
  Q 281.27 549.53 281.72 550.10
  Q 281.53 550.93 280.76 550.60
  Q 279.18 549.92 278.21 549.81
  C 273.64 549.30 268.66 548.59 264.04 548.83
  Q 234.34 550.39 219.37 575.43
  A 1.68 1.68 0.0 0 1 217.09 576.02
  L 203.87 568.38
  A 0.92 0.92 0.0 0 0 202.49 569.21
  Q 203.27 590.46 202.32 611.02
  C 202.12 615.34 197.83 615.03 194.71 615.05
  Q 188.11 615.08 182.44 614.51
  A 2.01 2.01 0.0 0 1 180.67 612.90
  C 179.67 607.99 180.41 602.69 180.27 597.69
  Q 179.85 582.74 180.63 568.61
  Q 181.74 565.80 181.82 560.82
  Q 182.15 538.27 181.23 524.55
  Q 180.08 513.34 180.11 502.56
  C 180.12 499.62 180.96 497.05 177.91 495.15
  C 164.66 486.86 151.80 476.22 143.65 463.12
  C 140.54 458.11 139.82 451.67 145.79 448.53
  C 148.56 447.07 151.70 449.16 153.79 451.21
  Q 156.55 453.91 168.88 465.12
  Q 174.05 469.82 179.44 473.34
  A 0.99 0.98 -72.7 0 0 180.96 472.54
  Q 181.38 457.92 181.14 447.16
  Q 181.10 445.11 179.09 443.40
  Q 163.71 430.39 151.73 414.02
  Q 148.73 409.92 145.38 403.17
  C 142.94 398.26 142.19 389.40 150.04 389.11
  Q 155.44 388.91 158.80 393.76
  Q 166.46 404.82 176.00 415.65
  C 177.45 417.29 178.34 418.70 180.42 419.66
  A 0.49 0.49 0.0 0 0 181.11 419.31
  C 181.37 418.02 181.72 415.06 181.72 413.18
  C 181.70 387.34 181.53 371.64 181.86 361.45
  C 182.00 357.34 183.95 355.01 187.69 354.17
  C 192.64 353.07 198.31 354.22 199.92 359.80
  Q 200.36 361.32 200.42 367.50
  Q 200.64 390.61 200.56 416.03
  A 0.55 0.54 -25.5 0 0 201.53 416.37
  C 207.09 409.43 216.18 400.43 223.11 392.12
  Q 223.76 391.34 226.55 389.54
  Q 231.15 386.58 235.16 389.52
  Q 238.45 391.92 237.70 396.26
  C 236.63 402.55 232.82 409.39 229.11 414.37
  Q 217.43 430.05 202.82 442.06
  C 201.76 442.94 201.40 444.94 201.45 446.44
  Q 202.01 461.47 201.90 474.76
  A 0.34 0.34 0.0 0 0 202.39 475.07
  Q 207.93 472.39 213.86 468.50
  C 219.70 464.66 225.22 459.82 231.15 456.14
  Q 235.34 453.53 239.51 456.01
  C 245.53 459.58 242.82 466.71 238.71 470.99
  C 232.98 476.96 228.64 480.57 221.55 486.26
  Q 213.21 492.97 203.55 496.81
  A 1.36 1.35 -10.8 0 0 202.69 498.07
  L 202.69 523.85
  A 0.46 0.46 0.0 0 0 203.20 524.31
  Q 223.68 521.98 241.35 512.15
  C 258.25 502.75 273.01 487.88 280.63 469.79
  A 0.39 0.39 0.0 0 1 281.09 469.56
  Q 281.28 469.62 281.34 470.02
  Z"
/>
<g fill="#d9bf7d">
<path d="
  M 442.22 90.02
  L 430.95 101.54
  L 431.06 100.86
  A 0.35 0.34 72.0 0 0 430.48 100.56
  L 423.42 107.63
  A 4.03 4.03 0.0 0 1 420.57 108.81
  Q 290.71 108.81 162.15 108.84
  Q 142.27 108.85 139.37 109.32
  C 119.43 112.53 103.79 127.64 98.31 147.05
  Q 96.91 152.01 96.80 160.60
  Q 96.55 180.68 96.56 202.00
  Q 96.59 243.33 96.55 330.00
  Q 96.55 332.02 96.94 337.37
  A 6.34 6.29 61.4 0 1 95.71 341.60
  Q 88.48 351.34 85.40 362.91
  Q 84.28 367.13 84.15 372.31
  Q 83.94 380.59 84.12 381.82
  Q 86.43 397.51 95.81 410.51
  A 6.85 6.85 0.0 0 1 97.08 415.19
  C 96.75 418.74 97.29 422.42 96.84 426.09
  Q 95.91 433.63 95.97 443.58
  Q 95.99 448.36 96.52 452.40
  C 97.28 458.19 96.64 464.21 96.59 469.75
  Q 96.52 477.62 96.51 607.75
  Q 96.51 622.19 97.10 630.88
  L 97.55 710.82
  Q 96.92 711.24 97.20 713.22
  Q 96.85 713.37 96.98 713.92
  Q 96.56 723.58 96.50 743.75
  Q 96.38 783.34 96.58 814.79
  Q 96.60 817.67 96.70 819.22
  C 96.93 823.01 96.72 826.91 97.29 830.31
  C 101.00 852.41 118.31 871.51 141.50 872.77
  Q 144.86 872.96 151.50 872.96
  Q 835.15 872.94 837.75 872.93
  Q 848.78 872.91 853.92 873.00
  Q 863.26 873.18 869.92 871.37
  C 888.52 866.33 900.52 852.62 905.70 834.41
  C 907.52 828.04 907.21 817.63 907.21 812.50
  Q 907.21 749.90 907.36 729.18
  Q 907.37 728.25 907.36 717.76
  Q 907.36 715.30 906.31 713.93
  Q 906.60 713.71 906.33 713.44
  Q 906.87 712.10 906.42 710.96
  L 906.49 680.80
  Q 906.63 680.65 906.75 680.38
  A 0.66 0.63 -34.0 0 0 906.81 680.11
  L 906.63 632.00
  L 906.71 630.74
  Q 906.98 630.66 907.17 630.29
  A 0.62 0.52 61.8 0 0 907.22 630.05
  Q 907.15 360.20 907.24 168.07
  Q 907.24 152.40 905.85 147.16
  Q 902.50 134.53 892.53 124.09
  Q 878.06 108.95 856.78 108.92
  Q 626.90 108.64 588.02 109.03
  Q 583.81 109.07 581.85 109.06
  A 4.40 4.40 0.0 0 1 578.76 107.77
  L 563.90 92.90
  A 0.47 0.46 -74.2 0 0 563.12 93.34
  L 563.27 94.01
  L 559.75 90.44
  Q 559.67 90.16 559.71 89.85
  L 862.05 90.12
  A 4.17 3.90 52.4 0 1 863.33 90.33
  C 865.28 90.99 867.32 90.93 869.44 91.36
  Q 883.15 94.14 894.62 101.84
  Q 918.86 118.11 924.57 145.53
  Q 925.88 151.83 925.88 165.10
  Q 925.82 633.55 925.85 821.56
  Q 925.85 826.01 925.55 827.92
  C 925.06 831.04 925.17 833.42 924.55 836.33
  C 919.16 861.73 901.55 881.49 877.01 889.49
  Q 867.26 892.67 857.27 892.67
  Q 528.32 892.67 142.46 892.68
  Q 138.60 892.68 132.12 891.21
  Q 126.92 890.03 122.13 888.10
  Q 93.32 876.49 82.48 847.79
  Q 79.91 840.97 79.01 833.01
  Q 78.28 826.54 78.28 817.75
  Q 78.32 694.11 78.29 157.03
  Q 78.29 139.54 88.22 123.43
  Q 102.74 99.90 130.23 92.01
  Q 132.62 91.32 138.22 90.53
  Q 142.02 89.99 146.31 89.99
  Q 294.05 89.99 442.22 90.02
  Z"
/>
<path d="
  M 282.86 566.09
  Q 279.36 566.28 276.29 566.45
  Q 271.98 566.69 269.83 567.42
  Q 261.46 570.22 259.94 579.69
  Q 259.18 584.47 257.27 593.76
  Q 242.22 666.84 236.39 695.64
  C 234.89 703.08 241.06 703.32 246.23 703.38
  C 252.50 703.45 253.68 700.76 254.95 695.46
  Q 256.25 690.09 256.79 685.61
  A 0.68 0.67 9.0 0 1 257.60 685.03
  C 263.65 686.24 270.45 686.07 276.70 686.09
  A 0.54 0.53 5.9 0 1 277.22 686.72
  Q 276.66 689.80 275.65 695.52
  Q 274.25 703.59 282.26 703.50
  C 289.06 703.44 293.49 703.23 295.43 695.46
  Q 296.53 691.03 296.69 686.92
  A 0.93 0.92 -88.7 0 1 297.61 686.03
  L 361.99 686.03
  A 1.79 1.78 86.3 0 1 363.76 687.59
  Q 365.03 697.08 365.69 699.77
  C 366.20 701.85 367.58 703.17 370.02 703.30
  C 376.20 703.65 384.14 704.16 383.67 696.03
  Q 383.65 695.67 382.86 686.90
  A 0.89 0.89 0.0 0 1 383.06 686.26
  L 383.24 686.05
  L 392.65 685.17
  A 0.52 0.52 0.0 0 1 393.21 685.60
  Q 394.59 694.47 395.72 699.03
  Q 396.53 702.30 398.88 702.89
  C 401.99 703.66 409.55 704.20 412.07 701.51
  Q 414.10 699.34 413.72 696.77
  Q 412.34 687.63 406.76 660.30
  Q 406.87 659.09 406.43 657.42
  Q 407.05 657.26 408.03 659.07
  Q 410.83 674.42 413.74 689.66
  Q 414.02 691.17 414.83 696.02
  C 415.53 700.24 412.90 703.29 408.77 704.14
  Q 404.08 705.11 399.26 704.28
  A 3.74 3.64 -27.3 0 1 398.34 704.00
  C 394.75 702.36 394.25 698.53 393.48 694.25
  Q 393.17 692.57 392.31 688.05
  A 1.30 1.30 0.0 0 0 391.03 686.99
  L 385.42 686.99
  A 1.17 1.17 0.0 0 0 384.26 688.33
  Q 384.58 690.57 384.85 695.71
  C 385.34 705.04 376.54 704.82 370.06 704.37
  Q 365.19 704.02 364.35 699.17
  Q 363.50 694.21 362.65 688.54
  A 1.45 1.44 -4.1 0 0 361.22 687.31
  L 298.83 687.31
  A 0.96 0.95 -87.0 0 0 297.88 688.17
  Q 297.44 692.58 296.15 697.15
  C 294.22 703.98 287.69 704.88 281.48 704.55
  C 275.86 704.26 273.68 700.46 274.62 695.14
  Q 275.81 688.39 276.04 687.55
  A 0.46 0.46 0.0 0 0 275.60 686.96
  L 258.12 686.96
  A 0.39 0.38 4.4 0 0 257.74 687.28
  Q 256.86 693.47 255.08 698.81
  C 253.69 702.93 250.74 704.53 246.43 704.47
  C 241.80 704.40 238.55 704.81 235.80 700.92
  A 2.09 2.02 -66.1 0 1 235.43 699.91
  Q 235.00 695.53 235.18 694.75
  Q 240.29 671.58 244.93 648.30
  Q 252.14 613.42 259.33 578.54
  C 260.03 575.15 260.82 572.87 263.22 570.54
  Q 268.21 565.70 277.12 565.38
  Q 281.40 565.23 282.86 566.09
  Z"
/>
</g>
<g fill="#080401" fill-opacity="0.996">
<path d="
  M 442.95 89.55
  Q 443.26 90.19 442.47 90.98
  Q 429.87 103.56 408.14 126.13
  Q 403.04 131.43 402.59 132.49
  C 400.47 137.44 402.00 145.08 408.89 145.12
  Q 418.29 145.16 421.69 145.12
  Q 423.27 145.11 423.53 146.33
  Q 423.57 146.52 423.57 148.68
  Q 423.62 228.07 423.78 250.00
  Q 423.80 252.63 423.49 254.98
  A 2.87 2.87 0.0 0 1 422.50 256.78
  Q 381.86 290.75 301.70 357.95
  Q 295.85 362.85 291.01 365.69
  L 292.82 363.74
  Q 293.72 363.38 293.93 363.20
  Q 328.53 334.36 389.69 282.96
  Q 405.91 269.33 420.68 257.18
  Q 422.42 255.75 422.43 253.75
  Q 422.57 213.17 422.45 146.33
  A 0.27 0.27 0.0 0 0 422.17 146.06
  Q 419.00 146.18 410.96 146.19
  Q 406.83 146.19 405.17 145.27
  C 400.41 142.64 399.59 136.21 401.88 131.83
  Q 402.59 130.47 408.01 124.90
  Q 419.46 113.15 430.95 101.54
  L 442.22 90.02
  Q 442.19 89.78 442.95 89.55
  Z"
/>
<path d="
  M 559.75 90.44
  L 563.27 94.01
  Q 581.19 111.68 598.92 129.59
  C 605.01 135.74 601.85 146.53 592.53 146.42
  Q 580.90 146.28 580.46 146.27
  A 0.56 0.55 0.5 0 0 579.89 146.82
  L 579.89 249.81
  A 3.91 3.90 -70.5 0 0 581.33 252.84
  L 588.35 258.57
  L 590.68 261.21
  Q 585.36 257.70 580.58 253.68
  Q 579.33 252.62 578.87 251.08
  A 2.56 2.27 -56.9 0 1 578.76 250.35
  L 578.60 146.13
  A 0.70 0.69 89.6 0 1 579.28 145.43
  Q 591.71 145.20 593.20 145.14
  C 596.53 145.00 599.18 143.48 600.21 140.16
  C 602.18 133.86 598.82 131.07 594.06 126.16
  Q 576.70 108.25 559.40 91.44
  A 0.69 0.68 39.8 0 1 559.31 90.56
  Q 559.34 90.51 559.75 90.44
  Z"
/>
<path d="
  M 678.52 620.13
  Q 672.34 612.99 669.04 610.18
  Q 657.92 600.70 642.75 600.55
  Q 629.49 600.41 619.25 606.98
  Q 616.70 608.61 612.06 613.38
  Q 608.61 616.94 605.18 620.15
  L 562.81 619.77
  A 1.58 1.57 -89.8 0 1 561.25 618.19
  Q 561.24 522.88 561.31 499.50
  Q 561.41 466.55 561.05 449.29
  C 560.93 443.05 559.69 441.94 553.44 441.90
  Q 534.01 441.76 447.27 441.94
  Q 443.93 441.95 442.95 445.35
  A 0.61 0.51 -40.3 0 0 442.92 445.53
  L 442.92 617.82
  A 1.83 1.83 0.0 0 1 441.11 619.65
  L 398.79 620.06
  Q 397.57 620.02 397.15 618.06
  Q 393.83 602.57 389.81 580.48
  Q 388.83 575.08 386.99 572.27
  C 384.21 568.05 378.43 566.81 373.75 566.81
  Q 366.92 566.81 303.50 566.72
  Q 301.25 566.72 301.31 565.89
  L 301.39 425.99
  A 2.14 2.09 61.0 0 1 301.69 424.90
  Q 302.47 423.64 304.36 422.11
  C 320.73 408.87 339.08 394.65 356.36 380.10
  Q 365.02 372.80 371.22 367.95
  Q 375.71 364.43 404.99 340.49
  Q 427.91 321.76 485.14 274.89
  Q 491.51 269.67 501.34 261.98
  A 1.53 1.52 45.6 0 1 503.25 262.01
  Q 505.84 264.14 530.59 284.14
  Q 574.18 319.36 620.24 356.72
  Q 629.67 364.38 638.62 371.61
  Q 668.77 396.00 701.94 423.08
  Q 704.00 424.77 704.01 427.75
  C 704.07 443.55 703.55 459.19 703.57 474.42
  Q 703.61 524.66 703.67 588.33
  C 703.68 597.24 704.19 606.92 703.85 616.76
  Q 703.73 620.27 700.25 620.14
  Q 689.60 619.76 678.52 620.13
  Z
  M 302.28 565.31
  A 0.57 0.56 -0.0 0 0 302.85 565.87
  Q 331.04 565.80 370.90 565.92
  C 374.52 565.94 378.42 565.76 381.49 566.78
  C 386.88 568.57 389.76 573.31 390.70 578.78
  Q 391.05 580.78 398.22 618.00
  A 1.18 1.17 84.7 0 0 399.37 618.96
  L 441.14 618.96
  A 0.58 0.58 0.0 0 0 441.72 618.38
  Q 441.58 533.81 441.67 447.25
  C 441.67 442.14 445.18 441.00 449.85 440.99
  Q 496.34 440.87 550.50 440.94
  C 555.12 440.94 561.05 440.13 561.85 445.92
  Q 562.11 447.84 562.12 454.00
  Q 562.27 539.13 562.12 618.31
  A 0.61 0.61 0.0 0 0 562.73 618.92
  L 605.07 618.92
  A 2.06 2.05 21.3 0 0 606.58 618.26
  C 608.77 615.87 611.10 612.73 613.44 610.58
  Q 624.17 600.73 637.98 599.60
  C 653.68 598.31 668.78 605.18 677.36 618.50
  A 0.88 0.86 73.2 0 0 678.09 618.90
  L 701.56 618.90
  A 0.99 0.99 0.0 0 0 702.55 617.91
  L 702.55 425.63
  A 1.27 1.26 19.6 0 0 702.08 424.65
  L 502.40 262.48
  A 0.25 0.25 0.0 0 0 502.09 262.47
  Q 482.08 278.34 460.42 296.20
  C 424.48 325.83 406.72 340.17 361.95 376.70
  C 355.59 381.89 350.48 386.30 345.51 390.25
  Q 325.10 406.46 303.23 424.07
  A 2.57 2.53 -19.8 0 0 302.28 426.05
  L 302.28 565.31
  Z"
/>
<path d="
  M 683.53 338.72
  Q 681.71 337.86 680.43 336.25
  Q 682.28 337.19 683.53 338.72
  Z"
/>
<path d="
  M 692.79 346.22
  Q 691.28 345.69 690.74 344.45
  L 692.79 346.22
  Z"
/>
<path d="
  M 703.89 355.32
  Q 703.06 355.48 702.76 354.43
  L 703.89 355.32
  Z"
/>
<path d="
  M 406.76 660.30
  Q 412.34 687.63 413.72 696.77
  Q 414.10 699.34 412.07 701.51
  C 409.55 704.20 401.99 703.66 398.88 702.89
  Q 396.53 702.30 395.72 699.03
  Q 394.59 694.47 393.21 685.60
  A 0.52 0.52 0.0 0 0 392.65 685.17
  L 383.24 686.05
  Q 382.65 686.14 382.65 685.91
  Q 382.65 685.32 383.25 685.23
  Q 388.30 684.55 393.30 684.35
  A 0.79 0.78 -8.0 0 1 394.10 684.95
  Q 395.13 689.44 396.47 697.99
  Q 397.09 701.96 401.00 702.16
  C 404.57 702.35 409.68 702.79 411.86 700.02
  A 1.86 1.82 -24.1 0 0 412.23 699.08
  Q 412.43 696.74 412.01 694.25
  Q 410.40 684.75 406.14 663.13
  Q 405.38 659.27 406.76 660.30
  Z"
/>
<path d="
  M 906.33 713.44
  Q 906.60 713.71 906.31 713.93
  L 96.98 713.92
  Q 96.85 713.37 97.20 713.22
  L 906.33 713.44
  Z"
/>
</g>
<path fill="#8f9a4e" d="
  M 125.12 631.90
  L 126.49 644.97
  A 1.61 1.61 0.0 0 0 127.68 646.35
  Q 135.27 648.30 143.51 648.27
  Q 196.12 648.04 239.21 647.81
  Q 241.25 647.80 244.93 648.30
  Q 240.29 671.58 235.18 694.75
  Q 235.00 695.53 235.43 699.91
  A 2.09 2.02 -66.1 0 0 235.80 700.92
  C 238.55 704.81 241.80 704.40 246.43 704.47
  C 250.74 704.53 253.69 702.93 255.08 698.81
  Q 256.86 693.47 257.74 687.28
  A 0.39 0.38 4.4 0 1 258.12 686.96
  L 275.60 686.96
  A 0.46 0.46 0.0 0 1 276.04 687.55
  Q 275.81 688.39 274.62 695.14
  C 273.68 700.46 275.86 704.26 281.48 704.55
  C 287.69 704.88 294.22 703.98 296.15 697.15
  Q 297.44 692.58 297.88 688.17
  A 0.96 0.95 -87.0 0 1 298.83 687.31
  L 361.22 687.31
  A 1.45 1.44 -4.1 0 1 362.65 688.54
  Q 363.50 694.21 364.35 699.17
  Q 365.19 704.02 370.06 704.37
  C 376.54 704.82 385.34 705.04 384.85 695.71
  Q 384.58 690.57 384.26 688.33
  A 1.17 1.17 0.0 0 1 385.42 686.99
  L 391.03 686.99
  A 1.30 1.30 0.0 0 1 392.31 688.05
  Q 393.17 692.57 393.48 694.25
  C 394.25 698.53 394.75 702.36 398.34 704.00
  A 3.74 3.64 -27.3 0 0 399.26 704.28
  Q 404.08 705.11 408.77 704.14
  C 412.90 703.29 415.53 700.24 414.83 696.02
  Q 414.02 691.17 413.74 689.66
  Q 410.83 674.42 408.03 659.07
  L 425.25 658.76
  A 0.39 0.39 0.0 0 0 425.63 658.26
  Q 424.19 653.14 425.78 648.53
  Q 425.83 655.02 426.32 661.50
  Q 426.90 669.18 432.52 671.21
  Q 434.56 671.94 444.69 671.92
  Q 516.06 671.76 562.64 671.93
  C 565.87 671.94 570.63 672.15 572.96 671.24
  C 578.48 669.08 578.04 664.15 578.27 659.28
  Q 581.86 659.71 585.27 659.73
  Q 651.73 660.11 718.20 659.49
  Q 719.80 659.48 723.65 658.96
  Q 729.65 659.62 734.28 659.36
  C 741.20 658.97 741.24 652.00 741.04 645.97
  Q 742.41 646.77 743.41 648.03
  A 0.12 0.10 -17.9 0 0 743.49 648.06
  L 887.65 647.85
  A 1.25 1.24 -86.3 0 0 888.88 646.76
  L 890.74 631.90
  L 906.63 632.00
  L 906.81 680.11
  A 0.66 0.63 -34.0 0 1 906.75 680.38
  Q 906.63 680.65 906.49 680.80
  Q 906.47 679.94 906.31 679.63
  A 0.21 0.21 0.0 0 0 905.92 679.73
  L 906.42 710.96
  Q 906.87 712.10 906.33 713.44
  L 97.20 713.22
  Q 96.92 711.24 97.55 710.82
  Q 98.48 690.71 97.86 675.75
  Q 97.75 673.08 97.78 671.24
  Q 97.82 668.92 97.77 666.76
  C 97.48 654.60 98.08 646.20 97.76 632.71
  A 0.91 0.91 0.0 0 1 98.68 631.78
  L 125.12 631.90
  Z"
/>
<g fill="#f6e4b1">
<path d="
  M 560.74 284.61
  Q 560.09 284.04 559.54 284.17
  Q 557.36 281.75 554.88 279.62
  Q 520.26 249.86 510.16 241.33
  Q 509.69 240.94 507.72 239.91
  A 3.89 3.83 -28.4 0 0 506.34 239.51
  C 501.71 239.09 497.67 238.98 494.43 241.68
  Q 463.06 267.85 443.36 285.19
  A 0.26 0.26 0.0 0 1 442.93 284.99
  L 442.93 146.72
  A 0.65 0.65 0.0 0 1 443.58 146.07
  L 559.98 146.07
  A 0.44 0.44 0.0 0 1 560.42 146.51
  Q 560.57 206.31 560.35 260.75
  Q 560.28 276.38 560.74 284.61
  Z
  M 511.18 230.63
  A 0.81 0.80 6.5 0 1 511.95 230.03
  Q 512.20 230.03 526.50 230.12
  Q 532.59 230.15 534.19 229.37
  C 539.70 226.66 539.41 219.68 536.14 215.26
  A 3.94 3.94 0.0 0 1 535.37 212.86
  Q 535.45 205.79 535.14 193.25
  C 534.49 167.50 507.56 151.96 485.07 164.86
  Q 472.24 172.22 468.84 186.51
  C 467.02 194.16 468.29 205.72 467.69 212.68
  Q 467.56 214.15 465.68 217.40
  Q 464.54 219.39 464.97 223.25
  Q 465.71 229.76 472.57 229.95
  Q 483.62 230.25 492.53 230.00
  A 1.40 1.39 87.0 0 1 493.96 231.29
  C 494.34 236.27 500.00 236.45 503.84 236.38
  Q 509.69 236.28 511.18 230.63
  Z"
/>
<path d="
  M 302.28 565.31
  L 302.28 426.05
  A 2.57 2.53 -19.8 0 1 303.23 424.07
  Q 325.10 406.46 345.51 390.25
  C 350.48 386.30 355.59 381.89 361.95 376.70
  C 406.72 340.17 424.48 325.83 460.42 296.20
  Q 482.08 278.34 502.09 262.47
  A 0.25 0.25 0.0 0 1 502.40 262.48
  L 702.08 424.65
  A 1.27 1.26 19.6 0 1 702.55 425.63
  L 702.55 617.91
  A 0.99 0.99 0.0 0 1 701.56 618.90
  L 678.09 618.90
  A 0.88 0.86 73.2 0 1 677.36 618.50
  C 668.78 605.18 653.68 598.31 637.98 599.60
  Q 624.17 600.73 613.44 610.58
  C 611.10 612.73 608.77 615.87 606.58 618.26
  A 2.06 2.05 21.3 0 1 605.07 618.92
  L 562.73 618.92
  A 0.61 0.61 0.0 0 1 562.12 618.31
  Q 562.27 539.13 562.12 454.00
  Q 562.11 447.84 561.85 445.92
  C 561.05 440.13 555.12 440.94 550.50 440.94
  Q 496.34 440.87 449.85 440.99
  C 445.18 441.00 441.67 442.14 441.67 447.25
  Q 441.58 533.81 441.72 618.38
  A 0.58 0.58 0.0 0 1 441.14 618.96
  L 399.37 618.96
  A 1.18 1.17 84.7 0 1 398.22 618.00
  Q 391.05 580.78 390.70 578.78
  C 389.76 573.31 386.88 568.57 381.49 566.78
  C 378.42 565.76 374.52 565.94 370.90 565.92
  Q 331.04 565.80 302.85 565.87
  A 0.57 0.56 -0.0 0 1 302.28 565.31
  Z
  M 673.14 455.66
  A 12.13 12.13 0.0 0 0 661.01 443.53
  L 605.01 443.53
  A 12.13 12.13 0.0 0 0 592.88 455.66
  L 592.88 546.94
  A 12.13 12.13 0.0 0 0 605.01 559.07
  L 661.01 559.07
  A 12.13 12.13 0.0 0 0 673.14 546.94
  L 673.14 455.66
  Z
  M 411.10 456.13
  A 12.26 12.26 0.0 0 0 398.84 443.87
  L 343.12 443.87
  A 12.26 12.26 0.0 0 0 330.86 456.13
  L 330.86 546.93
  A 12.26 12.26 0.0 0 0 343.12 559.19
  L 398.84 559.19
  A 12.26 12.26 0.0 0 0 411.10 546.93
  L 411.10 456.13
  Z"
/>
</g>
<g fill="#809147">
<path d="
  M 531.28 88.91
  L 563.04 120.93
  L 566.33 124.53
  L 567.14 125.46
  Q 567.37 125.87 566.77 127.10
  L 487.52 127.18
  Q 487.40 127.20 487.28 127.22
  L 471.95 127.18
  Q 471.50 126.87 470.97 127.20
  L 465.45 127.12
  Q 465.10 126.99 465.01 127.16
  L 455.44 127.20
  Q 454.84 126.64 454.00 127.19
  L 435.02 127.17
  L 434.61 126.58
  A 0.70 0.70 0.0 0 1 434.64 125.73
  L 436.72 123.17
  L 464.01 96.13
  L 500.94 59.47
  A 0.75 0.74 45.3 0 1 502.00 59.48
  L 531.28 88.91
  Z"
/>
<path d="
  M 729.45 404.59
  L 714.93 404.64
  Q 713.12 404.15 709.24 404.07
  C 706.75 404.02 704.58 401.31 702.37 399.24
  Q 697.76 394.92 680.93 381.83
  C 673.08 375.73 665.83 369.36 658.00 363.00
  Q 614.91 327.99 581.26 300.72
  Q 579.96 299.67 579.99 297.51
  Q 580.16 283.63 580.12 278.85
  A 0.66 0.66 0.0 0 1 581.20 278.34
  L 732.04 402.97
  A 0.43 0.43 0.0 0 1 731.92 403.71
  L 729.45 404.59
  Z"
/>
<path d="
  M 407.35 313.48
  L 401.71 318.25
  L 397.21 322.00
  Q 395.79 322.40 395.00 323.75
  L 389.97 327.81
  Q 389.82 327.82 389.76 327.92
  L 380.89 335.23
  L 380.50 335.53
  L 379.45 336.39
  Q 379.26 336.56 379.19 336.73
  L 368.45 345.54
  L 366.14 347.19
  L 354.07 357.52
  Q 352.50 358.47 351.47 359.80
  L 314.49 390.26
  Q 312.14 391.61 310.46 393.50
  Q 308.28 394.74 306.48 396.74
  Q 306.31 396.82 306.20 397.00
  Q 304.81 397.62 303.94 398.76
  Q 303.83 398.87 303.75 398.91
  L 299.49 402.45
  Q 296.48 404.79 294.44 404.67
  Q 287.95 404.27 281.49 404.79
  C 279.12 404.98 278.21 404.67 275.56 404.25
  A 0.54 0.54 0.0 0 1 275.30 403.30
  L 284.84 395.54
  L 306.54 377.87
  L 421.24 282.21
  A 0.47 0.47 0.0 0 1 422.00 282.48
  Q 422.26 283.83 422.24 284.75
  Q 422.10 291.83 422.11 298.74
  Q 422.12 301.57 419.93 303.20
  Q 413.40 308.08 407.35 313.48
  Z"
/>
<path d="
  M 543.40 617.33
  A 0.81 0.81 0.0 0 1 542.59 618.14
  L 461.31 618.14
  A 0.81 0.81 0.0 0 1 460.50 617.33
  L 460.50 458.41
  A 0.81 0.81 0.0 0 1 461.31 457.60
  L 542.59 457.60
  A 0.81 0.81 0.0 0 1 543.40 458.41
  L 543.40 617.33
  Z"
/>
<rect x="446.71" y="637.90" width="112.30" height="16.16" rx="1.13"/>
<path d="
  M 180.17 669.79
  Q 180.35 671.38 178.16 675.92
  Q 175.83 680.78 170.87 681.49
  C 154.57 683.82 154.05 659.79 169.47 661.16
  Q 176.30 661.77 179.93 668.98
  A 2.19 2.15 -61.9 0 1 180.17 669.79
  Z"
/>
</g>
<g fill="#4e3d13">
<path d="
  M 563.04 120.93
  L 531.28 88.91
  L 563.04 120.93
  Z"
/>
<path d="
  M 567.14 125.46
  L 566.33 124.53
  Q 566.86 124.58 567.23 124.99
  Q 567.38 125.16 567.14 125.46
  Z"
/>
<path d="
  M 407.35 313.48
  L 401.71 318.25
  L 407.35 313.48
  Z"
/>
<path d="
  M 401.71 318.25
  L 397.21 322.00
  L 401.71 318.25
  Z"
/>
<path d="
  M 395.00 323.75
  L 389.97 327.81
  L 395.00 323.75
  Z"
/>
<path d="
  M 389.76 327.92
  L 380.89 335.23
  L 389.76 327.92
  Z"
/>
<path d="
  M 380.50 335.53
  Q 380.45 336.33 379.45 336.39
  L 380.50 335.53
  Z"
/>
<path d="
  M 379.19 336.73
  L 368.45 345.54
  L 379.19 336.73
  Z"
/>
<path d="
  M 368.45 345.54
  Q 367.46 346.75 366.14 347.19
  L 368.45 345.54
  Z"
/>
<path d="
  M 354.07 357.52
  Q 353.22 359.00 351.47 359.80
  Q 352.50 358.47 354.07 357.52
  Z"
/>
<path d="
  M 306.54 377.87
  L 284.84 395.54
  L 306.54 377.87
  Z"
/>
<path d="
  M 314.49 390.26
  Q 312.80 392.42 310.46 393.50
  Q 312.14 391.61 314.49 390.26
  Z"
/>
<path d="
  M 310.46 393.50
  L 306.48 396.74
  Q 308.28 394.74 310.46 393.50
  Z"
/>
<path d="
  M 306.20 397.00
  Q 305.33 398.29 303.94 398.76
  Q 304.81 397.62 306.20 397.00
  Z"
/>
<path d="
  M 303.75 398.91
  Q 301.89 401.18 299.49 402.45
  L 303.75 398.91
  Z"
/>
<path d="
  M 729.45 404.59
  L 714.93 404.64
  L 729.45 404.59
  Z"
/>
<path d="
  M 370.22 783.32
  Q 368.87 782.73 368.91 783.21
  Q 368.81 783.00 368.67 782.96
  A 0.66 0.66 0.0 0 0 367.84 783.59
  Q 367.64 816.41 367.54 819.93
  A 1.77 1.76 0.8 0 1 365.77 821.64
  L 358.61 821.64
  A 1.56 1.56 0.0 0 1 357.05 820.08
  L 357.05 758.93
  A 0.96 0.96 0.0 0 1 357.97 757.97
  Q 362.30 757.76 366.21 757.82
  Q 368.17 757.86 369.16 759.57
  Q 380.56 779.35 390.19 796.60
  A 1.74 1.74 0.0 0 0 393.40 796.14
  Q 393.53 795.59 393.56 794.78
  Q 394.07 780.90 393.78 759.13
  A 1.17 1.17 0.0 0 1 394.95 757.95
  L 403.31 757.95
  A 0.88 0.88 0.0 0 1 404.19 758.83
  L 404.19 820.22
  A 1.45 1.45 0.0 0 1 402.74 821.67
  L 395.27 821.67
  A 2.86 2.85 74.7 0 1 392.81 820.26
  Q 385.31 807.55 376.28 791.22
  Q 373.22 785.70 370.22 783.32
  Z"
/>
<path d="
  M 458.77 784.74
  Q 457.09 782.09 456.86 783.46
  Q 456.23 782.48 455.62 783.00
  A 0.28 0.23 -26.0 0 0 455.54 783.18
  L 455.37 820.51
  A 1.25 1.25 0.0 0 1 454.12 821.76
  L 446.00 821.76
  A 1.86 1.85 0.0 0 1 444.14 819.91
  L 444.14 759.96
  A 2.05 2.05 0.0 0 1 446.19 757.91
  L 454.55 757.91
  A 2.36 2.35 75.0 0 1 456.59 759.09
  L 478.47 796.98
  A 0.63 0.60 -3.6 0 0 478.80 797.26
  Q 479.86 797.67 479.90 797.18
  Q 480.24 797.01 480.47 797.02
  Q 480.77 797.35 480.85 797.34
  Q 481.67 797.26 481.70 796.39
  Q 482.33 776.80 481.95 759.00
  A 1.27 1.27 0.0 0 1 483.22 757.70
  L 491.49 757.70
  A 1.63 1.62 -90.0 0 1 493.11 759.33
  L 493.11 820.18
  A 1.49 1.49 0.0 0 1 491.62 821.67
  L 482.98 821.67
  A 2.88 2.87 74.4 0 1 480.52 820.28
  Q 472.83 807.48 465.50 793.99
  Q 464.24 791.68 459.65 784.17
  Q 459.35 783.67 458.93 784.06
  Q 458.73 784.24 458.77 784.74
  Z"
/>
</g>
<path fill="#91703a" d="
  M 373.72 582.69
  Q 375.82 585.34 376.35 588.63
  C 380.59 615.19 386.16 638.48 391.15 665.12
  C 392.14 670.40 387.57 671.90 383.00 671.89
  Q 307.81 671.80 272.00 671.89
  C 269.27 671.90 261.95 672.39 260.09 669.91
  Q 258.45 667.72 259.13 664.62
  Q 264.65 639.42 274.54 588.55
  Q 275.46 583.79 279.98 581.15
  Q 319.48 581.08 359.08 581.09
  Q 359.18 581.09 363.40 580.94
  Q 369.14 580.75 373.72 582.69
  Z
  M 302.72 657.58
  C 304.98 655.89 305.95 650.28 306.59 648.08
  Q 306.83 647.23 309.01 647.26
  Q 314.55 647.32 326.11 647.09
  A 1.10 1.09 -7.6 0 1 327.20 647.92
  C 328.16 651.77 329.00 657.64 332.77 658.46
  C 335.79 659.12 343.96 659.67 344.80 655.32
  Q 345.09 653.85 343.79 650.02
  Q 335.06 624.11 326.77 600.62
  A 3.52 3.51 -73.0 0 0 326.26 599.66
  C 323.83 596.35 318.52 596.44 314.35 596.66
  C 311.17 596.83 308.58 598.21 307.53 601.04
  Q 301.80 616.54 289.46 652.44
  Q 288.71 654.61 288.86 656.10
  A 2.57 2.56 2.6 0 0 290.93 658.36
  C 294.03 658.96 299.95 659.63 302.72 657.58
  Z"
/>
<g fill="#080401" fill-opacity="0.996">
<path d="
  M 464.01 96.13
  L 436.72 123.17
  L 464.01 96.13
  Z"
/>
<path d="
  M 566.77 127.10
  L 487.52 127.18
  L 566.77 127.10
  Z"
/>
<path d="
  M 435.02 127.17
  L 454.00 127.19
  L 435.02 127.17
  Z"
/>
<path d="
  M 465.01 127.16
  L 455.44 127.20
  L 465.01 127.16
  Z"
/>
<path d="
  M 470.97 127.20
  L 465.45 127.12
  L 470.97 127.20
  Z"
/>
<path d="
  M 487.28 127.22
  L 471.95 127.18
  L 487.28 127.22
  Z"
/>
<path d="
  M 560.74 284.61
  Q 560.28 276.38 560.35 260.75
  Q 560.57 206.31 560.42 146.51
  A 0.44 0.44 0.0 0 0 559.98 146.07
  L 443.58 146.07
  A 0.65 0.65 0.0 0 0 442.93 146.72
  L 442.93 284.99
  A 0.26 0.26 0.0 0 0 443.36 285.19
  Q 463.06 267.85 494.43 241.68
  C 497.67 238.98 501.71 239.09 506.34 239.51
  A 3.89 3.83 -28.4 0 1 507.72 239.91
  Q 509.69 240.94 510.16 241.33
  Q 520.26 249.86 554.88 279.62
  Q 557.36 281.75 559.54 284.17
  Q 559.32 284.53 559.06 284.58
  Q 558.83 284.63 558.50 284.29
  Q 557.27 283.00 555.40 281.38
  Q 518.86 249.92 510.99 243.29
  Q 507.21 240.11 504.28 240.37
  C 502.12 240.56 498.93 239.92 496.37 241.63
  C 491.96 244.57 487.41 248.71 484.13 251.47
  Q 463.17 269.09 444.51 285.30
  A 1.56 1.56 0.0 0 1 441.93 284.12
  L 441.93 147.46
  A 2.31 2.31 0.0 0 1 444.24 145.15
  L 559.51 145.15
  A 1.92 1.91 -0.8 0 1 561.43 147.01
  C 562.03 169.66 561.71 209.19 561.81 271.13
  Q 561.82 277.68 560.74 284.61
  Z"
/>
<path d="
  M 373.72 582.69
  Q 369.14 580.75 363.40 580.94
  Q 359.18 581.09 359.08 581.09
  Q 319.48 581.08 279.98 581.15
  Q 280.11 580.73 281.75 580.72
  Q 324.69 580.59 366.13 580.61
  Q 368.48 580.61 370.79 581.05
  Q 372.76 581.43 373.72 582.69
  Z"
/>
<path d="
  M 544.78 798.05
  A 0.70 0.70 0.0 0 0 544.07 797.27
  Q 537.46 797.37 534.72 797.44
  Q 531.94 797.51 531.83 794.97
  Q 531.64 790.90 531.94 787.07
  A 1.64 1.63 -87.7 0 1 533.57 785.56
  L 556.21 785.56
  A 1.85 1.85 0.0 0 1 558.06 787.39
  Q 558.22 801.36 558.08 808.51
  C 557.92 816.46 548.16 821.74 541.48 823.20
  C 533.23 825.00 523.66 823.88 516.79 819.42
  C 504.16 811.23 502.57 794.01 504.94 779.89
  C 507.20 766.41 517.28 756.41 531.22 755.79
  C 541.84 755.32 552.43 758.20 557.23 768.20
  Q 558.99 771.87 556.60 773.73
  C 554.29 775.54 550.47 776.45 547.21 776.52
  A 2.23 2.21 -14.6 0 1 545.20 775.35
  C 543.67 772.50 542.09 769.34 538.26 768.42
  Q 528.64 766.11 522.98 772.18
  Q 519.10 776.34 518.39 785.33
  C 517.64 794.73 518.72 809.89 531.19 811.35
  C 535.96 811.91 544.29 811.07 544.47 804.66
  Q 544.60 799.69 544.78 798.05
  Z"
/>
<path d="
  M 658.33 755.60
  C 678.89 755.89 687.10 771.62 686.84 790.19
  C 686.58 808.76 677.92 824.25 657.36 823.96
  C 636.81 823.67 628.59 807.94 628.85 789.37
  C 629.12 770.80 637.78 755.31 658.33 755.60
  Z
  M 629.92 789.48
  C 629.75 807.39 637.75 822.52 657.57 822.71
  C 677.40 822.90 685.68 807.92 685.85 790.01
  C 686.02 772.10 678.02 756.97 658.20 756.78
  C 638.37 756.59 630.09 771.57 629.92 789.48
  Z"
/>
<path d="
  M 794.36 797.36
  C 792.26 797.26 785.68 798.08 783.20 796.60
  A 1.29 1.27 -81.0 0 1 782.62 795.79
  Q 781.78 791.94 782.51 787.35
  A 1.80 1.79 87.8 0 1 783.86 785.89
  Q 785.80 785.43 789.00 785.42
  Q 797.95 785.36 807.20 785.63
  A 1.47 1.47 0.0 0 1 808.63 787.07
  Q 808.83 796.16 808.61 809.00
  Q 808.55 813.10 805.05 816.11
  Q 791.32 827.94 773.17 822.28
  Q 765.62 819.92 760.38 812.59
  C 755.91 806.34 755.06 798.98 754.92 790.58
  C 754.79 782.90 755.69 775.56 759.66 769.06
  Q 766.71 757.51 779.77 755.95
  Q 789.22 754.83 796.87 758.10
  C 801.66 760.14 807.83 765.16 808.04 770.77
  C 808.21 775.10 800.06 777.23 797.18 775.74
  A 1.78 1.76 -1.8 0 1 796.47 775.08
  C 794.17 771.26 792.40 768.89 787.92 768.10
  C 776.53 766.07 770.05 773.71 769.17 784.47
  C 768.48 792.80 768.52 801.28 773.76 807.24
  Q 777.20 811.15 782.48 811.44
  C 786.97 811.69 793.14 811.24 794.88 806.51
  Q 795.32 805.33 795.09 798.09
  A 0.76 0.75 0.4 0 0 794.36 797.36
  Z"
/>
<path d="
  M 162.54 809.54
  A 0.57 0.57 0.0 0 0 163.11 810.11
  L 185.06 810.11
  A 2.12 2.11 87.5 0 1 187.16 812.04
  Q 187.51 815.94 187.09 820.84
  Q 186.92 822.85 184.55 822.88
  Q 165.51 823.06 153.25 822.90
  Q 151.72 822.88 150.75 822.69
  A 2.00 1.99 -84.9 0 1 149.14 820.75
  Q 148.84 789.25 148.95 760.50
  Q 148.96 758.78 149.74 757.14
  A 1.32 1.32 0.0 0 1 150.93 756.39
  L 160.54 756.39
  A 2.00 2.00 0.0 0 1 162.54 758.39
  L 162.54 809.54
  Z"
/>
<path d="
  M 208.02 769.21
  L 208.02 783.16
  A 0.48 0.48 0.0 0 0 208.50 783.64
  L 229.07 783.64
  A 1.74 1.74 0.0 0 1 230.81 785.38
  L 230.81 793.52
  A 1.87 1.86 0.0 0 1 228.94 795.38
  L 208.44 795.38
  A 0.40 0.39 -90.0 0 0 208.05 795.78
  L 208.05 809.72
  A 0.58 0.58 0.0 0 0 208.64 810.30
  Q 220.98 810.08 231.01 810.13
  Q 233.47 810.15 233.42 812.61
  Q 233.34 815.99 233.31 820.18
  Q 233.29 822.78 230.69 822.86
  Q 226.16 822.99 197.32 822.89
  Q 194.42 822.88 194.40 820.38
  Q 194.19 795.54 194.35 760.75
  Q 194.36 758.47 194.79 757.52
  A 1.24 1.21 2.7 0 1 195.51 756.88
  Q 196.95 756.39 199.52 756.38
  Q 226.55 756.29 230.72 756.36
  Q 233.04 756.40 233.12 758.55
  Q 233.25 761.81 233.25 765.51
  C 233.26 768.96 231.18 768.56 228.21 768.56
  Q 209.82 768.56 208.66 768.57
  A 0.64 0.64 0.0 0 0 208.02 769.21
  Z"
/>
<path d="
  M 266.41 756.37
  Q 270.72 756.38 272.88 756.55
  A 2.69 2.69 0.0 0 1 275.26 758.48
  L 293.52 820.86
  A 1.66 1.66 0.0 0 1 291.93 822.98
  L 281.00 822.98
  A 1.95 1.95 0.0 0 1 279.13 821.58
  L 276.01 810.94
  A 2.03 2.02 82.2 0 0 274.10 809.48
  Q 272.92 809.47 266.26 809.45
  Q 259.61 809.43 258.43 809.44
  A 2.03 2.02 -81.9 0 0 256.51 810.89
  L 253.33 821.51
  A 1.95 1.95 0.0 0 1 251.45 822.90
  L 240.52 822.84
  A 1.66 1.66 0.0 0 1 238.94 820.71
  L 257.54 758.43
  A 2.69 2.69 0.0 0 1 259.93 756.51
  Q 262.09 756.36 266.41 756.37
  Z
  M 266.31 808.21
  Q 270.08 808.22 274.25 808.35
  Q 276.65 808.42 277.43 811.01
  Q 278.64 815.00 279.98 820.36
  A 1.84 1.83 -7.1 0 0 281.76 821.74
  L 291.11 821.74
  A 1.04 1.04 0.0 0 0 292.11 820.41
  L 274.14 759.03
  A 1.69 1.69 0.0 0 0 272.60 757.82
  Q 269.98 757.70 266.42 757.69
  Q 262.86 757.68 260.23 757.79
  A 1.69 1.69 0.0 0 0 258.69 759.00
  L 240.45 820.30
  A 1.04 1.04 0.0 0 0 241.44 821.63
  L 250.79 821.67
  A 1.84 1.83 7.3 0 0 252.58 820.30
  Q 253.94 814.95 255.17 810.96
  Q 255.96 808.38 258.37 808.31
  Q 262.54 808.20 266.31 808.21
  Z"
/>
<path d="
  M 334.73 797.08
  A 0.44 0.43 62.3 0 0 334.55 797.68
  Q 337.76 803.38 346.53 819.75
  Q 347.03 820.69 346.99 821.29
  A 1.71 1.71 0.0 0 1 345.31 822.88
  Q 336.51 823.04 333.46 822.85
  Q 331.90 822.75 330.84 820.61
  Q 324.88 808.61 320.88 801.33
  A 2.42 2.41 -14.5 0 0 318.77 800.09
  L 315.14 800.09
  A 0.81 0.80 0.0 0 0 314.33 800.89
  L 314.33 821.30
  A 1.59 1.59 0.0 0 1 312.81 822.89
  Q 309.76 823.04 303.43 823.01
  Q 300.73 823.00 300.72 820.50
  Q 300.68 811.32 300.59 759.47
  Q 300.59 756.45 303.46 756.43
  Q 317.20 756.30 322.75 756.42
  C 326.75 756.50 330.80 756.92 334.30 758.54
  C 348.99 765.33 349.71 789.60 334.73 797.08
  Z
  M 313.13 820.72
  L 313.13 801.01
  A 1.60 1.60 0.0 0 1 314.17 799.51
  Q 317.08 798.40 320.78 799.39
  A 1.39 1.38 83.8 0 1 321.65 800.10
  L 331.87 819.99
  A 3.15 3.14 76.3 0 0 334.66 821.69
  L 344.62 821.69
  A 0.72 0.72 0.0 0 0 345.31 820.76
  Q 344.69 818.67 343.86 817.13
  Q 339.45 809.02 333.77 798.36
  A 1.51 1.50 -35.7 0 1 334.07 796.56
  Q 335.23 795.46 337.42 794.19
  A 4.56 3.88 -76.2 0 0 338.03 793.75
  C 345.59 786.95 345.74 774.80 341.44 766.37
  C 338.13 759.89 330.60 757.96 323.91 757.78
  Q 314.76 757.54 303.16 757.84
  A 1.18 1.18 0.0 0 0 302.00 759.02
  L 302.00 820.24
  A 1.50 1.50 0.0 0 0 303.50 821.74
  L 312.11 821.74
  A 1.02 1.02 0.0 0 0 313.13 820.72
  Z"
/>
<path d="
  M 431.1460 820.6418
  A 2.30 2.30 0.0 0 1 428.8419 822.9378
  L 419.8820 822.9221
  A 2.30 2.30 0.0 0 1 417.5860 820.6181
  L 417.6940 758.6982
  A 2.30 2.30 0.0 0 1 419.9981 756.4022
  L 428.9580 756.4179
  A 2.30 2.30 0.0 0 1 431.2540 758.7219
  L 431.1460 820.6418
  Z"
/>
<path d="
  M 458.77 784.74
  Q 458.73 784.24 458.93 784.06
  Q 459.35 783.67 459.65 784.17
  Q 464.24 791.68 465.50 793.99
  Q 472.83 807.48 480.52 820.28
  A 2.88 2.87 74.4 0 0 482.98 821.67
  L 491.62 821.67
  A 1.49 1.49 0.0 0 0 493.11 820.18
  L 493.11 759.33
  A 1.63 1.62 -90.0 0 0 491.49 757.70
  L 483.22 757.70
  A 1.27 1.27 0.0 0 0 481.95 759.00
  Q 482.33 776.80 481.70 796.39
  Q 481.67 797.26 480.85 797.34
  Q 480.77 797.35 480.47 797.02
  Q 480.60 796.74 480.60 796.43
  Q 480.68 778.51 480.77 759.74
  Q 480.78 756.95 482.17 756.64
  C 485.02 756.00 489.45 756.25 492.45 756.58
  A 1.86 1.86 0.0 0 1 494.11 758.34
  Q 494.32 762.35 494.29 766.25
  Q 494.10 800.21 494.22 819.72
  Q 494.24 822.86 491.35 822.88
  Q 487.79 822.91 485.08 823.03
  C 481.46 823.20 480.14 822.26 478.27 818.99
  Q 468.45 801.88 458.77 784.74
  Z"
/>
<path d="
  M 600.90 809.85
  A 0.35 0.35 0.0 0 0 601.26 810.20
  Q 613.05 809.97 620.30 809.96
  Q 624.58 809.96 624.61 813.90
  Q 624.65 817.88 624.29 820.75
  A 2.46 2.45 -86.8 0 1 621.89 822.90
  Q 606.83 823.07 589.48 822.87
  Q 587.05 822.84 587.03 820.48
  Q 586.84 803.02 586.95 760.75
  Q 586.95 759.10 587.47 757.23
  A 1.13 1.13 0.0 0 1 588.56 756.40
  L 598.89 756.40
  A 2.01 2.00 0.0 0 1 600.90 758.40
  L 600.90 809.85
  Z"
/>
<path d="
  M 833.92 768.56
  A 0.64 0.64 0.0 0 0 833.28 769.20
  L 833.27 783.16
  A 0.48 0.48 0.0 0 0 833.75 783.64
  L 854.33 783.66
  A 1.74 1.74 0.0 0 1 856.07 785.41
  L 856.07 793.55
  A 1.87 1.86 0.1 0 1 854.19 795.41
  L 833.67 795.39
  A 0.40 0.39 -89.9 0 0 833.28 795.79
  L 833.27 809.75
  A 0.58 0.58 0.0 0 0 833.86 810.33
  Q 846.21 810.12 856.25 810.18
  Q 858.71 810.20 858.66 812.66
  Q 858.58 816.05 858.54 820.24
  Q 858.52 822.84 855.92 822.92
  Q 851.38 823.05 822.52 822.92
  Q 819.61 822.90 819.60 820.40
  Q 819.41 795.54 819.61 760.72
  Q 819.62 758.44 820.05 757.49
  A 1.24 1.22 2.7 0 1 820.77 756.85
  Q 822.21 756.36 824.78 756.35
  Q 851.84 756.29 856.01 756.36
  Q 858.33 756.40 858.41 758.55
  Q 858.54 761.82 858.54 765.52
  C 858.54 768.97 856.46 768.57 853.49 768.57
  Q 835.08 768.55 833.92 768.56
  Z"
/>
<path d="
  M 370.22 783.32
  Q 373.22 785.70 376.28 791.22
  Q 385.31 807.55 392.81 820.26
  A 2.86 2.85 74.7 0 0 395.27 821.67
  L 402.74 821.67
  A 1.45 1.45 0.0 0 0 404.19 820.22
  L 404.19 758.83
  A 0.88 0.88 0.0 0 0 403.31 757.95
  L 394.95 757.95
  A 1.17 1.17 0.0 0 0 393.78 759.13
  Q 394.07 780.90 393.56 794.78
  Q 393.53 795.59 393.40 796.14
  A 1.74 1.74 0.0 0 1 390.19 796.60
  Q 380.56 779.35 369.16 759.57
  Q 368.17 757.86 366.21 757.82
  Q 362.30 757.76 357.97 757.97
  A 0.96 0.96 0.0 0 0 357.05 758.93
  L 357.05 820.08
  A 1.56 1.56 0.0 0 0 358.61 821.64
  L 365.77 821.64
  A 1.77 1.76 0.8 0 0 367.54 819.93
  Q 367.64 816.41 367.84 783.59
  A 0.66 0.66 0.0 0 1 368.67 782.96
  Q 368.81 783.00 368.91 783.21
  L 368.97 820.65
  A 2.05 2.05 0.0 0 1 367.12 822.69
  Q 363.15 823.07 358.74 823.00
  C 356.16 822.96 355.65 821.51 355.64 819.12
  Q 355.62 770.29 355.65 758.99
  Q 355.65 756.39 358.52 756.38
  Q 358.79 756.38 366.02 756.43
  Q 368.54 756.44 369.58 758.17
  Q 379.01 773.99 391.46 796.50
  A 0.37 0.37 0.0 0 0 392.16 796.32
  Q 392.21 783.05 392.06 760.33
  Q 392.04 758.51 392.85 757.32
  A 1.22 1.21 -77.2 0 1 393.68 756.79
  Q 398.73 756.03 404.03 756.70
  A 1.95 1.94 -86.3 0 1 405.72 758.63
  L 405.72 820.85
  A 1.80 1.80 0.0 0 1 404.16 822.63
  Q 399.77 823.22 394.61 822.88
  Q 392.82 822.75 391.60 820.65
  Q 380.97 802.25 370.22 783.32
  Z"
/>
<path d="
  M 479.90 797.18
  Q 479.86 797.67 478.80 797.26
  A 0.63 0.60 -3.6 0 1 478.47 796.98
  L 456.59 759.09
  A 2.36 2.35 75.0 0 0 454.55 757.91
  L 446.19 757.91
  A 2.05 2.05 0.0 0 0 444.14 759.96
  L 444.14 819.91
  A 1.86 1.85 0.0 0 0 446.00 821.76
  L 454.12 821.76
  A 1.25 1.25 0.0 0 0 455.37 820.51
  L 455.54 783.18
  A 0.28 0.23 -26.0 0 1 455.62 783.00
  Q 456.23 782.48 456.86 783.46
  Q 457.10 810.48 456.89 820.78
  Q 456.85 822.75 454.42 822.89
  Q 450.68 823.10 445.07 822.87
  A 1.75 1.75 0.0 0 1 443.51 821.75
  Q 443.00 820.40 443.01 818.25
  Q 443.08 784.81 442.95 760.26
  C 442.93 757.51 444.03 756.66 446.70 756.54
  C 450.21 756.38 456.06 755.55 457.73 758.53
  Q 468.62 777.95 479.90 797.18
  Z"
/>
<path d="
  M 696.84 758.91
  A 2.45 2.45 0.0 0 1 699.28 756.45
  L 718.33 756.35
  A 28.64 28.34 89.7 0 1 746.82 784.84
  L 746.86 794.20
  A 28.64 28.34 89.7 0 1 718.67 822.99
  L 699.62 823.09
  A 2.45 2.45 0.0 0 1 697.16 820.65
  L 696.84 758.91
  Z
  M 698.21 759.35
  L 697.79 819.93
  A 1.83 1.83 0.0 0 0 699.61 821.78
  L 718.23 821.91
  A 27.61 27.29 -89.6 0 0 745.71 794.49
  L 745.77 785.47
  A 27.61 27.29 -89.6 0 0 718.67 757.67
  L 700.05 757.54
  A 1.83 1.83 0.0 0 0 698.21 759.35
  Z"
/>
</g>
<g fill="#4e682e">
<path d="
  M 522.13 480.82
  A 4.51 4.51 0.0 0 1 526.65 485.33
  L 526.72 525.81
  A 7.93 7.01 89.9 0 1 519.73 533.75
  L 484.23 533.81
  A 7.93 7.01 89.9 0 1 477.20 525.89
  L 477.13 485.41
  A 4.51 4.51 0.0 0 1 481.63 480.90
  L 522.13 480.82
  Z"
/>
<ellipse cx="0.00" cy="0.00" transform="translate(525.42,559.45) rotate(-98.5)" rx="8.98" ry="8.71"/>
</g>
<g fill="#4e3d13">
<path d="
  M 365.4961 654.1166
  A 4.87 4.87 0.0 0 1 360.6346 658.9951
  L 355.0747 659.0048
  A 4.87 4.87 0.0 0 1 350.1962 654.1433
  L 350.1039 601.2634
  A 4.87 4.87 0.0 0 1 354.9654 596.3849
  L 360.5253 596.3752
  A 4.87 4.87 0.0 0 1 365.4038 601.2367
  L 365.4961 654.1166
  Z"
/>
<path d="
  M 556.86 787.96
  Q 557.04 788.75 557.05 789.00
  Q 557.23 804.35 557.07 809.00
  C 556.84 816.06 547.27 820.65 541.48 821.97
  C 530.49 824.49 516.07 821.81 510.19 811.12
  C 503.64 799.24 503.66 784.03 508.84 771.67
  C 514.89 757.25 533.09 753.88 546.22 759.33
  C 551.32 761.46 555.16 765.23 556.75 770.36
  A 2.39 2.38 67.9 0 1 555.56 773.19
  Q 552.35 774.82 549.21 775.22
  C 546.86 775.52 546.28 775.23 545.24 773.12
  Q 543.71 770.00 541.72 768.80
  C 535.33 764.91 527.44 766.13 522.12 771.50
  Q 519.22 774.43 518.02 779.99
  Q 516.21 788.35 517.74 797.75
  C 519.80 810.43 530.91 816.68 542.29 810.53
  C 544.57 809.29 545.56 807.49 545.72 804.74
  Q 545.97 800.20 545.82 797.65
  A 1.55 1.55 0.0 0 0 544.27 796.18
  L 534.60 796.18
  A 1.66 1.66 0.0 0 1 532.94 794.52
  L 532.94 788.59
  A 1.71 1.70 -90.0 0 1 534.64 786.88
  L 555.52 786.88
  A 1.38 1.37 83.7 0 1 556.86 787.96
  Z"
/>
<path d="
  M 629.92 789.48
  C 630.09 771.57 638.37 756.59 658.20 756.78
  C 678.02 756.97 686.02 772.10 685.85 790.01
  C 685.68 807.92 677.40 822.90 657.57 822.71
  C 637.75 822.52 629.75 807.39 629.92 789.48
  Z
  M 641.30 789.64
  C 641.27 799.85 644.88 813.07 657.70 813.10
  C 670.53 813.13 674.20 799.93 674.22 789.72
  C 674.24 779.51 670.64 766.29 657.81 766.26
  C 644.99 766.23 641.32 779.43 641.30 789.64
  Z"
/>
<path d="
  M 796.25 797.78
  A 1.87 1.86 85.5 0 0 794.41 796.20
  L 785.35 796.16
  A 1.64 1.64 0.0 0 1 783.71 794.52
  L 783.71 788.47
  A 1.62 1.61 90.0 0 1 785.32 786.85
  L 805.91 786.85
  A 1.40 1.39 -89.2 0 1 807.30 788.29
  Q 807.05 796.46 807.09 810.75
  C 807.09 812.33 805.36 814.53 804.00 815.63
  Q 791.65 825.62 775.83 821.86
  C 758.78 817.80 754.72 800.51 756.24 784.96
  C 757.42 772.89 762.06 763.51 773.15 758.85
  C 783.82 754.38 801.93 756.99 806.69 769.19
  A 3.30 3.03 59.3 0 1 805.94 772.74
  Q 803.08 775.27 798.77 775.04
  A 1.73 1.70 -16.7 0 1 797.48 774.36
  Q 797.23 774.04 795.56 771.60
  C 790.26 763.91 777.30 765.30 772.20 772.54
  C 767.95 778.59 767.35 785.20 767.60 792.52
  C 768.07 805.86 776.13 816.66 790.73 811.70
  Q 793.82 810.65 795.41 808.24
  C 796.87 806.00 796.59 799.85 796.25 797.78
  Z"
/>
<path d="
  M 208.47 811.46
  L 231.13 811.46
  A 1.02 1.01 -90.0 0 1 232.14 812.48
  L 232.14 820.23
  A 1.45 1.44 89.8 0 1 230.71 821.68
  Q 213.17 821.83 197.57 821.71
  Q 195.78 821.69 195.61 820.49
  Q 195.60 820.43 195.61 818.02
  Q 195.78 785.77 195.65 759.22
  A 1.58 1.58 0.0 0 1 197.23 757.63
  L 230.39 757.63
  A 1.56 1.56 0.0 0 1 231.95 759.19
  L 231.95 765.86
  A 1.39 1.38 89.8 0 1 230.58 767.25
  L 208.73 767.47
  A 1.61 1.61 0.0 0 0 207.13 769.06
  Q 207.11 770.19 207.12 782.56
  Q 207.12 784.74 209.25 784.77
  Q 222.15 784.99 227.37 784.84
  A 1.98 1.98 0.0 0 1 229.41 786.82
  L 229.41 792.31
  A 1.92 1.92 0.0 0 1 227.49 794.23
  L 208.88 794.23
  A 1.65 1.64 -0.0 0 0 207.23 795.87
  L 207.23 810.22
  A 1.24 1.24 0.0 0 0 208.47 811.46
  Z"
/>
<path d="
  M 266.42 757.69
  Q 269.98 757.70 272.60 757.82
  A 1.69 1.69 0.0 0 1 274.14 759.03
  L 292.11 820.41
  A 1.04 1.04 0.0 0 1 291.11 821.74
  L 281.76 821.74
  A 1.84 1.83 -7.1 0 1 279.98 820.36
  Q 278.64 815.00 277.43 811.01
  Q 276.65 808.42 274.25 808.35
  Q 270.08 808.22 266.31 808.21
  Q 262.54 808.20 258.37 808.31
  Q 255.96 808.38 255.17 810.96
  Q 253.94 814.95 252.58 820.30
  A 1.84 1.83 7.3 0 1 250.79 821.67
  L 241.44 821.63
  A 1.04 1.04 0.0 0 1 240.45 820.30
  L 258.69 759.00
  A 1.69 1.69 0.0 0 1 260.23 757.79
  Q 262.86 757.68 266.42 757.69
  Z
  M 266.08 772.74
  Q 264.68 773.26 264.58 773.61
  Q 261.83 783.84 259.01 794.51
  Q 258.49 796.48 259.55 797.39
  A 1.29 1.29 0.0 0 0 260.36 797.70
  L 271.50 797.92
  A 0.76 0.54 28.4 0 0 271.67 797.90
  Q 274.25 797.22 273.65 794.49
  Q 272.80 790.58 268.91 776.16
  A 0.99 0.93 76.0 0 0 267.80 775.44
  Q 267.57 775.49 267.64 776.33
  Q 267.14 773.18 266.08 772.74
  Z"
/>
<path d="
  M 313.13 820.72
  A 1.02 1.02 0.0 0 1 312.11 821.74
  L 303.50 821.74
  A 1.50 1.50 0.0 0 1 302.00 820.24
  L 302.00 759.02
  A 1.18 1.18 0.0 0 1 303.16 757.84
  Q 314.76 757.54 323.91 757.78
  C 330.60 757.96 338.13 759.89 341.44 766.37
  C 345.74 774.80 345.59 786.95 338.03 793.75
  A 4.56 3.88 -76.2 0 1 337.42 794.19
  Q 335.23 795.46 334.07 796.56
  A 1.51 1.50 -35.7 0 0 333.77 798.36
  Q 339.45 809.02 343.86 817.13
  Q 344.69 818.67 345.31 820.76
  A 0.72 0.72 0.0 0 1 344.62 821.69
  L 334.66 821.69
  A 3.15 3.14 76.3 0 1 331.87 819.99
  L 321.65 800.10
  A 1.39 1.38 83.8 0 0 320.78 799.39
  Q 317.08 798.40 314.17 799.51
  A 1.60 1.60 0.0 0 0 313.13 801.01
  L 313.13 820.72
  Z
  M 313.11 769.27
  L 313.15 788.01
  A 2.07 2.07 0.0 0 0 315.22 790.07
  L 322.18 790.06
  A 10.07 9.91 -0.1 0 0 332.23 780.13
  L 332.23 777.07
  A 10.07 9.91 -0.1 0 0 322.14 767.18
  L 315.18 767.19
  A 2.07 2.07 0.0 0 0 313.11 769.27
  Z"
/>
<rect x="418.95" y="757.65" width="11.16" height="64.04" rx="1.51"/>
<path d="
  M 698.21 759.35
  A 1.83 1.83 0.0 0 1 700.05 757.54
  L 718.67 757.67
  A 27.61 27.29 -89.6 0 1 745.77 785.47
  L 745.71 794.49
  A 27.61 27.29 -89.6 0 1 718.23 821.91
  L 699.61 821.78
  A 1.83 1.83 0.0 0 1 697.79 819.93
  L 698.21 759.35
  Z
  M 709.36 769.52
  L 709.30 809.60
  A 2.20 2.20 0.0 0 0 711.49 811.80
  L 718.47 811.81
  A 18.95 15.56 -89.9 0 0 734.06 792.89
  L 734.08 786.31
  A 18.95 15.56 -89.9 0 0 718.55 767.33
  L 711.57 767.32
  A 2.20 2.20 0.0 0 0 709.36 769.52
  Z"
/>
<path d="
  M 853.95 785.27
  Q 853.71 785.89 854.71 786.02
  L 854.90 793.22
  A 0.82 0.82 0.0 0 1 854.08 794.06
  Q 840.50 794.14 835.68 794.19
  C 833.07 794.21 832.07 794.71 832.04 797.48
  Q 831.97 803.78 832.10 809.45
  Q 832.15 811.58 834.49 811.59
  Q 844.78 811.65 856.13 811.39
  A 0.96 0.96 0.0 0 1 857.11 812.35
  L 857.11 820.26
  A 1.39 1.39 0.0 0 1 855.72 821.65
  L 822.71 821.65
  A 1.69 1.69 0.0 0 1 821.02 819.96
  L 821.02 758.52
  A 0.79 0.79 0.0 0 1 821.81 757.73
  L 855.99 757.73
  A 1.05 1.05 0.0 0 1 857.04 758.78
  L 857.04 766.24
  A 1.04 1.03 90.0 0 1 856.01 767.28
  L 833.74 767.28
  A 1.65 1.64 0.7 0 0 832.09 768.88
  Q 831.91 775.52 832.09 782.95
  Q 832.15 785.09 834.51 785.00
  Q 837.85 784.87 853.00 785.05
  Q 853.52 785.05 853.95 785.27
  Z"
/>
<path d="
  M 160.03 757.91
  A 1.07 1.06 -0.0 0 1 161.10 758.97
  L 161.10 809.50
  A 2.00 2.00 0.0 0 0 162.60 811.44
  Q 163.80 811.75 165.59 811.45
  Q 165.64 811.45 165.68 811.45
  L 185.07 811.37
  A 1.03 1.03 0.0 0 1 186.11 812.40
  L 186.11 819.92
  A 1.81 1.81 0.0 0 1 184.30 821.73
  L 151.73 821.73
  A 1.55 1.55 0.0 0 1 150.18 820.18
  L 150.18 759.64
  A 1.73 1.73 0.0 0 1 151.91 757.91
  L 160.03 757.91
  Z"
/>
<path d="
  M 600.97 811.40
  L 621.42 811.40
  A 1.58 1.58 0.0 0 1 623.00 812.98
  L 623.00 820.10
  A 1.58 1.58 0.0 0 1 621.42 821.68
  L 589.70 821.68
  A 1.58 1.58 0.0 0 1 588.12 820.10
  L 588.12 759.45
  A 1.58 1.58 0.0 0 1 589.70 757.87
  L 597.81 757.87
  A 1.58 1.58 0.0 0 1 599.39 759.45
  L 599.39 809.82
  A 1.58 1.58 0.0 0 0 600.97 811.40
  Z"
/>
</g>
<path fill="#91703a" d="
  M 854.71 786.02
  Q 853.71 785.89 853.95 785.27
  Q 854.32 785.18 854.57 785.43
  Q 854.75 785.61 854.71 786.02
  Z"
/>
<g fill="#080401" fill-opacity="0.996">
<path d="
  M 511.18 230.63
  Q 509.69 236.28 503.84 236.38
  C 500.00 236.45 494.34 236.27 493.96 231.29
  A 1.40 1.39 87.0 0 0 492.53 230.00
  Q 483.62 230.25 472.57 229.95
  Q 465.71 229.76 464.97 223.25
  Q 464.54 219.39 465.68 217.40
  Q 467.56 214.15 467.69 212.68
  C 468.29 205.72 467.02 194.16 468.84 186.51
  Q 472.24 172.22 485.07 164.86
  C 507.56 151.96 534.49 167.50 535.14 193.25
  Q 535.45 205.79 535.37 212.86
  A 3.94 3.94 0.0 0 0 536.14 215.26
  C 539.41 219.68 539.70 226.66 534.19 229.37
  Q 532.59 230.15 526.50 230.12
  Q 512.20 230.03 511.95 230.03
  A 0.81 0.80 6.5 0 0 511.18 230.63
  Z
  M 494.42 230.57
  L 495.91 233.47
  A 1.03 1.01 2.9 0 0 496.24 233.83
  C 498.90 235.56 501.84 235.48 504.98 235.11
  Q 509.50 234.57 510.23 230.79
  A 2.02 2.01 5.5 0 1 512.23 229.15
  Q 517.01 229.18 530.74 229.06
  C 536.22 229.01 537.91 225.12 537.20 220.03
  C 536.91 217.95 535.13 215.93 534.60 214.12
  A 5.30 4.80 38.1 0 1 534.40 212.95
  Q 534.14 206.06 534.19 198.27
  Q 534.25 188.52 532.78 183.89
  C 529.07 172.24 519.48 163.64 507.55 161.82
  Q 499.27 160.56 492.58 162.72
  Q 474.17 168.67 469.83 186.79
  Q 468.90 190.66 468.83 199.85
  Q 468.76 207.74 468.62 213.04
  A 3.51 3.37 -31.4 0 1 468.22 214.56
  C 466.78 217.30 465.91 218.75 465.84 221.33
  C 465.72 226.22 467.79 229.04 473.26 229.11
  Q 479.44 229.19 492.11 229.16
  A 2.60 2.59 -13.5 0 1 494.42 230.57
  Z"
/>
<path d="
  M 673.14 546.94
  A 12.13 12.13 0.0 0 1 661.01 559.07
  L 605.01 559.07
  A 12.13 12.13 0.0 0 1 592.88 546.94
  L 592.88 455.66
  A 12.13 12.13 0.0 0 1 605.01 443.53
  L 661.01 443.53
  A 12.13 12.13 0.0 0 1 673.14 455.66
  L 673.14 546.94
  Z"
/>
<path d="
  M 411.10 546.93
  A 12.26 12.26 0.0 0 1 398.84 559.19
  L 343.12 559.19
  A 12.26 12.26 0.0 0 1 330.86 546.93
  L 330.86 456.13
  A 12.26 12.26 0.0 0 1 343.12 443.87
  L 398.84 443.87
  A 12.26 12.26 0.0 0 1 411.10 456.13
  L 411.10 546.93
  Z
  M 410.2594 455.9983
  A 11.07 11.07 0.0 0 0 399.2088 444.9090
  L 343.1688 444.8112
  A 11.07 11.07 0.0 0 0 332.0795 455.8618
  L 331.9206 546.9417
  A 11.07 11.07 0.0 0 0 342.9712 558.0310
  L 399.0112 558.1288
  A 11.07 11.07 0.0 0 0 410.1005 547.0782
  L 410.2594 455.9983
  Z"
/>
<path d="
  M 302.72 657.58
  C 299.95 659.63 294.03 658.96 290.93 658.36
  A 2.57 2.56 2.6 0 1 288.86 656.10
  Q 288.71 654.61 289.46 652.44
  Q 301.80 616.54 307.53 601.04
  C 308.58 598.21 311.17 596.83 314.35 596.66
  C 318.52 596.44 323.83 596.35 326.26 599.66
  A 3.52 3.51 -73.0 0 1 326.77 600.62
  Q 335.06 624.11 343.79 650.02
  Q 345.09 653.85 344.80 655.32
  C 343.96 659.67 335.79 659.12 332.77 658.46
  C 329.00 657.64 328.16 651.77 327.20 647.92
  A 1.10 1.09 -7.6 0 0 326.11 647.09
  Q 314.55 647.32 309.01 647.26
  Q 306.83 647.23 306.59 648.08
  C 305.95 650.28 304.98 655.89 302.72 657.58
  Z
  M 306.99 646.19
  L 326.88 646.19
  A 1.05 1.04 82.4 0 1 327.89 646.97
  Q 329.44 652.90 329.94 654.54
  Q 330.73 657.11 332.36 657.51
  Q 337.36 658.76 342.55 657.13
  A 2.21 2.21 0.0 0 0 344.06 654.59
  Q 343.67 652.67 343.17 651.15
  Q 337.41 633.64 326.49 602.04
  Q 325.89 600.29 325.23 599.58
  C 322.91 597.08 317.51 597.13 314.23 597.42
  C 310.82 597.71 309.19 598.76 308.02 602.01
  Q 298.59 628.17 289.62 654.92
  A 1.95 1.95 0.0 0 0 290.97 657.42
  Q 296.07 658.76 301.18 657.44
  A 3.26 3.25 -88.5 0 0 303.48 655.25
  L 306.09 646.86
  A 0.96 0.94 -81.1 0 1 306.99 646.19
  Z"
/>
</g>
<g fill="#e3d099">
<path d="
  M 445.30 163.01
  A 0.75 0.74 -0.0 0 1 444.55 162.27
  L 444.55 148.37
  A 0.50 0.50 0.0 0 1 445.05 147.87
  L 558.47 147.87
  A 0.62 0.62 0.0 0 1 559.09 148.49
  L 559.09 162.57
  A 0.94 0.93 -79.8 0 1 557.83 163.45
  Q 556.83 163.07 556.47 163.06
  Q 551.77 162.96 527.64 163.05
  C 525.29 163.06 521.78 163.87 519.57 162.86
  Q 502.64 155.13 485.69 162.54
  A 2.73 2.67 32.8 0 1 484.62 162.76
  L 445.30 163.01
  Z"
/>
<path d="
  M 700.27 450.17
  Q 699.69 449.41 698.55 448.46
  Q 681.55 434.32 667.98 423.26
  Q 664.25 420.21 660.79 420.21
  Q 522.40 420.39 341.08 420.38
  Q 339.22 420.38 337.00 422.26
  Q 320.34 436.37 307.47 446.21
  Q 306.50 446.96 304.98 447.84
  A 0.64 0.64 0.0 0 1 304.01 447.29
  L 304.01 426.48
  A 3.11 3.10 71.8 0 1 305.27 423.98
  C 306.77 422.87 308.39 421.92 309.79 420.75
  Q 320.75 411.62 329.82 404.49
  C 332.20 402.62 334.97 399.93 337.96 397.88
  Q 338.85 397.26 341.26 395.29
  Q 369.34 372.26 376.08 366.83
  Q 394.98 351.57 401.72 345.72
  Q 402.00 345.48 404.09 343.80
  Q 429.43 323.48 438.62 315.85
  Q 450.22 306.22 462.21 296.45
  Q 474.56 286.38 483.61 278.87
  Q 487.96 275.27 492.53 271.81
  Q 495.84 269.32 501.26 264.52
  A 1.23 1.23 0.0 0 1 502.85 264.49
  L 699.77 424.41
  A 3.32 3.30 -70.5 0 1 700.98 426.97
  L 700.98 449.93
  A 0.40 0.40 0.0 0 1 700.27 450.17
  Z"
/>
<path d="
  M 328.86 491.51
  A 0.28 0.28 0.0 0 1 328.58 491.79
  L 307.21 492.05
  A 3.04 1.37 -0.7 0 1 304.15 490.72
  L 304.05 482.82
  A 3.04 1.37 -0.7 0 1 307.08 481.41
  L 328.45 481.15
  A 0.28 0.28 0.0 0 1 328.74 481.43
  L 328.86 491.51
  Z"
/>
<rect x="-13.37" y="-5.31" transform="translate(426.54,486.68) rotate(-0.1)" width="26.74" height="10.62" rx="0.65"/>
<rect x="564.14" y="481.34" width="26.80" height="10.62" rx="0.81"/>
<rect x="-12.81" y="-5.25" transform="translate(687.97,486.67) rotate(0.2)" width="25.62" height="10.50" rx="0.80"/>
<rect x="-12.36" y="-5.09" transform="translate(316.49,531.08) rotate(-0.1)" width="24.72" height="10.18" rx="0.60"/>
<rect x="-13.37" y="-5.19" transform="translate(426.51,531.02) rotate(-0.1)" width="26.74" height="10.38" rx="0.35"/>
<rect x="-13.39" y="-5.24" transform="translate(577.57,531.02) rotate(0.1)" width="26.78" height="10.48" rx="0.77"/>
<rect x="-12.94" y="-5.14" transform="translate(687.98,531.02) rotate(0.1)" width="25.88" height="10.28" rx="1.00"/>
<path d="
  M 439.90 576.18
  L 439.90 584.51
  A 0.76 0.76 0.0 0 1 439.14 585.27
  L 394.30 585.27
  A 0.76 0.76 0.0 0 1 393.55 584.66
  L 391.93 576.33
  A 0.76 0.76 0.0 0 1 392.67 575.42
  L 439.14 575.42
  A 0.76 0.76 0.0 0 1 439.90 576.18
  Z"
/>
<rect x="564.23" y="575.26" width="136.68" height="10.08" rx="1.40"/>
</g>
<g fill="#f6e4b1">
<path d="
  M 458.11 324.48
  A 0.23 0.23 0.0 0 1 457.94 324.07
  Q 480.52 304.64 497.71 291.19
  C 502.10 287.76 505.17 290.67 509.10 293.90
  Q 516.83 300.23 545.76 324.39
  A 0.39 0.39 0.0 0 1 545.42 325.07
  Q 541.64 324.19 539.43 324.17
  Q 493.11 323.93 464.05 324.19
  Q 461.16 324.22 458.11 324.48
  Z"
/>
<path d="
  M 405.36 367.37
  A 0.20 0.20 0.0 0 1 405.23 367.01
  Q 438.43 339.65 443.39 335.64
  Q 444.50 334.74 447.48 333.68
  A 3.59 3.54 36.7 0 1 448.99 333.47
  Q 454.12 333.84 456.25 333.85
  Q 516.91 334.07 555.23 333.79
  Q 557.02 333.78 560.98 336.92
  Q 585.88 356.71 597.45 365.96
  Q 598.19 366.56 599.05 367.61
  A 0.28 0.28 0.0 0 1 598.77 368.06
  Q 595.43 367.35 592.19 367.34
  Q 499.19 367.00 405.36 367.37
  Z"
/>
<path d="
  M 652.09 411.12
  L 351.25 411.12
  A 0.03 0.02 20.8 0 1 351.23 411.08
  Q 353.25 409.00 356.16 406.66
  Q 374.48 391.89 388.71 379.96
  Q 389.86 379.00 391.77 378.22
  A 2.40 2.37 34.0 0 1 392.73 378.04
  Q 415.99 378.57 423.52 378.56
  Q 502.16 378.49 571.72 378.55
  Q 587.22 378.57 607.07 378.16
  Q 607.48 378.15 609.30 377.39
  A 1.25 1.25 0.0 0 1 610.24 377.39
  Q 612.94 378.49 615.05 380.19
  Q 633.50 395.00 652.35 410.40
  A 0.41 0.41 0.0 0 1 652.09 411.12
  Z"
/>
<rect x="351.15" y="596.96" width="13.16" height="60.98" rx="3.40"/>
<path d="
  M 306.99 646.19
  A 0.96 0.94 -81.1 0 0 306.09 646.86
  L 303.48 655.25
  A 3.26 3.25 -88.5 0 1 301.18 657.44
  Q 296.07 658.76 290.97 657.42
  A 1.95 1.95 0.0 0 1 289.62 654.92
  Q 298.59 628.17 308.02 602.01
  C 309.19 598.76 310.82 597.71 314.23 597.42
  C 317.51 597.13 322.91 597.08 325.23 599.58
  Q 325.89 600.29 326.49 602.04
  Q 337.41 633.64 343.17 651.15
  Q 343.67 652.67 344.06 654.59
  A 2.21 2.21 0.0 0 1 342.55 657.13
  Q 337.36 658.76 332.36 657.51
  Q 330.73 657.11 329.94 654.54
  Q 329.44 652.90 327.89 646.97
  A 1.05 1.04 82.4 0 0 326.88 646.19
  L 306.99 646.19
  Z
  M 316.79 633.91
  Q 321.87 633.95 323.79 634.10
  A 0.39 0.38 -6.6 0 0 324.19 633.60
  Q 323.33 630.84 318.83 616.20
  Q 318.38 614.71 317.99 612.73
  Q 317.35 609.39 316.99 609.39
  Q 316.64 609.38 315.94 612.71
  Q 315.52 614.69 315.04 616.17
  Q 310.31 630.73 309.40 633.48
  A 0.39 0.38 7.5 0 0 309.80 633.99
  Q 311.72 633.86 316.79 633.91
  Z"
/>
<path d="
  M 267.64 776.33
  L 272.96 795.97
  A 0.43 0.43 0.0 0 1 272.55 796.51
  L 260.18 796.51
  A 0.35 0.35 0.0 0 1 259.84 796.07
  L 266.08 772.74
  Q 267.14 773.18 267.64 776.33
  Z"
/>
</g>
<rect fill="#809147" x="-16.14" y="-16.98" transform="translate(501.89,507.24) rotate(-0.2)" width="32.28" height="33.96" rx="0.88"/>
<g fill="#4e682e">
<path d="
  M 494.42 230.57
  A 2.60 2.59 -13.5 0 0 492.11 229.16
  Q 479.44 229.19 473.26 229.11
  C 467.79 229.04 465.72 226.22 465.84 221.33
  C 465.91 218.75 466.78 217.30 468.22 214.56
  A 3.51 3.37 -31.4 0 0 468.62 213.04
  Q 468.76 207.74 468.83 199.85
  Q 468.90 190.66 469.83 186.79
  Q 474.17 168.67 492.58 162.72
  Q 499.27 160.56 507.55 161.82
  C 519.48 163.64 529.07 172.24 532.78 183.89
  Q 534.25 188.52 534.19 198.27
  Q 534.14 206.06 534.40 212.95
  A 5.30 4.80 38.1 0 0 534.60 214.12
  C 535.13 215.93 536.91 217.95 537.20 220.03
  C 537.91 225.12 536.22 229.01 530.74 229.06
  Q 517.01 229.18 512.23 229.15
  A 2.02 2.01 5.5 0 0 510.23 230.79
  Q 509.50 234.57 504.98 235.11
  C 501.84 235.48 498.90 235.56 496.24 233.83
  A 1.03 1.01 2.9 0 1 495.91 233.47
  L 494.42 230.57
  Z
  M 485.88 215.60
  L 517.82 215.48
  A 2.05 2.05 0.0 0 0 519.86 213.43
  L 519.80 194.18
  A 18.80 17.85 89.8 0 0 501.88 175.44
  L 501.54 175.44
  A 18.80 17.85 89.8 0 0 483.76 194.30
  L 483.82 213.55
  A 2.05 2.05 0.0 0 0 485.88 215.60
  Z"
/>
<path d="
  M 410.1005 547.0782
  A 11.07 11.07 0.0 0 1 399.0112 558.1288
  L 342.9712 558.0310
  A 11.07 11.07 0.0 0 1 331.9206 546.9417
  L 332.0795 455.8618
  A 11.07 11.07 0.0 0 1 343.1688 444.8112
  L 399.2088 444.9090
  A 11.07 11.07 0.0 0 1 410.2594 455.9983
  L 410.1005 547.0782
  Z
  M 348.05 531.17
  L 347.96 541.45
  Q 348.17 541.71 348.10 542.26
  Q 347.78 542.35 347.95 542.65
  Q 348.28 543.25 348.75 543.04
  L 349.51 543.09
  Q 350.49 543.87 351.47 543.13
  Q 352.36 542.73 352.38 543.15
  Q 355.52 543.74 358.73 543.11
  L 375.55 543.07
  L 388.56 543.09
  L 392.56 542.88
  A 0.52 0.52 0.0 0 0 393.05 542.36
  L 393.05 509.81
  A 0.85 0.85 0.0 0 0 392.20 508.96
  L 349.07 508.96
  A 1.01 1.01 0.0 0 0 348.06 509.97
  L 348.05 531.17
  Z"
/>
<path d="
  M 661.35 558.07
  L 604.77 558.07
  A 10.79 10.79 0.0 0 1 593.98 547.28
  L 593.98 455.51
  A 10.79 10.79 0.0 0 1 604.77 444.72
  L 661.35 444.72
  A 10.79 10.79 0.0 0 1 672.14 455.51
  L 672.14 547.28
  A 10.79 10.79 0.0 0 1 661.35 558.07
  Z"
/>
</g>
<g fill="#080401" fill-opacity="0.996">
<path d="
  M 657.81 766.26
  C 670.64 766.29 674.24 779.51 674.22 789.72
  C 674.20 799.93 670.53 813.13 657.70 813.10
  C 644.88 813.07 641.27 799.85 641.30 789.64
  C 641.32 779.43 644.99 766.23 657.81 766.26
  Z"
/>
<path d="
  M 313.11 769.27
  A 2.07 2.07 0.0 0 1 315.18 767.19
  L 322.14 767.18
  A 10.07 9.91 -0.1 0 1 332.23 777.07
  L 332.23 780.13
  A 10.07 9.91 -0.1 0 1 322.18 790.06
  L 315.22 790.07
  A 2.07 2.07 0.0 0 1 313.15 788.01
  L 313.11 769.27
  Z"
/>
<path d="
  M 709.36 769.52
  A 2.20 2.20 0.0 0 1 711.57 767.32
  L 718.55 767.33
  A 18.95 15.56 -89.9 0 1 734.08 786.31
  L 734.06 792.89
  A 18.95 15.56 -89.9 0 1 718.47 811.81
  L 711.49 811.80
  A 2.20 2.20 0.0 0 1 709.30 809.60
  L 709.36 769.52
  Z"
/>
<path d="
  M 266.08 772.74
  L 259.84 796.07
  A 0.35 0.35 0.0 0 0 260.18 796.51
  L 272.55 796.51
  A 0.43 0.43 0.0 0 0 272.96 795.97
  L 267.64 776.33
  Q 267.57 775.49 267.80 775.44
  A 0.99 0.93 76.0 0 1 268.91 776.16
  Q 272.80 790.58 273.65 794.49
  Q 274.25 797.22 271.67 797.90
  A 0.76 0.54 28.4 0 1 271.50 797.92
  L 260.36 797.70
  A 1.29 1.29 0.0 0 1 259.55 797.39
  Q 258.49 796.48 259.01 794.51
  Q 261.83 783.84 264.58 773.61
  Q 264.68 773.26 266.08 772.74
  Z"
/>
</g>
<g fill="#f6e4b1">
<path d="
  M 672.78 789.72
  C 672.75 799.51 670.01 811.99 657.67 811.95
  C 645.34 811.91 642.67 799.43 642.70 789.63
  C 642.73 779.84 645.47 767.37 657.80 767.40
  C 670.14 767.44 672.81 779.93 672.78 789.72
  Z"
/>
<path d="
  M 314.21 769.04
  A 0.59 0.59 0.0 0 1 314.80 768.45
  L 322.09 768.44
  A 8.82 8.58 -0.1 0 1 330.93 777.01
  L 330.93 780.41
  A 8.82 8.58 -0.1 0 1 322.13 789.00
  L 314.84 789.01
  A 0.59 0.59 0.0 0 1 314.25 788.42
  L 314.21 769.04
  Z"
/>
<path d="
  M 710.56 768.86
  A 0.40 0.40 0.0 0 1 710.96 768.46
  L 718.32 768.45
  A 17.36 14.38 89.9 0 1 732.73 785.78
  L 732.75 793.26
  A 17.36 14.38 89.9 0 1 718.40 810.65
  L 711.04 810.66
  A 0.40 0.40 0.0 0 1 710.64 810.26
  L 710.56 768.86
  Z"
/>
</g>
<g fill="#809147">
<rect x="-7.83" y="-17.11" transform="translate(648.09,477.01) rotate(0.2)" width="15.66" height="34.22" rx="0.76"/>
<rect x="-7.51" y="-16.98" transform="translate(617.97,476.96) rotate(0.1)" width="15.02" height="33.96" rx="0.95"/>
<rect x="348.24" y="460.88" width="14.74" height="33.34" rx="0.65"/>
<rect x="-7.75" y="-16.61" transform="translate(385.39,477.49) rotate(0.2)" width="15.50" height="33.22" rx="0.74"/>
<rect x="-22.63" y="-17.28" transform="translate(633.09,525.08) rotate(0.1)" width="45.26" height="34.56" rx="0.61"/>
<path d="
  M 388.56 543.09
  L 375.55 543.07
  L 358.73 543.11
  L 352.38 543.15
  Q 352.36 542.73 351.47 543.13
  L 349.51 543.09
  L 348.75 543.04
  Q 348.15 542.87 348.10 542.26
  Q 348.17 541.71 347.96 541.45
  L 348.05 531.17
  L 348.06 509.97
  A 1.01 1.01 0.0 0 1 349.07 508.96
  L 392.20 508.96
  A 0.85 0.85 0.0 0 1 393.05 509.81
  L 393.05 542.36
  A 0.52 0.52 0.0 0 1 392.56 542.88
  L 388.56 543.09
  Z"
/>
</g>
<path fill="#4e3d13" d="
  M 348.05 531.17
  L 347.96 541.45
  L 348.05 531.17
  Z"
/>
<g fill="#080401" fill-opacity="0.996">
<path d="
  M 485.88 215.60
  A 2.05 2.05 0.0 0 1 483.82 213.55
  L 483.76 194.30
  A 18.80 17.85 89.8 0 1 501.54 175.44
  L 501.88 175.44
  A 18.80 17.85 89.8 0 1 519.80 194.18
  L 519.86 213.43
  A 2.05 2.05 0.0 0 1 517.82 215.48
  L 485.88 215.60
  Z"
/>
<path d="
  M 348.10 542.26
  Q 348.15 542.87 348.75 543.04
  Q 348.28 543.25 347.95 542.65
  Q 347.78 542.35 348.10 542.26
  Z"
/>
<path d="
  M 358.73 543.11
  Q 355.52 543.74 352.38 543.15
  L 358.73 543.11
  Z"
/>
<path d="
  M 388.56 543.09
  L 375.55 543.07
  L 388.56 543.09
  Z"
/>
<path d="
  M 351.47 543.13
  Q 350.49 543.87 349.51 543.09
  L 351.47 543.13
  Z"
/>
<path d="
  M 316.99 609.39
  Q 317.35 609.39 317.99 612.73
  Q 318.38 614.71 318.83 616.20
  Q 323.33 630.84 324.19 633.60
  A 0.39 0.38 -6.6 0 1 323.79 634.10
  Q 321.87 633.95 316.79 633.91
  Q 311.72 633.86 309.80 633.99
  A 0.39 0.38 7.5 0 1 309.40 633.48
  Q 310.31 630.73 315.04 616.17
  Q 315.52 614.69 315.94 612.71
  Q 316.64 609.38 316.99 609.39
  Z"
/>
</g>
<path fill="#91703a" d="
  M 310.73 632.55
  L 316.64 614.61
  A 0.33 0.33 0.0 0 1 317.27 614.62
  L 322.92 632.63
  A 0.33 0.33 0.0 0 1 322.61 633.06
  L 311.04 632.98
  A 0.33 0.33 0.0 0 1 310.73 632.55
  Z"
/>
<path fill="#d9bf7d" d="
  M 485.05 214.64
  A 0.41 0.41 0.0 0 1 484.64 214.23
  L 484.61 194.51
  A 18.21 16.96 89.9 0 1 501.54 176.27
  L 501.92 176.27
  A 18.21 16.96 89.9 0 1 518.91 194.45
  L 518.94 214.17
  A 0.41 0.41 0.0 0 1 518.53 214.58
  L 485.05 214.64
  Z"
/>
</svg>
