<?xml version="1.0" standalone="no"?>
<!DOCTYPE svg PUBLIC "-//W3C//DTD SVG 1.1//EN"
"http://www.w3.org/Graphics/SVG/1.1/DTD/svg11.dtd">

<svg height="133" transform="translate(0.5,0.5)" version="1.1" width="143" xmlns="http://www.w3.org/2000/svg" xmlns:nch="http://www.nchsoftware.com/drawpad/" xmlns:xlink="http://www.w3.org/1999/xlink"><rect fill="rgb(255,255,255)" fill-opacity="0.000" height="133" id="background" width="143" x="0" y="0"/><g class="Layer"><path d="M642,19 C642,19 639,21 639,21 C639,21 639,21 639,21 C639,21 638,21 638,22 C638,22 638,22 638,22 C638,22 638,112 638,112" fill="none" nch:path="641.9,19.4,641.9,19.4,639.2,20.6 639.2,20.6,639.2,20.6,639.2,20.6 639.2,20.6,638.7,20.8,638.4,21.2 638.2,21.7,638.1,21.9,638.1,22.2 638.1,22.4,638.1,22.4,638.2,111.9 638.2,111.9," nch:path-opacity="255" nch:stamp="pen" stroke="rgb(99,96,78,255)" stroke-linecap="round" stroke-linejoin="round" stroke-opacity="1.000" stroke-width="0"/><path d="M684,19 C684,19 684,21 684,21" fill="none" nch:path="683.8,19.4,683.8,19.4,684.3,21.1 684.3,21.1," nch:path-opacity="255" nch:stamp="pen" stroke="rgb(146,118,99,255)" stroke-linecap="round" stroke-linejoin="round" stroke-opacity="1.000" stroke-width="0"/><path d="M684,21 C684,21 684,21 684,21 C684,21 684,21 684,21 C684,21 684,21 684,21 C684,21 684,21 684,21 C684,21 684,21 684,21 C684,32 684,43 683,54 C683,59 684,63 684,66" fill="none" nch:path="684.3,21.1,684.3,21.1,684.1,20.9 684.1,20.9,684.0,20.8,684.0,20.8 683.9,20.8,683.9,20.8,683.8,20.8 683.8,20.8,683.7,20.9,683.7,20.9 683.7,21.0,683.7,21.0,683.7,21.0 683.7,21.0,683.6,32.0,683.5,43.1 683.5,54.1,683.4,59.2,683.7,63.2 684.5,66.2," nch:path-opacity="255" nch:stamp="pen" stroke="rgb(82,83,68,255)" stroke-linecap="round" stroke-linejoin="round" stroke-opacity="1.000" stroke-width="0"/><path d="M684,66 C684,66 684,112 684,112" fill="none" nch:path="684.5,66.2,684.5,66.2,684.4,112.3 684.4,112.3," nch:path-opacity="255" nch:stamp="pen" stroke="rgb(146,118,99,255)" stroke-linecap="round" stroke-linejoin="round" stroke-opacity="1.000" stroke-width="0"/><path d="M639,112 C638,112 638,112 638,112" fill="none" nch:path="638.5,112.3,638.4,112.1,638.3,112.0 638.2,111.9," nch:path-opacity="255" nch:stamp="pen" stroke="rgb(82,83,68,255)" stroke-linecap="round" stroke-linejoin="round" stroke-opacity="1.000" stroke-width="0"/><path d="M684,66 C684,66 685,63 685,63" fill="none" nch:path="684.5,66.2,684.5,66.2,684.5,63.1 684.5,63.1," nch:path-opacity="255" nch:stamp="pen" stroke="rgb(124,79,49,255)" stroke-linecap="round" stroke-linejoin="round" stroke-opacity="1.000" stroke-width="0"/><path d="M685,63 C685,63 728,63 728,63 C728,63 728,63 729,62 C729,62 729,62 729,62 C729,62 729,33 729,33 C729,33 729,32 729,32 C728,32 728,31 727,31 C727,31 727,31 727,31 C727,31 685,32 685,32" fill="none" nch:path="684.5,63.1,684.5,63.1,727.8,62.8 727.8,62.8,728.1,62.8,728.5,62.7 728.7,62.5,729.0,62.2,729.1,61.9 729.1,61.5,729.1,61.5,729.1,33.4 729.1,33.4,729.1,32.9,728.9,32.4 728.5,32.1,728.2,31.7,727.7,31.5 727.1,31.5,727.1,31.5,727.1,31.5 727.1,31.5,727.1,31.5,684.7,31.5 684.7,31.5," nch:path-opacity="255" nch:stamp="pen" stroke="rgb(171,100,66,255)" stroke-linecap="round" stroke-linejoin="round" stroke-opacity="1.000" stroke-width="0"/><path d="M685,32 C685,32 684,21 684,21" fill="none" nch:path="684.7,31.5,684.7,31.5,684.3,21.1 684.3,21.1," nch:path-opacity="255" nch:stamp="pen" stroke="rgb(124,79,49,255)" stroke-linecap="round" stroke-linejoin="round" stroke-opacity="1.000" stroke-width="0"/><path d="M685,32 C685,32 685,32 685,32" fill="none" nch:path="684.7,31.5,684.9,31.8,684.9,32.1 684.9,32.3," nch:path-opacity="255" nch:stamp="pen" stroke="rgb(107,66,35,255)" stroke-linecap="round" stroke-linejoin="round" stroke-opacity="1.000" stroke-width="0"/><path d="M685,32 C685,32 685,32 685,33 C685,42 685,52 684,62 C684,62 685,62 685,62" fill="none" nch:path="684.9,32.3,684.7,32.3,684.6,32.5 684.6,32.7,684.6,42.4,684.6,52.1 684.5,61.8,684.5,62.0,684.6,62.2 684.9,62.3," nch:path-opacity="255" nch:stamp="pen" stroke="rgb(151,133,98,255)" stroke-linecap="round" stroke-linejoin="round" stroke-opacity="1.000" stroke-width="0"/><path d="M685,62 C685,62 685,63 685,63" fill="none" nch:path="684.9,62.3,684.9,62.4,684.8,62.7 684.5,63.1," nch:path-opacity="255" nch:stamp="pen" stroke="rgb(107,66,35,255)" stroke-linecap="round" stroke-linejoin="round" stroke-opacity="1.000" stroke-width="0"/><path d="M685,62 C685,62 727,62 727,62 C727,62 727,62 728,62 C728,62 728,62 728,62 C728,62 728,62 728,62 C728,62 728,33 728,33 C728,33 728,33 728,32 C727,32 727,32 727,32 C727,32 727,32 727,32 C727,32 685,32 685,32" fill="none" nch:path="684.9,62.3,684.9,62.3,727.1,62.3 727.1,62.3,727.3,62.3,727.4,62.3 727.5,62.1,727.6,62.0,727.7,61.9 727.7,61.7,727.7,61.7,727.7,61.7 727.7,61.7,727.7,61.7,727.7,32.9 727.7,32.9,727.7,32.7,727.6,32.6 727.5,32.5,727.4,32.4,727.3,32.3 727.1,32.3,727.1,32.3,727.1,32.3 727.1,32.3,727.1,32.3,684.9,32.3 684.9,32.3," nch:path-opacity="255" nch:stamp="pen" stroke="rgb(198,155,115,255)" stroke-linecap="round" stroke-linejoin="round" stroke-opacity="1.000" stroke-width="0"/><path d="M18,19 C16,19 15,21 15,23 C15,35 15,46 15,57 C15,58 15,58 15,58 C15,58 15,58 15,58 C15,58 62,58 62,58 C62,58 62,58 62,58 C62,58 62,58 62,58 C62,58 63,57 63,57" fill="none" nch:path="18.3,19.4,16.3,19.5,15.3,20.5 15.3,22.6,15.3,34.6,15.3,46.3 15.3,57.5,15.3,57.6,15.3,57.6 15.3,57.7,15.4,57.7,15.4,57.7 15.5,57.7,15.5,57.7,61.6,57.7 61.6,57.7,61.6,57.7,61.7,57.7 61.7,57.7,61.7,57.7,61.7,57.7 61.7,57.7,61.7,57.7,63.1,57.4 63.1,57.4," nch:path-opacity="255" nch:stamp="pen" stroke="rgb(82,83,68,255)" stroke-linecap="round" stroke-linejoin="round" stroke-opacity="1.000" stroke-width="0"/><path d="M63,57 C63,57 64,58 64,58 C64,58 64,58 64,58 C64,58 64,58 64,58 C64,58 64,58 64,59 C64,59 64,59 64,59" fill="none" nch:path="63.1,57.4,63.1,57.4,63.5,57.8 63.5,57.8,63.5,57.8,63.5,57.8 63.5,57.8,63.7,57.9,63.7,58.1 63.8,58.3,63.8,58.4,63.7,58.5 63.7,58.5,63.7,58.5,63.5,59.1 63.5,59.1," nch:path-opacity="255" nch:stamp="pen" stroke="rgb(124,79,49,255)" stroke-linecap="round" stroke-linejoin="round" stroke-opacity="1.000" stroke-width="0"/><path d="M64,59 C64,59 16,59 16,59 C16,59 16,59 16,59 C15,59 15,59 15,60 C15,60 15,60 15,60 C15,60 15,73 15,73" fill="none" nch:path="63.5,59.1,63.5,59.1,15.9,59.0 15.9,59.0,15.7,59.0,15.6,59.1 15.5,59.2,15.4,59.2,15.4,59.4 15.4,59.5,15.4,59.5,15.4,59.5 15.4,59.5,15.4,59.5,15.4,73.4 15.4,73.4," nch:path-opacity="255" nch:stamp="pen" stroke="rgb(151,133,98,255)" stroke-linecap="round" stroke-linejoin="round" stroke-opacity="1.000" stroke-width="0"/><path d="M15,73 C16,74 16,74 16,74" fill="none" nch:path="15.4,73.4,16.0,73.8,16.1,74.1 15.5,74.3," nch:path-opacity="255" nch:stamp="pen" stroke="rgb(107,66,35,255)" stroke-linecap="round" stroke-linejoin="round" stroke-opacity="1.000" stroke-width="0"/><path d="M16,74 C16,74 15,86 15,86" fill="none" nch:path="15.5,74.3,15.5,74.3,15.4,85.8 15.4,85.8," nch:path-opacity="255" nch:stamp="pen" stroke="rgb(124,79,49,255)" stroke-linecap="round" stroke-linejoin="round" stroke-opacity="1.000" stroke-width="0"/><path d="M15,86 C15,86 15,101 15,101" fill="none" nch:path="15.4,85.8,15.4,85.8,15.3,100.5 15.3,100.5," nch:path-opacity="255" nch:stamp="pen" stroke="rgb(151,133,98,255)" stroke-linecap="round" stroke-linejoin="round" stroke-opacity="1.000" stroke-width="0"/><path d="M15,101 C15,101 15,112 15,112" fill="none" nch:path="15.3,100.5,15.3,100.5,15.1,112.3 15.1,112.3," nch:path-opacity="255" nch:stamp="pen" stroke="rgb(124,79,49,255)" stroke-linecap="round" stroke-linejoin="round" stroke-opacity="1.000" stroke-width="0"/><path d="M125,84 C125,84 124,85 124,85 C109,85 79,85 32,85 C25,85 20,85 16,86" fill="none" nch:path="125.2,83.6,124.6,84.3,124.1,84.7 123.5,84.7,109.1,84.8,78.7,84.9 32.3,84.8,25.2,84.8,19.7,85.1 15.9,85.8," nch:path-opacity="255" nch:stamp="pen" stroke="rgb(171,100,66,255)" stroke-linecap="round" stroke-linejoin="round" stroke-opacity="1.000" stroke-width="0"/><path d="M16,86 C16,86 16,86 15,86" fill="none" nch:path="15.9,85.8,16.2,85.9,16.0,85.9 15.4,85.8," nch:path-opacity="255" nch:stamp="pen" stroke="rgb(215,168,129,255)" stroke-linecap="round" stroke-linejoin="round" stroke-opacity="1.000" stroke-width="0"/><path d="M125,101 C125,101 16,101 16,101" fill="none" nch:path="125.1,100.5,125.1,100.5,15.8,100.5 15.8,100.5," nch:path-opacity="255" nch:stamp="pen" stroke="rgb(198,155,115,255)" stroke-linecap="round" stroke-linejoin="round" stroke-opacity="1.000" stroke-width="0"/><path d="M16,101 C16,101 16,101 15,101" fill="none" nch:path="15.8,100.5,15.8,100.6,15.6,100.6 15.3,100.5," nch:path-opacity="255" nch:stamp="pen" stroke="rgb(215,168,129,255)" stroke-linecap="round" stroke-linejoin="round" stroke-opacity="1.000" stroke-width="0"/><path d="M125,73 C125,73 15,73 15,73" fill="none" nch:path="125.2,73.4,125.2,73.4,15.4,73.4 15.4,73.4," nch:path-opacity="255" nch:stamp="pen" stroke="rgb(198,155,115,255)" stroke-linecap="round" stroke-linejoin="round" stroke-opacity="1.000" stroke-width="0"/><path d="M123,108 C122,109 122,109 123,109" fill="none" nch:path="123.3,108.3,122.5,108.7,122.3,109.0 122.6,109.4," nch:path-opacity="255" nch:stamp="pen" stroke="rgb(124,79,49,255)" stroke-linecap="round" stroke-linejoin="round" stroke-opacity="1.000" stroke-width="0"/><path d="M122,110 C122,110 122,110 122,110 C122,110 122,110 122,110 C122,110 122,110 122,110 C119,111 116,112 112,112 C108,112 104,112 98,112" fill="none" nch:path="122.0,110.1,122.0,110.0,121.9,109.9 121.8,109.9,121.8,109.9,121.8,109.9 121.8,109.9,121.8,109.9,121.7,109.9 121.7,109.9,118.8,111.2,115.6,111.8 112.1,111.7,108.2,111.6,103.6,111.8 98.3,112.3," nch:path-opacity="255" nch:stamp="pen" stroke="rgb(141,92,59,255)" stroke-linecap="round" stroke-linejoin="round" stroke-opacity="1.000" stroke-width="0"/><path d="M125,59 C125,59 64,59 64,59" fill="none" nch:path="125.2,59.1,125.2,59.1,63.5,59.1 63.5,59.1," nch:path-opacity="255" nch:stamp="pen" stroke="rgb(215,168,129,255)" stroke-linecap="round" stroke-linejoin="round" stroke-opacity="1.000" stroke-width="0"/><path d="M125,74 C125,74 16,74 16,74" fill="none" nch:path="125.3,74.3,125.3,74.3,15.5,74.3 15.5,74.3," nch:path-opacity="255" nch:stamp="pen" stroke="rgb(171,100,66,255)" stroke-linecap="round" stroke-linejoin="round" stroke-opacity="1.000" stroke-width="0"/><path d="M63,19 C63,19 63,31 63,31" fill="none" nch:path="63.1,19.5,63.1,19.5,63.3,31.5 63.3,31.5," nch:path-opacity="255" nch:stamp="pen" stroke="rgb(146,118,99,255)" stroke-linecap="round" stroke-linejoin="round" stroke-opacity="1.000" stroke-width="0"/><path d="M63,31 C63,32 63,32 63,33" fill="none" nch:path="63.3,31.5,63.5,31.8,63.5,32.2 63.4,32.5," nch:path-opacity="255" nch:stamp="pen" stroke="rgb(129,105,85,255)" stroke-linecap="round" stroke-linejoin="round" stroke-opacity="1.000" stroke-width="0"/><path d="M63,33 C63,32 63,32 63,33 C63,33 63,33 63,33 C63,33 62,33 62,33 C62,33 63,46 63,46 C63,46 63,46 63,46 C63,46 63,46 63,46 C63,46 63,46 63,46 C63,46 63,46 63,46 C63,46 63,46 63,46" fill="none" nch:path="63.4,32.5,63.1,32.4,62.8,32.4 62.6,32.6,62.6,32.6,62.6,32.6 62.6,32.6,62.5,32.7,62.5,32.8 62.5,32.9,62.5,32.9,62.5,46.1 62.5,46.1,62.5,46.1,62.5,46.2 62.6,46.3,62.6,46.3,62.7,46.3 62.8,46.3,62.8,46.3,62.9,46.3 63.0,46.3,63.0,46.3,63.0,46.3 63.0,46.3,63.0,46.2,63.2,46.1 63.4,46.0," nch:path-opacity="255" nch:stamp="pen" stroke="rgb(82,83,68,255)" stroke-linecap="round" stroke-linejoin="round" stroke-opacity="1.000" stroke-width="0"/><path d="M63,46 C63,46 64,46 64,46" fill="none" nch:path="63.4,46.0,63.4,46.2,63.6,46.3 63.8,46.3," nch:path-opacity="255" nch:stamp="pen" stroke="rgb(173,172,148,255)" stroke-linecap="round" stroke-linejoin="round" stroke-opacity="1.000" stroke-width="0"/><path d="M64,46 C64,46 64,47 64,47" fill="none" nch:path="63.8,46.3,63.8,46.3,63.6,47.3 63.6,47.3," nch:path-opacity="255" nch:stamp="pen" stroke="rgb(129,105,85,255)" stroke-linecap="round" stroke-linejoin="round" stroke-opacity="1.000" stroke-width="0"/><path d="M64,47 C63,47 63,48 63,48 C63,51 63,54 63,57" fill="none" nch:path="63.6,47.3,63.3,47.4,63.2,47.5 63.2,47.7,63.4,51.0,63.3,54.2 63.1,57.4," nch:path-opacity="255" nch:stamp="pen" stroke="rgb(146,118,99,255)" stroke-linecap="round" stroke-linejoin="round" stroke-opacity="1.000" stroke-width="0"/><path d="M125,86 C125,86 16,86 16,86" fill="none" nch:path="125.1,85.9,125.1,85.9,15.9,85.8 15.9,85.8," nch:path-opacity="255" nch:stamp="pen" stroke="rgb(198,155,115,255)" stroke-linecap="round" stroke-linejoin="round" stroke-opacity="1.000" stroke-width="0"/><path d="M125,101 C125,101 125,102 125,102" fill="none" nch:path="125.2,100.8,125.2,100.8,125.2,101.6 125.2,101.6," nch:path-opacity="255" nch:stamp="pen" stroke="rgb(82,46,27,255)" stroke-linecap="round" stroke-linejoin="round" stroke-opacity="1.000" stroke-width="0"/><path d="M124,106 C124,106 124,107 124,107" fill="none" nch:path="124.2,106.1,124.1,106.3,124.1,106.6 124.1,106.8," nch:path-opacity="255" nch:stamp="pen" stroke="rgb(82,46,27,255)" stroke-linecap="round" stroke-linejoin="round" stroke-opacity="1.000" stroke-width="0"/><path d="M123,108 C123,108 123,108 123,108 C123,108 123,107 123,107 C124,106 124,105 124,103 C124,103 123,103 123,102 C123,102 122,102 122,102 C122,102 16,102 16,102 C16,102 16,102 16,102 C16,102 16,102 16,102 C16,102 16,102 16,102 C16,102 16,101 16,101" fill="none" nch:path="123.4,108.1,123.2,108.0,123.0,107.8 123.0,107.7,122.9,107.5,123.0,107.3 123.1,107.1,123.6,105.8,123.8,104.5 123.7,103.3,123.6,102.9,123.4,102.5 123.1,102.3,122.8,102.1,122.5,101.9 122.1,101.9,122.1,101.9,16.2,101.9 16.2,101.9,16.2,101.9,16.2,101.9 16.2,101.9,16.2,101.9,16.1,101.9 16.1,101.9,16.1,101.9,16.1,101.9 16.1,101.9,15.9,101.5,15.8,101.1 15.8,100.5," nch:path-opacity="255" nch:stamp="pen" stroke="rgb(171,100,66,255)" stroke-linecap="round" stroke-linejoin="round" stroke-opacity="1.000" stroke-width="0"/><path d="M119,112 C119,112 105,112 105,112" fill="none" nch:path="119.3,111.9,119.3,111.9,104.8,112.2 104.8,112.2," nch:path-opacity="255" nch:stamp="pen" stroke="rgb(52,38,20,255)" stroke-linecap="round" stroke-linejoin="round" stroke-opacity="1.000" stroke-width="0"/><path d="M125,47 C125,47 64,47 64,47" fill="none" nch:path="125.3,47.3,125.3,47.3,63.6,47.3 63.6,47.3," nch:path-opacity="255" nch:stamp="pen" stroke="rgb(171,100,66,255)" stroke-linecap="round" stroke-linejoin="round" stroke-opacity="1.000" stroke-width="0"/><path d="M125,32 C105,32 84,32 64,32 C64,32 64,32 63,33" fill="none" nch:path="125.3,32.3,104.7,32.3,84.2,32.3 63.6,32.4,63.6,32.3,63.5,32.3 63.4,32.5," nch:path-opacity="255" nch:stamp="pen" stroke="rgb(198,155,115,255)" stroke-linecap="round" stroke-linejoin="round" stroke-opacity="1.000" stroke-width="0"/><path d="M63,33 C63,33 63,46 63,46" fill="none" nch:path="63.4,32.5,63.4,32.5,63.4,46.0 63.4,46.0," nch:path-opacity="255" nch:stamp="pen" stroke="rgb(151,133,98,255)" stroke-linecap="round" stroke-linejoin="round" stroke-opacity="1.000" stroke-width="0"/><path d="M125,31 C125,31 63,31 63,31" fill="none" nch:path="125.2,31.3,125.2,31.3,63.3,31.5 63.3,31.5," nch:path-opacity="255" nch:stamp="pen" stroke="rgb(171,100,66,255)" stroke-linecap="round" stroke-linejoin="round" stroke-opacity="1.000" stroke-width="0"/><path d="M125,46 C125,46 64,46 64,46" fill="none" nch:path="125.3,46.3,125.3,46.3,63.8,46.3 63.8,46.3," nch:path-opacity="255" nch:stamp="pen" stroke="rgb(198,155,115,255)" stroke-linecap="round" stroke-linejoin="round" stroke-opacity="1.000" stroke-width="0"/><path d="M122,110 C121,111 120,111 119,112 C119,112 105,112 105,112 C105,112 98,112 98,112 C104,112 108,112 112,112 C116,112 119,111 122,110 C122,110 122,110 122,110 C122,110 122,110 122,110 C122,110 122,110 122,110 C122,110 122,110 122,110" fill="rgb(93,70,38)" fill-opacity="1.000" fill-rule="evenodd" nch:path="122.0,110.1,121.4,110.8,120.5,111.4 119.3,111.9,119.3,111.9,104.8,112.2 104.8,112.2,104.8,112.2,98.3,112.3 98.3,112.3,103.6,111.8,108.2,111.6 112.1,111.7,115.6,111.8,118.8,111.2 121.7,109.9,121.7,109.9,121.7,109.9 121.7,109.9,121.7,109.9,121.8,109.9 121.8,109.9,121.9,109.9,122.0,110.0 122.0,110.1,122.0,110.1,122.0,110.1 122.0,110.1," nch:penfill="rgba(93,70,38,255)"/><path d="M125,31 C125,31 63,31 63,31 C63,31 63,19 63,19 C63,19 118,20 118,20 C118,20 118,20 118,20 C118,20 119,20 119,20 C124,22 126,26 125,31 C125,31 125,31 125,31" fill="rgb(188,113,80)" fill-opacity="1.000" fill-rule="evenodd" nch:path="125.2,31.3,125.2,31.3,63.3,31.5 63.3,31.5,63.3,31.5,63.1,19.5 63.1,19.5,63.1,19.5,118.0,19.5 118.0,19.5,118.0,19.5,118.0,19.5 118.0,19.5,118.4,19.6,118.8,19.6 119.2,19.8,123.8,21.8,125.8,25.6 125.2,31.3,125.2,31.3,125.2,31.3 125.2,31.3," nch:penfill="rgba(188,113,80,255)"/><path d="M684,112 C684,112 684,66 684,66 C684,66 685,63 685,63 C685,63 728,63 728,63 C728,63 728,63 729,62 C729,62 729,62 729,62 C729,62 729,33 729,33 C729,33 729,32 729,32 C728,32 728,31 727,31 C727,31 727,31 727,31 C727,31 685,32 685,32 C685,32 684,21 684,21 C684,21 684,19 684,19 C684,19 732,19 732,19 C732,19 732,19 732,19 C732,19 733,19 733,20 C737,21 740,23 741,28 C741,28 741,28 741,28 C741,28 741,28 741,28 C741,55 741,78 741,98 C741,105 740,109 735,112 C734,112 732,112 729,112 C714,112 700,112 684,112 C684,112 684,112 684,112" fill="rgb(188,113,80)" fill-opacity="1.000" fill-rule="evenodd" nch:path="684.4,112.3,684.4,112.3,684.5,66.2 684.5,66.2,684.5,66.2,684.5,63.1 684.5,63.1,684.5,63.1,727.8,62.8 727.8,62.8,728.1,62.8,728.5,62.7 728.7,62.5,729.0,62.2,729.1,61.9 729.1,61.5,729.1,61.5,729.1,33.4 729.1,33.4,729.1,32.9,728.9,32.4 728.5,32.1,728.2,31.7,727.7,31.5 727.1,31.5,727.1,31.5,727.1,31.5 727.1,31.5,727.1,31.5,684.7,31.5 684.7,31.5,684.7,31.5,684.3,21.1 684.3,21.1,684.3,21.1,683.8,19.4 683.8,19.4,683.8,19.4,732.0,19.4 732.0,19.4,732.0,19.4,732.0,19.4 732.0,19.4,732.3,19.4,732.5,19.5 732.8,19.5,737.1,20.5,739.8,23.2 741.1,27.5,741.1,27.5,741.2,27.6 741.2,27.6,741.2,27.8,741.2,28.0 741.2,28.2,741.2,55.1,741.2,78.5 741.3,98.3,741.3,105.0,740.4,108.6 735.1,111.5,734.1,112.1,732.1,112.4 728.9,112.4,714.3,112.3,699.5,112.3 684.4,112.3,684.4,112.3,684.4,112.3 684.4,112.3," nch:penfill="rgba(188,113,80,255)"/><path d="M64,47 C64,47 125,47 125,47 C125,47 125,59 125,59 C125,59 64,59 64,59 C64,59 64,59 64,59 C64,59 64,59 64,59 C64,58 64,58 64,58 C64,58 64,58 64,58 C64,58 63,57 63,57 C63,54 63,51 63,48 C63,48 63,47 64,47 C64,47 64,47 64,47" fill="rgb(188,113,80)" fill-opacity="1.000" fill-rule="evenodd" nch:path="63.6,47.3,63.6,47.3,125.3,47.3 125.3,47.3,125.3,47.3,125.2,59.1 125.2,59.1,125.2,59.1,63.5,59.1 63.5,59.1,63.5,59.1,63.7,58.5 63.7,58.5,63.7,58.5,63.7,58.5 63.7,58.5,63.8,58.3,63.8,58.2 63.7,58.0,63.6,57.9,63.6,57.9 63.5,57.8,63.5,57.8,63.1,57.4 63.1,57.4,63.3,54.2,63.4,51.0 63.2,47.7,63.2,47.5,63.3,47.4 63.6,47.3,63.6,47.3,63.6,47.3 63.6,47.3," nch:penfill="rgba(188,113,80,255)"/><path d="M16,74 C16,74 125,74 125,74 C125,74 125,84 125,84 C125,84 124,85 124,85 C109,85 79,85 32,85 C25,85 20,85 16,86 C16,86 16,86 15,86 C15,86 16,74 16,74 C16,74 16,74 16,74" fill="rgb(188,113,80)" fill-opacity="1.000" fill-rule="evenodd" nch:path="15.5,74.3,15.5,74.3,125.3,74.3 125.3,74.3,125.3,74.3,125.2,83.6 125.2,83.6,124.6,84.3,124.1,84.7 123.5,84.7,109.1,84.8,78.7,84.9 32.3,84.8,25.2,84.8,19.7,85.1 15.9,85.8,16.2,85.9,16.0,85.9 15.4,85.8,15.4,85.8,15.5,74.3 15.5,74.3,15.5,74.3,15.5,74.3 15.5,74.3," nch:penfill="rgba(188,113,80,255)"/><path d="M16,101 C16,101 16,102 16,102 C16,102 16,102 16,102 C16,102 16,102 16,102 C16,102 16,102 16,102 C16,102 122,102 122,102 C123,102 123,102 123,102 C123,103 124,103 124,103 C124,105 124,106 123,107 C123,107 123,108 123,108 C123,108 123,108 123,108 C123,108 123,108 123,108 C122,109 122,109 123,109 C123,109 122,110 122,110 C122,110 122,110 122,110 C122,110 122,110 122,110 C122,110 122,110 122,110 C119,111 116,112 112,112 C108,112 104,112 98,112 C98,112 15,112 15,112 C15,112 15,101 15,101 C16,101 16,101 16,101 C16,101 16,101 16,101" fill="rgb(188,113,80)" fill-opacity="1.000" fill-rule="evenodd" nch:path="15.8,100.5,15.8,101.1,15.9,101.5 16.1,101.9,16.1,101.9,16.1,101.9 16.1,101.9,16.1,101.9,16.1,101.9 16.2,101.9,16.2,101.9,16.2,101.9 16.2,101.9,16.2,101.9,122.1,101.9 122.1,101.9,122.5,101.9,122.9,102.1 123.2,102.4,123.5,102.7,123.6,103.0 123.7,103.3,123.8,104.5,123.6,105.8 123.1,107.1,123.0,107.3,122.9,107.5 123.0,107.7,123.0,107.8,123.2,108.0 123.4,108.1,123.3,108.2,123.3,108.3 123.3,108.3,122.5,108.7,122.3,109.0 122.6,109.4,122.6,109.4,122.0,110.1 122.0,110.1,122.0,110.0,121.9,109.9 121.8,109.9,121.8,109.9,121.8,109.9 121.8,109.9,121.8,109.9,121.7,109.9 121.7,109.9,118.8,111.2,115.6,111.8 112.1,111.7,108.2,111.6,103.6,111.8 98.3,112.3,98.3,112.3,15.1,112.3 15.1,112.3,15.1,112.3,15.3,100.5 15.3,100.5,15.6,100.6,15.8,100.6 15.8,100.5,15.8,100.5,15.8,100.5 15.8,100.5," nch:penfill="rgba(188,113,80,255)"/><path d="M685,32 C685,32 727,32 727,32 C727,32 727,32 728,32 C728,33 728,33 728,33 C728,33 728,33 728,33 C728,33 728,62 728,62 C728,62 728,62 728,62 C727,62 727,62 727,62 C727,62 727,62 727,62 C727,62 685,62 685,62 C685,62 684,62 684,62 C685,52 685,42 685,33 C685,32 685,32 685,32 C685,32 685,32 685,32" fill="rgb(241,222,178)" fill-opacity="1.000" fill-rule="evenodd" nch:path="684.9,32.3,684.9,32.3,727.1,32.3 727.1,32.3,727.3,32.3,727.4,32.4 727.5,32.5,727.6,32.6,727.7,32.7 727.7,32.9,727.7,32.9,727.7,32.9 727.7,32.9,727.7,32.9,727.7,61.7 727.7,61.7,727.7,61.9,727.6,62.0 727.5,62.1,727.4,62.3,727.3,62.3 727.1,62.3,727.1,62.3,727.1,62.3 727.1,62.3,727.1,62.3,684.9,62.3 684.9,62.3,684.6,62.2,684.5,62.0 684.5,61.8,684.6,52.1,684.6,42.4 684.6,32.7,684.6,32.5,684.7,32.3 684.9,32.3,684.9,32.3,684.9,32.3 684.9,32.3," nch:penfill="rgba(241,222,178,255)"/><path d="M125,32 C125,32 125,46 125,46 C125,46 64,46 64,46 C64,46 63,46 63,46 C63,46 63,33 63,33 C64,32 64,32 64,32 C84,32 105,32 125,32 C125,32 125,32 125,32" fill="rgb(241,222,178)" fill-opacity="1.000" fill-rule="evenodd" nch:path="125.3,32.3,125.3,32.3,125.3,46.3 125.3,46.3,125.3,46.3,63.8,46.3 63.8,46.3,63.6,46.3,63.4,46.2 63.4,46.0,63.4,46.0,63.4,32.5 63.4,32.5,63.5,32.3,63.6,32.3 63.6,32.4,84.2,32.3,104.7,32.3 125.3,32.3,125.3,32.3,125.3,32.3 125.3,32.3," nch:penfill="rgba(241,222,178,255)"/><path d="M64,59 C64,59 125,59 125,59 C125,59 125,73 125,73 C125,73 15,73 15,73 C15,73 15,60 15,60 C15,59 15,59 16,59 C16,59 16,59 16,59 C16,59 16,59 16,59 C16,59 64,59 64,59 C64,59 64,59 64,59" fill="rgb(241,222,178)" fill-opacity="1.000" fill-rule="evenodd" nch:path="63.5,59.1,63.5,59.1,125.2,59.1 125.2,59.1,125.2,59.1,125.2,73.4 125.2,73.4,125.2,73.4,15.4,73.4 15.4,73.4,15.4,73.4,15.4,59.5 15.4,59.5,15.4,59.4,15.4,59.3 15.5,59.2,15.6,59.1,15.7,59.0 15.9,59.0,15.9,59.0,15.9,59.0 15.9,59.0,15.9,59.0,63.5,59.1 63.5,59.1,63.5,59.1,63.5,59.1 63.5,59.1," nch:penfill="rgba(241,222,178,255)"/><path d="M16,86 C16,86 125,86 125,86 C125,86 125,101 125,101 C125,101 16,101 16,101 C16,101 16,101 15,101 C15,101 15,86 15,86 C16,86 16,86 16,86 C16,86 16,86 16,86" fill="rgb(241,222,178)" fill-opacity="1.000" fill-rule="evenodd" nch:path="15.9,85.8,15.9,85.8,125.1,85.9 125.1,85.9,125.1,85.9,125.1,100.5 125.1,100.5,125.1,100.5,15.8,100.5 15.8,100.5,15.8,100.6,15.6,100.6 15.3,100.5,15.3,100.5,15.4,85.8 15.4,85.8,16.0,85.9,16.2,85.9 15.9,85.8,15.9,85.8,15.9,85.8 15.9,85.8," nch:penfill="rgba(241,222,178,255)"/><path d="M18,19 C18,19 63,19 63,19 C63,19 63,31 63,31 C63,32 63,32 63,33 C63,32 63,32 63,33 C63,33 63,33 63,33 C63,33 62,33 62,33 C62,33 63,46 63,46 C63,46 63,46 63,46 C63,46 63,46 63,46 C63,46 63,46 63,46 C63,46 63,46 63,46 C63,46 63,46 63,46 C63,46 64,46 64,46 C64,46 64,47 64,47 C63,47 63,48 63,48 C63,51 63,54 63,57 C63,57 62,58 62,58 C62,58 62,58 62,58 C62,58 62,58 62,58 C62,58 15,58 15,58 C15,58 15,58 15,58 C15,58 15,58 15,57 C15,46 15,35 15,23 C15,21 16,19 18,19 C18,19 18,19 18,19" fill="rgb(104,122,117)" fill-opacity="1.000" fill-rule="evenodd" nch:path="18.3,19.4,18.3,19.4,63.1,19.5 63.1,19.5,63.1,19.5,63.3,31.5 63.3,31.5,63.5,31.8,63.5,32.2 63.4,32.5,63.1,32.4,62.8,32.4 62.6,32.6,62.6,32.6,62.6,32.6 62.6,32.6,62.5,32.7,62.5,32.8 62.5,32.9,62.5,32.9,62.5,46.1 62.5,46.1,62.5,46.1,62.5,46.2 62.6,46.3,62.6,46.3,62.7,46.3 62.8,46.3,62.8,46.3,62.9,46.3 63.0,46.3,63.0,46.3,63.0,46.3 63.0,46.3,63.0,46.2,63.2,46.1 63.4,46.0,63.4,46.2,63.6,46.3 63.8,46.3,63.8,46.3,63.6,47.3 63.6,47.3,63.3,47.4,63.2,47.5 63.2,47.7,63.4,51.0,63.3,54.2 63.1,57.4,63.1,57.4,61.7,57.7 61.7,57.7,61.7,57.7,61.7,57.7 61.7,57.7,61.7,57.7,61.7,57.7 61.7,57.7,61.7,57.7,15.5,57.7 15.5,57.7,15.4,57.7,15.4,57.7 15.3,57.7,15.3,57.6,15.3,57.6 15.3,57.5,15.3,46.3,15.3,34.6 15.3,22.6,15.3,20.5,16.3,19.5 18.3,19.4,18.3,19.4,18.3,19.4 18.3,19.4," nch:penfill="rgba(104,122,117,255)"/><path d="M643,57 C643,57 642,57 642,57 C642,57 642,57 642,57 C642,57 642,57 642,57 C642,57 642,57 642,58 C642,58 642,58 642,58 C642,58 642,58 642,58 C642,58 642,59 642,59 C645,61 647,63 650,65 C650,65 650,65 650,66 C651,66 651,66 650,66 C649,69 648,73 647,77 C647,78 647,79 648,78 C648,78 648,78 648,78 C648,79 648,79 648,79 C648,79 649,79 650,79 C652,77 656,75 659,72 C659,72 659,72 659,72 C660,72 660,72 661,72 C661,72 661,72 662,72 C664,74 666,76 669,78 C669,78 669,78 669,78 C669,78 670,78 670,78 C671,78 671,78 672,77 C672,77 672,76 672,76 C671,72 670,70 668,67 C668,66 668,66 668,66 C668,65 669,65 669,65 C669,65 669,65 669,65 C671,64 674,62 676,60 C677,59 677,59 677,59 C677,58 678,58 677,57 C678,57 678,57 678,57 C678,57 677,57 677,56 C673,55 671,55 669,55 C669,55 669,55 669,55 C668,54 667,54 667,53 C667,53 667,53 666,53 C666,53 661,43 661,43 C661,43 661,43 661,43 C661,42 661,42 661,42 C660,42 660,42 659,42 C659,42 659,42 659,43 C659,43 654,53 654,53 C654,53 654,53 654,53 C654,54 653,54 653,54 C652,54 652,54 652,54 C652,54 642,56 642,56 C642,56 642,56 642,56 C642,56 642,56 642,56 C642,56 642,57 642,57 C642,57 642,57 642,57 C642,57 642,57 643,57 C643,57 643,57 643,57M684,19 C684,19 684,21 684,21 C684,21 684,21 684,21 C684,21 684,21 684,21 C684,21 684,21 684,21 C684,21 684,21 684,21 C684,21 684,21 684,21 C684,32 684,43 683,54 C683,59 684,63 684,66 C684,66 684,112 684,112 C684,112 639,112 639,112 C638,112 638,112 638,112 C638,112 638,22 638,22 C638,22 638,22 638,22 C638,22 638,21 639,21 C639,21 639,21 639,21 C639,21 642,19 642,19 C642,19 684,19 684,19 C684,19 684,19 684,19" fill="rgb(104,122,117)" fill-opacity="1.000" fill-rule="evenodd" nch:path="642.6,56.7,642.6,56.7,642.2,56.9 642.2,56.9,642.2,56.9,642.2,56.9 642.2,56.9,642.1,57.0,642.0,57.1 642.0,57.2,642.0,57.4,642.0,57.5 642.1,57.6,642.1,57.6,642.2,57.9 642.2,57.9,642.1,57.7,642.0,57.7 641.8,58.0,641.6,58.3,641.6,58.6 641.9,58.8,644.6,61.1,647.2,63.0 649.7,64.5,650.1,64.7,650.4,65.1 650.5,65.5,650.6,65.8,650.5,66.2 650.4,66.5,649.4,69.1,648.5,72.5 647.5,76.6,647.1,78.3,647.2,78.8 647.9,78.1,648.0,78.2,648.0,78.3 648.1,78.4,647.9,78.6,647.9,78.8 648.0,78.9,648.5,79.2,649.0,79.2 649.5,78.9,652.5,77.1,655.7,74.8 659.1,72.0,659.1,72.0,659.1,72.0 659.1,72.0,659.6,71.7,660.1,71.5 660.6,71.6,661.0,71.6,661.4,71.8 661.7,72.0,664.1,74.0,666.4,75.9 668.7,77.5,668.7,77.5,668.7,77.5 668.7,77.5,669.2,77.9,669.8,78.0 670.4,77.9,670.9,77.8,671.2,77.6 671.6,77.4,672.0,76.9,672.1,76.4 671.9,75.6,670.9,72.3,670.1,69.6 668.3,66.6,668.2,66.3,668.1,66.0 668.2,65.7,668.3,65.4,668.5,65.1 668.8,64.9,668.8,64.9,668.8,64.9 668.8,64.9,671.0,63.7,673.5,62.0 676.4,59.7,677.3,59.0,677.4,58.7 676.6,58.9,677.4,58.1,677.6,57.6 677.3,57.4,677.6,57.4,677.7,57.3 677.7,57.2,677.7,56.8,677.4,56.5 676.8,56.4,673.4,55.5,670.8,54.9 668.9,54.6,668.9,54.6,668.9,54.6 668.9,54.6,668.1,54.5,667.3,54.1 666.8,53.4,666.7,53.2,666.6,53.1 666.5,52.9,666.5,52.9,661.4,42.7 661.4,42.7,661.4,42.7,661.4,42.7 661.4,42.7,661.2,42.4,660.9,42.1 660.5,42.0,660.2,41.9,659.8,41.9 659.4,42.1,659.1,42.2,658.9,42.5 658.8,42.8,658.8,42.8,654.0,52.9 654.0,52.9,654.0,52.9,654.0,52.9 654.0,52.9,653.7,53.6,653.2,54.1 652.5,54.3,652.3,54.4,652.2,54.4 652.0,54.4,652.0,54.4,642.3,56.0 642.3,56.0,642.2,56.1,642.1,56.1 642.1,56.2,642.0,56.2,642.0,56.3 642.0,56.4,642.0,56.5,642.1,56.5 642.1,56.6,642.2,56.6,642.2,56.6 642.3,56.6,642.4,56.6,642.5,56.7 642.6,56.7,642.6,56.7,642.6,56.7 642.6,56.7,642.6,56.7,683.8,19.4 M683.8,19.4,683.8,19.4,684.3,21.1 684.3,21.1,684.3,21.1,684.1,20.9 684.1,20.9,684.0,20.8,684.0,20.8 683.9,20.8,683.9,20.8,683.8,20.8 683.8,20.8,683.7,20.9,683.7,20.9 683.7,21.0,683.7,21.0,683.7,21.0 683.7,21.0,683.6,32.0,683.5,43.1 683.5,54.1,683.4,59.2,683.7,63.2 684.5,66.2,684.5,66.2,684.4,112.3 684.4,112.3,684.4,112.3,638.5,112.3 638.5,112.3,638.4,112.1,638.3,112.0 638.2,111.9,638.2,111.9,638.1,22.4 638.1,22.4,638.1,22.4,638.1,22.4 638.1,22.4,638.1,21.9,638.3,21.4 638.6,21.0,638.8,20.8,639.0,20.7 639.2,20.6,639.2,20.6,641.9,19.4 641.9,19.4,641.9,19.4,683.8,19.4 683.8,19.4,683.8,19.4,683.8,19.4 683.8,19.4," nch:penfill="rgba(104,122,117,255)"/><path d="M125,31 C125,32 125,32 125,32 C105,32 84,32 64,32 C64,32 64,32 63,33 C63,32 63,32 63,31 C63,31 125,31 125,31 C125,31 125,31 125,31" fill="rgb(154,87,52)" fill-opacity="1.000" fill-rule="evenodd" nch:path="125.2,31.3,125.3,31.5,125.3,31.9 125.3,32.3,104.7,32.3,84.2,32.3 63.6,32.4,63.6,32.3,63.5,32.3 63.4,32.5,63.5,32.2,63.5,31.8 63.3,31.5,63.3,31.5,125.2,31.3 125.2,31.3,125.2,31.3,125.2,31.3 125.2,31.3," nch:penfill="rgba(154,87,52,255)"/><path d="M685,63 C685,63 685,62 685,62 C685,62 727,62 727,62 C727,62 727,62 728,62 C728,62 728,62 728,62 C728,62 728,62 728,62 C728,62 728,33 728,33 C728,33 728,33 728,32 C727,32 727,32 727,32 C727,32 727,32 727,32 C727,32 685,32 685,32 C685,32 685,32 685,32 C685,32 727,31 727,31 C728,31 728,32 729,32 C729,32 729,33 729,33 C729,33 729,33 729,33 C729,33 729,62 729,62 C729,62 729,62 729,62 C728,63 728,63 728,63 C728,63 685,63 685,63 C685,63 685,63 685,63" fill="rgb(154,87,52)" fill-opacity="1.000" fill-rule="evenodd" nch:path="684.5,63.1,684.8,62.7,684.9,62.4 684.9,62.3,684.9,62.3,727.1,62.3 727.1,62.3,727.3,62.3,727.4,62.3 727.5,62.1,727.6,62.0,727.7,61.9 727.7,61.7,727.7,61.7,727.7,61.7 727.7,61.7,727.7,61.7,727.7,32.9 727.7,32.9,727.7,32.7,727.6,32.6 727.5,32.5,727.4,32.4,727.3,32.3 727.1,32.3,727.1,32.3,727.1,32.3 727.1,32.3,727.1,32.3,684.9,32.3 684.9,32.3,684.9,32.1,684.9,31.8 684.7,31.5,684.7,31.5,727.1,31.5 727.1,31.5,727.7,31.5,728.2,31.7 728.5,32.1,728.9,32.4,729.1,32.9 729.1,33.4,729.1,33.4,729.1,33.4 729.1,33.4,729.1,33.4,729.1,61.5 729.1,61.5,729.1,61.9,729.0,62.2 728.7,62.5,728.5,62.7,728.1,62.8 727.8,62.8,727.8,62.8,684.5,63.1 684.5,63.1,684.5,63.1,684.5,63.1 684.5,63.1," nch:penfill="rgba(154,87,52,255)"/><path d="M125,46 C125,46 125,47 125,47 C125,47 64,47 64,47 C64,47 64,46 64,46 C64,46 125,46 125,46 C125,46 125,46 125,46" fill="rgb(154,87,52)" fill-opacity="1.000" fill-rule="evenodd" nch:path="125.3,46.3,125.3,46.3,125.3,47.3 125.3,47.3,125.3,47.3,63.6,47.3 63.6,47.3,63.6,47.3,63.8,46.3 63.8,46.3,63.8,46.3,125.3,46.3 125.3,46.3,125.3,46.3,125.3,46.3 125.3,46.3," nch:penfill="rgba(154,87,52,255)"/><path d="M125,73 C125,74 125,74 125,74 C125,74 16,74 16,74 C16,74 16,74 15,73 C15,73 125,73 125,73 C125,73 125,73 125,73" fill="rgb(154,87,52)" fill-opacity="1.000" fill-rule="evenodd" nch:path="125.2,73.4,125.4,73.5,125.4,73.8 125.3,74.3,125.3,74.3,15.5,74.3 15.5,74.3,16.1,74.1,16.0,73.8 15.4,73.4,15.4,73.4,125.2,73.4 125.2,73.4,125.2,73.4,125.2,73.4 125.2,73.4," nch:penfill="rgba(154,87,52,255)"/><path d="M125,84 C125,85 125,85 125,86 C125,86 16,86 16,86 C20,85 25,85 32,85 C79,85 109,85 124,85 C124,85 125,84 125,84 C125,84 125,84 125,84" fill="rgb(154,87,52)" fill-opacity="1.000" fill-rule="evenodd" nch:path="125.2,83.6,125.3,84.6,125.3,85.3 125.1,85.9,125.1,85.9,15.9,85.8 15.9,85.8,19.7,85.1,25.2,84.8 32.3,84.8,78.7,84.9,109.1,84.8 123.5,84.7,124.1,84.7,124.6,84.3 125.2,83.6,125.2,83.6,125.2,83.6 125.2,83.6," nch:penfill="rgba(154,87,52,255)"/><path d="M125,101 C125,101 125,101 125,101 C125,101 125,102 125,102 C125,102 124,106 124,106 C124,106 124,107 124,107 C124,107 124,108 123,108 C123,108 123,108 123,108 C123,108 123,107 123,107 C124,106 124,105 124,103 C124,103 123,103 123,102 C123,102 122,102 122,102 C122,102 16,102 16,102 C16,102 16,102 16,102 C16,102 16,102 16,102 C16,102 16,102 16,102 C16,102 16,101 16,101 C16,101 125,101 125,101 C125,101 125,101 125,101" fill="rgb(154,87,52)" fill-opacity="1.000" fill-rule="evenodd" nch:path="125.1,100.5,125.2,100.5,125.3,100.6 125.2,100.8,125.2,100.8,125.2,101.6 125.2,101.6,125.2,101.6,124.2,106.1 124.2,106.1,124.1,106.3,124.1,106.6 124.1,106.8,123.9,107.3,123.7,107.8 123.4,108.1,123.2,108.0,123.0,107.8 123.0,107.7,122.9,107.5,123.0,107.3 123.1,107.1,123.6,105.8,123.8,104.5 123.7,103.3,123.6,102.9,123.4,102.5 123.1,102.3,122.8,102.1,122.5,101.9 122.1,101.9,122.1,101.9,16.2,101.9 16.2,101.9,16.2,101.9,16.2,101.9 16.2,101.9,16.2,101.9,16.1,101.9 16.1,101.9,16.1,101.9,16.1,101.9 16.1,101.9,15.9,101.5,15.8,101.1 15.8,100.5,15.8,100.5,125.1,100.5 125.1,100.5,125.1,100.5,125.1,100.5 125.1,100.5," nch:penfill="rgba(154,87,52,255)"/><path d="M125,101 C125,101 125,102 125,102 C125,102 125,101 125,101 C125,101 125,101 125,101" fill="rgb(10,5,2)" fill-opacity="0.992" fill-rule="evenodd" nch:path="125.2,100.8,125.2,100.8,125.2,101.6 125.2,101.6,125.2,101.6,125.2,100.8 125.2,100.8,125.2,100.8,125.2,100.8 125.2,100.8," nch:penfill="rgba(10,5,2,253)"/><path d="M124,106 C124,106 124,107 124,107 C124,107 124,106 124,106 C124,106 124,106 124,106" fill="rgb(10,5,2)" fill-opacity="0.992" fill-rule="evenodd" nch:path="124.2,106.1,124.2,106.4,124.2,106.6 124.1,106.8,124.1,106.6,124.1,106.3 124.2,106.1,124.2,106.1,124.2,106.1 124.2,106.1," nch:penfill="rgba(10,5,2,253)"/><path d="M119,112 C119,112 105,112 105,112 C105,112 119,112 119,112 C119,112 119,112 119,112" fill="rgb(10,5,2)" fill-opacity="0.992" fill-rule="evenodd" nch:path="119.3,111.9,119.3,111.9,104.8,112.2 104.8,112.2,104.8,112.2,119.3,111.9 119.3,111.9,119.3,111.9,119.3,111.9 119.3,111.9," nch:penfill="rgba(10,5,2,253)"/><path d="M684,21 C684,21 685,32 685,32 C685,32 685,32 685,32 C685,32 685,32 685,33 C685,42 685,52 684,62 C684,62 685,62 685,62 C685,62 685,63 685,63 C685,63 684,66 684,66 C684,63 683,59 683,54 C684,43 684,32 684,21 C684,21 684,21 684,21 C684,21 684,21 684,21 C684,21 684,21 684,21 C684,21 684,21 684,21 C684,21 684,21 684,21 C684,21 684,21 684,21" fill="rgb(60,44,18)" fill-opacity="0.992" fill-rule="evenodd" nch:path="684.3,21.1,684.3,21.1,684.7,31.5 684.7,31.5,684.9,31.8,684.9,32.1 684.9,32.3,684.7,32.3,684.6,32.5 684.6,32.7,684.6,42.4,684.6,52.1 684.5,61.8,684.5,62.0,684.6,62.2 684.9,62.3,684.9,62.4,684.8,62.7 684.5,63.1,684.5,63.1,684.5,66.2 684.5,66.2,683.7,63.2,683.4,59.2 683.5,54.1,683.5,43.1,683.6,32.0 683.7,21.0,683.7,20.9,683.7,20.9 683.8,20.8,683.8,20.8,683.9,20.8 683.9,20.8,684.0,20.8,684.0,20.8 684.1,20.8,684.1,20.9,684.1,20.9 684.1,20.9,684.1,20.9,684.3,21.1 684.3,21.1,684.3,21.1,684.3,21.1 684.3,21.1," nch:penfill="rgba(60,44,18,253)"/><path d="M63,33 C63,33 63,46 63,46 C63,46 63,46 63,46 C63,46 63,46 63,46 C63,46 63,46 63,46 C63,46 63,46 63,46 C63,46 63,46 63,46 C63,46 62,33 62,33 C62,33 62,33 62,33 C62,33 63,33 63,33 C63,32 63,32 63,33 C63,33 63,33 63,33" fill="rgb(60,44,18)" fill-opacity="0.992" fill-rule="evenodd" nch:path="63.4,32.5,63.4,32.5,63.4,46.0 63.4,46.0,63.2,46.1,63.0,46.2 63.0,46.3,62.9,46.3,62.9,46.3 62.8,46.3,62.7,46.4,62.6,46.3 62.6,46.3,62.5,46.2,62.5,46.2 62.5,46.1,62.5,46.1,62.5,46.1 62.5,46.1,62.5,46.1,62.5,32.9 62.5,32.9,62.5,32.9,62.5,32.9 62.5,32.9,62.5,32.8,62.5,32.7 62.6,32.6,62.8,32.4,63.1,32.4 63.4,32.5,63.4,32.5,63.4,32.5 63.4,32.5," nch:penfill="rgba(60,44,18,253)"/><path d="M123,108 C123,109 123,109 123,109 C122,109 122,109 123,108 C123,108 123,108 123,108" fill="rgb(60,44,18)" fill-opacity="0.992" fill-rule="evenodd" nch:path="123.3,108.3,123.3,108.8,123.1,109.2 122.6,109.4,122.3,109.0,122.5,108.7 123.3,108.3,123.3,108.3,123.3,108.3 123.3,108.3," nch:penfill="rgba(60,44,18,253)"/><path d="M643,57 C643,57 642,57 642,57 C642,57 642,57 642,57 C642,57 642,57 642,57 C642,57 642,57 642,58 C642,58 642,58 642,58" fill="none" nch:path="642.6,56.7,642.6,56.7,642.2,56.9 642.2,56.9,642.2,56.9,642.2,56.9 642.2,56.9,642.1,57.0,642.0,57.1 642.0,57.2,642.0,57.4,642.0,57.5 642.1,57.6,642.1,57.6,642.2,57.9 642.2,57.9," nch:path-opacity="255" nch:stamp="pen" stroke="rgb(173,172,148,255)" stroke-linecap="round" stroke-linejoin="round" stroke-opacity="1.000" stroke-width="0"/><path d="M642,58 C642,58 642,58 642,58 C642,58 642,59 642,59 C645,61 647,63 650,65 C650,65 650,65 650,66 C651,66 651,66 650,66 C649,69 648,73 647,77 C647,78 647,79 648,78" fill="none" nch:path="642.2,57.9,642.1,57.7,642.0,57.7 641.8,58.0,641.6,58.3,641.6,58.6 641.9,58.8,644.6,61.1,647.2,63.0 649.7,64.5,650.1,64.7,650.4,65.1 650.5,65.5,650.6,65.8,650.5,66.2 650.4,66.5,649.4,69.1,648.5,72.5 647.5,76.6,647.1,78.3,647.2,78.8 647.9,78.1," nch:path-opacity="255" nch:stamp="pen" stroke="rgb(82,83,68,255)" stroke-linecap="round" stroke-linejoin="round" stroke-opacity="1.000" stroke-width="0"/><path d="M648,78 C648,78 648,78 648,78" fill="none" nch:path="647.9,78.1,648.0,78.2,648.0,78.3 648.1,78.4," nch:path-opacity="255" nch:stamp="pen" stroke="rgb(173,172,148,255)" stroke-linecap="round" stroke-linejoin="round" stroke-opacity="1.000" stroke-width="0"/><path d="M648,78 C648,79 648,79 648,79 C648,79 649,79 650,79 C652,77 656,75 659,72 C659,72 659,72 659,72 C660,72 660,72 661,72 C661,72 661,72 662,72 C664,74 666,76 669,78 C669,78 669,78 669,78 C669,78 670,78 670,78 C671,78 671,78 672,77 C672,77 672,76 672,76 C671,72 670,70 668,67 C668,66 668,66 668,66 C668,65 669,65 669,65 C669,65 669,65 669,65 C671,64 674,62 676,60 C677,59 677,59 677,59" fill="none" nch:path="648.1,78.4,647.9,78.6,647.9,78.8 648.0,78.9,648.5,79.2,649.0,79.2 649.5,78.9,652.5,77.1,655.7,74.8 659.1,72.0,659.1,72.0,659.1,72.0 659.1,72.0,659.6,71.7,660.1,71.5 660.6,71.6,661.0,71.6,661.4,71.8 661.7,72.0,664.1,74.0,666.4,75.9 668.7,77.5,668.7,77.5,668.7,77.5 668.7,77.5,669.2,77.9,669.8,78.0 670.4,77.9,670.9,77.8,671.2,77.6 671.6,77.4,672.0,76.9,672.1,76.4 671.9,75.6,670.9,72.3,670.1,69.6 668.3,66.6,668.2,66.3,668.1,66.0 668.2,65.7,668.3,65.4,668.5,65.1 668.8,64.9,668.8,64.9,668.8,64.9 668.8,64.9,671.0,63.7,673.5,62.0 676.4,59.7,677.3,59.0,677.4,58.7 676.6,58.9," nch:path-opacity="255" nch:stamp="pen" stroke="rgb(82,83,68,255)" stroke-linecap="round" stroke-linejoin="round" stroke-opacity="1.000" stroke-width="0"/><path d="M677,59 C677,58 678,58 677,57" fill="none" nch:path="676.6,58.9,677.4,58.1,677.6,57.6 677.3,57.4," nch:path-opacity="255" nch:stamp="pen" stroke="rgb(173,172,148,255)" stroke-linecap="round" stroke-linejoin="round" stroke-opacity="1.000" stroke-width="0"/><path d="M677,57 C678,57 678,57 678,57 C678,57 677,57 677,56 C673,55 671,55 669,55 C669,55 669,55 669,55 C668,54 667,54 667,53 C667,53 667,53 666,53 C666,53 661,43 661,43 C661,43 661,43 661,43 C661,42 661,42 661,42 C660,42 660,42 659,42 C659,42 659,42 659,43 C659,43 654,53 654,53 C654,53 654,53 654,53 C654,54 653,54 653,54 C652,54 652,54 652,54 C652,54 642,56 642,56 C642,56 642,56 642,56 C642,56 642,56 642,56 C642,56 642,57 642,57 C642,57 642,57 642,57 C642,57 642,57 643,57" fill="none" nch:path="677.3,57.4,677.6,57.4,677.7,57.3 677.7,57.2,677.7,56.8,677.4,56.5 676.8,56.4,673.4,55.5,670.8,54.9 668.9,54.6,668.9,54.6,668.9,54.6 668.9,54.6,668.1,54.5,667.3,54.1 666.8,53.4,666.7,53.2,666.6,53.1 666.5,52.9,666.5,52.9,661.4,42.7 661.4,42.7,661.4,42.7,661.4,42.7 661.4,42.7,661.2,42.4,660.9,42.1 660.5,42.0,660.2,41.9,659.8,41.9 659.4,42.1,659.1,42.2,658.9,42.5 658.8,42.8,658.8,42.8,654.0,52.9 654.0,52.9,654.0,52.9,654.0,52.9 654.0,52.9,653.7,53.6,653.2,54.1 652.5,54.3,652.3,54.4,652.2,54.4 652.0,54.4,652.0,54.4,642.3,56.0 642.3,56.0,642.2,56.1,642.1,56.1 642.1,56.2,642.0,56.2,642.0,56.3 642.0,56.4,642.0,56.5,642.1,56.5 642.1,56.6,642.2,56.6,642.2,56.6 642.3,56.6,642.4,56.6,642.5,56.7 642.6,56.7," nch:path-opacity="255" nch:stamp="pen" stroke="rgb(82,83,68,255)" stroke-linecap="round" stroke-linejoin="round" stroke-opacity="1.000" stroke-width="0"/><path d="M677,57 C674,57 671,56 669,56 C667,55 666,55 665,53 C664,49 662,46 661,43 C661,43 661,43 660,43 C660,43 660,43 660,43 C660,43 660,43 660,43 C660,43 654,55 654,55 C654,55 654,55 654,55 C654,55 654,55 653,55 C653,55 653,56 653,56 C653,56 643,57 643,57" fill="none" nch:path="677.3,57.4,674.4,56.8,671.5,56.2 668.5,55.7,667.1,55.4,666.0,54.6 665.4,53.3,663.5,49.5,662.0,46.0 660.7,42.8,660.7,42.7,660.6,42.6 660.4,42.6,660.3,42.5,660.2,42.5 660.0,42.6,659.9,42.6,659.8,42.7 659.8,42.8,659.8,42.8,654.2,54.8 654.2,54.8,654.2,54.8,654.2,54.8 654.2,54.8,654.1,55.1,653.8,55.3 653.5,55.4,653.4,55.5,653.3,55.5 653.2,55.5,653.2,55.5,642.6,56.7 642.6,56.7," nch:path-opacity="255" nch:stamp="pen" stroke="rgb(151,133,98,255)" stroke-linecap="round" stroke-linejoin="round" stroke-opacity="1.000" stroke-width="0"/><path d="M677,59 C677,59 667,65 667,65 C667,65 667,65 667,65 C667,66 667,66 667,66 C669,69 670,73 671,76 C671,77 671,77 671,77 C671,78 670,78 670,77 C669,76 666,74 662,71 C662,71 662,71 662,71 C662,71 661,70 660,71 C660,71 659,71 659,71 C659,71 648,78 648,78" fill="none" nch:path="676.6,58.9,676.6,58.9,667.2,65.0 667.2,65.0,667.0,65.1,666.9,65.3 666.9,65.4,666.9,65.6,666.9,65.7 667.0,65.9,668.9,69.4,670.2,72.9 671.1,76.1,671.2,76.6,671.2,77.0 670.9,77.2,670.6,77.5,670.3,77.6 669.9,77.3,668.7,76.4,666.1,74.3 662.1,71.0,662.1,71.0,662.1,71.0 662.1,71.0,661.6,70.6,660.9,70.4 660.2,70.5,659.8,70.5,659.4,70.7 659.1,70.9,659.1,70.9,648.1,78.4 648.1,78.4," nch:path-opacity="255" nch:stamp="pen" stroke="rgb(151,133,98,255)" stroke-linecap="round" stroke-linejoin="round" stroke-opacity="1.000" stroke-width="0"/><path d="M648,78 C648,78 652,66 652,66 C652,66 652,65 652,65 C651,65 651,64 651,64 C651,64 642,58 642,58" fill="none" nch:path="647.9,78.1,647.9,78.1,651.7,66.2 651.7,66.2,651.8,65.8,651.8,65.3 651.5,64.9,651.4,64.6,651.2,64.4 651.0,64.3,651.0,64.3,642.2,57.9 642.2,57.9," nch:path-opacity="255" nch:stamp="pen" stroke="rgb(151,133,98,255)" stroke-linecap="round" stroke-linejoin="round" stroke-opacity="1.000" stroke-width="0"/><path d="M677,57 C678,58 677,58 677,59 C677,59 667,65 667,65 C667,65 667,65 667,65 C667,66 667,66 667,66 C669,69 670,73 671,76 C671,77 671,77 671,77 C671,78 670,78 670,77 C669,76 666,74 662,71 C662,71 662,71 662,71 C662,71 661,70 660,71 C660,71 659,71 659,71 C659,71 648,78 648,78 C648,78 648,78 648,78 C648,78 652,66 652,66 C652,66 652,65 652,65 C651,65 651,64 651,64 C651,64 642,58 642,58 C642,58 642,58 642,58 C642,57 642,57 642,57 C642,57 642,57 642,57 C642,57 643,57 643,57 C643,57 653,56 653,56 C653,56 653,56 653,56 C654,55 654,55 654,55 C654,55 654,55 654,55 C654,55 660,43 660,43 C660,43 660,43 660,43 C660,42 660,43 660,43 C661,43 661,43 661,43 C662,46 664,49 665,53 C666,55 667,55 669,56 C671,56 674,57 677,57 C677,57 677,57 677,57" fill="rgb(241,222,178)" fill-opacity="1.000" fill-rule="evenodd" nch:path="677.3,57.4,677.6,57.6,677.4,58.1 676.6,58.9,676.6,58.9,667.2,65.0 667.2,65.0,667.0,65.1,666.9,65.3 666.9,65.4,666.9,65.6,666.9,65.7 667.0,65.9,668.9,69.4,670.2,72.9 671.1,76.1,671.2,76.6,671.2,77.0 670.9,77.2,670.6,77.5,670.3,77.6 669.9,77.3,668.7,76.4,666.1,74.3 662.1,71.0,662.1,71.0,662.1,71.0 662.1,71.0,661.6,70.6,660.9,70.4 660.2,70.5,659.8,70.5,659.4,70.7 659.1,70.9,659.1,70.9,648.1,78.4 648.1,78.4,648.0,78.3,648.0,78.2 647.9,78.1,647.9,78.1,651.7,66.2 651.7,66.2,651.8,65.8,651.8,65.3 651.5,64.9,651.4,64.6,651.2,64.4 651.0,64.3,651.0,64.3,642.2,57.9 642.2,57.9,642.2,57.9,642.1,57.6 642.1,57.6,642.0,57.5,642.0,57.3 642.0,57.2,642.1,57.1,642.1,57.0 642.2,56.9,642.2,56.9,642.6,56.7 642.6,56.7,642.6,56.7,653.2,55.5 653.2,55.5,653.2,55.5,653.2,55.5 653.2,55.5,653.5,55.5,653.8,55.3 654.0,55.1,654.1,55.0,654.2,54.9 654.2,54.8,654.2,54.8,659.8,42.8 659.8,42.8,659.8,42.7,659.9,42.6 660.1,42.5,660.2,42.5,660.3,42.5 660.5,42.6,660.6,42.6,660.7,42.7 660.7,42.8,662.0,46.0,663.5,49.5 665.4,53.3,666.0,54.6,667.1,55.4 668.5,55.7,671.5,56.2,674.4,56.8 677.3,57.4,677.3,57.4,677.3,57.4 677.3,57.4," nch:penfill="rgba(241,222,178,255)"/><path d="M677,57 C674,57 671,56 669,56 C667,55 666,55 665,53 C664,49 662,46 661,43 C661,43 661,43 660,43 C660,43 660,43 660,43 C660,43 660,43 660,43 C660,43 654,55 654,55 C654,55 654,55 654,55 C654,55 654,55 653,55 C653,55 653,56 653,56 C653,56 643,57 643,57 C642,57 642,57 642,57 C642,57 642,57 642,57 C642,56 642,56 642,56 C642,56 642,56 642,56 C642,56 642,56 642,56 C642,56 652,54 652,54 C652,54 652,54 652,54 C653,54 653,54 654,53 C654,53 654,53 654,53 C654,53 659,43 659,43 C659,43 659,43 659,43 C659,42 659,42 660,42 C660,42 660,42 661,42 C661,42 661,42 661,43 C661,43 666,53 666,53 C666,53 666,53 666,53 C667,54 668,54 668,54 C669,55 669,55 669,55 C671,55 673,55 677,56 C677,57 678,57 678,57 C678,57 678,57 677,57 C677,57 677,57 677,57" fill="rgb(60,44,18)" fill-opacity="0.992" fill-rule="evenodd" nch:path="677.3,57.4,674.4,56.8,671.5,56.2 668.5,55.7,667.1,55.4,666.0,54.6 665.4,53.3,663.5,49.5,662.0,46.0 660.7,42.8,660.7,42.7,660.6,42.6 660.4,42.6,660.3,42.5,660.2,42.5 660.0,42.6,659.9,42.6,659.8,42.7 659.8,42.8,659.8,42.8,654.2,54.8 654.2,54.8,654.2,54.8,654.2,54.8 654.2,54.8,654.1,55.1,653.8,55.3 653.5,55.4,653.4,55.5,653.3,55.5 653.2,55.5,653.2,55.5,642.6,56.7 642.6,56.7,642.5,56.7,642.4,56.6 642.3,56.6,642.2,56.6,642.1,56.6 642.1,56.5,642.0,56.4,642.0,56.4 642.0,56.3,642.0,56.2,642.1,56.1 642.1,56.1,642.2,56.1,642.2,56.0 642.3,56.0,642.3,56.0,652.0,54.4 652.0,54.4,652.0,54.4,652.0,54.4 652.0,54.4,652.7,54.3,653.4,53.9 653.8,53.3,653.9,53.2,654.0,53.1 654.0,52.9,654.0,52.9,658.8,42.8 658.8,42.8,658.8,42.8,658.8,42.8 658.8,42.8,658.9,42.4,659.2,42.1 659.6,42.0,659.9,41.9,660.3,41.9 660.7,42.1,661.0,42.2,661.2,42.4 661.4,42.7,661.4,42.7,666.5,52.9 666.5,52.9,666.5,52.9,666.5,52.9 666.5,52.9,666.9,53.6,667.5,54.2 668.3,54.5,668.5,54.5,668.7,54.6 668.9,54.6,670.8,54.9,673.4,55.5 676.8,56.4,677.4,56.5,677.7,56.8 677.7,57.2,677.7,57.3,677.6,57.4 677.3,57.4,677.3,57.4,677.3,57.4 677.3,57.4," nch:penfill="rgba(60,44,18,253)"/><path d="M642,58 C642,58 651,64 651,64 C651,65 652,65 652,65 C652,66 652,66 652,66 C652,66 648,78 648,78 C647,79 647,78 647,77 C648,73 649,69 650,66 C651,66 651,66 650,65 C650,65 650,65 650,65 C647,63 645,61 642,59 C642,59 642,58 642,58 C642,58 642,58 642,58 C642,58 642,58 642,58" fill="rgb(60,44,18)" fill-opacity="0.992" fill-rule="evenodd" nch:path="642.2,57.9,642.2,57.9,651.0,64.3 651.0,64.3,651.4,64.5,651.7,64.9 651.7,65.4,651.8,65.7,651.7,66.0 651.7,66.2,651.7,66.2,647.9,78.1 647.9,78.1,647.2,78.8,647.1,78.3 647.5,76.6,648.5,72.5,649.4,69.1 650.4,66.5,650.6,66.1,650.6,65.6 650.4,65.2,650.2,64.9,650.0,64.7 649.7,64.5,647.2,63.0,644.6,61.1 641.9,58.8,641.6,58.6,641.6,58.3 641.8,58.0,642.0,57.7,642.1,57.7 642.2,57.9,642.2,57.9,642.2,57.9 642.2,57.9," nch:penfill="rgba(60,44,18,253)"/><path d="M677,59 C677,59 677,59 676,60 C674,62 671,64 669,65 C669,65 668,65 668,66 C668,66 668,66 668,67 C668,67 668,67 668,67 C670,70 671,72 672,76 C672,76 672,77 672,77 C672,77 672,77 672,77 C671,78 671,78 670,78 C669,78 669,78 669,78 C666,76 664,74 662,72 C662,72 662,72 662,72 C661,72 661,72 660,72 C660,72 659,72 659,72 C656,75 652,77 650,79 C649,79 648,79 648,79 C648,79 648,79 648,78 C648,78 659,71 659,71 C659,71 659,71 659,71 C660,71 660,70 661,71 C661,71 662,71 662,71 C666,74 669,76 670,77 C670,78 671,78 671,77 C671,77 671,77 671,76 C670,73 669,69 667,66 C667,66 667,66 667,65 C667,65 667,65 667,65 C667,65 677,59 677,59 C677,59 677,59 677,59" fill="rgb(60,44,18)" fill-opacity="0.992" fill-rule="evenodd" nch:path="676.6,58.9,677.4,58.7,677.3,59.0 676.4,59.7,673.5,62.0,671.0,63.7 668.8,64.9,668.5,65.1,668.3,65.3 668.2,65.7,668.1,66.0,668.2,66.3 668.3,66.6,668.3,66.6,668.3,66.6 668.3,66.6,670.1,69.6,670.9,72.3 671.9,75.6,672.1,76.4,672.0,76.9 671.6,77.4,671.6,77.4,671.6,77.4 671.6,77.4,671.1,77.8,670.5,78.0 669.9,77.9,669.5,77.9,669.1,77.8 668.7,77.5,666.4,75.9,664.1,74.0 661.7,72.0,661.7,72.0,661.7,72.0 661.7,72.0,661.3,71.7,660.8,71.5 660.2,71.6,659.8,71.6,659.5,71.8 659.1,72.0,655.7,74.8,652.5,77.1 649.5,78.9,649.0,79.2,648.5,79.2 648.0,78.9,647.9,78.8,647.9,78.6 648.1,78.4,648.1,78.4,659.1,70.9 659.1,70.9,659.1,70.9,659.1,70.9 659.1,70.9,659.6,70.5,660.3,70.4 661.0,70.5,661.4,70.6,661.8,70.8 662.1,71.0,666.1,74.3,668.7,76.4 669.9,77.3,670.3,77.6,670.6,77.5 670.9,77.2,671.2,77.0,671.2,76.6 671.1,76.1,670.2,72.9,668.9,69.4 667.0,65.9,666.9,65.7,666.9,65.5 666.9,65.4,667.0,65.2,667.1,65.1 667.2,65.0,667.2,65.0,676.6,58.9 676.6,58.9,676.6,58.9,676.6,58.9 676.6,58.9," nch:penfill="rgba(60,44,18,253)"/><ellipse cx="-149" cy="-203" fill="rgb(171,101,69)" fill-opacity="1.000" nch:colorstroke="rgba(0,0,0,255)" rx="12" ry="9" stroke="rgb(0,0,0)" stroke-opacity="1.000" stroke-width="0"/></g></svg>