<?xml version="1.0" encoding="UTF-8" standalone="no"?>
<!DOCTYPE svg PUBLIC "-//W3C//DTD SVG 1.1//EN" "http://www.w3.org/Graphics/SVG/1.1/DTD/svg11.dtd">
<svg xmlns="http://www.w3.org/2000/svg" version="1.1" viewBox="0.00 0.00 1024.00 1536.00">
<g stroke-width="0.70" fill="none" stroke-linecap="butt">
<path stroke="#193124" vector-effect="non-scaling-stroke" d="
  M 515.34 1250.98
  L 515.46 1250.75
  A 0.37 0.37 0.0 0 1 516.14 1250.83
  Q 516.76 1253.11 516.77 1256.00
  Q 516.93 1298.40 516.86 1351.28
  A 1.37 1.36 89.6 0 1 515.53 1352.64
  L 504.91 1352.92
  A 0.95 0.73 25.8 0 0 504.72 1352.96
  C 498.86 1354.88 496.97 1360.54 498.25 1366.02
  Q 499.11 1369.70 501.86 1371.74
  Q 503.72 1373.12 508.45 1373.08
  Q 529.20 1372.92 546.11 1373.01
  Q 550.23 1373.04 552.19 1372.05
  C 560.14 1368.04 557.60 1353.55 548.75 1352.96
  Q 544.88 1352.71 538.23 1352.95
  A 0.95 0.94 -3.4 0 1 537.24 1352.08
  Q 536.71 1345.49 536.81 1338.99
  Q 537.29 1308.57 536.94 1282.85
  C 536.84 1275.32 537.20 1264.37 537.21 1254.46
  C 537.21 1252.70 537.59 1251.16 537.67 1249.60
  A 0.53 0.52 24.3 0 1 538.57 1249.26
  L 637.80 1351.01
  A 0.73 0.73 0.0 0 1 637.39 1352.25
  L 631.81 1353.11
  A 0.87 0.82 -60.9 0 0 631.56 1353.19
  Q 625.22 1356.37 625.83 1364.01
  Q 626.36 1370.57 630.94 1372.44
  Q 632.80 1373.20 641.17 1373.06
  Q 650.01 1372.90 681.17 1372.99
  A 2.88 2.63 32.1 0 0 682.16 1372.81
  C 689.67 1369.92 690.84 1359.94 685.43 1354.79
  C 682.21 1351.72 676.85 1352.63 674.16 1352.35
  A 2.05 2.04 1.0 0 1 672.33 1350.46
  Q 671.96 1345.21 670.99 1335.00
  Q 670.87 1333.67 670.12 1330.71
  A 5.38 5.06 -54.6 0 1 669.98 1329.69
  Q 669.72 1321.17 668.43 1310.96
  C 668.07 1308.12 668.28 1304.39 667.88 1302.07
  Q 665.61 1288.89 665.24 1276.66
  C 665.12 1272.82 664.10 1268.99 664.10 1265.09
  C 664.10 1261.45 663.45 1258.78 663.21 1254.80
  Q 663.13 1253.46 662.27 1248.99
  Q 661.96 1247.40 661.80 1243.14
  Q 661.70 1240.40 660.88 1233.23
  Q 659.96 1225.32 659.83 1223.35
  Q 659.35 1216.18 658.65 1212.12
  Q 658.03 1208.55 657.73 1203.32
  Q 657.29 1195.71 657.08 1194.50
  Q 656.16 1189.19 656.15 1186.32
  C 656.14 1181.05 655.43 1176.63 655.08 1171.53
  C 654.86 1168.31 653.91 1165.63 653.93 1162.30
  Q 653.96 1159.60 653.51 1155.34
  Q 651.48 1136.01 650.63 1124.89
  A 1.65 1.64 87.9 0 1 652.27 1123.12
  L 686.89 1123.12
  A 0.98 0.97 -4.9 0 1 687.85 1123.92
  Q 689.25 1131.85 690.58 1142.27
  Q 696.30 1186.84 696.52 1188.48
  C 699.75 1212.27 702.33 1234.94 705.26 1256.32
  Q 707.67 1273.99 708.97 1286.49
  Q 709.44 1291.01 710.01 1294.05
  C 711.30 1300.87 711.48 1305.55 712.57 1312.92
  Q 714.05 1322.97 717.75 1350.68
  A 1.59 1.58 82.9 0 1 716.36 1352.47
  Q 714.00 1352.74 711.91 1352.66
  C 703.05 1352.35 700.52 1361.16 703.17 1368.08
  C 704.21 1370.81 707.33 1372.99 710.03 1372.99
  Q 728.05 1372.99 751.09 1373.01
  A 3.54 3.19 35.4 0 0 751.87 1372.92
  Q 755.08 1372.13 756.36 1370.41
  Q 762.06 1362.74 755.55 1355.10
  Q 753.40 1352.58 750.21 1352.54
  Q 745.55 1352.49 741.75 1351.98
  A 0.96 0.95 88.7 0 1 740.93 1351.19
  Q 740.04 1345.81 739.12 1338.25
  C 738.78 1335.49 737.93 1333.27 737.96 1330.81
  Q 737.98 1328.91 737.48 1325.20
  Q 732.51 1288.78 727.44 1247.55
  Q 727.43 1247.51 726.15 1238.84
  Q 725.64 1235.40 725.28 1229.74
  C 725.17 1227.99 724.37 1225.44 724.15 1223.32
  C 723.53 1217.27 722.60 1211.50 721.86 1205.77
  Q 721.85 1205.68 716.91 1165.57
  C 716.59 1162.99 715.91 1160.44 716.06 1158.06
  A 4.39 4.29 40.8 0 0 715.96 1156.89
  Q 715.31 1153.96 714.16 1145.22
  Q 713.94 1143.56 713.71 1141.78
  Q 712.43 1131.52 711.33 1121.93
  C 710.90 1118.23 710.03 1115.34 709.84 1111.57
  Q 709.71 1109.10 706.26 1086.51
  C 705.80 1083.54 705.88 1079.85 705.42 1076.84
  Q 704.51 1070.86 703.33 1059.77
  Q 703.09 1057.51 702.39 1054.31
  Q 701.96 1052.34 701.78 1048.77
  Q 701.64 1045.99 698.55 1024.92
  Q 697.99 1021.12 697.83 1018.04
  Q 697.64 1014.54 697.09 1011.12
  Q 696.04 1004.64 695.72 1000.81
  C 695.21 994.88 694.21 990.09 693.55 984.05
  Q 692.41 973.77 691.53 968.31
  Q 690.28 960.49 689.56 952.60
  Q 689.23 949.06 686.99 930.59
  C 686.69 928.16 685.85 926.21 685.96 924.20
  Q 686.05 922.69 685.58 919.37
  Q 684.93 914.78 683.54 904.51
  C 683.07 901.05 682.94 897.30 682.09 893.51
  A 4.82 4.72 -49.6 0 1 681.99 892.07
  Q 682.12 890.45 681.87 888.88
  Q 680.76 881.78 679.09 865.45
  Q 678.94 864.04 679.16 863.18
  A 1.27 1.26 -82.5 0 1 680.38 862.24
  Q 709.96 862.17 730.08 862.27
  Q 733.74 862.29 735.26 861.43
  C 740.34 858.55 740.09 852.66 740.07 847.55
  Q 739.99 822.20 739.95 791.50
  C 739.94 787.90 738.73 783.75 735.05 783.14
  Q 731.12 782.49 727.14 783.22
  A 0.49 0.49 0.0 0 1 726.57 782.81
  Q 726.06 779.76 726.07 776.52
  Q 726.24 722.81 726.11 623.77
  Q 726.10 621.05 726.20 620.73
  C 726.82 618.62 730.05 619.02 732.03 619.02
  C 736.93 619.03 740.19 615.17 740.69 610.43
  C 741.42 603.54 737.06 600.26 731.00 597.34
  C 726.15 595.00 718.92 590.66 712.16 587.14
  Q 693.89 577.65 681.19 570.61
  C 676.68 568.12 672.15 565.52 667.59 563.11
  Q 660.20 559.20 656.95 557.25
  C 651.46 553.97 645.53 551.26 640.07 548.23
  Q 618.57 536.33 595.51 524.26
  Q 593.50 523.21 592.70 520.55
  Q 590.38 512.94 590.37 512.87
  Q 585.27 493.26 574.25 453.98
  C 573.31 450.66 575.88 450.11 577.66 448.55
  C 588.71 438.80 600.06 428.18 609.71 416.55
  Q 617.96 406.61 619.79 404.31
  Q 635.65 384.47 646.98 363.51
  Q 671.78 317.68 676.70 265.50
  Q 678.10 250.66 677.09 231.67
  C 676.95 228.88 676.27 226.54 675.83 223.34
  Q 675.35 219.81 673.50 213.75
  C 668.24 196.52 650.10 198.56 637.07 203.11
  C 620.21 209.00 603.64 217.41 589.69 225.95
  Q 575.37 234.72 554.86 249.43
  C 544.22 257.05 529.20 269.26 520.00 276.51
  Q 518.15 277.96 516.12 277.97
  A 1.53 1.51 62.6 0 1 515.23 277.68
  Q 504.98 270.51 498.79 265.68
  Q 486.99 256.50 482.61 253.44
  Q 479.81 251.49 449.44 228.53
  C 446.54 226.34 444.07 224.87 440.87 224.35
  C 430.26 222.62 423.49 228.78 417.02 236.03
  C 410.39 243.44 408.10 253.28 413.72 262.08
  Q 416.32 266.13 418.87 269.38
  Q 434.71 289.52 451.99 308.76
  Q 460.16 317.85 463.49 321.99
  Q 464.00 322.62 463.71 323.45"
/>
<path stroke="#193124" vector-effect="non-scaling-stroke" d="
  M 515.00 1251.29
  Q 512.31 1252.73 511.52 1253.52
  Q 468.47 1296.73 423.67 1342.17
  Q 417.54 1348.39 413.92 1351.49
  A 0.38 0.38 0.0 0 0 414.09 1352.15
  L 419.63 1353.19
  A 2.53 2.49 -25.4 0 1 420.35 1353.44
  C 425.09 1355.83 427.18 1361.25 425.13 1366.39
  C 423.62 1370.16 421.44 1372.89 417.04 1372.94
  Q 413.83 1372.98 354.24 1373.00
  Q 349.36 1373.00 347.86 1372.12
  C 342.55 1368.99 342.51 1364.01 343.61 1357.65
  Q 344.92 1350.13 349.43 1321.82
  Q 349.74 1319.86 349.81 1318.66
  C 349.95 1316.05 350.81 1313.68 351.19 1310.82
  Q 351.92 1305.24 352.60 1301.32
  Q 356.36 1279.45 359.84 1255.59
  C 360.88 1248.44 362.40 1241.46 363.16 1235.57
  Q 364.19 1227.51 365.32 1220.51
  Q 368.67 1199.58 374.07 1164.76
  Q 377.13 1145.05 379.47 1131.53
  C 379.92 1128.88 379.77 1126.74 380.36 1124.39
  Q 380.73 1122.91 381.26 1119.07
  Q 382.60 1109.24 386.84 1082.47
  Q 390.56 1059.04 396.35 1020.95
  Q 397.48 1013.50 401.76 982.78
  Q 404.73 961.52 407.35 944.62
  C 407.84 941.45 407.87 938.62 408.37 935.80
  Q 410.36 924.64 411.71 912.24
  Q 412.32 906.69 412.78 904.73
  A 2.22 2.22 0.0 0 0 412.04 902.51
  L 392.58 886.39
  A 0.74 0.74 0.0 0 0 391.38 886.84
  L 378.14 966.03
  A 1.60 1.44 -42.1 0 0 378.11 966.33
  Q 378.10 968.59 377.59 971.57
  C 375.30 984.98 374.06 993.36 372.03 1003.82
  Q 371.40 1007.09 368.70 1024.29
  C 367.08 1034.61 365.60 1044.36 363.29 1056.03
  Q 361.22 1066.48 360.04 1076.42
  C 359.71 1079.23 358.81 1082.85 358.39 1086.43
  C 357.47 1094.23 355.25 1103.70 354.40 1109.39
  Q 351.15 1131.00 348.36 1146.65
  Q 346.20 1158.73 344.07 1172.47
  Q 343.76 1174.41 340.84 1192.18
  C 340.23 1195.88 339.24 1199.63 338.74 1203.07
  C 335.90 1222.87 331.56 1245.42 328.59 1264.17
  Q 324.60 1289.37 323.70 1293.49
  C 322.11 1300.80 320.95 1310.84 319.80 1317.08
  Q 317.42 1330.06 313.86 1350.67
  A 1.61 1.61 0.0 0 0 315.45 1352.56
  C 321.23 1352.57 326.77 1352.08 329.68 1358.28
  Q 332.54 1364.38 328.17 1369.70
  Q 325.59 1372.83 322.72 1372.86
  Q 302.70 1373.07 279.29 1372.98
  Q 275.08 1372.96 273.49 1372.08
  C 265.71 1367.76 267.13 1352.72 277.26 1352.43
  Q 278.60 1352.39 287.29 1352.36
  A 4.18 4.07 38.6 0 0 288.10 1352.28
  L 290.45 1351.76
  A 1.82 1.81 -2.1 0 0 291.86 1350.25
  Q 295.04 1329.37 296.70 1319.39
  Q 303.64 1277.75 310.34 1236.51
  Q 314.53 1210.70 319.33 1182.81
  Q 319.68 1180.78 320.00 1178.73
  Q 323.20 1158.38 327.28 1135.26
  C 327.74 1132.60 327.99 1128.98 328.60 1126.10
  Q 329.58 1121.51 332.50 1102.70
  Q 334.46 1090.02 344.01 1033.41
  Q 346.27 1020.04 347.03 1014.83
  Q 348.84 1002.41 350.12 996.24
  Q 350.72 993.36 351.42 987.67
  C 352.27 980.68 353.75 973.78 354.88 966.31
  Q 359.64 934.89 365.79 897.47
  Q 366.07 895.75 366.36 894.11
  Q 367.18 889.37 367.78 884.23
  C 368.59 877.13 369.85 871.15 370.62 864.51
  Q 370.89 862.15 368.77 862.15
  Q 359.00 862.20 322.00 862.15
  Q 319.73 862.14 317.90 860.60
  Q 314.60 857.82 314.42 853.47
  Q 314.23 848.77 314.24 847.50
  Q 314.31 840.31 314.11 793.49
  C 314.09 788.60 315.20 784.12 320.13 783.04
  A 5.60 4.98 -48.4 0 1 321.15 782.92
  Q 326.02 782.87 327.03 782.91
  C 330.48 783.05 329.93 780.43 329.93 777.70
  Q 329.94 699.28 330.02 633.75
  Q 330.03 626.91 329.76 619.66
  A 0.61 0.61 0.0 0 0 329.14 619.07
  C 326.17 619.10 321.80 619.84 319.00 618.19
  C 313.67 615.04 312.16 607.53 315.81 602.76
  Q 317.51 600.54 323.85 597.56
  Q 336.55 591.59 340.74 589.38
  Q 348.92 585.06 357.48 580.93
  C 370.59 574.61 387.84 565.60 404.13 557.95
  Q 409.81 555.28 421.72 549.32
  Q 442.14 539.09 462.35 529.84
  Q 470.30 526.20 472.57 525.35
  Q 474.63 524.59 475.29 523.93
  C 477.61 521.61 476.95 520.37 477.71 518.00
  Q 480.94 507.88 486.15 490.28
  A 0.79 0.79 0.0 0 0 485.08 489.33
  Q 484.65 489.52 483.93 489.36
  Q 483.21 489.21 482.60 489.34
  Q 474.95 491.02 462.09 493.55
  Q 459.25 494.11 458.26 494.14
  C 454.86 494.25 452.54 494.98 448.58 495.06
  Q 445.19 495.13 441.48 495.87
  A 5.64 5.52 -50.4 0 1 440.33 495.99
  Q 429.93 496.08 414.79 496.05
  Q 410.46 496.05 405.49 495.32
  Q 396.70 494.03 396.27 493.95
  C 386.24 492.15 370.51 486.59 366.43 475.59
  Q 363.53 467.73 365.31 461.21
  Q 367.93 451.65 370.59 446.07
  Q 376.24 434.24 387.36 416.20
  Q 393.80 405.75 401.50 395.46
  Q 410.99 382.77 416.92 375.66
  Q 438.60 349.66 463.44 325.49
  Q 463.90 325.05 463.46 324.46"
/>
</g>
<path fill="#306047" d="
  M 515.34 1250.98
  L 515.00 1251.29
  Q 512.31 1252.73 511.52 1253.52
  Q 468.47 1296.73 423.67 1342.17
  Q 417.54 1348.39 413.92 1351.49
  A 0.38 0.38 0.0 0 0 414.09 1352.15
  L 419.63 1353.19
  A 2.53 2.49 -25.4 0 1 420.35 1353.44
  C 425.09 1355.83 427.18 1361.25 425.13 1366.39
  C 423.62 1370.16 421.44 1372.89 417.04 1372.94
  Q 413.83 1372.98 354.24 1373.00
  Q 349.36 1373.00 347.86 1372.12
  C 342.55 1368.99 342.51 1364.01 343.61 1357.65
  Q 344.92 1350.13 349.43 1321.82
  Q 349.74 1319.86 349.81 1318.66
  C 349.95 1316.05 350.81 1313.68 351.19 1310.82
  Q 351.92 1305.24 352.60 1301.32
  Q 356.36 1279.45 359.84 1255.59
  C 360.88 1248.44 362.40 1241.46 363.16 1235.57
  Q 364.19 1227.51 365.32 1220.51
  Q 368.67 1199.58 374.07 1164.76
  Q 377.13 1145.05 379.47 1131.53
  C 379.92 1128.88 379.77 1126.74 380.36 1124.39
  Q 380.73 1122.91 381.26 1119.07
  Q 382.60 1109.24 386.84 1082.47
  Q 390.56 1059.04 396.35 1020.95
  Q 397.48 1013.50 401.76 982.78
  Q 404.73 961.52 407.35 944.62
  C 407.84 941.45 407.87 938.62 408.37 935.80
  Q 410.36 924.64 411.71 912.24
  Q 412.32 906.69 412.78 904.73
  A 2.22 2.22 0.0 0 0 412.04 902.51
  L 392.58 886.39
  A 0.74 0.74 0.0 0 0 391.38 886.84
  L 378.14 966.03
  A 1.60 1.44 -42.1 0 0 378.11 966.33
  Q 378.10 968.59 377.59 971.57
  C 375.30 984.98 374.06 993.36 372.03 1003.82
  Q 371.40 1007.09 368.70 1024.29
  C 367.08 1034.61 365.60 1044.36 363.29 1056.03
  Q 361.22 1066.48 360.04 1076.42
  C 359.71 1079.23 358.81 1082.85 358.39 1086.43
  C 357.47 1094.23 355.25 1103.70 354.40 1109.39
  Q 351.15 1131.00 348.36 1146.65
  Q 346.20 1158.73 344.07 1172.47
  Q 343.76 1174.41 340.84 1192.18
  C 340.23 1195.88 339.24 1199.63 338.74 1203.07
  C 335.90 1222.87 331.56 1245.42 328.59 1264.17
  Q 324.60 1289.37 323.70 1293.49
  C 322.11 1300.80 320.95 1310.84 319.80 1317.08
  Q 317.42 1330.06 313.86 1350.67
  A 1.61 1.61 0.0 0 0 315.45 1352.56
  C 321.23 1352.57 326.77 1352.08 329.68 1358.28
  Q 332.54 1364.38 328.17 1369.70
  Q 325.59 1372.83 322.72 1372.86
  Q 302.70 1373.07 279.29 1372.98
  Q 275.08 1372.96 273.49 1372.08
  C 265.71 1367.76 267.13 1352.72 277.26 1352.43
  Q 278.60 1352.39 287.29 1352.36
  A 4.18 4.07 38.6 0 0 288.10 1352.28
  L 290.45 1351.76
  A 1.82 1.81 -2.1 0 0 291.86 1350.25
  Q 295.04 1329.37 296.70 1319.39
  Q 303.64 1277.75 310.34 1236.51
  Q 314.53 1210.70 319.33 1182.81
  Q 319.68 1180.78 320.00 1178.73
  Q 323.20 1158.38 327.28 1135.26
  C 327.74 1132.60 327.99 1128.98 328.60 1126.10
  Q 329.58 1121.51 332.50 1102.70
  Q 334.46 1090.02 344.01 1033.41
  Q 346.27 1020.04 347.03 1014.83
  Q 348.84 1002.41 350.12 996.24
  Q 350.72 993.36 351.42 987.67
  C 352.27 980.68 353.75 973.78 354.88 966.31
  Q 359.64 934.89 365.79 897.47
  Q 366.07 895.75 366.36 894.11
  Q 367.18 889.37 367.78 884.23
  C 368.59 877.13 369.85 871.15 370.62 864.51
  Q 370.89 862.15 368.77 862.15
  Q 359.00 862.20 322.00 862.15
  Q 319.73 862.14 317.90 860.60
  Q 314.60 857.82 314.42 853.47
  Q 314.23 848.77 314.24 847.50
  Q 314.31 840.31 314.11 793.49
  C 314.09 788.60 315.20 784.12 320.13 783.04
  A 5.60 4.98 -48.4 0 1 321.15 782.92
  Q 326.02 782.87 327.03 782.91
  C 330.48 783.05 329.93 780.43 329.93 777.70
  Q 329.94 699.28 330.02 633.75
  Q 330.03 626.91 329.76 619.66
  A 0.61 0.61 0.0 0 0 329.14 619.07
  C 326.17 619.10 321.80 619.84 319.00 618.19
  C 313.67 615.04 312.16 607.53 315.81 602.76
  Q 317.51 600.54 323.85 597.56
  Q 336.55 591.59 340.74 589.38
  Q 348.92 585.06 357.48 580.93
  C 370.59 574.61 387.84 565.60 404.13 557.95
  Q 409.81 555.28 421.72 549.32
  Q 442.14 539.09 462.35 529.84
  Q 470.30 526.20 472.57 525.35
  Q 474.63 524.59 475.29 523.93
  C 477.61 521.61 476.95 520.37 477.71 518.00
  Q 480.94 507.88 486.15 490.28
  A 0.79 0.79 0.0 0 0 485.08 489.33
  Q 484.65 489.52 483.93 489.36
  Q 483.21 489.21 482.60 489.34
  Q 474.95 491.02 462.09 493.55
  Q 459.25 494.11 458.26 494.14
  C 454.86 494.25 452.54 494.98 448.58 495.06
  Q 445.19 495.13 441.48 495.87
  A 5.64 5.52 -50.4 0 1 440.33 495.99
  Q 429.93 496.08 414.79 496.05
  Q 410.46 496.05 405.49 495.32
  Q 396.70 494.03 396.27 493.95
  C 386.24 492.15 370.51 486.59 366.43 475.59
  Q 363.53 467.73 365.31 461.21
  Q 367.93 451.65 370.59 446.07
  Q 376.24 434.24 387.36 416.20
  Q 393.80 405.75 401.50 395.46
  Q 410.99 382.77 416.92 375.66
  Q 438.60 349.66 463.44 325.49
  Q 463.90 325.05 463.46 324.46
  Q 463.69 324.04 463.71 323.45
  Q 464.00 322.62 463.49 321.99
  Q 460.16 317.85 451.99 308.76
  Q 434.71 289.52 418.87 269.38
  Q 416.32 266.13 413.72 262.08
  C 408.10 253.28 410.39 243.44 417.02 236.03
  C 423.49 228.78 430.26 222.62 440.87 224.35
  C 444.07 224.87 446.54 226.34 449.44 228.53
  Q 479.81 251.49 482.61 253.44
  Q 486.99 256.50 498.79 265.68
  Q 504.98 270.51 515.23 277.68
  A 1.53 1.51 62.6 0 0 516.12 277.97
  Q 518.15 277.96 520.00 276.51
  C 529.20 269.26 544.22 257.05 554.86 249.43
  Q 575.37 234.72 589.69 225.95
  C 603.64 217.41 620.21 209.00 637.07 203.11
  C 650.10 198.56 668.24 196.52 673.50 213.75
  Q 675.35 219.81 675.83 223.34
  C 676.27 226.54 676.95 228.88 677.09 231.67
  Q 678.10 250.66 676.70 265.50
  Q 671.78 317.68 646.98 363.51
  Q 635.65 384.47 619.79 404.31
  Q 617.96 406.61 609.71 416.55
  C 600.06 428.18 588.71 438.80 577.66 448.55
  C 575.88 450.11 573.31 450.66 574.25 453.98
  Q 585.27 493.26 590.37 512.87
  Q 590.38 512.94 592.70 520.55
  Q 593.50 523.21 595.51 524.26
  Q 618.57 536.33 640.07 548.23
  C 645.53 551.26 651.46 553.97 656.95 557.25
  Q 660.20 559.20 667.59 563.11
  C 672.15 565.52 676.68 568.12 681.19 570.61
  Q 693.89 577.65 712.16 587.14
  C 718.92 590.66 726.15 595.00 731.00 597.34
  C 737.06 600.26 741.42 603.54 740.69 610.43
  C 740.19 615.17 736.93 619.03 732.03 619.02
  C 730.05 619.02 726.82 618.62 726.20 620.73
  Q 726.10 621.05 726.11 623.77
  Q 726.24 722.81 726.07 776.52
  Q 726.06 779.76 726.57 782.81
  A 0.49 0.49 0.0 0 0 727.14 783.22
  Q 731.12 782.49 735.05 783.14
  C 738.73 783.75 739.94 787.90 739.95 791.50
  Q 739.99 822.20 740.07 847.55
  C 740.09 852.66 740.34 858.55 735.26 861.43
  Q 733.74 862.29 730.08 862.27
  Q 709.96 862.17 680.38 862.24
  A 1.27 1.26 -82.5 0 0 679.16 863.18
  Q 678.94 864.04 679.09 865.45
  Q 680.76 881.78 681.87 888.88
  Q 682.12 890.45 681.99 892.07
  A 4.82 4.72 -49.6 0 0 682.09 893.51
  C 682.94 897.30 683.07 901.05 683.54 904.51
  Q 684.93 914.78 685.58 919.37
  Q 686.05 922.69 685.96 924.20
  C 685.85 926.21 686.69 928.16 686.99 930.59
  Q 689.23 949.06 689.56 952.60
  Q 690.28 960.49 691.53 968.31
  Q 692.41 973.77 693.55 984.05
  C 694.21 990.09 695.21 994.88 695.72 1000.81
  Q 696.04 1004.64 697.09 1011.12
  Q 697.64 1014.54 697.83 1018.04
  Q 697.99 1021.12 698.55 1024.92
  Q 701.64 1045.99 701.78 1048.77
  Q 701.96 1052.34 702.39 1054.31
  Q 703.09 1057.51 703.33 1059.77
  Q 704.51 1070.86 705.42 1076.84
  C 705.88 1079.85 705.80 1083.54 706.26 1086.51
  Q 709.71 1109.10 709.84 1111.57
  C 710.03 1115.34 710.90 1118.23 711.33 1121.93
  Q 712.43 1131.52 713.71 1141.78
  Q 713.94 1143.56 714.16 1145.22
  Q 715.31 1153.96 715.96 1156.89
  A 4.39 4.29 40.8 0 1 716.06 1158.06
  C 715.91 1160.44 716.59 1162.99 716.91 1165.57
  Q 721.85 1205.68 721.86 1205.77
  C 722.60 1211.50 723.53 1217.27 724.15 1223.32
  C 724.37 1225.44 725.17 1227.99 725.28 1229.74
  Q 725.64 1235.40 726.15 1238.84
  Q 727.43 1247.51 727.44 1247.55
  Q 732.51 1288.78 737.48 1325.20
  Q 737.98 1328.91 737.96 1330.81
  C 737.93 1333.27 738.78 1335.49 739.12 1338.25
  Q 740.04 1345.81 740.93 1351.19
  A 0.96 0.95 88.7 0 0 741.75 1351.98
  Q 745.55 1352.49 750.21 1352.54
  Q 753.40 1352.58 755.55 1355.10
  Q 762.06 1362.74 756.36 1370.41
  Q 755.08 1372.13 751.87 1372.92
  A 3.54 3.19 35.4 0 1 751.09 1373.01
  Q 728.05 1372.99 710.03 1372.99
  C 707.33 1372.99 704.21 1370.81 703.17 1368.08
  C 700.52 1361.16 703.05 1352.35 711.91 1352.66
  Q 714.00 1352.74 716.36 1352.47
  A 1.59 1.58 82.9 0 0 717.75 1350.68
  Q 714.05 1322.97 712.57 1312.92
  C 711.48 1305.55 711.30 1300.87 710.01 1294.05
  Q 709.44 1291.01 708.97 1286.49
  Q 707.67 1273.99 705.26 1256.32
  C 702.33 1234.94 699.75 1212.27 696.52 1188.48
  Q 696.30 1186.84 690.58 1142.27
  Q 689.25 1131.85 687.85 1123.92
  A 0.98 0.97 -4.9 0 0 686.89 1123.12
  L 652.27 1123.12
  A 1.65 1.64 87.9 0 0 650.63 1124.89
  Q 651.48 1136.01 653.51 1155.34
  Q 653.96 1159.60 653.93 1162.30
  C 653.91 1165.63 654.86 1168.31 655.08 1171.53
  C 655.43 1176.63 656.14 1181.05 656.15 1186.32
  Q 656.16 1189.19 657.08 1194.50
  Q 657.29 1195.71 657.73 1203.32
  Q 658.03 1208.55 658.65 1212.12
  Q 659.35 1216.18 659.83 1223.35
  Q 659.96 1225.32 660.88 1233.23
  Q 661.70 1240.40 661.80 1243.14
  Q 661.96 1247.40 662.27 1248.99
  Q 663.13 1253.46 663.21 1254.80
  C 663.45 1258.78 664.10 1261.45 664.10 1265.09
  C 664.10 1268.99 665.12 1272.82 665.24 1276.66
  Q 665.61 1288.89 667.88 1302.07
  C 668.28 1304.39 668.07 1308.12 668.43 1310.96
  Q 669.72 1321.17 669.98 1329.69
  A 5.38 5.06 -54.6 0 0 670.12 1330.71
  Q 670.87 1333.67 670.99 1335.00
  Q 671.96 1345.21 672.33 1350.46
  A 2.05 2.04 1.0 0 0 674.16 1352.35
  C 676.85 1352.63 682.21 1351.72 685.43 1354.79
  C 690.84 1359.94 689.67 1369.92 682.16 1372.81
  A 2.88 2.63 32.1 0 1 681.17 1372.99
  Q 650.01 1372.90 641.17 1373.06
  Q 632.80 1373.20 630.94 1372.44
  Q 626.36 1370.57 625.83 1364.01
  Q 625.22 1356.37 631.56 1353.19
  A 0.87 0.82 -60.9 0 1 631.81 1353.11
  L 637.39 1352.25
  A 0.73 0.73 0.0 0 0 637.80 1351.01
  L 538.57 1249.26
  A 0.53 0.52 24.3 0 0 537.67 1249.60
  C 537.59 1251.16 537.21 1252.70 537.21 1254.46
  C 537.20 1264.37 536.84 1275.32 536.94 1282.85
  Q 537.29 1308.57 536.81 1338.99
  Q 536.71 1345.49 537.24 1352.08
  A 0.95 0.94 -3.4 0 0 538.23 1352.95
  Q 544.88 1352.71 548.75 1352.96
  C 557.60 1353.55 560.14 1368.04 552.19 1372.05
  Q 550.23 1373.04 546.11 1373.01
  Q 529.20 1372.92 508.45 1373.08
  Q 503.72 1373.12 501.86 1371.74
  Q 499.11 1369.70 498.25 1366.02
  C 496.97 1360.54 498.86 1354.88 504.72 1352.96
  A 0.95 0.73 25.8 0 1 504.91 1352.92
  L 515.53 1352.64
  A 1.37 1.36 89.6 0 0 516.86 1351.28
  Q 516.93 1298.40 516.77 1256.00
  Q 516.76 1253.11 516.14 1250.83
  A 0.37 0.37 0.0 0 0 515.46 1250.75
  L 515.34 1250.98
  Z
  M 657.49 883.63
  A 1.05 1.04 64.2 0 0 655.73 883.01
  Q 643.45 895.00 631.89 904.10
  A 3.30 3.29 68.7 0 0 630.65 906.95
  L 632.26 927.32
  A 1.22 0.09 85.6 0 1 632.28 927.45
  Q 632.87 929.89 632.99 933.75
  Q 633.04 935.44 633.66 944.86
  Q 633.97 949.58 634.94 955.92
  Q 635.79 961.44 636.09 967.07
  C 636.28 970.52 636.82 973.64 637.00 976.29
  Q 638.64 999.44 639.18 1004.24
  Q 640.39 1015.06 640.16 1016.83
  C 639.95 1018.50 640.75 1020.99 640.87 1022.68
  Q 641.80 1035.95 641.78 1037.51
  Q 641.74 1039.18 642.62 1043.79
  Q 643.07 1046.16 643.15 1050.13
  A 4.83 4.72 38.6 0 0 643.27 1051.10
  C 644.08 1054.83 643.89 1058.60 644.35 1062.12
  Q 645.50 1071.07 646.10 1080.40
  Q 646.23 1082.48 646.60 1084.06
  C 647.33 1087.21 647.04 1090.20 647.52 1093.27
  Q 648.18 1097.45 648.38 1102.08
  Q 648.47 1103.96 650.97 1103.99
  Q 669.45 1104.19 684.29 1103.92
  A 1.31 1.31 0.0 0 0 685.56 1102.45
  L 657.49 883.63
  Z
  M 609.25 918.13
  L 607.71 917.90
  A 1.68 1.67 36.1 0 0 606.72 918.05
  Q 584.32 928.68 565.06 931.97
  Q 553.06 934.02 539.17 935.40
  A 1.26 1.25 87.2 0 0 538.04 936.65
  L 538.04 990.16
  A 1.00 1.00 0.0 0 0 539.53 991.03
  C 542.56 989.30 544.45 985.87 546.50 983.75
  Q 562.37 967.38 577.94 951.91
  Q 580.47 949.39 586.49 943.03
  C 591.06 938.19 595.76 933.94 600.73 928.65
  C 603.39 925.82 607.30 923.20 609.86 919.56
  A 0.92 0.91 22.1 0 0 609.25 918.13
  Z
  M 447.23 920.26
  C 448.18 923.05 452.35 926.45 454.46 928.11
  A 3.48 3.43 -89.6 0 1 455.11 928.78
  Q 455.68 929.54 458.27 932.22
  Q 486.05 961.08 511.87 986.63
  Q 513.29 988.04 515.47 989.03
  Q 515.68 989.47 515.87 989.43
  Q 516.89 989.23 516.89 988.13
  Q 516.87 963.80 517.08 936.42
  A 1.31 1.31 0.0 0 0 515.78 935.10
  L 510.54 935.06
  A 0.45 0.33 -27.3 0 1 510.41 935.04
  C 504.36 933.96 495.90 933.47 489.68 932.20
  Q 481.72 930.57 479.13 929.82
  Q 465.22 925.76 450.27 919.78
  Q 449.39 919.43 448.47 919.74
  Q 448.09 919.27 447.40 919.68
  Q 447.09 919.87 447.23 920.26
  Z
  M 434.02 936.58
  A 1.61 1.61 0.0 0 0 431.28 937.47
  L 406.32 1102.10
  A 1.61 1.61 0.0 0 0 407.91 1103.95
  L 419.18 1103.95
  A 1.61 1.61 0.0 0 0 420.31 1103.48
  L 509.54 1015.17
  A 1.61 1.61 0.0 0 0 509.55 1012.90
  L 434.02 936.58
  Z
  M 611.19 946.57
  A 0.27 0.27 0.0 0 0 610.74 946.45
  C 592.51 964.89 573.00 984.28 554.30 1003.67
  C 552.13 1005.92 548.31 1008.37 546.82 1010.61
  Q 545.31 1012.88 547.36 1014.92
  Q 562.10 1029.55 579.78 1047.97
  Q 600.53 1069.58 623.66 1092.34
  A 0.89 0.89 0.0 0 0 625.18 1091.69
  C 625.11 1086.18 623.90 1080.47 623.72 1075.12
  Q 623.61 1071.85 622.41 1060.37
  Q 621.66 1053.14 620.16 1038.42
  Q 619.73 1034.16 618.29 1016.44
  Q 617.37 1005.08 616.33 997.33
  C 615.56 991.60 615.59 984.88 614.76 978.95
  C 613.50 969.87 612.92 959.76 612.21 951.50
  Q 612.09 950.08 611.19 946.57
  Z
  M 604.18 1102.59
  Q 604.09 1102.25 603.93 1102.13
  Q 602.96 1100.15 599.96 1097.04
  Q 579.45 1075.78 567.27 1063.34
  C 559.08 1054.98 549.28 1044.27 540.29 1035.84
  A 1.16 1.16 0.0 0 0 538.36 1036.46
  Q 538.04 1037.99 537.79 1041.50
  Q 537.63 1043.79 537.76 1056.36
  Q 537.83 1062.17 537.59 1071.19
  Q 537.24 1084.77 537.83 1102.58
  A 1.22 1.21 2.8 0 0 538.90 1103.75
  Q 541.66 1104.09 543.89 1104.11
  Q 568.72 1104.31 605.39 1103.91
  A 0.39 0.38 73.6 0 0 605.71 1103.32
  Q 605.36 1102.76 604.18 1102.59
  Z
  M 515.66 1036.51
  Q 513.59 1037.79 513.06 1038.31
  Q 481.55 1069.82 465.08 1086.83
  Q 458.16 1093.97 449.56 1103.14
  A 0.46 0.45 42.1 0 0 449.60 1103.81
  Q 449.84 1104.02 450.38 1103.83
  Q 451.03 1103.60 451.57 1103.65
  Q 454.56 1103.94 457.77 1103.95
  Q 491.23 1104.13 491.27 1104.13
  Q 508.02 1104.18 516.08 1103.79
  A 0.69 0.69 0.0 0 0 516.73 1103.10
  L 516.96 1039.90
  A 5.99 5.94 -52.9 0 0 516.75 1038.33
  L 516.32 1036.77
  A 0.45 0.44 66.3 0 0 515.66 1036.51
  Z
  M 368.22 1352.89
  Q 374.28 1352.98 381.75 1352.84
  Q 383.61 1352.80 385.39 1352.18
  A 0.75 0.74 -77.4 0 0 385.70 1351.98
  Q 447.41 1290.63 504.58 1233.23
  Q 506.83 1230.98 507.53 1230.39
  Q 509.84 1228.47 511.45 1225.84
  A 1.18 1.18 0.0 0 0 511.27 1224.38
  Q 462.55 1175.55 416.06 1128.19
  Q 414.99 1127.10 410.84 1123.55
  A 1.40 1.40 0.0 0 0 409.98 1123.21
  L 404.34 1123.00
  A 1.44 1.44 0.0 0 0 402.87 1124.21
  L 367.32 1351.83
  A 0.92 0.92 0.0 0 0 368.22 1352.89
  Z
  M 441.73 1123.95
  Q 441.04 1124.35 441.56 1125.20
  Q 442.20 1126.27 443.02 1127.06
  C 452.05 1135.79 461.17 1145.52 469.39 1153.59
  C 482.37 1166.34 490.59 1174.93 501.47 1185.49
  Q 509.25 1193.03 510.79 1194.94
  A 1.66 1.60 86.7 0 0 511.19 1195.31
  L 516.24 1198.74
  A 0.36 0.35 17.3 0 0 516.80 1198.45
  L 516.80 1124.33
  A 1.20 1.20 0.0 0 0 515.60 1123.13
  L 443.68 1123.13
  A 2.50 2.44 26.2 0 0 442.21 1123.61
  L 441.73 1123.95
  Z
  M 612.91 1125.33
  A 1.77 1.77 0.0 0 0 611.20 1123.11
  L 539.23 1123.11
  A 1.76 1.75 0.3 0 0 537.47 1124.84
  C 537.35 1133.72 537.50 1142.49 537.25 1151.04
  Q 536.56 1174.57 537.13 1199.85
  A 0.98 0.98 0.0 0 0 538.64 1200.66
  Q 541.75 1198.67 544.34 1195.58
  Q 547.84 1191.39 555.87 1183.45
  C 565.66 1173.77 573.62 1165.27 582.68 1156.37
  C 591.88 1147.34 601.66 1137.21 612.28 1126.78
  A 1.72 1.70 75.5 0 0 612.72 1126.02
  L 612.91 1125.33
  Z
  M 646.94 1330.54
  Q 647.08 1330.38 647.23 1330.21
  Q 648.43 1325.10 647.36 1318.43
  Q 646.81 1314.97 645.63 1302.50
  Q 644.06 1285.89 643.10 1274.49
  Q 641.71 1258.14 640.58 1248.77
  Q 639.87 1242.89 639.67 1238.20
  Q 639.39 1231.47 638.80 1227.63
  C 637.87 1221.60 637.87 1216.63 637.21 1211.22
  Q 635.70 1198.88 634.25 1180.72
  Q 633.43 1170.50 632.54 1162.30
  Q 630.93 1147.48 630.68 1143.89
  C 630.52 1141.50 629.88 1140.29 629.45 1138.58
  A 0.76 0.76 0.0 0 0 628.17 1138.22
  Q 603.13 1163.17 585.83 1181.09
  Q 584.56 1182.41 583.24 1183.74
  Q 563.71 1203.62 544.77 1222.76
  Q 542.09 1225.47 544.88 1228.08
  Q 549.08 1232.01 551.75 1234.75
  Q 578.98 1262.78 631.01 1315.43
  Q 642.90 1327.46 646.16 1330.62
  A 0.71 0.70 62.5 0 0 646.75 1330.81
  Q 647.14 1330.75 646.94 1330.54
  Z"
/>
<g fill="#010101">
<path d="
  M 515.34 1250.98
  L 515.46 1250.75
  A 0.37 0.37 0.0 0 1 516.14 1250.83
  Q 516.76 1253.11 516.77 1256.00
  Q 516.93 1298.40 516.86 1351.28
  A 1.37 1.36 89.6 0 1 515.53 1352.64
  L 504.91 1352.92
  A 0.95 0.73 25.8 0 0 504.72 1352.96
  C 498.86 1354.88 496.97 1360.54 498.25 1366.02
  Q 499.11 1369.70 501.86 1371.74
  Q 503.72 1373.12 508.45 1373.08
  Q 529.20 1372.92 546.11 1373.01
  Q 550.23 1373.04 552.19 1372.05
  C 560.14 1368.04 557.60 1353.55 548.75 1352.96
  Q 544.88 1352.71 538.23 1352.95
  A 0.95 0.94 -3.4 0 1 537.24 1352.08
  Q 536.71 1345.49 536.81 1338.99
  Q 537.29 1308.57 536.94 1282.85
  C 536.84 1275.32 537.20 1264.37 537.21 1254.46
  C 537.21 1252.70 537.59 1251.16 537.67 1249.60
  A 0.53 0.52 24.3 0 1 538.57 1249.26
  L 637.80 1351.01
  A 0.73 0.73 0.0 0 1 637.39 1352.25
  L 631.81 1353.11
  A 0.87 0.82 -60.9 0 0 631.56 1353.19
  Q 625.22 1356.37 625.83 1364.01
  Q 626.36 1370.57 630.94 1372.44
  Q 632.80 1373.20 641.17 1373.06
  Q 650.01 1372.90 681.17 1372.99
  A 2.88 2.63 32.1 0 0 682.16 1372.81
  C 689.67 1369.92 690.84 1359.94 685.43 1354.79
  C 682.21 1351.72 676.85 1352.63 674.16 1352.35
  A 2.05 2.04 1.0 0 1 672.33 1350.46
  Q 671.96 1345.21 670.99 1335.00
  Q 670.87 1333.67 670.12 1330.71
  A 5.38 5.06 -54.6 0 1 669.98 1329.69
  Q 669.72 1321.17 668.43 1310.96
  C 668.07 1308.12 668.28 1304.39 667.88 1302.07
  Q 665.61 1288.89 665.24 1276.66
  C 665.12 1272.82 664.10 1268.99 664.10 1265.09
  C 664.10 1261.45 663.45 1258.78 663.21 1254.80
  Q 663.13 1253.46 662.27 1248.99
  Q 661.96 1247.40 661.80 1243.14
  Q 661.70 1240.40 660.88 1233.23
  Q 659.96 1225.32 659.83 1223.35
  Q 659.35 1216.18 658.65 1212.12
  Q 658.03 1208.55 657.73 1203.32
  Q 657.29 1195.71 657.08 1194.50
  Q 656.16 1189.19 656.15 1186.32
  C 656.14 1181.05 655.43 1176.63 655.08 1171.53
  C 654.86 1168.31 653.91 1165.63 653.93 1162.30
  Q 653.96 1159.60 653.51 1155.34
  Q 651.48 1136.01 650.63 1124.89
  A 1.65 1.64 87.9 0 1 652.27 1123.12
  L 686.89 1123.12
  A 0.98 0.97 -4.9 0 1 687.85 1123.92
  Q 689.25 1131.85 690.58 1142.27
  Q 696.30 1186.84 696.52 1188.48
  C 699.75 1212.27 702.33 1234.94 705.26 1256.32
  Q 707.67 1273.99 708.97 1286.49
  Q 709.44 1291.01 710.01 1294.05
  C 711.30 1300.87 711.48 1305.55 712.57 1312.92
  Q 714.05 1322.97 717.75 1350.68
  A 1.59 1.58 82.9 0 1 716.36 1352.47
  Q 714.00 1352.74 711.91 1352.66
  C 703.05 1352.35 700.52 1361.16 703.17 1368.08
  C 704.21 1370.81 707.33 1372.99 710.03 1372.99
  Q 728.05 1372.99 751.09 1373.01
  A 3.54 3.19 35.4 0 0 751.87 1372.92
  Q 755.08 1372.13 756.36 1370.41
  Q 762.06 1362.74 755.55 1355.10
  Q 753.40 1352.58 750.21 1352.54
  Q 745.55 1352.49 741.75 1351.98
  A 0.96 0.95 88.7 0 1 740.93 1351.19
  Q 740.04 1345.81 739.12 1338.25
  C 738.78 1335.49 737.93 1333.27 737.96 1330.81
  Q 737.98 1328.91 737.48 1325.20
  Q 732.51 1288.78 727.44 1247.55
  Q 727.43 1247.51 726.15 1238.84
  Q 725.64 1235.40 725.28 1229.74
  C 725.17 1227.99 724.37 1225.44 724.15 1223.32
  C 723.53 1217.27 722.60 1211.50 721.86 1205.77
  Q 721.85 1205.68 716.91 1165.57
  C 716.59 1162.99 715.91 1160.44 716.06 1158.06
  A 4.39 4.29 40.8 0 0 715.96 1156.89
  Q 715.31 1153.96 714.16 1145.22
  Q 713.94 1143.56 713.71 1141.78
  Q 712.43 1131.52 711.33 1121.93
  C 710.90 1118.23 710.03 1115.34 709.84 1111.57
  Q 709.71 1109.10 706.26 1086.51
  C 705.80 1083.54 705.88 1079.85 705.42 1076.84
  Q 704.51 1070.86 703.33 1059.77
  Q 703.09 1057.51 702.39 1054.31
  Q 701.96 1052.34 701.78 1048.77
  Q 701.64 1045.99 698.55 1024.92
  Q 697.99 1021.12 697.83 1018.04
  Q 697.64 1014.54 697.09 1011.12
  Q 696.04 1004.64 695.72 1000.81
  C 695.21 994.88 694.21 990.09 693.55 984.05
  Q 692.41 973.77 691.53 968.31
  Q 690.28 960.49 689.56 952.60
  Q 689.23 949.06 686.99 930.59
  C 686.69 928.16 685.85 926.21 685.96 924.20
  Q 686.05 922.69 685.58 919.37
  Q 684.93 914.78 683.54 904.51
  C 683.07 901.05 682.94 897.30 682.09 893.51
  A 4.82 4.72 -49.6 0 1 681.99 892.07
  Q 682.12 890.45 681.87 888.88
  Q 680.76 881.78 679.09 865.45
  Q 678.94 864.04 679.16 863.18
  A 1.27 1.26 -82.5 0 1 680.38 862.24
  Q 709.96 862.17 730.08 862.27
  Q 733.74 862.29 735.26 861.43
  C 740.34 858.55 740.09 852.66 740.07 847.55
  Q 739.99 822.20 739.95 791.50
  C 739.94 787.90 738.73 783.75 735.05 783.14
  Q 731.12 782.49 727.14 783.22
  A 0.49 0.49 0.0 0 1 726.57 782.81
  Q 726.06 779.76 726.07 776.52
  Q 726.24 722.81 726.11 623.77
  Q 726.10 621.05 726.20 620.73
  C 726.82 618.62 730.05 619.02 732.03 619.02
  C 736.93 619.03 740.19 615.17 740.69 610.43
  C 741.42 603.54 737.06 600.26 731.00 597.34
  C 726.15 595.00 718.92 590.66 712.16 587.14
  Q 693.89 577.65 681.19 570.61
  C 676.68 568.12 672.15 565.52 667.59 563.11
  Q 660.20 559.20 656.95 557.25
  C 651.46 553.97 645.53 551.26 640.07 548.23
  Q 618.57 536.33 595.51 524.26
  Q 593.50 523.21 592.70 520.55
  Q 590.38 512.94 590.37 512.87
  Q 585.27 493.26 574.25 453.98
  C 573.31 450.66 575.88 450.11 577.66 448.55
  C 588.71 438.80 600.06 428.18 609.71 416.55
  Q 617.96 406.61 619.79 404.31
  Q 635.65 384.47 646.98 363.51
  Q 671.78 317.68 676.70 265.50
  Q 678.10 250.66 677.09 231.67
  C 676.95 228.88 676.27 226.54 675.83 223.34
  Q 675.35 219.81 673.50 213.75
  C 668.24 196.52 650.10 198.56 637.07 203.11
  C 620.21 209.00 603.64 217.41 589.69 225.95
  Q 575.37 234.72 554.86 249.43
  C 544.22 257.05 529.20 269.26 520.00 276.51
  Q 518.15 277.96 516.12 277.97
  A 1.53 1.51 62.6 0 1 515.23 277.68
  Q 504.98 270.51 498.79 265.68
  Q 486.99 256.50 482.61 253.44
  Q 479.81 251.49 449.44 228.53
  C 446.54 226.34 444.07 224.87 440.87 224.35
  C 430.26 222.62 423.49 228.78 417.02 236.03
  C 410.39 243.44 408.10 253.28 413.72 262.08
  Q 416.32 266.13 418.87 269.38
  Q 434.71 289.52 451.99 308.76
  Q 460.16 317.85 463.49 321.99
  Q 464.00 322.62 463.71 323.45
  Q 442.49 300.01 422.54 275.48
  Q 415.94 267.36 413.36 263.65
  Q 411.31 260.69 410.06 256.72
  C 408.01 250.22 410.77 242.11 414.80 237.05
  Q 417.75 233.35 422.30 229.34
  C 428.13 224.19 435.05 221.38 442.50 223.63
  Q 446.43 224.82 449.96 227.81
  Q 450.12 227.95 456.82 232.99
  Q 469.67 242.65 478.53 249.18
  Q 490.27 257.83 497.23 263.14
  Q 508.28 271.55 515.97 277.03
  A 1.41 1.41 0.0 0 0 517.78 276.88
  C 518.83 275.84 519.95 275.34 521.15 274.38
  Q 537.34 261.40 547.20 253.94
  Q 561.95 242.78 581.91 229.71
  Q 591.03 223.74 600.35 218.76
  Q 615.32 210.78 619.44 208.93
  Q 631.21 203.66 642.24 200.50
  Q 647.45 199.00 653.22 198.83
  Q 663.23 198.54 669.76 205.06
  Q 672.65 207.95 674.58 213.68
  Q 676.55 219.55 677.01 223.30
  Q 679.22 240.95 678.68 249.77
  Q 678.11 259.27 677.99 262.68
  C 677.85 266.60 676.81 269.83 676.96 273.60
  A 4.69 4.67 53.0 0 1 676.74 275.20
  Q 676.41 276.25 675.85 280.51
  Q 674.68 289.48 670.91 305.23
  Q 666.46 323.84 658.20 342.71
  Q 648.85 364.07 638.51 380.03
  Q 630.70 392.07 621.53 403.80
  Q 618.22 408.02 611.99 415.40
  Q 605.40 423.21 602.06 426.66
  Q 588.97 440.18 575.26 451.69
  A 0.76 0.75 62.4 0 0 575.02 452.47
  L 594.00 521.59
  A 2.10 2.07 -84.0 0 0 595.04 522.89
  Q 607.07 529.29 617.81 534.99
  Q 629.67 541.29 656.06 555.72
  Q 693.82 576.36 732.62 597.12
  Q 737.71 599.84 739.15 601.72
  C 743.20 607.03 742.61 614.25 737.30 618.37
  C 734.83 620.29 731.31 619.98 727.94 619.98
  A 0.63 0.63 0.0 0 0 727.31 620.61
  L 727.31 781.59
  A 0.34 0.33 88.4 0 0 727.66 781.93
  Q 731.04 781.79 734.03 781.97
  C 738.50 782.25 741.03 786.86 741.06 791.05
  Q 741.22 822.65 741.12 849.46
  C 741.09 856.32 740.25 860.53 734.33 862.93
  Q 733.22 863.39 727.66 863.40
  Q 703.48 863.46 679.74 863.36
  A 0.38 0.38 0.0 0 0 679.37 863.82
  Q 679.40 863.93 679.54 864.01
  Q 679.63 864.06 679.65 864.26
  Q 682.66 886.40 684.97 906.75
  C 685.34 910.04 686.09 912.89 686.04 916.37
  A 2.43 1.91 -56.5 0 0 686.07 916.74
  L 741.67 1350.24
  A 1.34 1.33 -4.3 0 0 743.03 1351.40
  C 748.72 1351.27 754.36 1351.13 757.85 1356.30
  C 762.54 1363.24 759.41 1374.07 749.74 1374.07
  Q 720.72 1374.07 711.76 1374.07
  C 706.10 1374.08 702.29 1370.90 701.21 1365.30
  C 700.33 1360.73 702.07 1354.26 707.24 1352.47
  Q 711.07 1351.13 715.88 1351.71
  A 0.93 0.93 0.0 0 0 716.86 1350.45
  C 715.93 1347.98 716.03 1345.50 715.63 1342.57
  Q 714.03 1330.86 713.47 1326.71
  Q 710.85 1307.40 710.60 1306.31
  C 709.98 1303.63 710.14 1301.08 709.70 1299.07
  Q 709.36 1297.54 708.81 1293.27
  Q 707.94 1286.63 707.43 1283.01
  Q 707.02 1280.12 707.01 1278.91
  C 706.99 1275.85 706.01 1273.08 705.99 1270.04
  C 705.97 1267.68 704.96 1265.83 705.07 1263.72
  C 705.21 1261.12 704.29 1258.65 704.12 1256.04
  Q 703.86 1251.95 703.18 1247.98
  Q 702.91 1246.36 700.44 1228.90
  Q 700.13 1226.69 700.13 1226.46
  Q 700.23 1222.96 699.58 1220.53
  C 698.84 1217.69 699.29 1215.01 698.58 1212.36
  C 697.87 1209.74 698.39 1206.60 697.58 1204.13
  C 696.79 1201.74 697.33 1199.07 696.66 1197.08
  C 695.69 1194.23 696.16 1190.57 695.09 1187.15
  Q 694.96 1186.73 694.91 1183.78
  A 7.92 7.87 -52.6 0 0 694.67 1181.93
  C 693.86 1178.61 694.14 1175.76 693.29 1172.66
  Q 693.03 1171.74 692.73 1166.92
  Q 692.69 1166.30 692.44 1164.66
  Q 691.07 1155.79 687.21 1124.97
  A 0.91 0.90 -3.6 0 0 686.31 1124.18
  L 652.05 1124.18
  A 0.76 0.75 -7.6 0 0 651.32 1125.13
  C 652.25 1128.47 651.66 1132.52 652.53 1135.51
  C 653.28 1138.13 652.90 1141.15 653.47 1144.31
  Q 654.08 1147.69 654.05 1152.28
  A 8.92 8.55 -51.9 0 0 654.24 1154.19
  C 655.06 1158.07 654.72 1162.29 655.65 1166.47
  A 6.33 6.17 38.6 0 1 655.79 1167.58
  Q 655.90 1172.47 656.49 1176.42
  C 657.13 1180.64 656.88 1184.21 657.35 1188.20
  Q 659.12 1203.04 660.54 1218.16
  Q 660.81 1221.03 660.81 1221.51
  C 660.78 1225.12 661.60 1228.63 661.95 1232.55
  Q 663.67 1251.85 664.81 1261.92
  Q 665.47 1267.80 666.11 1276.38
  Q 666.76 1285.24 667.62 1290.83
  C 668.13 1294.15 667.95 1297.67 668.78 1301.12
  A 1.01 0.33 -81.4 0 1 668.81 1301.30
  L 673.29 1350.98
  A 0.93 0.93 0.0 0 0 674.35 1351.81
  C 678.18 1351.28 682.84 1351.47 685.53 1353.54
  Q 688.91 1356.15 689.72 1360.57
  C 690.76 1366.21 688.20 1371.52 682.64 1373.74
  A 4.41 4.33 33.4 0 1 681.10 1374.04
  Q 661.16 1374.11 633.53 1374.05
  Q 631.32 1374.05 628.41 1371.82
  C 625.21 1369.36 624.21 1364.61 624.84 1360.71
  Q 625.56 1356.30 628.83 1353.67
  Q 631.73 1351.34 636.62 1352.10
  A 0.43 0.43 0.0 0 0 636.99 1351.36
  Q 635.75 1350.20 616.42 1330.58
  Q 614.61 1328.75 611.84 1325.90
  Q 585.07 1298.36 581.01 1294.11
  Q 566.43 1278.85 543.66 1256.01
  C 541.75 1254.10 540.49 1251.87 538.64 1250.35
  A 0.36 0.36 0.0 0 0 538.05 1250.63
  L 538.05 1351.39
  A 0.52 0.51 90.0 0 0 538.56 1351.91
  Q 543.87 1351.94 546.17 1351.85
  C 550.81 1351.67 554.38 1353.32 556.39 1357.31
  Q 560.24 1364.94 555.26 1371.21
  A 4.31 4.01 -0.9 0 1 554.50 1371.94
  Q 551.50 1374.13 546.76 1374.11
  Q 517.89 1374.02 514.37 1374.08
  Q 505.29 1374.24 503.71 1373.66
  Q 498.35 1371.69 497.12 1365.96
  Q 495.06 1356.45 503.86 1351.97
  A 0.61 0.60 -59.5 0 1 504.16 1351.89
  L 514.99 1351.89
  A 0.80 0.79 0.0 0 0 515.79 1351.10
  L 515.79 1251.00
  A 0.10 0.10 0.0 0 0 515.66 1250.90
  L 515.34 1250.98
  Z"
/>
<path d="
  M 463.46 324.46
  Q 463.90 325.05 463.44 325.49
  Q 438.60 349.66 416.92 375.66
  Q 410.99 382.77 401.50 395.46
  Q 393.80 405.75 387.36 416.20
  Q 376.24 434.24 370.59 446.07
  Q 367.93 451.65 365.31 461.21
  Q 363.53 467.73 366.43 475.59
  C 370.51 486.59 386.24 492.15 396.27 493.95
  Q 396.70 494.03 405.49 495.32
  Q 410.46 496.05 414.79 496.05
  Q 429.93 496.08 440.33 495.99
  A 5.64 5.52 -50.4 0 0 441.48 495.87
  Q 445.19 495.13 448.58 495.06
  C 452.54 494.98 454.86 494.25 458.26 494.14
  Q 459.25 494.11 462.09 493.55
  Q 474.95 491.02 482.60 489.34
  Q 483.21 489.21 483.93 489.36
  Q 484.65 489.52 485.08 489.33
  A 0.79 0.79 0.0 0 1 486.15 490.28
  Q 480.94 507.88 477.71 518.00
  C 476.95 520.37 477.61 521.61 475.29 523.93
  Q 474.63 524.59 472.57 525.35
  Q 470.30 526.20 462.35 529.84
  Q 442.14 539.09 421.72 549.32
  Q 409.81 555.28 404.13 557.95
  C 387.84 565.60 370.59 574.61 357.48 580.93
  Q 348.92 585.06 340.74 589.38
  Q 336.55 591.59 323.85 597.56
  Q 317.51 600.54 315.81 602.76
  C 312.16 607.53 313.67 615.04 319.00 618.19
  C 321.80 619.84 326.17 619.10 329.14 619.07
  A 0.61 0.61 0.0 0 1 329.76 619.66
  Q 330.03 626.91 330.02 633.75
  Q 329.94 699.28 329.93 777.70
  C 329.93 780.43 330.48 783.05 327.03 782.91
  Q 326.02 782.87 321.15 782.92
  A 5.60 4.98 -48.4 0 0 320.13 783.04
  C 315.20 784.12 314.09 788.60 314.11 793.49
  Q 314.31 840.31 314.24 847.50
  Q 314.23 848.77 314.42 853.47
  Q 314.60 857.82 317.90 860.60
  Q 319.73 862.14 322.00 862.15
  Q 359.00 862.20 368.77 862.15
  Q 370.89 862.15 370.62 864.51
  C 369.85 871.15 368.59 877.13 367.78 884.23
  Q 367.18 889.37 366.36 894.11
  Q 366.07 895.75 365.79 897.47
  Q 359.64 934.89 354.88 966.31
  C 353.75 973.78 352.27 980.68 351.42 987.67
  Q 350.72 993.36 350.12 996.24
  Q 348.84 1002.41 347.03 1014.83
  Q 346.27 1020.04 344.01 1033.41
  Q 334.46 1090.02 332.50 1102.70
  Q 329.58 1121.51 328.60 1126.10
  C 327.99 1128.98 327.74 1132.60 327.28 1135.26
  Q 323.20 1158.38 320.00 1178.73
  Q 319.68 1180.78 319.33 1182.81
  Q 314.53 1210.70 310.34 1236.51
  Q 303.64 1277.75 296.70 1319.39
  Q 295.04 1329.37 291.86 1350.25
  A 1.82 1.81 -2.1 0 1 290.45 1351.76
  L 288.10 1352.28
  A 4.18 4.07 38.6 0 1 287.29 1352.36
  Q 278.60 1352.39 277.26 1352.43
  C 267.13 1352.72 265.71 1367.76 273.49 1372.08
  Q 275.08 1372.96 279.29 1372.98
  Q 302.70 1373.07 322.72 1372.86
  Q 325.59 1372.83 328.17 1369.70
  Q 332.54 1364.38 329.68 1358.28
  C 326.77 1352.08 321.23 1352.57 315.45 1352.56
  A 1.61 1.61 0.0 0 1 313.86 1350.67
  Q 317.42 1330.06 319.80 1317.08
  C 320.95 1310.84 322.11 1300.80 323.70 1293.49
  Q 324.60 1289.37 328.59 1264.17
  C 331.56 1245.42 335.90 1222.87 338.74 1203.07
  C 339.24 1199.63 340.23 1195.88 340.84 1192.18
  Q 343.76 1174.41 344.07 1172.47
  Q 346.20 1158.73 348.36 1146.65
  Q 351.15 1131.00 354.40 1109.39
  C 355.25 1103.70 357.47 1094.23 358.39 1086.43
  C 358.81 1082.85 359.71 1079.23 360.04 1076.42
  Q 361.22 1066.48 363.29 1056.03
  C 365.60 1044.36 367.08 1034.61 368.70 1024.29
  Q 371.40 1007.09 372.03 1003.82
  C 374.06 993.36 375.30 984.98 377.59 971.57
  Q 378.10 968.59 378.11 966.33
  A 1.60 1.44 -42.1 0 1 378.14 966.03
  L 391.38 886.84
  A 0.74 0.74 0.0 0 1 392.58 886.39
  L 412.04 902.51
  A 2.22 2.22 0.0 0 1 412.78 904.73
  Q 412.32 906.69 411.71 912.24
  Q 410.36 924.64 408.37 935.80
  C 407.87 938.62 407.84 941.45 407.35 944.62
  Q 404.73 961.52 401.76 982.78
  Q 397.48 1013.50 396.35 1020.95
  Q 390.56 1059.04 386.84 1082.47
  Q 382.60 1109.24 381.26 1119.07
  Q 380.73 1122.91 380.36 1124.39
  C 379.77 1126.74 379.92 1128.88 379.47 1131.53
  Q 377.13 1145.05 374.07 1164.76
  Q 368.67 1199.58 365.32 1220.51
  Q 364.19 1227.51 363.16 1235.57
  C 362.40 1241.46 360.88 1248.44 359.84 1255.59
  Q 356.36 1279.45 352.60 1301.32
  Q 351.92 1305.24 351.19 1310.82
  C 350.81 1313.68 349.95 1316.05 349.81 1318.66
  Q 349.74 1319.86 349.43 1321.82
  Q 344.92 1350.13 343.61 1357.65
  C 342.51 1364.01 342.55 1368.99 347.86 1372.12
  Q 349.36 1373.00 354.24 1373.00
  Q 413.83 1372.98 417.04 1372.94
  C 421.44 1372.89 423.62 1370.16 425.13 1366.39
  C 427.18 1361.25 425.09 1355.83 420.35 1353.44
  A 2.53 2.49 -25.4 0 0 419.63 1353.19
  L 414.09 1352.15
  A 0.38 0.38 0.0 0 1 413.92 1351.49
  Q 417.54 1348.39 423.67 1342.17
  Q 468.47 1296.73 511.52 1253.52
  Q 512.31 1252.73 515.00 1251.29
  L 415.43 1351.57
  A 0.26 0.26 0.0 0 0 415.64 1352.01
  C 423.99 1351.07 428.51 1358.78 426.46 1366.18
  C 425.23 1370.64 421.22 1374.12 416.50 1374.07
  Q 412.00 1374.03 354.99 1374.09
  Q 349.12 1374.09 346.24 1372.24
  A 4.09 3.77 -2.3 0 1 345.44 1371.56
  Q 341.14 1366.80 342.05 1361.25
  Q 345.92 1337.75 348.85 1318.63
  Q 349.87 1311.93 354.41 1283.29
  Q 355.65 1275.41 356.56 1269.82
  Q 360.55 1245.18 365.44 1212.93
  Q 367.61 1198.61 369.80 1186.24
  Q 370.11 1184.51 370.04 1183.25
  C 369.98 1181.90 370.50 1180.70 370.73 1179.32
  Q 373.70 1161.51 378.27 1130.66
  Q 379.58 1121.81 380.98 1112.99
  Q 381.11 1112.18 390.45 1052.48
  Q 396.67 1012.70 404.50 956.66
  Q 404.58 956.10 404.67 955.47
  Q 405.67 948.40 412.06 903.63
  A 0.79 0.79 0.0 0 0 411.73 902.87
  Q 401.41 895.77 392.76 887.17
  A 0.32 0.32 0.0 0 0 392.21 887.35
  Q 391.52 892.33 390.48 898.49
  Q 386.26 923.33 383.15 943.17
  Q 381.03 956.66 379.30 965.93
  C 378.90 968.08 379.16 970.13 378.52 972.23
  Q 377.89 974.26 377.94 975.45
  C 378.01 977.01 377.40 978.45 377.19 979.75
  Q 373.72 1001.35 371.52 1013.34
  C 371.11 1015.59 371.25 1018.42 370.49 1020.56
  A 6.93 6.40 61.2 0 0 370.22 1021.65
  Q 370.14 1022.13 364.06 1059.02
  Q 362.69 1067.33 353.94 1119.50
  Q 348.98 1149.08 348.82 1149.98
  Q 347.49 1157.42 346.42 1164.64
  C 345.62 1170.11 344.53 1174.66 343.90 1179.74
  Q 343.56 1182.47 340.87 1197.77
  Q 340.02 1202.62 337.83 1215.77
  Q 333.10 1244.17 332.94 1245.25
  Q 332.63 1247.32 332.38 1247.94
  A 2.24 2.02 63.8 0 0 332.25 1248.40
  L 315.03 1351.09
  A 0.50 0.49 5.5 0 0 315.51 1351.67
  L 323.19 1351.84
  A 2.68 2.56 54.5 0 1 324.03 1352.00
  C 330.92 1354.58 334.22 1362.31 330.12 1368.89
  Q 326.91 1374.04 320.76 1374.04
  Q 306.64 1374.04 281.65 1374.07
  Q 275.53 1374.07 273.50 1373.17
  C 267.57 1370.54 266.52 1363.96 268.30 1358.00
  C 269.98 1352.39 275.32 1351.14 281.33 1351.35
  Q 284.37 1351.46 289.72 1351.29
  A 0.99 0.97 -86.1 0 0 290.66 1350.46
  Q 297.00 1310.89 300.43 1290.03
  Q 313.60 1209.85 318.03 1183.50
  Q 328.40 1121.76 334.10 1087.28
  Q 347.95 1003.48 356.02 952.00
  Q 357.85 940.35 358.30 937.85
  Q 359.58 930.71 360.56 923.72
  Q 362.27 911.51 364.65 899.35
  C 365.05 897.32 364.95 896.38 364.99 894.70
  A 7.30 7.22 -36.9 0 1 365.25 892.93
  C 365.90 890.59 365.92 888.40 366.28 886.08
  Q 368.44 872.10 369.90 863.85
  A 0.46 0.46 0.0 0 0 369.45 863.31
  Q 336.81 863.45 323.48 863.36
  C 316.39 863.32 313.24 858.19 313.27 851.75
  Q 313.41 829.89 313.32 793.33
  C 313.31 788.02 314.36 784.22 319.17 782.11
  A 1.60 1.52 -55.3 0 1 319.79 781.98
  L 328.03 781.98
  A 1.01 1.01 0.0 0 0 329.04 780.97
  L 329.04 620.45
  A 0.60 0.60 0.0 0 0 328.42 619.85
  L 321.87 620.09
  A 2.24 2.18 53.4 0 1 321.07 619.96
  Q 315.61 618.01 314.08 614.22
  Q 311.48 607.83 314.63 602.78
  Q 316.30 600.10 324.14 596.24
  Q 339.68 588.60 397.95 559.73
  Q 411.76 552.89 446.25 536.26
  Q 461.67 528.84 473.96 523.46
  C 476.26 522.45 475.93 519.94 476.45 518.27
  Q 481.78 501.08 484.98 490.42
  A 0.56 0.55 85.1 0 0 484.20 489.76
  C 482.06 490.82 479.97 490.89 477.91 491.35
  Q 475.62 491.86 468.25 493.47
  Q 461.77 494.88 442.26 496.74
  Q 436.03 497.34 408.98 496.84
  A 6.75 6.58 -37.6 0 1 407.62 496.68
  Q 405.57 496.23 403.27 496.01
  Q 389.22 494.70 378.05 488.74
  C 367.34 483.01 361.40 472.71 364.35 460.77
  Q 366.94 450.25 372.73 439.50
  Q 385.63 415.54 397.91 398.64
  Q 411.74 379.60 423.79 366.03
  C 436.12 352.14 448.11 338.87 462.30 325.31
  Q 462.83 324.80 463.46 324.46
  Z"
/>
</g>
<g stroke-width="0.70" fill="none" stroke-linecap="butt">
<path stroke="#193124" vector-effect="non-scaling-stroke" d="
  M 657.49 883.63
  A 1.05 1.04 64.2 0 0 655.73 883.01
  Q 643.45 895.00 631.89 904.10
  A 3.30 3.29 68.7 0 0 630.65 906.95
  L 632.26 927.32
  A 1.22 0.09 85.6 0 1 632.28 927.45
  Q 632.87 929.89 632.99 933.75
  Q 633.04 935.44 633.66 944.86
  Q 633.97 949.58 634.94 955.92
  Q 635.79 961.44 636.09 967.07
  C 636.28 970.52 636.82 973.64 637.00 976.29
  Q 638.64 999.44 639.18 1004.24
  Q 640.39 1015.06 640.16 1016.83
  C 639.95 1018.50 640.75 1020.99 640.87 1022.68
  Q 641.80 1035.95 641.78 1037.51
  Q 641.74 1039.18 642.62 1043.79
  Q 643.07 1046.16 643.15 1050.13
  A 4.83 4.72 38.6 0 0 643.27 1051.10
  C 644.08 1054.83 643.89 1058.60 644.35 1062.12
  Q 645.50 1071.07 646.10 1080.40
  Q 646.23 1082.48 646.60 1084.06
  C 647.33 1087.21 647.04 1090.20 647.52 1093.27
  Q 648.18 1097.45 648.38 1102.08
  Q 648.47 1103.96 650.97 1103.99
  Q 669.45 1104.19 684.29 1103.92
  A 1.31 1.31 0.0 0 0 685.56 1102.45
  L 657.49 883.63"
/>
<path stroke="#193124" vector-effect="non-scaling-stroke" d="
  M 609.25 918.13
  L 607.71 917.90
  A 1.68 1.67 36.1 0 0 606.72 918.05
  Q 584.32 928.68 565.06 931.97
  Q 553.06 934.02 539.17 935.40
  A 1.26 1.25 87.2 0 0 538.04 936.65
  L 538.04 990.16
  A 1.00 1.00 0.0 0 0 539.53 991.03
  C 542.56 989.30 544.45 985.87 546.50 983.75
  Q 562.37 967.38 577.94 951.91
  Q 580.47 949.39 586.49 943.03
  C 591.06 938.19 595.76 933.94 600.73 928.65
  C 603.39 925.82 607.30 923.20 609.86 919.56
  A 0.92 0.91 22.1 0 0 609.25 918.13"
/>
<path stroke="#193124" vector-effect="non-scaling-stroke" d="
  M 447.23 920.26
  C 448.18 923.05 452.35 926.45 454.46 928.11
  A 3.48 3.43 -89.6 0 1 455.11 928.78
  Q 455.68 929.54 458.27 932.22
  Q 486.05 961.08 511.87 986.63
  Q 513.29 988.04 515.47 989.03"
/>
<path stroke="#193124" vector-effect="non-scaling-stroke" d="
  M 515.47 989.03
  Q 515.68 989.47 515.87 989.43
  Q 516.89 989.23 516.89 988.13
  Q 516.87 963.80 517.08 936.42
  A 1.31 1.31 0.0 0 0 515.78 935.10
  L 510.54 935.06
  A 0.45 0.33 -27.3 0 1 510.41 935.04
  C 504.36 933.96 495.90 933.47 489.68 932.20
  Q 481.72 930.57 479.13 929.82
  Q 465.22 925.76 450.27 919.78
  Q 449.39 919.43 448.47 919.74"
/>
<path stroke="#193124" vector-effect="non-scaling-stroke" d="
  M 434.02 936.58
  A 1.61 1.61 0.0 0 0 431.28 937.47
  L 406.32 1102.10
  A 1.61 1.61 0.0 0 0 407.91 1103.95
  L 419.18 1103.95
  A 1.61 1.61 0.0 0 0 420.31 1103.48
  L 509.54 1015.17
  A 1.61 1.61 0.0 0 0 509.55 1012.90
  L 434.02 936.58"
/>
<path stroke="#193124" vector-effect="non-scaling-stroke" d="
  M 611.19 946.57
  A 0.27 0.27 0.0 0 0 610.74 946.45
  C 592.51 964.89 573.00 984.28 554.30 1003.67
  C 552.13 1005.92 548.31 1008.37 546.82 1010.61
  Q 545.31 1012.88 547.36 1014.92
  Q 562.10 1029.55 579.78 1047.97
  Q 600.53 1069.58 623.66 1092.34
  A 0.89 0.89 0.0 0 0 625.18 1091.69
  C 625.11 1086.18 623.90 1080.47 623.72 1075.12
  Q 623.61 1071.85 622.41 1060.37
  Q 621.66 1053.14 620.16 1038.42
  Q 619.73 1034.16 618.29 1016.44
  Q 617.37 1005.08 616.33 997.33
  C 615.56 991.60 615.59 984.88 614.76 978.95
  C 613.50 969.87 612.92 959.76 612.21 951.50
  Q 612.09 950.08 611.19 946.57"
/>
<path stroke="#193124" vector-effect="non-scaling-stroke" d="
  M 603.93 1102.13
  Q 602.96 1100.15 599.96 1097.04
  Q 579.45 1075.78 567.27 1063.34
  C 559.08 1054.98 549.28 1044.27 540.29 1035.84
  A 1.16 1.16 0.0 0 0 538.36 1036.46
  Q 538.04 1037.99 537.79 1041.50
  Q 537.63 1043.79 537.76 1056.36
  Q 537.83 1062.17 537.59 1071.19
  Q 537.24 1084.77 537.83 1102.58
  A 1.22 1.21 2.8 0 0 538.90 1103.75
  Q 541.66 1104.09 543.89 1104.11
  Q 568.72 1104.31 605.39 1103.91
  A 0.39 0.38 73.6 0 0 605.71 1103.32
  Q 605.36 1102.76 604.18 1102.59"
/>
<path stroke="#193124" vector-effect="non-scaling-stroke" d="
  M 515.66 1036.51
  Q 513.59 1037.79 513.06 1038.31
  Q 481.55 1069.82 465.08 1086.83
  Q 458.16 1093.97 449.56 1103.14
  A 0.46 0.45 42.1 0 0 449.60 1103.81
  Q 449.84 1104.02 450.38 1103.83
  Q 451.03 1103.60 451.57 1103.65
  Q 454.56 1103.94 457.77 1103.95
  Q 491.23 1104.13 491.27 1104.13
  Q 508.02 1104.18 516.08 1103.79
  A 0.69 0.69 0.0 0 0 516.73 1103.10
  L 516.96 1039.90
  A 5.99 5.94 -52.9 0 0 516.75 1038.33
  L 516.32 1036.77
  A 0.45 0.44 66.3 0 0 515.66 1036.51"
/>
<path stroke="#193124" vector-effect="non-scaling-stroke" d="
  M 368.22 1352.89
  Q 374.28 1352.98 381.75 1352.84
  Q 383.61 1352.80 385.39 1352.18
  A 0.75 0.74 -77.4 0 0 385.70 1351.98
  Q 447.41 1290.63 504.58 1233.23
  Q 506.83 1230.98 507.53 1230.39
  Q 509.84 1228.47 511.45 1225.84
  A 1.18 1.18 0.0 0 0 511.27 1224.38
  Q 462.55 1175.55 416.06 1128.19
  Q 414.99 1127.10 410.84 1123.55
  A 1.40 1.40 0.0 0 0 409.98 1123.21
  L 404.34 1123.00
  A 1.44 1.44 0.0 0 0 402.87 1124.21
  L 367.32 1351.83
  A 0.92 0.92 0.0 0 0 368.22 1352.89"
/>
<path stroke="#193124" vector-effect="non-scaling-stroke" d="
  M 441.73 1123.95
  Q 441.04 1124.35 441.56 1125.20
  Q 442.20 1126.27 443.02 1127.06
  C 452.05 1135.79 461.17 1145.52 469.39 1153.59
  C 482.37 1166.34 490.59 1174.93 501.47 1185.49
  Q 509.25 1193.03 510.79 1194.94
  A 1.66 1.60 86.7 0 0 511.19 1195.31
  L 516.24 1198.74
  A 0.36 0.35 17.3 0 0 516.80 1198.45
  L 516.80 1124.33
  A 1.20 1.20 0.0 0 0 515.60 1123.13
  L 443.68 1123.13
  A 2.50 2.44 26.2 0 0 442.21 1123.61
  L 441.73 1123.95"
/>
<path stroke="#193124" vector-effect="non-scaling-stroke" d="
  M 612.91 1125.33
  A 1.77 1.77 0.0 0 0 611.20 1123.11
  L 539.23 1123.11
  A 1.76 1.75 0.3 0 0 537.47 1124.84
  C 537.35 1133.72 537.50 1142.49 537.25 1151.04
  Q 536.56 1174.57 537.13 1199.85
  A 0.98 0.98 0.0 0 0 538.64 1200.66
  Q 541.75 1198.67 544.34 1195.58
  Q 547.84 1191.39 555.87 1183.45
  C 565.66 1173.77 573.62 1165.27 582.68 1156.37
  C 591.88 1147.34 601.66 1137.21 612.28 1126.78
  A 1.72 1.70 75.5 0 0 612.72 1126.02
  L 612.91 1125.33"
/>
<path stroke="#193124" vector-effect="non-scaling-stroke" d="
  M 647.23 1330.21
  Q 648.43 1325.10 647.36 1318.43
  Q 646.81 1314.97 645.63 1302.50
  Q 644.06 1285.89 643.10 1274.49
  Q 641.71 1258.14 640.58 1248.77
  Q 639.87 1242.89 639.67 1238.20
  Q 639.39 1231.47 638.80 1227.63
  C 637.87 1221.60 637.87 1216.63 637.21 1211.22
  Q 635.70 1198.88 634.25 1180.72
  Q 633.43 1170.50 632.54 1162.30
  Q 630.93 1147.48 630.68 1143.89
  C 630.52 1141.50 629.88 1140.29 629.45 1138.58
  A 0.76 0.76 0.0 0 0 628.17 1138.22
  Q 603.13 1163.17 585.83 1181.09
  Q 584.56 1182.41 583.24 1183.74
  Q 563.71 1203.62 544.77 1222.76
  Q 542.09 1225.47 544.88 1228.08
  Q 549.08 1232.01 551.75 1234.75
  Q 578.98 1262.78 631.01 1315.43
  Q 642.90 1327.46 646.16 1330.62
  A 0.71 0.70 62.5 0 0 646.75 1330.81
  Q 647.14 1330.75 646.94 1330.54"
/>
</g>
<g fill="#010101">
<path d="
  M 566.94 351.13
  A 0.92 0.92 0.0 0 0 566.85 349.78
  Q 561.06 345.07 555.85 339.90
  Q 538.69 322.87 521.98 305.73
  A 3.20 3.19 -58.8 0 1 521.21 302.57
  Q 522.15 299.49 521.00 295.86
  C 519.89 292.37 519.65 290.68 522.47 288.20
  Q 534.48 277.62 547.97 267.46
  Q 566.57 253.45 579.51 244.99
  Q 597.38 233.32 615.54 223.87
  C 622.03 220.49 629.98 217.32 637.05 214.80
  Q 644.12 212.28 650.36 211.19
  Q 655.00 210.38 658.10 212.86
  A 2.75 2.74 -81.5 0 1 658.95 214.01
  Q 661.23 219.81 660.37 226.53
  Q 658.03 244.78 649.84 263.88
  Q 638.52 290.26 623.18 312.94
  Q 595.92 353.24 559.83 387.08
  C 528.64 416.33 495.36 443.33 458.40 463.14
  Q 443.91 470.90 426.74 476.43
  C 415.05 480.19 403.31 481.48 392.14 479.82
  C 383.28 478.51 375.52 472.99 377.41 462.98
  C 378.02 459.76 378.96 456.37 380.06 453.71
  Q 384.90 442.06 390.41 432.90
  Q 401.22 414.91 412.65 399.64
  Q 440.04 363.06 473.09 331.83
  C 475.82 329.24 478.56 330.08 481.34 330.76
  C 484.31 331.48 487.71 331.10 490.75 330.33
  C 492.61 329.86 493.68 330.32 494.86 332.02
  Q 509.92 353.69 521.03 369.48
  Q 525.16 375.34 529.61 381.16
  Q 531.46 383.57 533.71 381.75
  Q 551.18 367.58 566.94 351.13
  Z"
/>
<path d="
  M 657.49 883.63
  L 685.56 1102.45
  A 1.31 1.31 0.0 0 1 684.29 1103.92
  Q 669.45 1104.19 650.97 1103.99
  Q 648.47 1103.96 648.38 1102.08
  Q 648.18 1097.45 647.52 1093.27
  C 647.04 1090.20 647.33 1087.21 646.60 1084.06
  Q 646.23 1082.48 646.10 1080.40
  Q 645.50 1071.07 644.35 1062.12
  C 643.89 1058.60 644.08 1054.83 643.27 1051.10
  A 4.83 4.72 38.6 0 1 643.15 1050.13
  Q 643.07 1046.16 642.62 1043.79
  Q 641.74 1039.18 641.78 1037.51
  Q 641.80 1035.95 640.87 1022.68
  C 640.75 1020.99 639.95 1018.50 640.16 1016.83
  Q 640.39 1015.06 639.18 1004.24
  Q 638.64 999.44 637.00 976.29
  C 636.82 973.64 636.28 970.52 636.09 967.07
  Q 635.79 961.44 634.94 955.92
  Q 633.97 949.58 633.66 944.86
  Q 633.04 935.44 632.99 933.75
  Q 632.87 929.89 632.28 927.45
  A 1.22 0.09 85.6 0 0 632.26 927.32
  L 630.65 906.95
  A 3.30 3.29 68.7 0 1 631.89 904.10
  Q 643.45 895.00 655.73 883.01
  A 1.05 1.04 64.2 0 1 657.49 883.63
  Z
  M 684.76 1102.52
  Q 684.22 1100.07 683.51 1094.98
  Q 682.08 1084.76 677.73 1051.75
  C 677.56 1050.47 677.05 1049.21 677.06 1047.90
  Q 677.09 1045.04 676.46 1042.57
  C 675.85 1040.22 676.25 1037.91 675.69 1035.80
  Q 674.96 1033.03 674.98 1030.78
  C 674.99 1028.78 673.97 1026.24 674.04 1023.89
  Q 674.12 1021.11 673.34 1018.42
  A 5.48 5.33 37.1 0 1 673.14 1017.12
  Q 673.02 1012.37 671.65 1004.12
  C 671.08 1000.67 671.03 997.24 670.27 994.59
  A 5.70 5.40 39.4 0 1 670.05 992.85
  Q 670.15 989.61 669.28 986.37
  A 6.46 6.44 38.6 0 1 669.07 984.52
  Q 669.17 981.12 668.52 978.48
  C 667.91 976.02 668.32 973.55 667.81 971.56
  Q 667.21 969.22 667.03 966.38
  Q 666.86 963.58 665.23 952.92
  A 5.71 4.55 46.7 0 1 665.16 952.07
  Q 665.14 948.99 664.78 947.78
  C 663.79 944.51 664.29 941.47 663.62 938.19
  C 662.60 933.14 662.27 925.95 661.54 923.06
  C 660.89 920.49 661.27 917.46 660.77 915.19
  Q 660.30 913.06 659.92 909.81
  Q 659.30 904.60 658.46 898.84
  C 657.99 895.62 658.14 892.82 657.29 889.99
  A 5.20 5.05 -55.5 0 1 657.08 888.76
  L 656.91 883.59
  A 0.31 0.31 0.0 0 0 656.38 883.39
  Q 647.51 892.52 636.66 901.40
  Q 632.58 904.74 631.70 905.81
  A 0.94 0.93 62.9 0 0 631.49 906.48
  L 633.26 927.03
  A 1.33 0.69 -72.5 0 0 633.29 927.20
  C 634.28 930.72 633.89 934.44 634.66 938.64
  A 16.37 15.78 -51.1 0 1 634.94 941.84
  Q 634.89 947.01 635.65 950.68
  A 12.06 11.76 40.0 0 1 635.90 953.20
  Q 635.88 958.23 636.72 962.22
  A 10.57 10.38 40.1 0 1 636.94 964.54
  Q 636.89 968.29 637.65 971.82
  A 13.24 12.88 -51.3 0 1 637.93 974.70
  Q 637.84 979.56 638.50 983.37
  C 639.18 987.30 638.85 991.73 639.46 995.44
  C 640.14 999.63 639.77 1003.27 640.60 1007.50
  C 641.46 1011.88 640.87 1015.17 641.64 1019.56
  Q 642.02 1021.75 642.06 1025.41
  A 9.06 8.85 -52.5 0 0 642.29 1027.34
  C 643.20 1031.24 642.72 1035.85 643.61 1039.79
  C 644.28 1042.77 644.00 1048.38 644.78 1052.44
  Q 644.89 1052.97 645.13 1058.40
  C 645.20 1059.94 645.69 1061.31 645.77 1062.76
  Q 646.24 1071.14 647.56 1082.85
  C 648.04 1087.04 647.64 1091.46 648.72 1094.97
  A 0.01 0.01 0.0 0 1 648.73 1094.98
  L 649.41 1102.53
  A 0.60 0.59 87.3 0 0 650.00 1103.08
  L 684.31 1103.08
  A 0.46 0.46 0.0 0 0 684.76 1102.52
  Z"
/>
<path d="
  M 609.25 918.13
  A 0.92 0.91 22.1 0 1 609.86 919.56
  C 607.30 923.20 603.39 925.82 600.73 928.65
  C 595.76 933.94 591.06 938.19 586.49 943.03
  Q 580.47 949.39 577.94 951.91
  Q 562.37 967.38 546.50 983.75
  C 544.45 985.87 542.56 989.30 539.53 991.03
  A 1.00 1.00 0.0 0 1 538.04 990.16
  L 538.04 936.65
  A 1.26 1.25 87.2 0 1 539.17 935.40
  Q 553.06 934.02 565.06 931.97
  Q 584.32 928.68 606.72 918.05
  A 1.68 1.67 36.1 0 1 607.71 917.90
  L 609.25 918.13
  Z
  M 608.76 918.97
  L 606.55 919.17
  A 1.04 0.87 23.7 0 0 606.27 919.25
  Q 592.21 925.94 582.19 928.87
  Q 561.34 934.96 539.66 936.09
  A 0.73 0.73 0.0 0 0 538.96 936.82
  L 538.96 989.59
  A 0.35 0.35 0.0 0 0 539.54 989.85
  C 542.33 987.42 544.82 984.07 547.96 980.85
  Q 581.14 946.82 602.66 925.41
  Q 606.29 921.80 608.99 919.52
  A 0.31 0.31 0.0 0 0 608.76 918.97
  Z"
/>
<path d="
  M 515.47 989.03
  Q 515.62 988.97 515.74 988.90
  A 0.38 0.37 -15.8 0 0 515.92 988.58
  L 515.92 936.78
  A 0.54 0.54 0.0 0 0 515.41 936.24
  Q 497.06 935.11 482.37 931.62
  Q 465.73 927.67 448.47 919.74
  Q 449.39 919.43 450.27 919.78
  Q 465.22 925.76 479.13 929.82
  Q 481.72 930.57 489.68 932.20
  C 495.90 933.47 504.36 933.96 510.41 935.04
  A 0.45 0.33 -27.3 0 0 510.54 935.06
  L 515.78 935.10
  A 1.31 1.31 0.0 0 1 517.08 936.42
  Q 516.87 963.80 516.89 988.13
  Q 516.89 989.23 515.87 989.43
  Q 515.68 989.47 515.47 989.03
  Z"
/>
<path d="
  M 515.47 989.03
  Q 513.29 988.04 511.87 986.63
  Q 486.05 961.08 458.27 932.22
  Q 455.68 929.54 455.11 928.78
  A 3.48 3.43 -89.6 0 0 454.46 928.11
  C 452.35 926.45 448.18 923.05 447.23 920.26
  L 515.47 989.03
  Z"
/>
<path d="
  M 434.02 936.58
  L 509.55 1012.90
  A 1.61 1.61 0.0 0 1 509.54 1015.17
  L 420.31 1103.48
  A 1.61 1.61 0.0 0 1 419.18 1103.95
  L 407.91 1103.95
  A 1.61 1.61 0.0 0 1 406.32 1102.10
  L 431.28 937.47
  A 1.61 1.61 0.0 0 1 434.02 936.58
  Z
  M 433.13 936.98
  A 0.41 0.41 0.0 0 0 432.44 937.21
  L 407.37 1102.55
  A 0.41 0.41 0.0 0 0 407.78 1103.02
  L 419.22 1103.02
  A 0.41 0.41 0.0 0 0 419.51 1102.90
  L 509.06 1014.28
  A 0.41 0.41 0.0 0 0 509.06 1013.70
  L 433.13 936.98
  Z"
/>
<path d="
  M 611.19 946.57
  Q 612.09 950.08 612.21 951.50
  C 612.92 959.76 613.50 969.87 614.76 978.95
  C 615.59 984.88 615.56 991.60 616.33 997.33
  Q 617.37 1005.08 618.29 1016.44
  Q 619.73 1034.16 620.16 1038.42
  Q 621.66 1053.14 622.41 1060.37
  Q 623.61 1071.85 623.72 1075.12
  C 623.90 1080.47 625.11 1086.18 625.18 1091.69
  A 0.89 0.89 0.0 0 1 623.66 1092.34
  Q 600.53 1069.58 579.78 1047.97
  Q 562.10 1029.55 547.36 1014.92
  Q 545.31 1012.88 546.82 1010.61
  C 548.31 1008.37 552.13 1005.92 554.30 1003.67
  C 573.00 984.28 592.51 964.89 610.74 946.45
  A 0.27 0.27 0.0 0 1 611.19 946.57
  Z
  M 624.38 1091.75
  A 0.28 0.28 0.0 0 0 624.84 1091.46
  C 623.84 1088.55 624.32 1085.98 623.59 1083.27
  C 623.04 1081.23 623.15 1078.69 622.98 1077.15
  Q 622.11 1069.15 620.32 1051.58
  C 619.97 1048.15 619.98 1044.84 619.30 1041.26
  A 11.07 11.04 -50.9 0 1 619.09 1039.22
  Q 619.05 1034.42 618.61 1032.28
  C 617.70 1027.85 618.31 1023.28 617.31 1018.95
  A 9.83 9.57 -51.6 0 1 617.06 1016.51
  Q 617.14 1012.46 616.53 1008.97
  C 615.86 1005.17 616.30 1001.13 615.31 997.46
  A 7.10 6.80 -54.1 0 1 615.07 995.72
  Q 615.05 991.26 614.26 987.48
  A 9.36 9.02 -51.4 0 1 614.07 985.43
  Q 614.12 981.59 613.32 977.88
  A 6.21 6.12 -51.3 0 1 613.17 976.44
  C 613.22 971.58 612.17 966.63 611.99 961.60
  Q 611.81 956.89 610.78 947.90
  A 0.37 0.36 -30.2 0 0 610.12 947.73
  Q 608.42 950.07 607.75 950.75
  Q 553.00 1006.32 552.18 1007.10
  A 1.45 0.49 -22.1 0 1 552.05 1007.20
  Q 549.65 1008.75 546.79 1012.17
  A 0.93 0.93 0.0 0 0 546.85 1013.42
  L 624.38 1091.75
  Z"
/>
<path d="
  M 603.93 1102.13
  L 539.67 1036.11
  A 0.53 0.52 22.9 0 0 538.77 1036.47
  L 538.77 1102.73
  A 0.35 0.34 0.0 0 0 539.12 1103.07
  L 603.94 1103.07
  A 0.24 0.23 4.1 0 0 604.18 1102.87
  Q 604.20 1102.75 604.18 1102.59
  Q 605.36 1102.76 605.71 1103.32
  A 0.39 0.38 73.6 0 1 605.39 1103.91
  Q 568.72 1104.31 543.89 1104.11
  Q 541.66 1104.09 538.90 1103.75
  A 1.22 1.21 2.8 0 1 537.83 1102.58
  Q 537.24 1084.77 537.59 1071.19
  Q 537.83 1062.17 537.76 1056.36
  Q 537.63 1043.79 537.79 1041.50
  Q 538.04 1037.99 538.36 1036.46
  A 1.16 1.16 0.0 0 1 540.29 1035.84
  C 549.28 1044.27 559.08 1054.98 567.27 1063.34
  Q 579.45 1075.78 599.96 1097.04
  Q 602.96 1100.15 603.93 1102.13
  Z"
/>
<path d="
  M 516.32 1036.77
  L 516.75 1038.33
  A 5.99 5.94 -52.9 0 1 516.96 1039.90
  L 516.73 1103.10
  A 0.69 0.69 0.0 0 1 516.08 1103.79
  Q 508.02 1104.18 491.27 1104.13
  Q 491.23 1104.13 457.77 1103.95
  Q 454.56 1103.94 451.57 1103.65
  Q 451.03 1103.60 450.38 1103.83
  Q 449.84 1104.02 449.60 1103.81
  A 0.46 0.45 42.1 0 1 449.56 1103.14
  Q 458.16 1093.97 465.08 1086.83
  Q 481.55 1069.82 513.06 1038.31
  Q 513.59 1037.79 515.66 1036.51
  A 0.45 0.44 66.3 0 1 516.32 1036.77
  Z
  M 515.56 1103.09
  A 0.30 0.30 0.0 0 0 515.86 1102.79
  L 515.86 1037.42
  A 0.30 0.30 0.0 0 0 515.35 1037.21
  L 450.92 1102.58
  A 0.30 0.30 0.0 0 0 451.14 1103.09
  L 515.56 1103.09
  Z"
/>
<path d="
  M 368.22 1352.89
  A 0.92 0.92 0.0 0 1 367.32 1351.83
  L 402.87 1124.21
  A 1.44 1.44 0.0 0 1 404.34 1123.00
  L 409.98 1123.21
  A 1.40 1.40 0.0 0 1 410.84 1123.55
  Q 414.99 1127.10 416.06 1128.19
  Q 462.55 1175.55 511.27 1224.38
  A 1.18 1.18 0.0 0 1 511.45 1225.84
  Q 509.84 1228.47 507.53 1230.39
  Q 506.83 1230.98 504.58 1233.23
  Q 447.41 1290.63 385.70 1351.98
  A 0.75 0.74 -77.4 0 1 385.39 1352.18
  Q 383.61 1352.80 381.75 1352.84
  Q 374.28 1352.98 368.22 1352.89
  Z
  M 510.73 1225.43
  L 411.02 1124.69
  A 2.08 2.08 0.0 0 0 409.54 1124.07
  L 405.02 1124.07
  A 1.72 1.71 1.4 0 0 403.30 1125.70
  Q 403.08 1129.94 402.32 1132.49
  C 401.81 1134.22 402.20 1136.22 401.82 1137.69
  Q 401.29 1139.73 401.12 1141.10
  Q 400.20 1148.99 398.44 1158.16
  C 398.03 1160.30 398.18 1162.81 397.53 1164.36
  C 396.81 1166.04 396.97 1168.87 396.55 1171.55
  Q 391.36 1204.65 387.92 1227.20
  C 387.68 1228.80 387.01 1230.20 387.09 1231.39
  Q 387.17 1232.68 386.84 1234.58
  Q 384.77 1246.43 381.44 1268.30
  Q 381.00 1271.17 380.93 1272.27
  C 380.77 1274.74 379.93 1276.81 379.95 1279.66
  A 6.71 6.71 0.0 0 1 379.84 1280.87
  Q 378.52 1287.75 376.23 1303.28
  Q 375.36 1309.17 374.31 1315.05
  Q 373.36 1320.42 372.23 1325.96
  Q 371.93 1327.45 371.99 1328.54
  C 372.10 1330.56 371.38 1332.30 371.12 1334.11
  Q 369.94 1342.11 368.05 1351.25
  A 0.50 0.50 0.0 0 0 368.54 1351.86
  L 383.99 1351.86
  A 1.47 1.44 -67.1 0 0 385.02 1351.43
  L 510.72 1225.72
  A 0.21 0.20 -45.0 0 0 510.73 1225.43
  Z"
/>
<path d="
  M 441.73 1123.95
  Q 442.40 1125.01 443.71 1126.30
  Q 451.06 1133.52 463.62 1146.13
  Q 500.00 1182.65 513.78 1196.47
  Q 514.44 1197.14 515.43 1197.62
  A 0.23 0.23 0.0 0 0 515.76 1197.41
  L 515.76 1124.64
  A 0.49 0.49 0.0 0 0 515.27 1124.15
  L 441.73 1123.95
  L 442.21 1123.61
  A 2.50 2.44 26.2 0 1 443.68 1123.13
  L 515.60 1123.13
  A 1.20 1.20 0.0 0 1 516.80 1124.33
  L 516.80 1198.45
  A 0.36 0.35 17.3 0 1 516.24 1198.74
  L 511.19 1195.31
  A 1.66 1.60 86.7 0 1 510.79 1194.94
  Q 509.25 1193.03 501.47 1185.49
  C 490.59 1174.93 482.37 1166.34 469.39 1153.59
  C 461.17 1145.52 452.05 1135.79 443.02 1127.06
  Q 442.20 1126.27 441.56 1125.20
  Q 441.04 1124.35 441.73 1123.95
  Z"
/>
<path d="
  M 612.91 1125.33
  L 612.72 1126.02
  A 1.72 1.70 75.5 0 1 612.28 1126.78
  C 601.66 1137.21 591.88 1147.34 582.68 1156.37
  C 573.62 1165.27 565.66 1173.77 555.87 1183.45
  Q 547.84 1191.39 544.34 1195.58
  Q 541.75 1198.67 538.64 1200.66
  A 0.98 0.98 0.0 0 1 537.13 1199.85
  Q 536.56 1174.57 537.25 1151.04
  C 537.50 1142.49 537.35 1133.72 537.47 1124.84
  A 1.76 1.75 0.3 0 1 539.23 1123.11
  L 611.20 1123.11
  A 1.77 1.77 0.0 0 1 612.91 1125.33
  Z
  M 539.03 1124.19
  A 0.33 0.33 0.0 0 0 538.70 1124.52
  L 538.04 1199.40
  A 0.33 0.33 0.0 0 0 538.60 1199.64
  L 612.43 1124.75
  A 0.33 0.33 0.0 0 0 612.19 1124.19
  L 539.03 1124.19
  Z"
/>
<path d="
  M 647.23 1330.21
  L 629.30 1139.10
  A 0.36 0.36 0.0 0 0 628.68 1138.88
  L 544.00 1224.78
  A 0.57 0.56 -45.4 0 0 544.00 1225.57
  L 646.94 1330.54
  Q 647.14 1330.75 646.75 1330.81
  A 0.71 0.70 62.5 0 1 646.16 1330.62
  Q 642.90 1327.46 631.01 1315.43
  Q 578.98 1262.78 551.75 1234.75
  Q 549.08 1232.01 544.88 1228.08
  Q 542.09 1225.47 544.77 1222.76
  Q 563.71 1203.62 583.24 1183.74
  Q 584.56 1182.41 585.83 1181.09
  Q 603.13 1163.17 628.17 1138.22
  A 0.76 0.76 0.0 0 1 629.45 1138.58
  C 629.88 1140.29 630.52 1141.50 630.68 1143.89
  Q 630.93 1147.48 632.54 1162.30
  Q 633.43 1170.50 634.25 1180.72
  Q 635.70 1198.88 637.21 1211.22
  C 637.87 1216.63 637.87 1221.60 638.80 1227.63
  Q 639.39 1231.47 639.67 1238.20
  Q 639.87 1242.89 640.58 1248.77
  Q 641.71 1258.14 643.10 1274.49
  Q 644.06 1285.89 645.63 1302.50
  Q 646.81 1314.97 647.36 1318.43
  Q 648.43 1325.10 647.23 1330.21
  Z"
/>
</g>
<g fill="#3e6f54">
<path d="
  M 570.49 523.14
  L 500.52 523.14
  A 0.91 0.90 6.3 0 1 499.63 522.04
  Q 503.81 502.92 508.82 486.24
  A 2.59 2.58 3.3 0 1 510.84 484.45
  C 526.74 481.65 541.00 475.04 554.50 466.26
  A 0.88 0.88 0.0 0 1 555.82 466.74
  Q 560.83 482.92 567.81 508.17
  Q 569.63 514.75 571.06 522.45
  A 0.58 0.58 0.0 0 1 570.49 523.14
  Z"
/>
<path d="
  M 366.78 597.89
  A 0.32 0.32 0.0 0 1 366.75 597.26
  Q 371.27 596.49 376.24 594.00
  C 385.52 589.35 400.60 581.52 412.57 576.12
  C 422.89 571.46 431.20 566.85 443.27 561.16
  Q 450.91 557.56 472.42 547.42
  C 475.88 545.78 480.31 545.77 484.61 545.77
  Q 531.63 545.81 580.25 545.77
  Q 585.14 545.77 589.01 546.44
  Q 591.19 546.82 599.19 551.10
  C 619.03 561.72 630.04 568.03 645.42 575.73
  C 651.47 578.75 658.36 582.91 665.39 586.50
  Q 675.27 591.54 686.01 597.78
  A 0.37 0.36 60.0 0 1 685.83 598.46
  Q 676.37 598.46 396.96 598.44
  C 386.61 598.44 375.31 598.68 366.78 597.89
  Z"
/>
<path d="
  M 702.82 781.05
  A 1.80 1.80 0.0 0 1 701.02 782.85
  L 353.92 782.85
  A 1.80 1.80 0.0 0 1 352.12 781.05
  L 352.12 626.33
  A 1.80 1.80 0.0 0 1 353.92 624.53
  L 701.02 624.53
  A 1.80 1.80 0.0 0 1 702.82 626.33
  L 702.82 781.05
  Z"
/>
<rect x="336.80" y="804.87" width="48.24" height="37.26" rx="1.25"/>
<rect x="408.92" y="804.76" width="111.04" height="38.02" rx="0.76"/>
<rect x="541.80" y="804.77" width="108.36" height="37.90" rx="0.90"/>
<rect x="673.31" y="804.77" width="45.96" height="37.46" rx="1.05"/>
<path d="
  M 648.16 865.98
  A 0.43 0.43 0.0 0 1 648.46 866.71
  Q 643.91 871.15 636.14 877.80
  C 618.84 892.59 598.08 903.50 576.56 910.28
  Q 571.00 912.04 565.29 913.02
  C 552.62 915.20 547.70 916.37 539.72 916.54
  A 0.58 0.58 0.0 0 1 539.13 916.04
  Q 538.78 913.59 538.81 912.72
  Q 539.67 889.98 540.84 866.22
  A 0.26 0.25 1.1 0 1 541.10 865.98
  L 648.16 865.98
  Z"
/>
<path d="
  M 402.76 866.67
  A 0.40 0.40 0.0 0 1 403.06 866.00
  L 518.27 866.00
  A 0.60 0.60 0.0 0 1 518.87 866.63
  L 517.05 915.89
  A 0.76 0.76 0.0 0 1 516.27 916.63
  C 508.53 916.47 501.64 915.12 492.48 913.42
  Q 483.18 911.69 476.23 909.32
  C 454.47 901.93 434.29 892.29 416.06 878.43
  Q 408.20 872.46 402.76 866.67
  Z"
/>
</g>
<path fill="#e5e4c3" d="
  M 567.45 349.10
  C 563.90 346.24 559.52 342.22 555.32 338.01
  Q 531.22 313.91 526.87 309.50
  Q 524.19 306.79 522.75 305.05
  A 2.81 2.80 -60.8 0 1 522.13 302.85
  L 522.68 299.24
  A 2.83 2.80 42.3 0 0 522.62 298.09
  C 521.72 294.57 520.28 291.68 522.92 289.15
  Q 526.81 285.41 534.76 279.01
  C 561.22 257.70 587.90 239.12 617.23 224.26
  Q 630.92 217.32 649.22 212.40
  Q 649.59 212.30 652.45 212.20
  C 656.66 212.04 658.87 213.90 659.10 218.51
  Q 659.48 225.98 658.56 231.03
  Q 655.33 248.75 647.65 266.14
  Q 640.80 281.62 634.19 293.19
  C 605.85 342.81 564.01 384.97 519.62 420.87
  Q 497.14 439.04 472.22 454.19
  Q 447.61 469.16 421.81 476.79
  Q 409.41 480.46 391.28 478.55
  Q 389.78 478.39 384.99 476.29
  C 377.71 473.09 377.58 466.57 379.38 459.57
  Q 381.15 452.71 384.97 445.20
  Q 390.73 433.86 396.83 424.34
  Q 406.57 409.13 414.95 398.19
  C 433.19 374.37 452.75 352.20 473.89 332.40
  C 475.09 331.27 476.47 330.77 478.19 331.16
  Q 485.28 332.77 491.96 331.03
  A 1.35 1.34 -24.3 0 1 493.40 331.57
  Q 511.81 358.36 527.93 380.56
  Q 529.06 382.12 530.51 383.24
  A 2.26 2.26 0.0 0 0 533.31 383.21
  Q 552.17 368.05 567.63 351.66
  A 1.75 1.75 0.0 0 0 567.45 349.10
  Z"
/>
<g fill="#010101">
<path d="
  M 420.18 691.99
  A 0.34 0.34 0.0 0 0 420.81 692.16
  L 445.22 652.04
  A 3.87 3.84 -76.4 0 1 448.22 650.19
  Q 457.83 649.42 470.01 650.17
  A 1.91 1.90 64.2 0 1 471.01 650.52
  C 473.30 652.17 470.25 656.31 468.84 658.58
  Q 460.78 671.51 445.04 697.55
  C 443.39 700.28 444.23 701.14 445.71 704.14
  Q 461.24 735.61 474.64 764.23
  A 2.94 2.93 -29.7 0 1 473.63 767.90
  Q 472.41 768.74 469.75 768.80
  Q 458.00 769.08 449.19 768.83
  A 3.12 3.11 78.0 0 1 446.46 767.05
  L 426.51 724.98
  A 0.59 0.59 0.0 0 0 425.48 724.91
  Q 422.89 728.90 421.63 731.14
  Q 420.22 733.64 420.21 736.50
  Q 420.11 758.13 420.19 763.53
  Q 420.25 768.47 415.31 768.77
  Q 405.48 769.36 396.66 768.68
  C 393.57 768.44 393.04 766.74 393.04 763.75
  Q 393.12 701.44 392.93 656.23
  Q 392.90 650.20 398.19 650.02
  Q 405.85 649.76 414.77 649.99
  C 420.73 650.14 420.15 654.05 420.15 659.16
  Q 420.15 682.07 420.18 691.99
  Z"
/>
<path d="
  M 543.81 710.55
  C 544.92 708.05 544.52 702.10 544.39 698.42
  Q 544.19 692.63 544.23 688.34
  Q 544.49 660.52 544.58 655.00
  C 544.64 651.28 546.42 650.45 549.89 650.15
  Q 556.93 649.52 567.25 650.28
  C 569.40 650.44 570.15 653.37 570.15 655.38
  Q 570.29 747.82 570.08 764.54
  C 570.03 768.95 566.12 768.83 562.04 768.99
  Q 554.07 769.30 545.99 768.78
  A 3.42 3.40 80.1 0 1 543.10 766.74
  L 515.10 702.37
  A 0.41 0.41 0.0 0 0 514.31 702.53
  Q 514.01 718.92 514.13 764.04
  Q 514.14 768.59 509.22 768.86
  Q 500.83 769.31 493.03 768.88
  Q 488.13 768.61 488.11 763.70
  Q 487.76 680.72 487.93 663.47
  Q 487.98 658.30 488.15 654.82
  A 3.15 3.01 56.2 0 1 488.28 654.08
  C 489.20 651.05 491.48 650.00 494.70 649.94
  Q 508.43 649.68 512.53 649.96
  Q 515.94 650.20 517.38 653.39
  Q 541.66 706.96 543.25 710.55
  A 0.31 0.31 0.0 0 0 543.81 710.55
  Z"
/>
<path d="
  M 642.45 711.49
  A 0.33 0.32 33.0 0 0 643.07 711.36
  Q 643.16 688.72 642.99 655.50
  C 642.96 650.82 646.44 649.87 650.76 649.83
  Q 659.57 649.75 663.97 649.98
  Q 668.17 650.19 668.82 654.62
  Q 669.08 656.35 669.09 663.00
  Q 669.22 740.36 669.09 760.87
  C 669.07 765.33 668.84 768.73 662.74 768.99
  Q 653.48 769.37 644.24 768.84
  C 641.73 768.69 641.14 766.71 639.97 764.04
  Q 624.02 727.53 614.02 705.15
  A 0.37 0.37 0.0 0 0 613.31 705.29
  Q 613.04 728.86 613.08 763.88
  Q 613.08 768.83 607.72 769.00
  Q 600.05 769.24 593.51 768.96
  Q 591.09 768.85 589.43 767.75
  A 3.41 3.37 17.0 0 1 587.91 764.93
  Q 587.71 691.71 587.94 655.00
  C 587.97 650.78 591.09 650.03 594.51 649.95
  Q 602.79 649.75 611.25 649.93
  C 613.85 649.99 614.94 651.00 616.02 653.36
  Q 627.16 677.52 642.45 711.49
  Z"
/>
</g>
<g fill="#e5e4c3">
<path d="
  M 419.45 696.64
  Q 430.40 677.82 445.29 653.79
  C 446.59 651.68 447.44 651.21 449.91 651.18
  Q 457.33 651.11 469.90 651.22
  A 1.14 1.14 0.0 0 1 470.92 652.87
  Q 469.23 656.24 467.21 659.45
  Q 456.89 675.91 443.80 697.78
  Q 442.51 699.94 443.84 702.67
  Q 457.91 731.40 474.02 765.32
  A 1.13 1.13 0.0 0 1 473.56 766.78
  Q 472.25 767.52 470.50 767.57
  Q 466.33 767.68 449.28 767.59
  A 2.20 2.19 77.6 0 1 447.31 766.33
  L 426.29 721.99
  A 0.27 0.27 0.0 0 0 425.80 721.99
  Q 424.35 725.08 420.73 730.50
  Q 419.08 732.99 419.07 737.01
  Q 419.06 744.72 419.12 763.55
  Q 419.13 767.35 416.02 767.48
  Q 406.25 767.87 396.53 767.48
  Q 394.02 767.38 394.02 765.00
  C 394.10 726.70 393.85 690.03 394.06 654.68
  C 394.07 652.64 395.17 651.48 396.99 651.39
  Q 405.63 650.93 416.01 651.28
  Q 419.16 651.39 419.14 654.73
  Q 419.02 675.18 419.19 691.30
  Q 419.22 694.18 419.21 694.20
  Q 418.82 695.44 419.00 696.56
  A 0.24 0.24 0.0 0 0 419.45 696.64
  Z"
/>
<path d="
  M 545.27 719.05
  A 0.24 0.24 0.0 0 0 545.74 718.96
  L 545.74 653.25
  A 2.03 2.02 -90.0 0 1 547.76 651.22
  L 566.69 651.22
  A 2.17 2.15 85.6 0 1 568.82 653.06
  Q 569.13 655.05 569.12 657.01
  Q 568.98 761.72 569.10 763.54
  Q 569.38 767.55 565.54 767.59
  Q 553.72 767.72 545.54 767.49
  A 1.51 1.51 0.0 0 1 544.20 766.58
  L 513.36 695.66
  A 0.15 0.15 0.0 0 0 513.07 695.72
  Q 512.99 711.37 513.16 763.51
  C 513.18 768.18 509.76 767.58 505.63 767.63
  Q 500.57 767.69 492.50 767.53
  Q 489.37 767.47 489.38 764.50
  Q 489.43 672.76 489.46 654.47
  A 2.94 2.93 -9.7 0 1 491.43 651.70
  Q 492.78 651.22 495.50 651.22
  Q 506.30 651.21 512.03 651.17
  Q 515.27 651.15 516.46 653.80
  Q 529.50 682.80 542.58 711.90
  C 543.73 714.46 544.33 716.74 545.27 719.05
  Z"
/>
<path d="
  M 612.41 698.26
  A 0.17 0.17 0.0 0 0 612.08 698.33
  Q 611.71 730.13 612.11 763.02
  C 612.15 766.35 611.37 767.58 607.97 767.60
  Q 596.28 767.68 592.26 767.52
  Q 588.91 767.39 588.92 764.00
  Q 588.97 743.19 588.91 654.75
  Q 588.91 651.69 592.13 651.38
  Q 595.49 651.05 611.44 651.20
  C 613.73 651.22 614.37 652.18 615.23 654.07
  Q 630.74 688.14 641.72 712.80
  Q 643.28 716.30 644.25 719.28
  A 0.28 0.28 0.0 0 0 644.80 719.18
  C 644.77 717.18 644.38 715.36 644.40 713.27
  Q 644.49 704.32 644.44 654.51
  Q 644.43 651.40 647.82 651.32
  Q 658.43 651.09 664.27 651.24
  Q 667.54 651.32 667.55 654.24
  Q 667.73 727.24 667.57 764.75
  Q 667.55 767.39 664.46 767.51
  Q 657.19 767.79 643.80 767.54
  A 1.98 1.97 78.6 0 1 642.02 766.35
  L 612.41 698.26
  Z"
/>
</g>
</svg>
