<?xml version="1.0" encoding="UTF-8" standalone="no"?>
<!DOCTYPE svg PUBLIC "-//W3C//DTD SVG 1.1//EN" "http://www.w3.org/Graphics/SVG/1.1/DTD/svg11.dtd">
<svg xmlns="http://www.w3.org/2000/svg" version="1.1" viewBox="0.00 0.00 1024.00 1536.00">
<g stroke-width="0.70" fill="none" stroke-linecap="butt">
<path stroke="#173126" vector-effect="non-scaling-stroke" d="
  M 533.91 1293.25
  Q 536.94 1294.90 539.50 1297.50
  Q 549.01 1307.17 558.64 1316.62
  C 568.09 1325.89 577.37 1335.37 586.81 1344.70
  Q 631.16 1388.56 634.53 1391.89
  A 0.98 0.97 62.5 0 1 634.01 1393.55
  C 629.11 1394.36 624.50 1398.91 624.80 1404.25
  C 625.10 1409.61 628.42 1414.16 633.73 1414.15
  Q 658.99 1414.12 675.92 1414.18
  C 678.37 1414.19 680.60 1413.51 682.09 1411.73
  Q 687.32 1405.50 683.56 1397.63
  Q 682.32 1395.03 678.90 1393.53
  C 676.42 1392.45 672.19 1393.03 670.06 1392.87
  A 0.86 0.86 0.0 0 1 669.31 1392.26
  Q 668.23 1388.52 668.20 1388.01
  Q 667.82 1379.10 666.49 1371.21
  C 665.88 1367.60 666.07 1364.37 665.79 1361.30
  Q 665.07 1353.48 662.89 1332.08
  C 662.74 1330.62 662.18 1329.13 662.11 1327.82
  Q 661.48 1316.57 660.68 1310.01
  Q 660.37 1307.54 660.37 1307.51
  Q 659.89 1300.50 658.34 1287.80
  C 657.95 1284.54 658.13 1280.45 657.78 1276.93
  Q 656.47 1263.53 655.36 1249.41
  C 655.06 1245.60 654.08 1241.83 653.92 1238.75
  C 653.54 1231.46 653.37 1227.64 652.53 1221.86
  Q 651.88 1217.36 651.78 1215.53
  Q 651.77 1215.27 650.57 1202.11
  Q 647.88 1172.50 647.25 1168.00
  Q 647.07 1166.70 647.33 1164.81
  A 0.76 0.75 3.4 0 1 648.08 1164.15
  L 683.83 1164.15
  A 1.74 1.73 -3.8 0 1 685.55 1165.65
  L 715.48 1392.26
  A 0.56 0.56 0.0 0 1 714.99 1392.89
  C 712.78 1393.19 708.63 1393.56 706.61 1394.67
  C 700.12 1398.22 700.16 1409.07 706.17 1413.06
  Q 707.88 1414.20 712.48 1414.18
  Q 732.74 1414.11 750.48 1414.15
  C 758.19 1414.17 761.33 1406.72 759.74 1400.03
  C 758.47 1394.72 752.85 1392.76 747.73 1392.85
  Q 746.26 1392.88 739.72 1392.86
  A 1.25 1.24 -6.0 0 1 738.50 1391.88
  Q 737.40 1386.60 736.60 1378.48
  Q 735.94 1371.76 735.02 1365.10
  Q 734.35 1360.22 731.02 1335.75
  C 730.69 1333.35 729.90 1331.58 730.03 1329.59
  Q 730.11 1328.38 729.64 1324.94
  Q 727.45 1308.90 724.69 1287.76
  Q 724.04 1282.77 724.04 1282.76
  Q 722.93 1271.71 718.88 1242.32
  Q 718.00 1235.90 717.59 1231.65
  Q 717.18 1227.45 716.11 1220.99
  Q 715.12 1215.07 711.02 1181.51
  C 710.79 1179.58 710.25 1177.66 710.05 1175.89
  Q 708.46 1161.52 706.28 1145.95
  Q 705.18 1138.08 704.91 1136.16
  Q 704.46 1132.98 703.79 1126.33
  C 703.34 1121.90 702.19 1117.17 701.85 1112.67
  Q 701.34 1105.93 700.60 1102.39
  Q 700.10 1100.03 700.05 1098.89
  Q 699.95 1096.73 699.93 1096.63
  Q 699.07 1091.78 698.17 1083.49
  C 697.53 1077.46 696.43 1070.56 695.93 1064.78
  Q 695.60 1060.91 694.98 1057.37
  Q 693.99 1051.68 693.84 1050.00
  Q 693.39 1045.01 691.37 1031.38
  C 690.02 1022.32 688.41 1005.39 686.55 995.37
  Q 686.19 993.40 686.02 991.30
  Q 685.70 987.25 685.70 987.21
  Q 685.13 983.09 685.11 982.60
  C 684.98 979.85 684.14 978.03 684.13 975.27
  Q 684.13 973.55 683.52 969.78
  Q 681.96 960.07 681.04 951.08
  C 680.77 948.44 680.15 946.41 680.18 944.30
  Q 680.22 942.52 679.80 939.19
  Q 675.51 905.13 674.68 897.55
  A 1.41 1.40 86.7 0 1 676.06 895.99
  Q 693.52 895.87 718.62 895.87
  Q 724.87 895.87 727.68 891.11
  Q 729.26 888.43 729.21 882.13
  Q 728.97 852.20 729.46 827.50
  Q 729.57 822.20 726.16 818.68
  C 723.55 815.98 719.38 816.57 715.95 816.70
  A 1.71 1.71 0.0 0 1 714.18 814.99
  L 714.18 662.74
  A 1.25 1.25 0.0 0 1 715.55 661.50
  C 718.03 661.74 720.88 661.51 723.20 661.30
  C 729.60 660.73 730.97 653.16 729.89 648.04
  Q 729.02 643.93 725.42 642.07
  Q 701.01 629.42 676.13 615.09
  Q 660.42 606.04 647.73 599.00
  Q 642.29 595.99 637.53 593.30
  Q 623.94 585.64 585.68 563.98
  A 1.95 1.93 5.4 0 1 584.81 562.94
  Q 581.19 552.33 577.69 541.30
  C 572.66 525.45 569.76 517.78 564.36 502.14
  Q 563.25 498.93 561.86 495.91
  A 1.57 1.56 -35.6 0 1 562.15 494.18
  C 565.60 490.56 569.66 487.64 573.35 484.05
  C 586.44 471.31 597.42 460.04 608.03 447.13
  Q 615.52 438.03 617.58 435.35
  Q 624.00 427.02 634.06 411.31
  Q 635.82 408.57 644.47 393.17
  C 655.60 373.33 664.20 351.83 670.31 330.32
  Q 679.01 299.69 679.99 268.52
  Q 680.46 253.33 677.47 239.30
  C 675.91 232.02 671.53 222.94 664.48 220.31
  C 656.24 217.23 644.96 219.51 636.88 222.41
  Q 616.10 229.88 596.83 241.84
  Q 567.94 259.77 544.24 278.48
  Q 527.90 291.39 509.54 306.58
  A 2.44 2.43 -44.9 0 1 506.43 306.58
  C 493.27 295.61 484.00 288.54 471.81 278.61
  Q 461.61 270.29 445.41 258.03
  C 441.34 254.95 436.65 252.03 432.98 250.09
  C 421.74 244.15 412.98 247.11 404.07 254.89
  Q 399.50 258.88 396.19 263.15
  Q 393.18 267.03 392.76 272.39
  C 392.45 276.39 392.60 280.77 394.38 284.63
  Q 397.80 292.06 402.09 297.40
  Q 412.76 310.70 412.81 310.76
  Q 428.10 328.43 444.59 344.13
  C 448.43 347.78 452.27 350.73 455.81 354.48
  A 1.10 1.09 24.3 0 1 456.12 355.29
  L 456.10 355.88"
/>
<path stroke="#173126" vector-effect="non-scaling-stroke" d="
  M 533.47 1292.80
  Q 533.15 1291.86 533.05 1291.87
  A 1.02 1.01 -2.5 0 0 532.12 1292.88
  L 532.05 1391.72
  A 1.08 1.08 0.0 0 0 533.07 1392.80
  C 536.28 1392.97 539.93 1392.40 542.82 1393.58
  Q 549.23 1396.20 549.24 1403.74
  C 549.24 1408.65 546.09 1414.30 540.58 1414.28
  Q 510.71 1414.18 498.41 1414.24
  A 4.61 4.53 -26.8 0 1 495.69 1413.37
  Q 489.59 1408.93 491.31 1400.46
  C 492.00 1397.00 495.35 1392.93 499.33 1392.85
  Q 503.49 1392.77 507.77 1392.90
  A 1.88 1.88 0.0 0 0 509.70 1391.02
  Q 509.67 1336.61 509.71 1311.50
  Q 509.74 1298.97 509.49 1292.75
  Q 509.44 1291.67 508.77 1290.64
  A 0.53 0.53 0.0 0 0 508.23 1290.40
  Q 507.80 1290.48 507.78 1290.72"
/>
<path stroke="#173126" vector-effect="non-scaling-stroke" d="
  M 506.32 1292.15
  Q 505.07 1292.83 504.07 1293.85
  Q 456.45 1342.33 408.81 1390.80
  Q 408.07 1391.55 407.24 1393.03"
/>
<path stroke="#173126" vector-effect="non-scaling-stroke" d="
  M 407.69 1394.07
  C 408.39 1394.84 409.42 1394.87 410.10 1395.24
  C 417.11 1399.08 416.70 1407.59 411.45 1412.69
  Q 409.91 1414.17 407.50 1414.16
  Q 374.41 1414.02 342.99 1414.16
  Q 337.76 1414.18 335.18 1410.18
  C 332.63 1406.23 334.10 1401.50 335.23 1396.24
  Q 335.63 1394.37 336.40 1389.69
  Q 337.15 1385.05 343.92 1340.42
  C 344.55 1336.21 345.29 1333.47 345.69 1329.99
  Q 346.20 1325.70 346.78 1322.10
  Q 348.95 1308.74 351.94 1288.73
  Q 362.48 1218.19 364.09 1208.25
  Q 368.27 1182.33 370.64 1165.59
  Q 371.62 1158.70 373.42 1147.45
  Q 374.74 1139.17 376.19 1129.28
  Q 394.30 1005.21 395.78 993.98
  Q 396.01 992.24 396.43 989.44
  Q 397.39 982.97 399.04 969.76
  Q 400.32 959.53 401.86 950.29
  Q 402.99 943.52 404.77 930.94
  A 3.03 3.03 0.0 0 0 403.69 928.17
  L 382.82 911.04
  A 0.41 0.41 0.0 0 0 382.16 911.27
  Q 381.97 912.23 381.58 913.08
  A 3.12 3.05 62.8 0 0 381.32 913.92
  Q 379.39 925.65 379.09 927.75
  Q 376.44 946.43 374.32 958.66
  Q 370.32 981.66 369.16 989.52
  Q 367.35 1001.69 363.42 1023.92
  Q 362.44 1029.49 360.98 1039.62
  Q 360.13 1045.56 358.54 1055.35
  Q 356.86 1065.72 354.68 1076.12
  Q 354.11 1078.84 354.00 1080.38
  C 353.83 1082.59 353.02 1084.49 353.13 1086.52
  Q 353.18 1087.58 353.04 1088.42
  Q 349.37 1110.31 349.23 1111.33
  Q 348.85 1114.14 347.15 1122.57
  Q 346.31 1126.69 345.39 1133.49
  Q 344.17 1142.46 343.83 1144.44
  Q 339.56 1169.71 337.73 1179.77
  C 337.24 1182.44 336.87 1186.21 336.47 1188.44
  Q 329.88 1225.20 321.31 1279.71
  Q 321.13 1280.79 320.50 1284.50
  Q 317.31 1303.24 313.36 1328.10
  Q 312.91 1330.94 312.87 1331.14
  C 310.03 1347.95 308.38 1356.79 306.07 1372.59
  Q 304.28 1384.87 302.90 1391.74
  A 0.96 0.96 0.0 0 0 303.93 1392.89
  C 309.19 1392.41 314.50 1393.62 316.23 1399.22
  Q 318.34 1406.03 314.72 1410.91
  Q 312.32 1414.14 308.50 1414.13
  Q 289.36 1414.05 271.94 1414.17
  Q 267.20 1414.20 265.57 1413.43
  Q 262.05 1411.75 260.87 1408.96
  C 257.98 1402.12 261.05 1393.28 269.55 1392.93
  Q 273.55 1392.76 278.88 1392.57
  A 0.60 0.58 -85.6 0 0 279.43 1392.09
  L 281.93 1378.73
  Q 281.93 1378.71 281.93 1378.69
  Q 282.01 1376.27 282.34 1374.28
  Q 292.74 1312.05 303.45 1244.68
  C 304.94 1235.27 306.72 1226.12 308.11 1217.10
  Q 309.65 1207.13 311.46 1196.40
  Q 324.50 1119.45 339.64 1027.24
  C 341.27 1017.33 343.05 1007.54 344.37 998.92
  Q 348.12 974.55 351.33 955.89
  C 351.72 953.63 351.84 950.97 352.16 949.07
  Q 359.17 908.14 360.59 899.68
  Q 360.65 899.32 360.76 896.96
  A 1.03 1.03 0.0 0 0 359.74 895.88
  Q 326.26 895.79 316.24 895.78
  Q 308.59 895.77 306.32 889.29
  A 3.47 3.28 33.9 0 1 306.12 888.41
  Q 305.86 885.33 305.87 881.90
  Q 305.93 862.95 305.84 826.92
  Q 305.83 822.51 306.94 820.86
  Q 309.30 817.39 312.35 816.77
  A 3.90 3.49 -48.2 0 1 312.89 816.71
  L 321.99 816.57
  A 0.67 0.66 -85.8 0 0 322.63 816.01
  Q 322.99 813.89 322.99 811.75
  Q 322.88 727.81 323.00 664.25
  Q 323.00 662.05 322.51 661.72
  Q 321.86 661.27 320.04 661.39
  C 314.19 661.75 307.53 662.13 305.48 655.34
  Q 302.45 645.30 311.04 640.61
  Q 321.36 634.97 328.50 631.04
  Q 339.30 625.09 409.19 587.99
  Q 447.04 567.90 455.45 564.00
  Q 458.23 562.71 459.43 558.96
  Q 463.23 547.13 466.56 536.24
  Q 466.80 535.45 466.44 534.80"
/>
<path stroke="#173126" vector-effect="non-scaling-stroke" d="
  M 466.54 534.08
  Q 466.83 533.76 466.68 533.31
  A 0.55 0.55 0.0 0 0 466.08 532.95
  C 463.17 533.43 460.31 534.73 457.27 535.56
  Q 451.25 537.20 446.97 538.39
  Q 438.01 540.86 426.02 542.02
  Q 406.32 543.92 386.11 539.90
  Q 375.95 537.88 363.75 531.47
  C 361.47 530.26 358.28 527.36 356.92 525.86
  C 351.36 519.74 350.24 510.78 351.17 502.88
  Q 351.78 497.78 355.48 489.48
  Q 361.06 477.02 367.81 465.80
  Q 383.56 439.67 402.16 416.40
  Q 420.45 393.52 441.10 371.85
  Q 447.75 364.87 455.60 357.60
  Q 456.09 357.15 455.72 356.48"
/>
</g>
<path fill="#2c614b" d="
  M 533.91 1293.25
  L 533.47 1292.80
  Q 533.15 1291.86 533.05 1291.87
  A 1.02 1.01 -2.5 0 0 532.12 1292.88
  L 532.05 1391.72
  A 1.08 1.08 0.0 0 0 533.07 1392.80
  C 536.28 1392.97 539.93 1392.40 542.82 1393.58
  Q 549.23 1396.20 549.24 1403.74
  C 549.24 1408.65 546.09 1414.30 540.58 1414.28
  Q 510.71 1414.18 498.41 1414.24
  A 4.61 4.53 -26.8 0 1 495.69 1413.37
  Q 489.59 1408.93 491.31 1400.46
  C 492.00 1397.00 495.35 1392.93 499.33 1392.85
  Q 503.49 1392.77 507.77 1392.90
  A 1.88 1.88 0.0 0 0 509.70 1391.02
  Q 509.67 1336.61 509.71 1311.50
  Q 509.74 1298.97 509.49 1292.75
  Q 509.44 1291.67 508.77 1290.64
  A 0.53 0.53 0.0 0 0 508.23 1290.40
  Q 507.80 1290.48 507.78 1290.72
  Q 507.04 1291.70 506.32 1292.15
  Q 505.07 1292.83 504.07 1293.85
  Q 456.45 1342.33 408.81 1390.80
  Q 408.07 1391.55 407.24 1393.03
  L 407.03 1393.51
  A 0.42 0.41 -75.5 0 0 407.36 1394.08
  Q 407.52 1394.10 407.69 1394.07
  C 408.39 1394.84 409.42 1394.87 410.10 1395.24
  C 417.11 1399.08 416.70 1407.59 411.45 1412.69
  Q 409.91 1414.17 407.50 1414.16
  Q 374.41 1414.02 342.99 1414.16
  Q 337.76 1414.18 335.18 1410.18
  C 332.63 1406.23 334.10 1401.50 335.23 1396.24
  Q 335.63 1394.37 336.40 1389.69
  Q 337.15 1385.05 343.92 1340.42
  C 344.55 1336.21 345.29 1333.47 345.69 1329.99
  Q 346.20 1325.70 346.78 1322.10
  Q 348.95 1308.74 351.94 1288.73
  Q 362.48 1218.19 364.09 1208.25
  Q 368.27 1182.33 370.64 1165.59
  Q 371.62 1158.70 373.42 1147.45
  Q 374.74 1139.17 376.19 1129.28
  Q 394.30 1005.21 395.78 993.98
  Q 396.01 992.24 396.43 989.44
  Q 397.39 982.97 399.04 969.76
  Q 400.32 959.53 401.86 950.29
  Q 402.99 943.52 404.77 930.94
  A 3.03 3.03 0.0 0 0 403.69 928.17
  L 382.82 911.04
  A 0.41 0.41 0.0 0 0 382.16 911.27
  Q 381.97 912.23 381.58 913.08
  A 3.12 3.05 62.8 0 0 381.32 913.92
  Q 379.39 925.65 379.09 927.75
  Q 376.44 946.43 374.32 958.66
  Q 370.32 981.66 369.16 989.52
  Q 367.35 1001.69 363.42 1023.92
  Q 362.44 1029.49 360.98 1039.62
  Q 360.13 1045.56 358.54 1055.35
  Q 356.86 1065.72 354.68 1076.12
  Q 354.11 1078.84 354.00 1080.38
  C 353.83 1082.59 353.02 1084.49 353.13 1086.52
  Q 353.18 1087.58 353.04 1088.42
  Q 349.37 1110.31 349.23 1111.33
  Q 348.85 1114.14 347.15 1122.57
  Q 346.31 1126.69 345.39 1133.49
  Q 344.17 1142.46 343.83 1144.44
  Q 339.56 1169.71 337.73 1179.77
  C 337.24 1182.44 336.87 1186.21 336.47 1188.44
  Q 329.88 1225.20 321.31 1279.71
  Q 321.13 1280.79 320.50 1284.50
  Q 317.31 1303.24 313.36 1328.10
  Q 312.91 1330.94 312.87 1331.14
  C 310.03 1347.95 308.38 1356.79 306.07 1372.59
  Q 304.28 1384.87 302.90 1391.74
  A 0.96 0.96 0.0 0 0 303.93 1392.89
  C 309.19 1392.41 314.50 1393.62 316.23 1399.22
  Q 318.34 1406.03 314.72 1410.91
  Q 312.32 1414.14 308.50 1414.13
  Q 289.36 1414.05 271.94 1414.17
  Q 267.20 1414.20 265.57 1413.43
  Q 262.05 1411.75 260.87 1408.96
  C 257.98 1402.12 261.05 1393.28 269.55 1392.93
  Q 273.55 1392.76 278.88 1392.57
  A 0.60 0.58 -85.6 0 0 279.43 1392.09
  L 281.93 1378.73
  Q 281.93 1378.71 281.93 1378.69
  Q 282.01 1376.27 282.34 1374.28
  Q 292.74 1312.05 303.45 1244.68
  C 304.94 1235.27 306.72 1226.12 308.11 1217.10
  Q 309.65 1207.13 311.46 1196.40
  Q 324.50 1119.45 339.64 1027.24
  C 341.27 1017.33 343.05 1007.54 344.37 998.92
  Q 348.12 974.55 351.33 955.89
  C 351.72 953.63 351.84 950.97 352.16 949.07
  Q 359.17 908.14 360.59 899.68
  Q 360.65 899.32 360.76 896.96
  A 1.03 1.03 0.0 0 0 359.74 895.88
  Q 326.26 895.79 316.24 895.78
  Q 308.59 895.77 306.32 889.29
  A 3.47 3.28 33.9 0 1 306.12 888.41
  Q 305.86 885.33 305.87 881.90
  Q 305.93 862.95 305.84 826.92
  Q 305.83 822.51 306.94 820.86
  Q 309.30 817.39 312.35 816.77
  A 3.90 3.49 -48.2 0 1 312.89 816.71
  L 321.99 816.57
  A 0.67 0.66 -85.8 0 0 322.63 816.01
  Q 322.99 813.89 322.99 811.75
  Q 322.88 727.81 323.00 664.25
  Q 323.00 662.05 322.51 661.72
  Q 321.86 661.27 320.04 661.39
  C 314.19 661.75 307.53 662.13 305.48 655.34
  Q 302.45 645.30 311.04 640.61
  Q 321.36 634.97 328.50 631.04
  Q 339.30 625.09 409.19 587.99
  Q 447.04 567.90 455.45 564.00
  Q 458.23 562.71 459.43 558.96
  Q 463.23 547.13 466.56 536.24
  Q 466.80 535.45 466.44 534.80
  L 466.54 534.08
  Q 466.83 533.76 466.68 533.31
  A 0.55 0.55 0.0 0 0 466.08 532.95
  C 463.17 533.43 460.31 534.73 457.27 535.56
  Q 451.25 537.20 446.97 538.39
  Q 438.01 540.86 426.02 542.02
  Q 406.32 543.92 386.11 539.90
  Q 375.95 537.88 363.75 531.47
  C 361.47 530.26 358.28 527.36 356.92 525.86
  C 351.36 519.74 350.24 510.78 351.17 502.88
  Q 351.78 497.78 355.48 489.48
  Q 361.06 477.02 367.81 465.80
  Q 383.56 439.67 402.16 416.40
  Q 420.45 393.52 441.10 371.85
  Q 447.75 364.87 455.60 357.60
  Q 456.09 357.15 455.72 356.48
  L 456.10 355.88
  L 456.12 355.29
  A 1.10 1.09 24.3 0 0 455.81 354.48
  C 452.27 350.73 448.43 347.78 444.59 344.13
  Q 428.10 328.43 412.81 310.76
  Q 412.76 310.70 402.09 297.40
  Q 397.80 292.06 394.38 284.63
  C 392.60 280.77 392.45 276.39 392.76 272.39
  Q 393.18 267.03 396.19 263.15
  Q 399.50 258.88 404.07 254.89
  C 412.98 247.11 421.74 244.15 432.98 250.09
  C 436.65 252.03 441.34 254.95 445.41 258.03
  Q 461.61 270.29 471.81 278.61
  C 484.00 288.54 493.27 295.61 506.43 306.58
  A 2.44 2.43 -44.9 0 0 509.54 306.58
  Q 527.90 291.39 544.24 278.48
  Q 567.94 259.77 596.83 241.84
  Q 616.10 229.88 636.88 222.41
  C 644.96 219.51 656.24 217.23 664.48 220.31
  C 671.53 222.94 675.91 232.02 677.47 239.30
  Q 680.46 253.33 679.99 268.52
  Q 679.01 299.69 670.31 330.32
  C 664.20 351.83 655.60 373.33 644.47 393.17
  Q 635.82 408.57 634.06 411.31
  Q 624.00 427.02 617.58 435.35
  Q 615.52 438.03 608.03 447.13
  C 597.42 460.04 586.44 471.31 573.35 484.05
  C 569.66 487.64 565.60 490.56 562.15 494.18
  A 1.57 1.56 -35.6 0 0 561.86 495.91
  Q 563.25 498.93 564.36 502.14
  C 569.76 517.78 572.66 525.45 577.69 541.30
  Q 581.19 552.33 584.81 562.94
  A 1.95 1.93 5.4 0 0 585.68 563.98
  Q 623.94 585.64 637.53 593.30
  Q 642.29 595.99 647.73 599.00
  Q 660.42 606.04 676.13 615.09
  Q 701.01 629.42 725.42 642.07
  Q 729.02 643.93 729.89 648.04
  C 730.97 653.16 729.60 660.73 723.20 661.30
  C 720.88 661.51 718.03 661.74 715.55 661.50
  A 1.25 1.25 0.0 0 0 714.18 662.74
  L 714.18 814.99
  A 1.71 1.71 0.0 0 0 715.95 816.70
  C 719.38 816.57 723.55 815.98 726.16 818.68
  Q 729.57 822.20 729.46 827.50
  Q 728.97 852.20 729.21 882.13
  Q 729.26 888.43 727.68 891.11
  Q 724.87 895.87 718.62 895.87
  Q 693.52 895.87 676.06 895.99
  A 1.41 1.40 86.7 0 0 674.68 897.55
  Q 675.51 905.13 679.80 939.19
  Q 680.22 942.52 680.18 944.30
  C 680.15 946.41 680.77 948.44 681.04 951.08
  Q 681.96 960.07 683.52 969.78
  Q 684.13 973.55 684.13 975.27
  C 684.14 978.03 684.98 979.85 685.11 982.60
  Q 685.13 983.09 685.70 987.21
  Q 685.70 987.25 686.02 991.30
  Q 686.19 993.40 686.55 995.37
  C 688.41 1005.39 690.02 1022.32 691.37 1031.38
  Q 693.39 1045.01 693.84 1050.00
  Q 693.99 1051.68 694.98 1057.37
  Q 695.60 1060.91 695.93 1064.78
  C 696.43 1070.56 697.53 1077.46 698.17 1083.49
  Q 699.07 1091.78 699.93 1096.63
  Q 699.95 1096.73 700.05 1098.89
  Q 700.10 1100.03 700.60 1102.39
  Q 701.34 1105.93 701.85 1112.67
  C 702.19 1117.17 703.34 1121.90 703.79 1126.33
  Q 704.46 1132.98 704.91 1136.16
  Q 705.18 1138.08 706.28 1145.95
  Q 708.46 1161.52 710.05 1175.89
  C 710.25 1177.66 710.79 1179.58 711.02 1181.51
  Q 715.12 1215.07 716.11 1220.99
  Q 717.18 1227.45 717.59 1231.65
  Q 718.00 1235.90 718.88 1242.32
  Q 722.93 1271.71 724.04 1282.76
  Q 724.04 1282.77 724.69 1287.76
  Q 727.45 1308.90 729.64 1324.94
  Q 730.11 1328.38 730.03 1329.59
  C 729.90 1331.58 730.69 1333.35 731.02 1335.75
  Q 734.35 1360.22 735.02 1365.10
  Q 735.94 1371.76 736.60 1378.48
  Q 737.40 1386.60 738.50 1391.88
  A 1.25 1.24 -6.0 0 0 739.72 1392.86
  Q 746.26 1392.88 747.73 1392.85
  C 752.85 1392.76 758.47 1394.72 759.74 1400.03
  C 761.33 1406.72 758.19 1414.17 750.48 1414.15
  Q 732.74 1414.11 712.48 1414.18
  Q 707.88 1414.20 706.17 1413.06
  C 700.16 1409.07 700.12 1398.22 706.61 1394.67
  C 708.63 1393.56 712.78 1393.19 714.99 1392.89
  A 0.56 0.56 0.0 0 0 715.48 1392.26
  L 685.55 1165.65
  A 1.74 1.73 -3.8 0 0 683.83 1164.15
  L 648.08 1164.15
  A 0.76 0.75 3.4 0 0 647.33 1164.81
  Q 647.07 1166.70 647.25 1168.00
  Q 647.88 1172.50 650.57 1202.11
  Q 651.77 1215.27 651.78 1215.53
  Q 651.88 1217.36 652.53 1221.86
  C 653.37 1227.64 653.54 1231.46 653.92 1238.75
  C 654.08 1241.83 655.06 1245.60 655.36 1249.41
  Q 656.47 1263.53 657.78 1276.93
  C 658.13 1280.45 657.95 1284.54 658.34 1287.80
  Q 659.89 1300.50 660.37 1307.51
  Q 660.37 1307.54 660.68 1310.01
  Q 661.48 1316.57 662.11 1327.82
  C 662.18 1329.13 662.74 1330.62 662.89 1332.08
  Q 665.07 1353.48 665.79 1361.30
  C 666.07 1364.37 665.88 1367.60 666.49 1371.21
  Q 667.82 1379.10 668.20 1388.01
  Q 668.23 1388.52 669.31 1392.26
  A 0.86 0.86 0.0 0 0 670.06 1392.87
  C 672.19 1393.03 676.42 1392.45 678.90 1393.53
  Q 682.32 1395.03 683.56 1397.63
  Q 687.32 1405.50 682.09 1411.73
  C 680.60 1413.51 678.37 1414.19 675.92 1414.18
  Q 658.99 1414.12 633.73 1414.15
  C 628.42 1414.16 625.10 1409.61 624.80 1404.25
  C 624.50 1398.91 629.11 1394.36 634.01 1393.55
  A 0.98 0.97 62.5 0 0 634.53 1391.89
  Q 631.16 1388.56 586.81 1344.70
  C 577.37 1335.37 568.09 1325.89 558.64 1316.62
  Q 549.01 1307.17 539.50 1297.50
  Q 536.94 1294.90 533.91 1293.25
  Z
  M 646.24 1145.03
  L 681.56 1145.03
  A 1.17 1.17 0.0 0 0 682.72 1143.70
  Q 677.40 1105.32 672.08 1062.99
  Q 670.92 1053.68 670.08 1048.50
  C 669.34 1043.87 668.99 1038.22 668.30 1033.03
  Q 666.74 1021.27 665.55 1011.38
  Q 664.56 1003.12 663.28 995.13
  C 662.97 993.22 663.21 991.05 662.92 989.51
  C 661.80 983.48 661.17 976.03 660.49 970.52
  Q 659.51 962.53 653.31 914.13
  C 653.11 912.60 652.28 911.90 652.13 910.49
  A 0.37 0.36 -22.8 0 0 651.53 910.25
  L 626.85 930.49
  A 2.02 2.00 -18.9 0 0 626.11 931.98
  Q 625.86 938.45 626.88 945.24
  Q 627.68 950.58 628.18 962.13
  C 628.24 963.44 628.65 965.56 628.82 966.57
  Q 629.32 969.65 630.06 983.85
  C 630.26 987.72 630.90 990.50 631.06 994.50
  Q 631.09 995.32 632.52 1010.25
  Q 633.91 1024.86 634.24 1029.98
  Q 634.33 1031.38 634.59 1032.63
  Q 634.97 1034.45 635.02 1035.25
  Q 635.48 1041.73 638.52 1074.51
  Q 640.02 1090.70 640.02 1092.52
  Q 640.02 1095.33 640.55 1098.41
  C 641.16 1101.95 640.86 1105.56 641.43 1109.19
  C 642.01 1112.95 641.82 1117.30 642.44 1121.38
  Q 643.92 1131.24 644.33 1140.64
  Q 644.42 1142.81 645.54 1144.64
  A 0.82 0.82 0.0 0 0 646.24 1145.03
  Z
  M 507.03 1031.39
  L 507.74 1032.10
  Q 507.80 1032.54 508.23 1032.41
  A 2.18 2.16 81.5 0 0 509.75 1030.33
  Q 509.70 993.86 509.65 965.16
  A 0.95 0.94 -85.4 0 0 508.86 964.22
  Q 503.96 963.43 498.63 963.22
  Q 492.13 962.96 488.44 962.18
  Q 483.05 961.03 479.44 960.56
  Q 476.04 960.12 470.48 958.67
  Q 459.38 955.78 449.10 951.96
  Q 447.25 951.28 439.12 947.57
  Q 434.13 945.29 428.91 943.71
  Q 428.16 943.70 427.43 943.10
  Q 425.55 946.81 425.92 950.59
  A 2.43 2.42 -69.4 0 0 426.56 952.01
  Q 431.46 957.24 437.14 962.61
  C 445.78 970.79 454.63 980.30 464.91 990.20
  C 473.81 998.78 482.89 1008.21 493.11 1018.14
  Q 499.65 1024.51 505.96 1030.81
  Q 506.45 1031.31 507.03 1031.39
  Z
  M 533.51 1024.25
  L 534.21 1023.77
  Q 534.83 1024.01 535.27 1023.57
  Q 542.13 1016.61 548.41 1009.99
  C 551.63 1006.59 554.34 1004.33 557.06 1001.29
  Q 559.84 998.18 563.36 994.60
  C 583.56 974.16 594.09 963.24 603.33 954.68
  A 2.94 2.93 -24.4 0 0 604.25 952.25
  L 603.61 945.51
  A 1.14 1.14 0.0 0 0 601.95 944.60
  Q 575.99 957.90 547.61 962.42
  C 543.87 963.01 538.18 962.81 534.96 964.02
  A 1.53 1.49 41.7 0 1 534.06 964.06
  Q 532.58 963.65 532.18 964.62
  A 0.84 0.68 61.0 0 0 532.13 964.90
  L 532.06 1025.27
  A 0.27 0.27 0.0 0 0 532.16 1025.48
  Q 532.80 1025.94 533.51 1024.25
  Z
  M 423.52 975.53
  A 0.37 0.36 -56.3 0 0 422.90 975.66
  Q 421.83 978.80 421.44 981.64
  Q 420.22 990.53 418.73 999.24
  Q 417.79 1004.78 416.11 1016.83
  Q 414.94 1025.30 413.35 1035.27
  Q 409.76 1057.81 409.48 1059.95
  Q 407.45 1075.58 405.94 1083.99
  Q 404.95 1089.50 404.92 1089.76
  Q 404.86 1090.31 402.66 1105.08
  Q 398.83 1130.86 397.97 1136.64
  C 397.60 1139.14 396.83 1141.18 397.23 1143.81
  A 1.26 1.25 85.7 0 0 398.47 1144.88
  Q 399.16 1144.87 406.13 1144.82
  Q 408.32 1144.80 409.93 1143.18
  Q 470.84 1081.95 496.39 1056.40
  A 0.01 0.01 0.0 0 0 496.40 1056.39
  L 499.40 1054.01
  A 0.66 0.65 -37.0 0 0 499.53 1053.11
  L 498.01 1051.04
  A 1.06 0.85 85.1 0 0 497.83 1050.85
  Q 494.00 1047.49 490.40 1043.85
  Q 466.16 1019.34 442.36 995.40
  Q 431.44 984.43 423.52 975.53
  Z
  M 605.29 979.98
  L 604.81 980.48
  Q 602.87 981.64 601.99 982.50
  C 597.72 986.63 590.02 994.34 584.00 1000.83
  Q 580.13 1005.00 576.28 1008.77
  Q 575.17 1009.86 568.83 1016.33
  Q 560.71 1024.63 534.30 1051.21
  A 1.39 1.38 44.9 0 0 534.31 1053.17
  C 565.01 1083.70 590.95 1108.81 616.48 1135.28
  Q 617.44 1136.28 619.18 1136.76
  L 620.08 1137.65
  A 0.41 0.41 0.0 0 0 620.77 1137.46
  Q 620.93 1136.82 620.32 1135.75
  Q 621.18 1136.13 621.19 1135.25
  C 621.25 1130.82 620.23 1125.35 619.90 1121.58
  Q 616.67 1085.26 615.05 1069.03
  Q 613.98 1058.34 613.07 1046.94
  Q 612.29 1037.19 611.09 1024.86
  Q 610.17 1015.43 609.89 1011.88
  C 609.14 1002.34 608.27 997.15 607.75 989.11
  Q 607.47 984.83 606.68 979.35
  A 0.49 0.49 0.0 0 0 605.93 979.01
  Q 605.38 979.36 605.29 979.98
  Z
  M 472.58 1107.78
  Q 447.25 1133.31 446.17 1134.42
  C 441.46 1139.23 438.99 1141.24 437.47 1144.14
  A 0.67 0.67 0.0 0 0 438.07 1145.12
  Q 485.89 1144.79 508.53 1144.69
  Q 509.05 1144.69 509.41 1144.33
  Q 509.77 1143.97 509.76 1143.45
  Q 509.69 1120.81 509.65 1072.99
  A 0.67 0.67 0.0 0 0 508.67 1072.40
  C 505.78 1073.94 503.79 1076.42 499.02 1081.17
  Q 497.92 1082.26 472.58 1107.78
  Z
  M 533.73 1080.13
  L 533.22 1079.49
  Q 532.87 1078.81 532.53 1078.94
  Q 532.07 1079.11 532.07 1079.61
  Q 532.09 1111.44 532.06 1141.89
  Q 532.06 1142.46 532.03 1142.97
  Q 531.90 1145.04 533.74 1145.02
  Q 550.97 1144.86 579.75 1145.11
  Q 590.66 1145.20 597.46 1144.81
  A 0.60 0.60 0.0 0 0 597.84 1143.77
  Q 597.63 1143.58 596.65 1142.53
  Q 584.83 1129.94 535.79 1080.96
  Q 534.82 1079.99 533.73 1080.13
  Z
  M 394.25 1164.59
  Q 393.09 1166.24 393.13 1169.92
  C 393.16 1172.61 391.80 1178.09 390.95 1184.50
  C 389.96 1191.98 387.70 1202.97 386.46 1213.49
  Q 385.92 1218.12 385.37 1220.97
  C 384.27 1226.76 383.93 1231.76 382.89 1238.09
  Q 380.91 1250.21 379.08 1262.02
  Q 377.88 1269.78 377.31 1276.03
  Q 376.71 1282.52 375.67 1287.89
  Q 375.15 1290.52 373.70 1299.73
  Q 370.22 1321.84 364.22 1360.54
  C 363.85 1362.87 363.29 1364.43 363.14 1366.36
  Q 362.96 1368.78 362.84 1369.64
  Q 361.14 1381.70 359.38 1391.58
  A 1.16 1.16 0.0 0 0 360.52 1392.94
  Q 367.67 1392.99 375.97 1392.84
  Q 378.25 1392.80 379.38 1391.62
  C 386.70 1383.94 397.23 1373.84 404.15 1366.74
  Q 443.17 1326.63 495.86 1273.87
  Q 500.34 1269.38 505.27 1264.72
  A 1.34 1.33 46.0 0 0 505.30 1262.80
  L 407.50 1165.00
  A 2.87 2.87 0.0 0 0 405.47 1164.16
  L 395.08 1164.16
  A 1.02 1.00 17.2 0 0 394.25 1164.59
  Z
  M 438.27 1164.70
  Q 437.68 1164.57 437.15 1164.74
  Q 436.98 1164.55 436.79 1164.56
  A 0.24 0.23 75.4 0 0 436.59 1164.91
  Q 436.76 1165.22 437.16 1165.28
  Q 437.73 1166.20 438.63 1166.63
  Q 438.71 1167.65 439.80 1168.70
  C 447.62 1176.25 457.64 1186.99 466.91 1195.87
  Q 478.72 1207.19 488.68 1217.93
  C 493.77 1223.42 500.56 1229.14 504.93 1234.44
  A 5.90 5.86 -3.7 0 0 506.44 1235.76
  Q 507.27 1236.26 508.29 1237.29
  A 0.53 0.53 0.0 0 0 509.19 1237.00
  Q 509.92 1232.50 509.89 1227.50
  Q 509.68 1196.65 509.70 1165.17
  A 1.03 1.03 0.0 0 0 508.67 1164.14
  Q 471.27 1164.10 441.25 1164.23
  Q 440.13 1164.23 438.27 1164.70
  Z
  M 602.03 1166.03
  Q 602.75 1165.68 602.93 1165.01
  Q 603.08 1164.47 602.63 1164.17
  A 0.24 0.23 60.6 0 0 602.50 1164.13
  L 532.61 1164.13
  A 0.55 0.55 0.0 0 0 532.06 1164.68
  L 532.06 1236.00
  A 1.17 1.17 0.0 0 0 534.08 1236.80
  Q 542.32 1227.99 543.20 1226.95
  Q 543.28 1226.86 576.46 1192.46
  Q 582.46 1186.25 601.00 1168.00
  Q 601.82 1167.19 602.03 1166.03
  Z
  M 643.62 1372.63
  Q 643.91 1369.39 643.47 1366.04
  Q 642.75 1360.61 642.91 1360.40
  Q 643.07 1360.18 641.89 1348.29
  Q 640.01 1329.18 637.63 1303.52
  Q 631.87 1241.40 631.54 1237.02
  Q 630.48 1223.17 628.97 1209.85
  C 627.50 1196.95 626.77 1186.05 625.59 1174.39
  A 1.22 1.22 0.0 0 0 623.58 1173.60
  Q 617.00 1179.30 609.16 1187.68
  C 599.27 1198.24 588.33 1208.63 579.40 1218.22
  Q 569.97 1228.34 563.77 1234.46
  Q 563.46 1234.77 540.87 1257.65
  C 539.30 1259.24 537.63 1261.59 535.57 1263.16
  A 1.49 1.48 -41.2 0 0 535.42 1265.39
  L 642.91 1372.88
  A 0.42 0.41 25.3 0 0 643.62 1372.63
  Z"
/>
<g fill="#010101">
<path d="
  M 533.91 1293.25
  Q 536.94 1294.90 539.50 1297.50
  Q 549.01 1307.17 558.64 1316.62
  C 568.09 1325.89 577.37 1335.37 586.81 1344.70
  Q 631.16 1388.56 634.53 1391.89
  A 0.98 0.97 62.5 0 1 634.01 1393.55
  C 629.11 1394.36 624.50 1398.91 624.80 1404.25
  C 625.10 1409.61 628.42 1414.16 633.73 1414.15
  Q 658.99 1414.12 675.92 1414.18
  C 678.37 1414.19 680.60 1413.51 682.09 1411.73
  Q 687.32 1405.50 683.56 1397.63
  Q 682.32 1395.03 678.90 1393.53
  C 676.42 1392.45 672.19 1393.03 670.06 1392.87
  A 0.86 0.86 0.0 0 1 669.31 1392.26
  Q 668.23 1388.52 668.20 1388.01
  Q 667.82 1379.10 666.49 1371.21
  C 665.88 1367.60 666.07 1364.37 665.79 1361.30
  Q 665.07 1353.48 662.89 1332.08
  C 662.74 1330.62 662.18 1329.13 662.11 1327.82
  Q 661.48 1316.57 660.68 1310.01
  Q 660.37 1307.54 660.37 1307.51
  Q 659.89 1300.50 658.34 1287.80
  C 657.95 1284.54 658.13 1280.45 657.78 1276.93
  Q 656.47 1263.53 655.36 1249.41
  C 655.06 1245.60 654.08 1241.83 653.92 1238.75
  C 653.54 1231.46 653.37 1227.64 652.53 1221.86
  Q 651.88 1217.36 651.78 1215.53
  Q 651.77 1215.27 650.57 1202.11
  Q 647.88 1172.50 647.25 1168.00
  Q 647.07 1166.70 647.33 1164.81
  A 0.76 0.75 3.4 0 1 648.08 1164.15
  L 683.83 1164.15
  A 1.74 1.73 -3.8 0 1 685.55 1165.65
  L 715.48 1392.26
  A 0.56 0.56 0.0 0 1 714.99 1392.89
  C 712.78 1393.19 708.63 1393.56 706.61 1394.67
  C 700.12 1398.22 700.16 1409.07 706.17 1413.06
  Q 707.88 1414.20 712.48 1414.18
  Q 732.74 1414.11 750.48 1414.15
  C 758.19 1414.17 761.33 1406.72 759.74 1400.03
  C 758.47 1394.72 752.85 1392.76 747.73 1392.85
  Q 746.26 1392.88 739.72 1392.86
  A 1.25 1.24 -6.0 0 1 738.50 1391.88
  Q 737.40 1386.60 736.60 1378.48
  Q 735.94 1371.76 735.02 1365.10
  Q 734.35 1360.22 731.02 1335.75
  C 730.69 1333.35 729.90 1331.58 730.03 1329.59
  Q 730.11 1328.38 729.64 1324.94
  Q 727.45 1308.90 724.69 1287.76
  Q 724.04 1282.77 724.04 1282.76
  Q 722.93 1271.71 718.88 1242.32
  Q 718.00 1235.90 717.59 1231.65
  Q 717.18 1227.45 716.11 1220.99
  Q 715.12 1215.07 711.02 1181.51
  C 710.79 1179.58 710.25 1177.66 710.05 1175.89
  Q 708.46 1161.52 706.28 1145.95
  Q 705.18 1138.08 704.91 1136.16
  Q 704.46 1132.98 703.79 1126.33
  C 703.34 1121.90 702.19 1117.17 701.85 1112.67
  Q 701.34 1105.93 700.60 1102.39
  Q 700.10 1100.03 700.05 1098.89
  Q 699.95 1096.73 699.93 1096.63
  Q 699.07 1091.78 698.17 1083.49
  C 697.53 1077.46 696.43 1070.56 695.93 1064.78
  Q 695.60 1060.91 694.98 1057.37
  Q 693.99 1051.68 693.84 1050.00
  Q 693.39 1045.01 691.37 1031.38
  C 690.02 1022.32 688.41 1005.39 686.55 995.37
  Q 686.19 993.40 686.02 991.30
  Q 685.70 987.25 685.70 987.21
  Q 685.13 983.09 685.11 982.60
  C 684.98 979.85 684.14 978.03 684.13 975.27
  Q 684.13 973.55 683.52 969.78
  Q 681.96 960.07 681.04 951.08
  C 680.77 948.44 680.15 946.41 680.18 944.30
  Q 680.22 942.52 679.80 939.19
  Q 675.51 905.13 674.68 897.55
  A 1.41 1.40 86.7 0 1 676.06 895.99
  Q 693.52 895.87 718.62 895.87
  Q 724.87 895.87 727.68 891.11
  Q 729.26 888.43 729.21 882.13
  Q 728.97 852.20 729.46 827.50
  Q 729.57 822.20 726.16 818.68
  C 723.55 815.98 719.38 816.57 715.95 816.70
  A 1.71 1.71 0.0 0 1 714.18 814.99
  L 714.18 662.74
  A 1.25 1.25 0.0 0 1 715.55 661.50
  C 718.03 661.74 720.88 661.51 723.20 661.30
  C 729.60 660.73 730.97 653.16 729.89 648.04
  Q 729.02 643.93 725.42 642.07
  Q 701.01 629.42 676.13 615.09
  Q 660.42 606.04 647.73 599.00
  Q 642.29 595.99 637.53 593.30
  Q 623.94 585.64 585.68 563.98
  A 1.95 1.93 5.4 0 1 584.81 562.94
  Q 581.19 552.33 577.69 541.30
  C 572.66 525.45 569.76 517.78 564.36 502.14
  Q 563.25 498.93 561.86 495.91
  A 1.57 1.56 -35.6 0 1 562.15 494.18
  C 565.60 490.56 569.66 487.64 573.35 484.05
  C 586.44 471.31 597.42 460.04 608.03 447.13
  Q 615.52 438.03 617.58 435.35
  Q 624.00 427.02 634.06 411.31
  Q 635.82 408.57 644.47 393.17
  C 655.60 373.33 664.20 351.83 670.31 330.32
  Q 679.01 299.69 679.99 268.52
  Q 680.46 253.33 677.47 239.30
  C 675.91 232.02 671.53 222.94 664.48 220.31
  C 656.24 217.23 644.96 219.51 636.88 222.41
  Q 616.10 229.88 596.83 241.84
  Q 567.94 259.77 544.24 278.48
  Q 527.90 291.39 509.54 306.58
  A 2.44 2.43 -44.9 0 1 506.43 306.58
  C 493.27 295.61 484.00 288.54 471.81 278.61
  Q 461.61 270.29 445.41 258.03
  C 441.34 254.95 436.65 252.03 432.98 250.09
  C 421.74 244.15 412.98 247.11 404.07 254.89
  Q 399.50 258.88 396.19 263.15
  Q 393.18 267.03 392.76 272.39
  C 392.45 276.39 392.60 280.77 394.38 284.63
  Q 397.80 292.06 402.09 297.40
  Q 412.76 310.70 412.81 310.76
  Q 428.10 328.43 444.59 344.13
  C 448.43 347.78 452.27 350.73 455.81 354.48
  A 1.10 1.09 24.3 0 1 456.12 355.29
  L 456.10 355.88
  C 455.32 354.68 453.96 354.03 453.01 352.97
  Q 451.84 351.66 449.99 350.00
  Q 428.43 330.69 410.34 309.16
  Q 402.59 299.94 395.48 289.18
  A 1.82 1.56 22.1 0 1 395.33 288.89
  L 392.43 282.02
  A 3.15 3.12 29.4 0 1 392.20 281.21
  Q 391.39 275.54 392.13 270.53
  Q 392.88 265.37 396.21 261.46
  Q 399.27 257.87 404.55 253.24
  C 414.19 244.80 423.49 243.69 434.64 250.16
  C 437.57 251.86 440.24 253.21 442.79 255.09
  Q 459.57 267.48 473.56 278.77
  Q 497.49 298.09 498.01 298.49
  Q 502.14 301.70 507.11 306.15
  A 1.25 1.25 0.0 0 0 508.76 306.16
  Q 518.68 297.54 533.10 286.12
  Q 540.20 280.50 547.30 274.86
  Q 551.92 271.19 554.46 269.49
  C 557.82 267.23 560.87 264.51 563.99 262.34
  Q 579.60 251.49 595.21 241.71
  Q 612.36 230.97 630.81 223.59
  C 640.58 219.68 651.47 216.34 661.90 218.50
  C 668.85 219.94 674.03 226.05 676.46 232.57
  Q 678.55 238.17 679.48 244.82
  Q 681.52 259.25 680.66 272.25
  Q 680.46 275.30 680.08 281.91
  C 679.73 288.06 678.90 292.85 677.69 301.17
  Q 676.88 306.74 676.04 310.80
  Q 668.63 346.57 653.03 378.80
  Q 639.03 407.72 619.98 433.75
  Q 618.42 435.89 609.97 446.22
  C 597.77 461.13 584.49 474.65 569.42 488.67
  Q 565.45 492.37 562.72 494.47
  A 0.72 0.71 61.0 0 0 562.49 495.28
  Q 575.16 528.20 585.24 561.99
  A 2.02 2.01 6.7 0 0 586.17 563.16
  L 693.40 623.83
  A 1.14 0.78 55.5 0 0 693.66 623.93
  C 694.90 624.22 695.91 625.31 697.29 626.07
  Q 709.19 632.62 725.85 641.42
  Q 729.23 643.20 730.66 646.64
  A 2.93 2.68 32.1 0 1 730.87 647.40
  L 731.55 652.37
  A 0.45 0.42 43.2 0 1 731.56 652.53
  Q 730.84 658.88 725.06 661.92
  A 2.41 2.36 -58.2 0 1 723.96 662.19
  L 715.77 662.19
  A 0.61 0.60 90.0 0 0 715.17 662.80
  L 715.17 815.16
  A 0.76 0.76 0.0 0 0 715.93 815.92
  L 722.84 815.92
  A 2.99 2.97 61.0 0 1 724.43 816.38
  Q 730.07 819.87 730.17 825.52
  Q 730.40 839.79 730.26 880.71
  Q 730.24 888.59 728.67 891.15
  C 725.60 896.14 721.15 896.91 715.14 896.90
  Q 708.00 896.88 676.13 896.92
  A 0.54 0.53 86.7 0 0 675.60 897.52
  Q 676.55 905.91 678.44 919.87
  Q 679.73 929.38 680.19 935.51
  Q 680.40 938.37 680.82 940.32
  C 681.18 942.05 680.97 944.45 681.42 946.78
  Q 682.29 951.31 682.36 953.50
  Q 682.36 953.53 682.65 955.79
  Q 689.51 1008.57 691.98 1027.50
  Q 692.50 1031.44 692.71 1032.03
  A 3.84 3.73 -56.0 0 1 692.95 1033.36
  Q 692.94 1036.08 693.29 1037.34
  C 694.18 1040.60 693.76 1043.66 694.67 1046.85
  A 6.93 6.72 -54.0 0 1 694.92 1048.61
  Q 694.94 1051.70 695.54 1054.01
  C 696.21 1056.61 695.65 1059.36 696.58 1061.90
  A 1.57 0.87 -74.0 0 1 696.64 1062.16
  L 708.18 1153.63
  A 1.28 1.20 -61.5 0 0 708.25 1153.90
  C 709.27 1156.69 708.68 1160.32 709.65 1163.12
  C 710.26 1164.89 709.94 1167.94 710.37 1170.27
  Q 711.72 1177.52 712.11 1183.51
  C 712.26 1185.78 713.03 1187.99 713.06 1190.58
  Q 713.07 1191.53 713.35 1193.43
  Q 716.39 1213.89 720.08 1243.28
  Q 721.35 1253.36 721.45 1254.23
  Q 722.05 1259.39 722.58 1262.23
  C 723.04 1264.65 722.83 1266.91 723.43 1269.07
  C 724.24 1271.97 723.59 1274.12 724.38 1276.93
  C 725.20 1279.86 724.56 1283.15 725.48 1285.92
  C 726.26 1288.30 725.76 1290.77 726.53 1293.33
  C 727.27 1295.77 726.82 1299.02 727.59 1301.51
  C 728.20 1303.50 727.87 1305.59 728.29 1307.81
  Q 729.32 1313.28 730.11 1321.58
  Q 730.27 1323.24 730.66 1324.79
  C 731.26 1327.18 730.72 1329.41 731.59 1331.85
  C 732.12 1333.31 731.95 1335.10 732.22 1337.05
  Q 735.42 1359.87 736.00 1365.50
  Q 737.27 1377.90 739.29 1391.54
  A 0.57 0.56 85.9 0 0 739.85 1392.03
  L 751.89 1392.13
  A 2.09 1.95 -34.5 0 1 752.49 1392.22
  Q 762.23 1395.38 760.95 1405.80
  Q 760.35 1410.69 756.00 1413.62
  Q 753.56 1415.25 746.76 1415.25
  Q 719.42 1415.22 712.04 1415.19
  Q 702.79 1415.14 701.09 1406.71
  Q 700.91 1405.80 700.93 1403.24
  Q 700.94 1401.61 701.49 1399.81
  Q 703.47 1393.37 710.54 1392.72
  C 711.69 1392.62 712.55 1391.93 713.64 1392.45
  A 0.57 0.57 0.0 0 0 714.45 1391.87
  L 712.69 1376.89
  A 1.09 1.09 0.0 0 0 712.58 1376.51
  C 711.80 1375.04 712.09 1372.76 711.77 1370.93
  Q 710.59 1364.13 709.81 1356.22
  A 3.04 2.99 -60.4 0 0 709.57 1355.32
  C 708.70 1353.37 709.12 1350.30 708.69 1347.93
  Q 707.92 1343.69 706.92 1335.17
  Q 706.73 1333.55 706.18 1331.03
  C 705.77 1329.15 706.22 1327.07 705.54 1325.12
  C 704.73 1322.78 705.07 1319.98 704.65 1317.29
  Q 702.28 1302.17 700.03 1284.00
  Q 697.87 1266.58 695.42 1249.78
  C 695.00 1246.92 695.08 1244.55 694.28 1242.07
  A 1.91 1.70 -60.2 0 1 694.21 1241.74
  L 692.79 1228.21
  A 2.20 1.70 -64.1 0 0 692.73 1227.92
  C 692.37 1226.80 692.01 1225.81 692.05 1224.69
  C 692.18 1221.04 690.96 1218.07 690.99 1214.76
  Q 691.01 1212.05 690.34 1210.28
  A 4.04 3.99 35.5 0 1 690.07 1208.73
  Q 690.17 1205.49 689.28 1202.30
  A 6.32 6.03 -54.0 0 1 689.06 1200.66
  Q 689.03 1197.31 688.84 1196.68
  Q 687.93 1193.71 687.97 1191.92
  C 688.03 1189.16 687.14 1187.54 687.02 1184.59
  Q 686.91 1181.81 686.37 1179.83
  C 685.79 1177.70 686.18 1175.72 685.61 1173.47
  Q 684.80 1170.27 684.98 1165.98
  A 0.93 0.92 -88.8 0 0 684.06 1165.01
  L 648.92 1165.01
  A 0.89 0.89 0.0 0 0 648.03 1165.99
  L 650.30 1189.31
  A 1.42 1.33 -57.2 0 0 650.36 1189.64
  Q 650.86 1191.52 650.86 1192.00
  Q 650.85 1198.31 651.62 1202.30
  Q 652.04 1204.43 652.03 1207.22
  C 652.03 1210.53 653.18 1214.05 653.04 1216.98
  C 652.93 1219.14 653.75 1221.55 653.85 1223.43
  Q 654.24 1230.82 655.54 1242.51
  C 655.97 1246.41 655.93 1250.05 656.70 1253.77
  A 8.34 8.22 -51.7 0 1 656.88 1255.39
  Q 656.94 1260.57 657.79 1266.14
  A 13.02 12.17 -51.2 0 1 657.93 1268.02
  Q 657.94 1272.72 658.46 1275.51
  C 659.15 1279.17 658.53 1283.17 659.53 1286.17
  A 4.53 4.41 36.1 0 1 659.76 1287.52
  Q 659.86 1292.44 660.43 1295.47
  C 661.20 1299.60 660.76 1303.62 661.50 1307.41
  C 662.17 1310.78 661.67 1313.73 662.31 1316.95
  C 662.91 1320.00 662.96 1322.47 663.13 1325.49
  Q 663.19 1326.56 663.81 1331.08
  C 664.18 1333.80 663.94 1336.61 664.67 1339.49
  A 1.86 1.60 40.6 0 1 664.71 1339.75
  L 669.62 1391.48
  A 0.59 0.59 0.0 0 0 670.35 1391.99
  Q 670.36 1391.99 675.51 1392.06
  Q 679.29 1392.11 681.95 1394.19
  Q 684.47 1396.16 685.50 1399.98
  C 687.47 1407.31 684.09 1415.03 675.63 1415.20
  Q 671.06 1415.29 633.19 1415.15
  A 3.24 3.22 53.3 0 1 632.25 1415.01
  Q 626.78 1413.33 625.11 1409.11
  Q 621.05 1398.87 630.77 1393.71
  Q 632.14 1392.99 633.59 1393.12
  A 0.42 0.42 0.0 0 0 633.92 1392.40
  L 533.91 1293.25
  Z"
/>
<path d="
  M 455.72 356.48
  Q 456.09 357.15 455.60 357.60
  Q 447.75 364.87 441.10 371.85
  Q 420.45 393.52 402.16 416.40
  Q 383.56 439.67 367.81 465.80
  Q 361.06 477.02 355.48 489.48
  Q 351.78 497.78 351.17 502.88
  C 350.24 510.78 351.36 519.74 356.92 525.86
  C 358.28 527.36 361.47 530.26 363.75 531.47
  Q 375.95 537.88 386.11 539.90
  Q 406.32 543.92 426.02 542.02
  Q 438.01 540.86 446.97 538.39
  Q 451.25 537.20 457.27 535.56
  C 460.31 534.73 463.17 533.43 466.08 532.95
  A 0.55 0.55 0.0 0 1 466.68 533.31
  Q 466.83 533.76 466.54 534.08
  Q 465.99 533.81 465.49 533.96
  Q 451.62 538.16 446.29 539.51
  Q 426.13 544.63 402.60 543.05
  Q 398.28 542.76 396.95 542.43
  C 394.45 541.80 392.14 542.10 389.42 541.55
  Q 375.51 538.71 364.77 532.90
  C 361.31 531.03 356.57 527.56 354.29 523.76
  Q 351.14 518.53 350.17 513.27
  C 349.54 509.80 349.77 503.17 351.06 498.95
  Q 353.28 491.70 355.92 486.18
  Q 362.54 472.32 369.95 460.46
  Q 380.29 443.92 389.87 430.86
  Q 406.10 408.73 430.42 381.93
  Q 442.73 368.37 453.92 357.67
  Q 454.40 357.21 455.72 356.48
  Z"
/>
<path d="
  M 466.44 534.80
  Q 466.80 535.45 466.56 536.24
  Q 463.23 547.13 459.43 558.96
  Q 458.23 562.71 455.45 564.00
  Q 447.04 567.90 409.19 587.99
  Q 339.30 625.09 328.50 631.04
  Q 321.36 634.97 311.04 640.61
  Q 302.45 645.30 305.48 655.34
  C 307.53 662.13 314.19 661.75 320.04 661.39
  Q 321.86 661.27 322.51 661.72
  Q 323.00 662.05 323.00 664.25
  Q 322.88 727.81 322.99 811.75
  Q 322.99 813.89 322.63 816.01
  A 0.67 0.66 -85.8 0 1 321.99 816.57
  L 312.89 816.71
  A 3.90 3.49 -48.2 0 0 312.35 816.77
  Q 309.30 817.39 306.94 820.86
  Q 305.83 822.51 305.84 826.92
  Q 305.93 862.95 305.87 881.90
  Q 305.86 885.33 306.12 888.41
  A 3.47 3.28 33.9 0 0 306.32 889.29
  Q 308.59 895.77 316.24 895.78
  Q 326.26 895.79 359.74 895.88
  A 1.03 1.03 0.0 0 1 360.76 896.96
  Q 360.65 899.32 360.59 899.68
  Q 359.17 908.14 352.16 949.07
  C 351.84 950.97 351.72 953.63 351.33 955.89
  Q 348.12 974.55 344.37 998.92
  C 343.05 1007.54 341.27 1017.33 339.64 1027.24
  Q 324.50 1119.45 311.46 1196.40
  Q 309.65 1207.13 308.11 1217.10
  C 306.72 1226.12 304.94 1235.27 303.45 1244.68
  Q 292.74 1312.05 282.34 1374.28
  Q 282.01 1376.27 281.93 1378.69
  Q 281.93 1378.71 281.93 1378.73
  L 279.43 1392.09
  A 0.60 0.58 -85.6 0 1 278.88 1392.57
  Q 273.55 1392.76 269.55 1392.93
  C 261.05 1393.28 257.98 1402.12 260.87 1408.96
  Q 262.05 1411.75 265.57 1413.43
  Q 267.20 1414.20 271.94 1414.17
  Q 289.36 1414.05 308.50 1414.13
  Q 312.32 1414.14 314.72 1410.91
  Q 318.34 1406.03 316.23 1399.22
  C 314.50 1393.62 309.19 1392.41 303.93 1392.89
  A 0.96 0.96 0.0 0 1 302.90 1391.74
  Q 304.28 1384.87 306.07 1372.59
  C 308.38 1356.79 310.03 1347.95 312.87 1331.14
  Q 312.91 1330.94 313.36 1328.10
  Q 317.31 1303.24 320.50 1284.50
  Q 321.13 1280.79 321.31 1279.71
  Q 329.88 1225.20 336.47 1188.44
  C 336.87 1186.21 337.24 1182.44 337.73 1179.77
  Q 339.56 1169.71 343.83 1144.44
  Q 344.17 1142.46 345.39 1133.49
  Q 346.31 1126.69 347.15 1122.57
  Q 348.85 1114.14 349.23 1111.33
  Q 349.37 1110.31 353.04 1088.42
  Q 353.18 1087.58 353.13 1086.52
  C 353.02 1084.49 353.83 1082.59 354.00 1080.38
  Q 354.11 1078.84 354.68 1076.12
  Q 356.86 1065.72 358.54 1055.35
  Q 360.13 1045.56 360.98 1039.62
  Q 362.44 1029.49 363.42 1023.92
  Q 367.35 1001.69 369.16 989.52
  Q 370.32 981.66 374.32 958.66
  Q 376.44 946.43 379.09 927.75
  Q 379.39 925.65 381.32 913.92
  A 3.12 3.05 62.8 0 1 381.58 913.08
  Q 381.97 912.23 382.16 911.27
  A 0.41 0.41 0.0 0 1 382.82 911.04
  L 403.69 928.17
  A 3.03 3.03 0.0 0 1 404.77 930.94
  Q 402.99 943.52 401.86 950.29
  Q 400.32 959.53 399.04 969.76
  Q 397.39 982.97 396.43 989.44
  Q 396.01 992.24 395.78 993.98
  Q 394.30 1005.21 376.19 1129.28
  Q 374.74 1139.17 373.42 1147.45
  Q 371.62 1158.70 370.64 1165.59
  Q 368.27 1182.33 364.09 1208.25
  Q 362.48 1218.19 351.94 1288.73
  Q 348.95 1308.74 346.78 1322.10
  Q 346.20 1325.70 345.69 1329.99
  C 345.29 1333.47 344.55 1336.21 343.92 1340.42
  Q 337.15 1385.05 336.40 1389.69
  Q 335.63 1394.37 335.23 1396.24
  C 334.10 1401.50 332.63 1406.23 335.18 1410.18
  Q 337.76 1414.18 342.99 1414.16
  Q 374.41 1414.02 407.50 1414.16
  Q 409.91 1414.17 411.45 1412.69
  C 416.70 1407.59 417.11 1399.08 410.10 1395.24
  C 409.42 1394.87 408.39 1394.84 407.69 1394.07
  Q 409.13 1393.73 410.50 1394.51
  Q 417.29 1398.35 416.01 1406.23
  Q 415.12 1411.78 411.08 1414.06
  Q 408.98 1415.24 401.76 1415.24
  Q 345.35 1415.20 344.75 1415.20
  Q 340.74 1415.17 338.20 1414.18
  A 3.39 3.17 -13.3 0 1 337.36 1413.70
  Q 331.82 1409.45 333.13 1402.31
  Q 334.72 1393.60 335.76 1388.47
  A 5.61 5.37 53.3 0 0 335.86 1387.66
  C 335.93 1385.20 336.59 1383.02 336.85 1381.01
  Q 339.42 1361.64 342.97 1340.75
  Q 344.13 1333.88 346.13 1320.26
  Q 346.15 1320.15 349.42 1298.47
  Q 362.62 1210.90 363.06 1208.25
  Q 366.82 1185.62 370.10 1161.78
  Q 371.29 1153.18 372.39 1146.82
  Q 374.02 1137.39 374.17 1135.14
  C 374.31 1133.11 375.16 1130.84 375.08 1128.29
  A 4.11 4.05 53.3 0 1 375.28 1126.85
  C 375.96 1124.72 375.93 1122.79 376.23 1120.81
  Q 381.19 1087.96 385.99 1055.09
  C 386.36 1052.55 387.09 1050.27 387.05 1047.49
  A 5.02 4.89 53.4 0 1 387.26 1045.93
  Q 388.09 1043.14 388.08 1040.00
  A 4.93 4.37 54.1 0 1 388.17 1039.08
  Q 389.74 1030.58 390.82 1022.03
  Q 391.21 1018.91 391.58 1017.56
  C 392.14 1015.52 391.87 1013.68 392.30 1011.51
  Q 393.33 1006.28 394.03 999.73
  Q 394.21 998.08 394.66 996.08
  C 395.22 993.58 394.69 991.71 395.30 989.57
  Q 395.62 988.43 395.83 986.77
  Q 398.36 966.68 401.28 948.06
  Q 401.69 945.43 402.50 939.44
  Q 403.12 934.81 404.02 930.65
  A 1.86 1.84 25.2 0 0 403.34 928.79
  Q 389.24 917.78 384.84 913.62
  Q 384.77 913.56 383.73 912.28
  A 0.86 0.86 0.0 0 0 382.21 912.71
  C 381.92 914.76 382.17 916.52 381.54 918.23
  C 380.81 920.21 381.21 922.86 380.46 925.14
  Q 379.92 926.77 379.99 929.28
  A 6.98 6.81 -37.9 0 1 379.69 931.48
  C 378.87 934.14 378.97 936.29 378.56 938.71
  Q 376.59 950.35 375.40 957.21
  Q 373.36 968.96 371.53 980.71
  Q 371.36 981.80 371.25 982.11
  Q 371.01 982.81 371.04 983.51
  C 371.14 986.07 370.40 987.96 370.05 990.17
  Q 366.83 1010.55 363.88 1027.95
  C 363.64 1029.34 362.97 1030.70 363.09 1032.12
  Q 363.13 1032.65 362.92 1033.88
  Q 361.99 1039.15 355.94 1075.67
  Q 355.82 1076.40 355.26 1078.65
  C 354.88 1080.19 355.16 1082.26 354.58 1083.86
  C 353.68 1086.33 354.34 1089.20 353.35 1091.56
  C 352.80 1092.88 353.05 1094.97 352.73 1096.39
  Q 352.14 1098.97 350.96 1106.92
  C 350.65 1108.99 349.87 1111.14 349.90 1113.66
  A 1.66 1.12 60.6 0 1 349.88 1113.91
  L 345.79 1138.51
  A 0.67 0.65 -25.7 0 1 345.72 1138.70
  Q 345.24 1139.54 344.87 1143.24
  Q 344.57 1146.13 342.54 1157.72
  Q 339.90 1172.85 338.83 1180.07
  Q 338.70 1180.97 338.22 1182.61
  C 337.88 1183.79 338.04 1184.93 337.78 1186.45
  Q 330.40 1228.40 323.96 1268.75
  Q 323.16 1273.74 322.19 1278.35
  C 321.94 1279.54 322.11 1280.88 321.91 1281.97
  Q 320.38 1290.02 319.17 1298.02
  Q 318.74 1300.84 318.45 1301.95
  Q 317.90 1304.05 317.91 1305.90
  A 3.46 3.44 56.1 0 1 317.66 1307.19
  C 316.72 1309.45 317.37 1312.42 316.39 1314.66
  C 315.86 1315.86 316.05 1317.59 315.78 1319.10
  Q 314.71 1324.93 313.37 1332.80
  Q 313.29 1333.22 309.60 1356.67
  A 1.24 0.92 -36.7 0 1 309.54 1356.87
  C 308.75 1358.96 309.30 1360.94 308.56 1362.79
  C 307.87 1364.49 308.00 1367.01 307.67 1369.08
  Q 305.36 1383.49 303.86 1391.46
  A 0.52 0.52 0.0 0 0 304.37 1392.07
  Q 307.49 1392.06 308.28 1392.07
  C 312.12 1392.11 315.54 1394.68 316.88 1398.27
  Q 319.92 1406.43 314.86 1412.40
  Q 312.84 1414.78 308.76 1414.99
  Q 301.05 1415.37 270.72 1415.13
  Q 265.14 1415.09 261.82 1412.19
  A 3.43 3.34 6.9 0 1 261.07 1411.26
  Q 257.03 1404.05 260.54 1397.32
  Q 262.26 1394.03 266.82 1392.18
  A 1.41 1.39 33.9 0 1 267.34 1392.08
  L 277.97 1391.95
  A 0.79 0.79 0.0 0 0 278.75 1391.29
  Q 279.99 1384.14 280.12 1382.30
  C 280.24 1380.55 281.09 1378.78 281.01 1376.66
  Q 280.99 1375.88 281.25 1374.34
  Q 283.24 1362.90 288.49 1330.62
  Q 289.13 1326.70 292.79 1303.97
  Q 294.04 1296.21 295.33 1288.49
  Q 300.80 1255.69 302.32 1246.55
  Q 304.93 1230.91 308.18 1210.08
  C 309.63 1200.81 311.22 1193.07 312.36 1184.95
  Q 312.98 1180.54 313.98 1175.59
  Q 314.85 1171.24 315.50 1166.23
  Q 315.76 1164.20 318.94 1145.49
  Q 318.95 1145.47 319.19 1144.02
  Q 330.88 1074.55 331.60 1069.99
  Q 333.32 1059.08 341.86 1007.49
  Q 346.51 979.41 351.78 946.07
  Q 352.07 944.22 352.05 943.42
  C 352.01 942.20 352.56 941.17 352.74 939.98
  Q 355.96 918.99 360.07 897.83
  A 0.77 0.77 0.0 0 0 359.32 896.91
  L 313.71 896.91
  A 2.28 2.10 54.1 0 1 312.87 896.74
  Q 306.56 894.05 305.26 888.71
  Q 304.90 887.22 304.89 882.50
  Q 304.83 856.76 304.85 831.87
  Q 304.86 823.84 305.05 823.12
  Q 306.19 818.71 311.00 815.97
  A 0.68 0.68 0.0 0 1 311.32 815.89
  L 321.55 815.89
  A 0.60 0.60 0.0 0 0 322.15 815.29
  L 322.15 662.53
  A 0.47 0.47 0.0 0 0 321.64 662.06
  C 314.16 662.76 305.79 662.86 304.15 653.77
  Q 302.36 643.93 310.66 639.75
  Q 312.94 638.60 314.11 637.93
  Q 326.86 630.68 332.97 627.46
  Q 355.36 615.69 371.79 606.81
  Q 413.25 584.42 454.41 563.43
  Q 456.05 562.59 457.54 561.10
  A 1.81 1.77 77.2 0 0 457.94 560.45
  L 466.44 534.80
  Z"
/>
<path d="
  M 533.47 1292.80
  Q 532.99 1292.79 532.99 1293.25
  Q 533.02 1349.51 532.98 1391.42
  A 0.73 0.72 -2.5 0 0 533.77 1392.14
  Q 539.47 1391.64 543.52 1392.88
  A 3.79 3.59 -20.0 0 1 544.35 1393.24
  Q 550.01 1396.58 550.03 1403.42
  Q 550.06 1410.99 545.19 1413.87
  Q 542.64 1415.37 533.57 1415.34
  Q 509.40 1415.27 501.25 1415.30
  Q 500.52 1415.31 497.23 1414.99
  A 2.74 2.66 -26.6 0 1 496.22 1414.67
  Q 489.34 1410.87 490.11 1402.03
  C 490.52 1397.42 494.13 1392.29 499.23 1392.08
  Q 503.99 1391.87 507.88 1392.12
  A 0.60 0.60 0.0 0 0 508.52 1391.52
  Q 508.39 1348.14 508.50 1294.50
  Q 508.50 1293.61 508.76 1291.70
  Q 508.84 1291.14 508.59 1290.92
  Q 508.31 1290.66 507.78 1290.72
  Q 507.80 1290.48 508.23 1290.40
  A 0.53 0.53 0.0 0 1 508.77 1290.64
  Q 509.44 1291.67 509.49 1292.75
  Q 509.74 1298.97 509.71 1311.50
  Q 509.67 1336.61 509.70 1391.02
  A 1.88 1.88 0.0 0 1 507.77 1392.90
  Q 503.49 1392.77 499.33 1392.85
  C 495.35 1392.93 492.00 1397.00 491.31 1400.46
  Q 489.59 1408.93 495.69 1413.37
  A 4.61 4.53 -26.8 0 0 498.41 1414.24
  Q 510.71 1414.18 540.58 1414.28
  C 546.09 1414.30 549.24 1408.65 549.24 1403.74
  Q 549.23 1396.20 542.82 1393.58
  C 539.93 1392.40 536.28 1392.97 533.07 1392.80
  A 1.08 1.08 0.0 0 1 532.05 1391.72
  L 532.12 1292.88
  A 1.02 1.01 -2.5 0 1 533.05 1291.87
  Q 533.15 1291.86 533.47 1292.80
  Z"
/>
<path d="
  M 506.32 1292.15
  Q 505.32 1293.74 504.66 1294.41
  Q 457.02 1342.90 409.41 1391.44
  Q 408.75 1392.11 407.24 1393.03
  Q 408.07 1391.55 408.81 1390.80
  Q 456.45 1342.33 504.07 1293.85
  Q 505.07 1292.83 506.32 1292.15
  Z"
/>
</g>
<g stroke-width="0.70" fill="none" stroke-linecap="butt">
<path stroke="#173126" vector-effect="non-scaling-stroke" d="
  M 646.24 1145.03
  L 681.56 1145.03
  A 1.17 1.17 0.0 0 0 682.72 1143.70
  Q 677.40 1105.32 672.08 1062.99
  Q 670.92 1053.68 670.08 1048.50
  C 669.34 1043.87 668.99 1038.22 668.30 1033.03
  Q 666.74 1021.27 665.55 1011.38
  Q 664.56 1003.12 663.28 995.13
  C 662.97 993.22 663.21 991.05 662.92 989.51
  C 661.80 983.48 661.17 976.03 660.49 970.52
  Q 659.51 962.53 653.31 914.13
  C 653.11 912.60 652.28 911.90 652.13 910.49
  A 0.37 0.36 -22.8 0 0 651.53 910.25
  L 626.85 930.49
  A 2.02 2.00 -18.9 0 0 626.11 931.98
  Q 625.86 938.45 626.88 945.24
  Q 627.68 950.58 628.18 962.13
  C 628.24 963.44 628.65 965.56 628.82 966.57
  Q 629.32 969.65 630.06 983.85
  C 630.26 987.72 630.90 990.50 631.06 994.50
  Q 631.09 995.32 632.52 1010.25
  Q 633.91 1024.86 634.24 1029.98
  Q 634.33 1031.38 634.59 1032.63
  Q 634.97 1034.45 635.02 1035.25
  Q 635.48 1041.73 638.52 1074.51
  Q 640.02 1090.70 640.02 1092.52
  Q 640.02 1095.33 640.55 1098.41
  C 641.16 1101.95 640.86 1105.56 641.43 1109.19
  C 642.01 1112.95 641.82 1117.30 642.44 1121.38
  Q 643.92 1131.24 644.33 1140.64
  Q 644.42 1142.81 645.54 1144.64
  A 0.82 0.82 0.0 0 0 646.24 1145.03"
/>
<path stroke="#173126" vector-effect="non-scaling-stroke" d="
  M 507.74 1032.10
  Q 507.80 1032.54 508.23 1032.41
  A 2.18 2.16 81.5 0 0 509.75 1030.33
  Q 509.70 993.86 509.65 965.16
  A 0.95 0.94 -85.4 0 0 508.86 964.22
  Q 503.96 963.43 498.63 963.22
  Q 492.13 962.96 488.44 962.18
  Q 483.05 961.03 479.44 960.56
  Q 476.04 960.12 470.48 958.67
  Q 459.38 955.78 449.10 951.96
  Q 447.25 951.28 439.12 947.57
  Q 434.13 945.29 428.91 943.71"
/>
<path stroke="#173126" vector-effect="non-scaling-stroke" d="
  M 427.43 943.10
  Q 425.55 946.81 425.92 950.59
  A 2.43 2.42 -69.4 0 0 426.56 952.01
  Q 431.46 957.24 437.14 962.61
  C 445.78 970.79 454.63 980.30 464.91 990.20
  C 473.81 998.78 482.89 1008.21 493.11 1018.14
  Q 499.65 1024.51 505.96 1030.81
  Q 506.45 1031.31 507.03 1031.39"
/>
<path stroke="#173126" vector-effect="non-scaling-stroke" d="
  M 534.21 1023.77
  Q 534.83 1024.01 535.27 1023.57
  Q 542.13 1016.61 548.41 1009.99
  C 551.63 1006.59 554.34 1004.33 557.06 1001.29
  Q 559.84 998.18 563.36 994.60
  C 583.56 974.16 594.09 963.24 603.33 954.68
  A 2.94 2.93 -24.4 0 0 604.25 952.25
  L 603.61 945.51
  A 1.14 1.14 0.0 0 0 601.95 944.60
  Q 575.99 957.90 547.61 962.42
  C 543.87 963.01 538.18 962.81 534.96 964.02
  A 1.53 1.49 41.7 0 1 534.06 964.06
  Q 532.58 963.65 532.18 964.62
  A 0.84 0.68 61.0 0 0 532.13 964.90
  L 532.06 1025.27
  A 0.27 0.27 0.0 0 0 532.16 1025.48
  Q 532.80 1025.94 533.51 1024.25"
/>
<path stroke="#173126" vector-effect="non-scaling-stroke" d="
  M 423.52 975.53
  A 0.37 0.36 -56.3 0 0 422.90 975.66
  Q 421.83 978.80 421.44 981.64
  Q 420.22 990.53 418.73 999.24
  Q 417.79 1004.78 416.11 1016.83
  Q 414.94 1025.30 413.35 1035.27
  Q 409.76 1057.81 409.48 1059.95
  Q 407.45 1075.58 405.94 1083.99
  Q 404.95 1089.50 404.92 1089.76
  Q 404.86 1090.31 402.66 1105.08
  Q 398.83 1130.86 397.97 1136.64
  C 397.60 1139.14 396.83 1141.18 397.23 1143.81
  A 1.26 1.25 85.7 0 0 398.47 1144.88
  Q 399.16 1144.87 406.13 1144.82
  Q 408.32 1144.80 409.93 1143.18
  Q 470.84 1081.95 496.39 1056.40
  A 0.01 0.01 0.0 0 0 496.40 1056.39
  L 499.40 1054.01
  A 0.66 0.65 -37.0 0 0 499.53 1053.11
  L 498.01 1051.04
  A 1.06 0.85 85.1 0 0 497.83 1050.85
  Q 494.00 1047.49 490.40 1043.85
  Q 466.16 1019.34 442.36 995.40
  Q 431.44 984.43 423.52 975.53"
/>
<path stroke="#173126" vector-effect="non-scaling-stroke" d="
  M 604.81 980.48
  Q 602.87 981.64 601.99 982.50
  C 597.72 986.63 590.02 994.34 584.00 1000.83
  Q 580.13 1005.00 576.28 1008.77
  Q 575.17 1009.86 568.83 1016.33
  Q 560.71 1024.63 534.30 1051.21
  A 1.39 1.38 44.9 0 0 534.31 1053.17
  C 565.01 1083.70 590.95 1108.81 616.48 1135.28
  Q 617.44 1136.28 619.18 1136.76"
/>
<path stroke="#173126" vector-effect="non-scaling-stroke" d="
  M 620.32 1135.75
  Q 621.18 1136.13 621.19 1135.25
  C 621.25 1130.82 620.23 1125.35 619.90 1121.58
  Q 616.67 1085.26 615.05 1069.03
  Q 613.98 1058.34 613.07 1046.94
  Q 612.29 1037.19 611.09 1024.86
  Q 610.17 1015.43 609.89 1011.88
  C 609.14 1002.34 608.27 997.15 607.75 989.11
  Q 607.47 984.83 606.68 979.35
  A 0.49 0.49 0.0 0 0 605.93 979.01
  Q 605.38 979.36 605.29 979.98"
/>
<path stroke="#173126" vector-effect="non-scaling-stroke" d="
  M 472.58 1107.78
  Q 447.25 1133.31 446.17 1134.42
  C 441.46 1139.23 438.99 1141.24 437.47 1144.14
  A 0.67 0.67 0.0 0 0 438.07 1145.12
  Q 485.89 1144.79 508.53 1144.69
  Q 509.05 1144.69 509.41 1144.33
  Q 509.77 1143.97 509.76 1143.45
  Q 509.69 1120.81 509.65 1072.99
  A 0.67 0.67 0.0 0 0 508.67 1072.40
  C 505.78 1073.94 503.79 1076.42 499.02 1081.17
  Q 497.92 1082.26 472.58 1107.78"
/>
<path stroke="#173126" vector-effect="non-scaling-stroke" d="
  M 533.22 1079.49
  Q 532.87 1078.81 532.53 1078.94
  Q 532.07 1079.11 532.07 1079.61
  Q 532.09 1111.44 532.06 1141.89
  Q 532.06 1142.46 532.03 1142.97
  Q 531.90 1145.04 533.74 1145.02
  Q 550.97 1144.86 579.75 1145.11
  Q 590.66 1145.20 597.46 1144.81
  A 0.60 0.60 0.0 0 0 597.84 1143.77
  Q 597.63 1143.58 596.65 1142.53
  Q 584.83 1129.94 535.79 1080.96
  Q 534.82 1079.99 533.73 1080.13"
/>
<path stroke="#173126" vector-effect="non-scaling-stroke" d="
  M 394.25 1164.59
  Q 393.09 1166.24 393.13 1169.92
  C 393.16 1172.61 391.80 1178.09 390.95 1184.50
  C 389.96 1191.98 387.70 1202.97 386.46 1213.49
  Q 385.92 1218.12 385.37 1220.97
  C 384.27 1226.76 383.93 1231.76 382.89 1238.09
  Q 380.91 1250.21 379.08 1262.02
  Q 377.88 1269.78 377.31 1276.03
  Q 376.71 1282.52 375.67 1287.89
  Q 375.15 1290.52 373.70 1299.73
  Q 370.22 1321.84 364.22 1360.54
  C 363.85 1362.87 363.29 1364.43 363.14 1366.36
  Q 362.96 1368.78 362.84 1369.64
  Q 361.14 1381.70 359.38 1391.58
  A 1.16 1.16 0.0 0 0 360.52 1392.94
  Q 367.67 1392.99 375.97 1392.84
  Q 378.25 1392.80 379.38 1391.62
  C 386.70 1383.94 397.23 1373.84 404.15 1366.74
  Q 443.17 1326.63 495.86 1273.87
  Q 500.34 1269.38 505.27 1264.72
  A 1.34 1.33 46.0 0 0 505.30 1262.80
  L 407.50 1165.00
  A 2.87 2.87 0.0 0 0 405.47 1164.16
  L 395.08 1164.16
  A 1.02 1.00 17.2 0 0 394.25 1164.59"
/>
<path stroke="#173126" vector-effect="non-scaling-stroke" d="
  M 437.15 1164.74
  Q 436.98 1164.55 436.79 1164.56
  A 0.24 0.23 75.4 0 0 436.59 1164.91
  Q 436.76 1165.22 437.16 1165.28"
/>
<path stroke="#173126" vector-effect="non-scaling-stroke" d="
  M 438.63 1166.63
  Q 438.71 1167.65 439.80 1168.70
  C 447.62 1176.25 457.64 1186.99 466.91 1195.87
  Q 478.72 1207.19 488.68 1217.93
  C 493.77 1223.42 500.56 1229.14 504.93 1234.44
  A 5.90 5.86 -3.7 0 0 506.44 1235.76
  Q 507.27 1236.26 508.29 1237.29
  A 0.53 0.53 0.0 0 0 509.19 1237.00
  Q 509.92 1232.50 509.89 1227.50
  Q 509.68 1196.65 509.70 1165.17
  A 1.03 1.03 0.0 0 0 508.67 1164.14
  Q 471.27 1164.10 441.25 1164.23
  Q 440.13 1164.23 438.27 1164.70"
/>
<path stroke="#173126" vector-effect="non-scaling-stroke" d="
  M 602.93 1165.01
  Q 603.08 1164.47 602.63 1164.17
  A 0.24 0.23 60.6 0 0 602.50 1164.13
  L 532.61 1164.13
  A 0.55 0.55 0.0 0 0 532.06 1164.68
  L 532.06 1236.00
  A 1.17 1.17 0.0 0 0 534.08 1236.80
  Q 542.32 1227.99 543.20 1226.95
  Q 543.28 1226.86 576.46 1192.46
  Q 582.46 1186.25 601.00 1168.00
  Q 601.82 1167.19 602.03 1166.03"
/>
<path stroke="#173126" vector-effect="non-scaling-stroke" d="
  M 643.62 1372.63
  Q 643.91 1369.39 643.47 1366.04
  Q 642.75 1360.61 642.91 1360.40
  Q 643.07 1360.18 641.89 1348.29
  Q 640.01 1329.18 637.63 1303.52
  Q 631.87 1241.40 631.54 1237.02
  Q 630.48 1223.17 628.97 1209.85
  C 627.50 1196.95 626.77 1186.05 625.59 1174.39
  A 1.22 1.22 0.0 0 0 623.58 1173.60
  Q 617.00 1179.30 609.16 1187.68
  C 599.27 1198.24 588.33 1208.63 579.40 1218.22
  Q 569.97 1228.34 563.77 1234.46
  Q 563.46 1234.77 540.87 1257.65
  C 539.30 1259.24 537.63 1261.59 535.57 1263.16
  A 1.49 1.48 -41.2 0 0 535.42 1265.39
  L 642.91 1372.88
  A 0.42 0.41 25.3 0 0 643.62 1372.63"
/>
</g>
<g fill="#010101">
<path d="
  M 562.79 383.42
  A 0.70 0.69 -63.2 0 0 562.56 382.71
  Q 548.49 370.77 536.55 359.63
  C 530.06 353.58 523.25 347.84 516.76 340.68
  C 515.72 339.54 515.35 337.77 515.78 336.10
  C 517.33 330.10 518.26 325.88 517.01 320.28
  Q 516.59 318.42 517.53 316.69
  A 2.34 2.25 -6.3 0 1 518.08 316.03
  Q 524.29 310.84 536.22 300.98
  Q 574.70 269.18 613.42 246.92
  Q 622.10 241.93 633.87 236.87
  Q 643.84 232.59 651.40 231.20
  Q 658.80 229.85 661.63 236.34
  Q 662.38 238.06 662.24 244.76
  Q 662.12 250.45 659.93 259.73
  Q 655.53 278.42 646.48 296.73
  Q 623.15 343.93 588.74 384.49
  Q 566.42 410.80 544.42 431.68
  C 517.09 457.62 485.74 481.43 453.04 499.78
  Q 431.04 512.12 409.41 518.36
  Q 394.95 522.52 378.69 521.80
  Q 373.15 521.56 368.53 519.27
  C 360.43 515.26 361.08 506.76 364.30 499.31
  Q 371.15 483.51 382.03 466.52
  C 402.65 434.33 426.74 404.14 452.67 376.34
  C 456.32 372.43 461.52 367.46 466.00 363.02
  C 467.50 361.53 468.75 361.58 470.67 362.49
  Q 476.14 365.09 481.26 365.27
  A 3.89 3.88 -17.7 0 1 484.19 366.78
  Q 504.85 393.80 522.74 419.97
  A 0.37 0.37 0.0 0 0 523.26 420.06
  Q 544.44 404.96 562.30 384.54
  Q 562.59 384.20 562.79 383.42
  Z"
/>
<path d="
  M 645.54 1144.64
  Q 644.42 1142.81 644.33 1140.64
  Q 643.92 1131.24 642.44 1121.38
  C 641.82 1117.30 642.01 1112.95 641.43 1109.19
  C 640.86 1105.56 641.16 1101.95 640.55 1098.41
  Q 640.02 1095.33 640.02 1092.52
  Q 640.02 1090.70 638.52 1074.51
  Q 635.48 1041.73 635.02 1035.25
  Q 634.97 1034.45 634.59 1032.63
  Q 634.33 1031.38 634.24 1029.98
  Q 633.91 1024.86 632.52 1010.25
  Q 631.09 995.32 631.06 994.50
  C 630.90 990.50 630.26 987.72 630.06 983.85
  Q 629.32 969.65 628.82 966.57
  C 628.65 965.56 628.24 963.44 628.18 962.13
  Q 627.68 950.58 626.88 945.24
  Q 625.86 938.45 626.11 931.98
  A 2.02 2.00 -18.9 0 1 626.85 930.49
  L 651.53 910.25
  A 0.37 0.36 -22.8 0 1 652.13 910.49
  C 652.28 911.90 653.11 912.60 653.31 914.13
  Q 659.51 962.53 660.49 970.52
  C 661.17 976.03 661.80 983.48 662.92 989.51
  C 663.21 991.05 662.97 993.22 663.28 995.13
  Q 664.56 1003.12 665.55 1011.38
  Q 666.74 1021.27 668.30 1033.03
  C 668.99 1038.22 669.34 1043.87 670.08 1048.50
  Q 670.92 1053.68 672.08 1062.99
  Q 677.40 1105.32 682.72 1143.70
  A 1.17 1.17 0.0 0 1 681.56 1145.03
  L 646.24 1145.03
  A 0.82 0.82 0.0 0 1 645.54 1144.64
  Z
  M 681.81 1143.32
  Q 680.71 1137.75 680.41 1135.18
  Q 679.58 1128.01 678.99 1123.74
  C 678.58 1120.79 677.96 1118.61 677.90 1115.58
  A 4.57 4.41 -54.6 0 0 677.72 1114.39
  L 677.26 1112.83
  A 3.63 3.62 36.2 0 1 677.11 1111.87
  Q 677.03 1107.74 676.54 1105.95
  C 675.80 1103.24 676.26 1100.36 675.29 1097.66
  A 4.11 4.04 -54.6 0 1 675.05 1096.17
  Q 675.11 1093.25 674.45 1090.64
  C 673.84 1088.22 674.32 1085.81 673.71 1083.67
  C 672.79 1080.44 673.42 1076.85 672.33 1073.88
  A 4.14 4.13 35.5 0 1 672.07 1072.33
  C 672.16 1069.18 671.03 1066.72 671.04 1063.95
  Q 671.04 1061.25 670.54 1059.69
  C 669.73 1057.15 670.26 1054.17 669.45 1051.54
  C 668.80 1049.42 669.20 1047.32 668.61 1045.04
  C 667.85 1042.11 668.41 1038.71 667.63 1036.25
  C 666.74 1033.44 667.27 1030.68 666.46 1027.97
  C 665.73 1025.53 666.35 1023.14 665.66 1020.80
  C 664.65 1017.39 665.47 1013.96 664.36 1010.87
  C 663.78 1009.24 664.18 1006.97 663.73 1005.30
  Q 663.05 1002.84 663.01 1001.17
  C 662.93 998.23 661.85 996.11 661.98 993.57
  C 662.15 990.33 661.04 987.93 661.03 984.64
  Q 661.01 981.06 660.22 978.56
  A 1.11 0.90 39.1 0 1 660.17 978.32
  L 657.85 956.94
  A 4.57 4.08 -87.3 0 0 657.73 956.31
  L 657.10 953.86
  A 2.06 1.87 42.2 0 1 657.04 953.24
  Q 657.25 948.74 656.28 945.79
  A 0.10 0.08 38.0 0 0 656.27 945.75
  L 651.94 911.31
  A 0.29 0.28 -23.4 0 0 651.47 911.13
  L 631.85 927.60
  A 1.60 1.59 -78.9 0 1 631.57 927.79
  Q 628.85 929.21 627.31 931.24
  A 2.06 2.05 64.3 0 0 626.90 932.41
  Q 626.74 937.92 627.65 942.30
  A 4.79 4.64 -49.6 0 1 627.74 943.70
  Q 627.73 943.84 628.74 954.51
  C 629.07 958.09 628.86 960.87 629.50 964.06
  C 630.05 966.85 629.91 970.57 630.49 974.25
  C 631.34 979.72 630.99 985.00 631.70 989.14
  Q 632.02 991.01 631.97 993.38
  C 631.89 997.08 633.21 1000.57 632.96 1004.27
  Q 632.86 1005.77 633.55 1009.22
  Q 634.11 1012.03 634.05 1016.55
  C 634.03 1018.04 634.46 1019.51 634.76 1021.17
  A 7.75 7.60 40.6 0 1 634.89 1022.68
  Q 634.89 1027.19 635.37 1029.75
  C 636.23 1034.36 635.70 1039.55 636.73 1043.73
  A 9.19 9.04 -51.7 0 1 636.99 1046.13
  Q 636.86 1050.53 637.70 1053.79
  A 7.35 7.29 -50.5 0 1 637.92 1056.19
  Q 637.85 1057.05 638.53 1063.91
  Q 639.88 1077.50 640.22 1083.52
  Q 640.26 1084.25 640.71 1086.29
  A 6.38 6.29 -51.3 0 1 640.86 1087.75
  Q 640.80 1093.44 641.72 1097.93
  A 8.77 8.01 -53.7 0 1 641.89 1099.52
  Q 641.99 1104.65 642.47 1107.13
  C 643.23 1111.04 642.67 1115.22 643.66 1119.20
  A 7.46 7.16 -53.8 0 1 643.87 1120.77
  Q 643.98 1125.61 644.46 1128.91
  C 645.17 1133.85 644.78 1138.41 645.92 1143.46
  A 0.58 0.58 0.0 0 0 646.49 1143.92
  L 681.32 1143.92
  A 0.50 0.50 0.0 0 0 681.81 1143.32
  Z"
/>
<path d="
  M 427.43 943.10
  L 426.56 949.13
  A 3.24 3.23 -63.5 0 0 427.48 951.90
  Q 447.99 972.39 467.91 992.09
  Q 486.23 1010.21 504.41 1028.09
  Q 505.08 1028.74 507.03 1031.39
  Q 506.45 1031.31 505.96 1030.81
  Q 499.65 1024.51 493.11 1018.14
  C 482.89 1008.21 473.81 998.78 464.91 990.20
  C 454.63 980.30 445.78 970.79 437.14 962.61
  Q 431.46 957.24 426.56 952.01
  A 2.43 2.42 -69.4 0 1 425.92 950.59
  Q 425.55 946.81 427.43 943.10
  Z"
/>
<path d="
  M 507.74 1032.10
  Q 508.42 1032.08 508.43 1031.25
  Q 508.62 982.34 508.49 972.50
  Q 508.45 969.73 508.79 965.47
  A 0.80 0.80 0.0 0 0 508.02 964.60
  Q 493.39 964.15 482.45 962.21
  Q 454.28 957.22 428.91 943.71
  Q 434.13 945.29 439.12 947.57
  Q 447.25 951.28 449.10 951.96
  Q 459.38 955.78 470.48 958.67
  Q 476.04 960.12 479.44 960.56
  Q 483.05 961.03 488.44 962.18
  Q 492.13 962.96 498.63 963.22
  Q 503.96 963.43 508.86 964.22
  A 0.95 0.94 -85.4 0 1 509.65 965.16
  Q 509.70 993.86 509.75 1030.33
  A 2.18 2.16 81.5 0 1 508.23 1032.41
  Q 507.80 1032.54 507.74 1032.10
  Z"
/>
<path d="
  M 534.21 1023.77
  Q 535.68 1021.90 536.40 1021.15
  Q 563.28 993.47 566.97 989.72
  Q 591.10 965.25 602.52 953.97
  A 1.96 1.94 68.0 0 0 603.10 952.58
  L 603.10 946.35
  A 0.83 0.83 0.0 0 0 601.90 945.61
  Q 582.17 955.60 560.72 960.85
  Q 547.51 964.07 533.76 964.62
  A 0.78 0.78 0.0 0 0 533.01 965.40
  L 533.01 1024.00
  A 0.22 0.21 -61.8 0 0 533.04 1024.11
  Q 533.23 1024.39 533.51 1024.25
  Q 532.80 1025.94 532.16 1025.48
  A 0.27 0.27 0.0 0 1 532.06 1025.27
  L 532.13 964.90
  A 0.84 0.68 61.0 0 1 532.18 964.62
  Q 532.58 963.65 534.06 964.06
  A 1.53 1.49 41.7 0 0 534.96 964.02
  C 538.18 962.81 543.87 963.01 547.61 962.42
  Q 575.99 957.90 601.95 944.60
  A 1.14 1.14 0.0 0 1 603.61 945.51
  L 604.25 952.25
  A 2.94 2.93 -24.4 0 1 603.33 954.68
  C 594.09 963.24 583.56 974.16 563.36 994.60
  Q 559.84 998.18 557.06 1001.29
  C 554.34 1004.33 551.63 1006.59 548.41 1009.99
  Q 542.13 1016.61 535.27 1023.57
  Q 534.83 1024.01 534.21 1023.77
  Z"
/>
<path d="
  M 423.52 975.53
  Q 431.44 984.43 442.36 995.40
  Q 466.16 1019.34 490.40 1043.85
  Q 494.00 1047.49 497.83 1050.85
  A 1.06 0.85 85.1 0 1 498.01 1051.04
  L 499.53 1053.11
  A 0.66 0.65 -37.0 0 1 499.40 1054.01
  L 496.40 1056.39
  A 0.01 0.01 0.0 0 1 496.39 1056.40
  Q 470.84 1081.95 409.93 1143.18
  Q 408.32 1144.80 406.13 1144.82
  Q 399.16 1144.87 398.47 1144.88
  A 1.26 1.25 85.7 0 1 397.23 1143.81
  C 396.83 1141.18 397.60 1139.14 397.97 1136.64
  Q 398.83 1130.86 402.66 1105.08
  Q 404.86 1090.31 404.92 1089.76
  Q 404.95 1089.50 405.94 1083.99
  Q 407.45 1075.58 409.48 1059.95
  Q 409.76 1057.81 413.35 1035.27
  Q 414.94 1025.30 416.11 1016.83
  Q 417.79 1004.78 418.73 999.24
  Q 420.22 990.53 421.44 981.64
  Q 421.83 978.80 422.90 975.66
  A 0.37 0.36 -56.3 0 1 423.52 975.53
  Z
  M 423.02 977.12
  L 404.73 1098.99
  A 0.60 0.49 65.7 0 1 404.69 1099.14
  Q 403.94 1100.98 403.90 1104.06
  A 4.29 4.15 -36.0 0 1 403.67 1105.37
  C 402.78 1107.88 403.07 1111.12 402.50 1113.54
  Q 402.14 1115.09 400.50 1126.91
  Q 399.11 1136.88 397.80 1142.90
  A 0.82 0.81 -83.9 0 0 398.59 1143.89
  L 407.06 1143.89
  A 1.79 1.77 22.3 0 0 408.32 1143.37
  Q 437.96 1113.77 494.97 1056.48
  Q 495.83 1055.61 496.88 1054.93
  Q 498.10 1054.15 498.77 1053.42
  A 0.21 0.21 0.0 0 0 498.76 1053.13
  L 432.74 986.67
  A 2.57 1.97 73.2 0 0 432.49 986.45
  Q 431.05 985.39 430.86 985.14
  Q 428.36 981.90 423.67 976.92
  A 0.38 0.38 0.0 0 0 423.02 977.12
  Z"
/>
<path d="
  M 620.32 1135.75
  Q 620.25 1131.30 619.33 1126.98
  A 10.56 9.95 40.4 0 1 619.11 1124.97
  Q 619.06 1120.09 618.52 1117.37
  C 617.74 1113.42 618.36 1109.50 617.29 1105.64
  A 2.16 1.04 -84.8 0 1 617.24 1105.37
  L 614.77 1076.82
  A 0.54 0.47 40.9 0 0 614.75 1076.68
  C 614.35 1074.68 614.04 1073.37 614.06 1071.48
  Q 614.09 1068.24 613.74 1066.63
  C 612.77 1062.17 613.27 1057.30 612.45 1053.57
  C 611.68 1050.09 612.24 1046.12 611.33 1042.18
  A 8.95 8.77 39.2 0 1 611.11 1040.22
  Q 611.10 1034.15 610.50 1031.11
  C 609.69 1027.00 610.40 1022.58 609.33 1018.60
  A 8.42 8.16 39.1 0 1 609.05 1016.25
  Q 609.17 1011.71 608.56 1008.42
  C 607.73 1004.02 608.39 999.40 607.19 995.29
  A 0.64 0.54 -58.7 0 1 607.16 995.10
  L 606.94 988.96
  A 6.12 5.76 38.9 0 0 606.77 987.73
  Q 605.91 984.12 606.02 980.20
  A 0.33 0.32 -81.5 0 0 605.80 979.89
  Q 605.55 979.81 605.29 979.98
  Q 605.38 979.36 605.93 979.01
  A 0.49 0.49 0.0 0 1 606.68 979.35
  Q 607.47 984.83 607.75 989.11
  C 608.27 997.15 609.14 1002.34 609.89 1011.88
  Q 610.17 1015.43 611.09 1024.86
  Q 612.29 1037.19 613.07 1046.94
  Q 613.98 1058.34 615.05 1069.03
  Q 616.67 1085.26 619.90 1121.58
  C 620.23 1125.35 621.25 1130.82 621.19 1135.25
  Q 621.18 1136.13 620.32 1135.75
  Z"
/>
<path d="
  M 604.81 980.48
  L 534.98 1051.73
  A 0.57 0.57 0.0 0 0 534.98 1052.53
  L 619.18 1136.76
  Q 617.44 1136.28 616.48 1135.28
  C 590.95 1108.81 565.01 1083.70 534.31 1053.17
  A 1.39 1.38 44.9 0 1 534.30 1051.21
  Q 560.71 1024.63 568.83 1016.33
  Q 575.17 1009.86 576.28 1008.77
  Q 580.13 1005.00 584.00 1000.83
  C 590.02 994.34 597.72 986.63 601.99 982.50
  Q 602.87 981.64 604.81 980.48
  Z"
/>
<path d="
  M 509.41 1144.33
  Q 509.05 1144.69 508.53 1144.69
  Q 485.89 1144.79 438.07 1145.12
  A 0.67 0.67 0.0 0 1 437.47 1144.14
  C 438.99 1141.24 441.46 1139.23 446.17 1134.42
  Q 447.25 1133.31 472.58 1107.78
  Q 497.92 1082.26 499.02 1081.17
  C 503.79 1076.42 505.78 1073.94 508.67 1072.40
  A 0.67 0.67 0.0 0 1 509.65 1072.99
  Q 509.69 1120.81 509.76 1143.45
  Q 509.77 1143.97 509.41 1144.33
  Z
  M 508.27 1143.90
  A 0.31 0.31 0.0 0 0 508.58 1143.59
  L 508.58 1073.43
  A 0.31 0.31 0.0 0 0 508.05 1073.21
  L 438.51 1143.37
  A 0.31 0.31 0.0 0 0 438.73 1143.90
  L 508.27 1143.90
  Z"
/>
<path d="
  M 533.22 1079.49
  L 532.98 1143.28
  A 0.62 0.62 0.0 0 0 533.60 1143.90
  L 596.65 1143.90
  A 0.22 0.22 0.0 0 0 596.81 1143.52
  L 533.73 1080.13
  Q 534.82 1079.99 535.79 1080.96
  Q 584.83 1129.94 596.65 1142.53
  Q 597.63 1143.58 597.84 1143.77
  A 0.60 0.60 0.0 0 1 597.46 1144.81
  Q 590.66 1145.20 579.75 1145.11
  Q 550.97 1144.86 533.74 1145.02
  Q 531.90 1145.04 532.03 1142.97
  Q 532.06 1142.46 532.06 1141.89
  Q 532.09 1111.44 532.07 1079.61
  Q 532.07 1079.11 532.53 1078.94
  Q 532.87 1078.81 533.22 1079.49
  Z"
/>
<path d="
  M 395.08 1164.16
  L 405.47 1164.16
  A 2.87 2.87 0.0 0 1 407.50 1165.00
  L 505.30 1262.80
  A 1.34 1.33 46.0 0 1 505.27 1264.72
  Q 500.34 1269.38 495.86 1273.87
  Q 443.17 1326.63 404.15 1366.74
  C 397.23 1373.84 386.70 1383.94 379.38 1391.62
  Q 378.25 1392.80 375.97 1392.84
  Q 367.67 1392.99 360.52 1392.94
  A 1.16 1.16 0.0 0 1 359.38 1391.58
  Q 361.14 1381.70 362.84 1369.64
  Q 362.96 1368.78 363.14 1366.36
  C 363.29 1364.43 363.85 1362.87 364.22 1360.54
  Q 370.22 1321.84 373.70 1299.73
  Q 375.15 1290.52 375.67 1287.89
  Q 376.71 1282.52 377.31 1276.03
  Q 377.88 1269.78 379.08 1262.02
  Q 380.91 1250.21 382.89 1238.09
  C 383.93 1231.76 384.27 1226.76 385.37 1220.97
  Q 385.92 1218.12 386.46 1213.49
  C 387.70 1202.97 389.96 1191.98 390.95 1184.50
  C 391.80 1178.09 393.16 1172.61 393.13 1169.92
  Q 393.09 1166.24 394.25 1164.59
  A 1.02 1.00 17.2 0 1 395.08 1164.16
  Z
  M 504.69 1263.11
  Q 465.60 1224.23 424.08 1182.66
  Q 416.69 1175.26 410.29 1169.32
  C 408.82 1167.95 407.74 1165.97 405.60 1165.06
  A 0.65 0.65 0.0 0 0 405.35 1165.01
  L 395.92 1165.01
  A 1.60 1.60 0.0 0 0 394.32 1166.57
  Q 394.20 1171.19 393.71 1173.73
  Q 392.66 1179.19 392.26 1182.56
  Q 391.72 1186.99 390.97 1191.43
  Q 387.92 1209.48 387.68 1212.47
  Q 387.67 1212.66 387.22 1214.17
  C 386.74 1215.82 387.17 1217.74 386.72 1219.34
  Q 385.98 1221.94 385.98 1222.72
  C 385.96 1225.68 384.88 1227.66 384.95 1230.48
  Q 385.00 1232.13 384.42 1234.69
  Q 384.25 1235.41 383.73 1238.84
  Q 382.94 1244.15 381.82 1251.35
  C 381.57 1252.96 380.87 1254.77 380.99 1256.45
  Q 381.09 1257.93 380.39 1260.26
  C 379.75 1262.42 380.08 1264.51 379.46 1266.91
  Q 378.77 1269.58 378.90 1272.61
  A 3.65 3.60 -36.5 0 1 378.68 1274.01
  Q 377.92 1275.98 377.97 1278.75
  Q 377.99 1280.02 377.48 1282.96
  Q 374.93 1297.77 374.86 1299.08
  C 374.77 1300.57 373.90 1302.24 374.00 1304.22
  C 374.12 1306.44 372.92 1308.49 372.99 1310.86
  Q 373.03 1312.09 372.71 1313.65
  Q 371.12 1321.41 369.84 1331.19
  A 3.45 3.24 59.2 0 1 369.69 1331.87
  Q 368.94 1334.09 368.94 1336.19
  C 368.94 1338.47 368.25 1339.84 367.99 1342.50
  Q 367.73 1345.14 365.24 1359.77
  C 364.94 1361.53 365.10 1363.31 364.47 1364.70
  C 363.54 1366.74 364.33 1370.01 363.44 1372.31
  C 362.66 1374.32 363.26 1376.35 362.75 1378.30
  Q 362.23 1380.27 362.08 1381.39
  Q 361.44 1385.93 360.19 1391.61
  A 0.34 0.34 0.0 0 0 360.52 1392.02
  L 376.99 1392.02
  A 1.03 1.01 -67.2 0 0 377.71 1391.72
  L 504.69 1263.64
  A 0.38 0.37 -45.6 0 0 504.69 1263.11
  Z"
/>
<path d="
  M 438.63 1166.63
  Q 443.63 1171.22 448.36 1176.06
  C 457.85 1185.73 467.23 1194.66 476.77 1204.39
  Q 495.29 1223.29 504.91 1232.92
  Q 504.95 1232.97 507.73 1236.38
  A 0.43 0.43 0.0 0 0 508.50 1236.11
  L 508.50 1165.48
  A 0.44 0.44 0.0 0 0 508.06 1165.04
  L 438.27 1164.70
  Q 440.13 1164.23 441.25 1164.23
  Q 471.27 1164.10 508.67 1164.14
  A 1.03 1.03 0.0 0 1 509.70 1165.17
  Q 509.68 1196.65 509.89 1227.50
  Q 509.92 1232.50 509.19 1237.00
  A 0.53 0.53 0.0 0 1 508.29 1237.29
  Q 507.27 1236.26 506.44 1235.76
  A 5.90 5.86 -3.7 0 1 504.93 1234.44
  C 500.56 1229.14 493.77 1223.42 488.68 1217.93
  Q 478.72 1207.19 466.91 1195.87
  C 457.64 1186.99 447.62 1176.25 439.80 1168.70
  Q 438.71 1167.65 438.63 1166.63
  Z"
/>
<path d="
  M 602.93 1165.01
  L 533.54 1165.02
  A 0.56 0.56 0.0 0 0 532.98 1165.58
  L 532.98 1235.98
  A 0.27 0.27 0.0 0 0 533.45 1236.16
  C 544.05 1224.45 556.58 1212.05 565.84 1202.25
  Q 581.66 1185.52 601.72 1165.98
  A 0.09 0.08 31.7 0 1 601.79 1165.97
  Q 601.91 1166.00 602.03 1166.03
  Q 601.82 1167.19 601.00 1168.00
  Q 582.46 1186.25 576.46 1192.46
  Q 543.28 1226.86 543.20 1226.95
  Q 542.32 1227.99 534.08 1236.80
  A 1.17 1.17 0.0 0 1 532.06 1236.00
  L 532.06 1164.68
  A 0.55 0.55 0.0 0 1 532.61 1164.13
  L 602.50 1164.13
  A 0.24 0.23 60.6 0 1 602.63 1164.17
  Q 603.08 1164.47 602.93 1165.01
  Z"
/>
<path d="
  M 437.15 1164.74
  L 437.16 1165.28
  Q 436.76 1165.22 436.59 1164.91
  A 0.24 0.23 75.4 0 1 436.79 1164.56
  Q 436.98 1164.55 437.15 1164.74
  Z"
/>
<path d="
  M 643.62 1372.63
  A 0.42 0.41 25.3 0 1 642.91 1372.88
  L 535.42 1265.39
  A 1.49 1.48 -41.2 0 1 535.57 1263.16
  C 537.63 1261.59 539.30 1259.24 540.87 1257.65
  Q 563.46 1234.77 563.77 1234.46
  Q 569.97 1228.34 579.40 1218.22
  C 588.33 1208.63 599.27 1198.24 609.16 1187.68
  Q 617.00 1179.30 623.58 1173.60
  A 1.22 1.22 0.0 0 1 625.59 1174.39
  C 626.77 1186.05 627.50 1196.95 628.97 1209.85
  Q 630.48 1223.17 631.54 1237.02
  Q 631.87 1241.40 637.63 1303.52
  Q 640.01 1329.18 641.89 1348.29
  Q 643.07 1360.18 642.91 1360.40
  Q 642.75 1360.61 643.47 1366.04
  Q 643.91 1369.39 643.62 1372.63
  Z
  M 536.09 1264.98
  L 640.39 1368.92
  A 0.78 0.72 16.4 0 1 640.55 1369.19
  Q 641.06 1370.75 642.61 1371.81
  A 0.27 0.27 0.0 0 0 643.03 1371.57
  Q 642.80 1367.56 642.51 1366.11
  C 641.67 1361.92 642.20 1357.49 641.29 1353.18
  A 8.62 8.19 -52.1 0 1 641.11 1351.35
  Q 641.14 1346.84 640.50 1344.21
  C 639.84 1341.46 640.14 1338.54 639.78 1336.00
  Q 638.45 1326.44 637.84 1316.93
  Q 637.77 1315.85 637.34 1313.96
  A 10.29 9.89 40.1 0 1 637.08 1311.52
  C 637.16 1306.47 636.16 1302.52 635.97 1297.37
  Q 635.82 1293.31 634.65 1284.24
  Q 634.07 1279.75 634.00 1276.73
  Q 633.88 1270.57 633.45 1269.18
  C 632.58 1266.33 633.20 1262.08 632.22 1258.43
  A 4.95 4.67 -53.2 0 1 632.05 1256.95
  Q 632.18 1252.77 631.56 1249.44
  C 630.89 1245.83 631.13 1242.43 630.45 1238.69
  C 629.69 1234.48 630.32 1231.12 629.41 1226.92
  C 628.80 1224.07 629.01 1221.60 628.61 1217.80
  C 627.85 1210.59 627.40 1203.05 626.29 1195.49
  Q 626.11 1194.27 626.06 1192.48
  C 625.90 1186.12 624.91 1181.55 624.87 1174.66
  A 0.69 0.69 0.0 0 0 623.69 1174.18
  L 536.08 1263.84
  A 0.81 0.81 0.0 0 0 536.09 1264.98
  Z"
/>
</g>
<g fill="#386b55">
<path d="
  M 481.95 566.20
  Q 482.50 561.63 484.22 555.69
  Q 487.80 543.27 493.78 528.03
  A 1.37 1.36 -78.6 0 1 495.08 527.16
  Q 499.02 527.23 502.46 526.47
  Q 514.78 523.73 524.48 518.27
  Q 533.04 513.44 538.66 509.83
  A 1.11 1.11 0.0 0 1 540.30 510.35
  Q 542.01 514.68 551.16 538.69
  C 553.00 543.53 553.79 547.40 555.48 554.01
  Q 557.04 560.06 557.20 566.43
  A 0.62 0.61 89.5 0 1 556.59 567.06
  L 482.71 567.06
  A 0.77 0.77 0.0 0 1 481.95 566.20
  Z"
/>
<path d="
  M 359.52 641.30
  A 0.52 0.51 -56.1 0 1 359.33 640.31
  Q 361.28 639.50 363.07 638.58
  Q 404.15 617.43 449.39 592.64
  C 457.14 588.39 462.44 588.69 473.07 588.66
  Q 506.04 588.59 576.65 588.79
  Q 582.86 588.80 588.37 592.00
  Q 607.18 602.89 615.28 607.16
  C 623.93 611.73 634.56 618.62 641.82 622.45
  Q 666.47 635.42 669.61 637.13
  Q 671.43 638.12 674.28 640.14
  A 0.64 0.64 0.0 0 1 673.91 641.30
  L 359.52 641.30
  Z"
/>
<rect x="349.48" y="666.98" width="340.50" height="148.82" rx="1.13"/>
<rect x="-21.52" y="-17.59" transform="translate(352.57,857.70) rotate(-0.1)" width="43.04" height="35.18" rx="1.22"/>
<rect x="398.94" y="840.05" width="111.66" height="35.00" rx="1.18"/>
<rect x="533.49" y="840.08" width="105.58" height="34.96" rx="1.33"/>
<rect x="-22.92" y="-17.45" transform="translate(687.92,857.60) rotate(-0.1)" width="45.84" height="34.90" rx="1.37"/>
<path d="
  M 406.13 900.18
  A 0.69 0.68 64.2 0 1 406.55 898.96
  L 509.74 898.96
  A 0.93 0.93 0.0 0 1 510.67 899.89
  L 510.67 940.61
  A 0.74 0.73 -89.2 0 1 509.92 941.35
  C 500.65 941.11 493.51 940.13 484.06 938.39
  Q 455.13 933.06 430.06 917.18
  Q 417.33 909.11 406.13 900.18
  Z"
/>
<path d="
  M 629.24 898.95
  A 0.41 0.41 0.0 0 1 629.50 899.67
  Q 621.68 906.10 615.56 910.55
  Q 596.41 924.51 573.70 932.46
  C 564.19 935.79 555.11 937.50 544.48 939.71
  Q 539.58 940.73 534.30 940.88
  A 0.70 0.70 0.0 0 1 533.58 940.18
  L 533.58 899.89
  A 0.94 0.94 0.0 0 1 534.52 898.95
  L 629.24 898.95
  Z"
/>
</g>
<path fill="#dee0b4" d="
  M 522.38 421.03
  A 0.68 0.67 -35.2 0 0 523.33 421.19
  Q 540.89 408.76 555.46 393.22
  Q 560.48 387.87 564.52 383.67
  A 0.42 0.41 42.7 0 0 564.49 383.07
  Q 548.52 369.38 525.50 348.11
  Q 520.45 343.44 518.51 341.10
  C 516.96 339.23 516.22 338.41 516.91 336.03
  C 518.46 330.70 519.23 326.42 518.12 320.71
  Q 517.79 319.04 518.36 317.45
  A 2.17 2.16 -10.1 0 1 519.02 316.51
  Q 532.25 305.50 535.66 302.67
  Q 565.26 278.11 599.24 256.49
  Q 618.32 244.35 637.76 236.52
  Q 644.40 233.85 652.26 232.38
  Q 657.57 231.40 659.88 235.24
  C 661.45 237.85 660.90 246.03 660.62 248.73
  Q 659.50 259.81 653.82 276.36
  Q 649.13 289.99 638.95 308.97
  Q 624.90 335.16 607.84 358.35
  C 602.56 365.52 596.53 373.63 590.94 380.16
  Q 571.74 402.58 567.22 407.23
  Q 553.68 421.14 542.09 432.34
  Q 533.19 440.94 515.14 455.87
  Q 490.39 476.34 459.86 494.60
  Q 437.32 508.08 413.49 515.97
  Q 400.50 520.27 386.04 520.92
  Q 376.61 521.34 369.70 518.55
  C 360.89 514.99 362.80 505.34 365.92 498.32
  Q 370.09 488.96 371.20 486.94
  Q 384.37 463.08 401.09 440.31
  C 420.85 413.42 442.29 387.75 465.92 364.43
  Q 467.50 362.87 468.52 362.84
  A 1.99 1.97 -32.4 0 1 469.43 363.04
  Q 475.01 365.83 481.19 366.25
  Q 482.76 366.35 484.65 368.86
  Q 499.42 388.49 522.38 421.03
  Z"
/>
</svg>
